<svg height="97.89" viewBox="0 0 58.88 25.9" width="58.88mm" xmlns="http://www.w3.org/2000/svg"><g fill="#ff0d0d" stroke="#000" stroke-linecap="round" stroke-linejoin="round" stroke-width=".21"><path d="m0 0h59v26h-59z" fill="#fff" stroke="none"/><path d="m38.65 10.52v3.93"/><path d="m37.83 10.52v3.93"/><path d="m38.24 14.22 4.4 2.54"/><path d="m47.05 14.22-4.41 2.54"/><path d="m47.05 15.16-3.59 2.07"/><path d="m47.05 14.22 4.4 2.54"/><path d="m51.45 16.76 3.21-1.86"/><path d="m51.45 21.84v-5.08"/><path d="m50.64 21.37v-4.14"/><path d="m51.45 21.84 3.21 1.86"/><path d="m51.45 21.84-4.4 2.54"/><path d="m42.64 21.84 4.41 2.54"/><path d="m43.46 21.37 3.59 2.07"/><path d="m42.64 16.76v5.08"/><path d="m42.64 21.84-3.22 1.86"/><path d="m37.06 23.7-3.22-1.86"/><path d="m29.43 24.38 4.41-2.54"/><path d="m29.43 23.44 3.59-2.07"/><path d="m29.43 24.38-4.4-2.54"/><path d="m25.03 21.84-3.21 1.86"/><path d="m25.03 16.76v5.08"/><path d="m25.84 17.23v4.14"/><path d="m25.03 16.76-4.4-2.54"/><path d="m20.63 14.22-3.22 1.86"/><path d="m15.05 16.08-3.22-1.86"/><path d="m11.83 14.22-4.4 2.54"/><path d="m7.43 16.76-3.22-1.86"/><path d="m11.83 14.22v-5.08"/><path d="m11.83 9.14-3.22-1.86"/><path d="m11.83 9.14 4.4-2.54"/><path d="m16.23 6.6v-3.7"/><path d="m16.23 6.6 4.4 2.54"/><path d="m20.63 14.22v-5.08"/><path d="m20.63 9.14 3.22-1.86"/><path d="m25.03 16.76 4.4-2.54"/><path d="m29.43 14.22v-3.7"/><path d="m33.84 16.76-4.41-2.54"/><path d="m33.02 17.23-3.59-2.07"/><path d="m38.24 14.22-4.4 2.54"/><path d="m33.84 21.84v-5.08"/><g stroke="none"><path d="m38.24 8.38q-.27 0-.43.2-.16.2-.16.55 0 .35.16.55.16.2.43.2.27 0 .43-.2.16-.2.16-.55 0-.35-.16-.55-.16-.2-.43-.2zm0-.2q.39 0 .62.26.23.26.23.7 0 .44-.23.7-.23.26-.62.26-.39 0-.62-.26-.23-.26-.23-.7 0-.43.23-.7.23-.26.62-.26z"/><path d="m55.85 13.46q-.27 0-.43.2-.16.2-.16.55 0 .35.16.55.16.2.43.2.27 0 .43-.2.16-.2.16-.55 0-.35-.16-.55-.16-.2-.43-.2zm0-.2q.39 0 .62.26.23.26.23.7 0 .44-.23.7-.23.26-.62.26-.39 0-.62-.26-.23-.26-.23-.7 0-.43.23-.7.23-.26.62-.26z"/><path d="m56.91 13.29h.25v.76h.91v-.76h.25v1.85h-.25v-.88h-.91v.88h-.25z"/><path d="m55.85 23.63q-.27 0-.43.2-.16.2-.16.55 0 .35.16.55.16.2.43.2.27 0 .43-.2.16-.2.16-.55 0-.35-.16-.55-.16-.2-.43-.2zm0-.21q.39 0 .62.26.23.26.23.7 0 .44-.23.7-.23.26-.62.26-.39 0-.62-.26-.23-.26-.23-.7 0-.43.23-.7.23-.26.62-.26z"/><path d="m56.91 23.45h.25v.76h.91v-.76h.25v1.85h-.25v-.88h-.91v.88h-.25z"/><path d="m38.24 23.62q-.27 0-.43.2-.16.2-.16.55 0 .35.16.55.16.2.43.2.27 0 .43-.2.16-.2.16-.55 0-.35-.16-.55-.16-.2-.43-.2zm0-.2q.39 0 .62.26.23.26.23.7 0 .44-.23.7-.23.26-.62.26-.39 0-.62-.26-.23-.26-.23-.7 0-.43.23-.7.23-.26.62-.26z"/><path d="m20.63 23.63q-.27 0-.43.2-.16.2-.16.55 0 .35.16.55.16.2.43.2.27 0 .43-.2.16-.2.16-.55 0-.35-.16-.55-.16-.2-.43-.2zm0-.21q.39 0 .62.26.23.26.23.7 0 .44-.23.7-.23.26-.62.26-.39 0-.62-.26-.23-.26-.23-.7 0-.43.23-.7.23-.26.62-.26z"/><path d="m18.16 23.45h.25v.76h.91v-.76h.25v1.85h-.25v-.88h-.91v.88h-.25z"/><path d="m16.23 16q-.27 0-.43.2-.16.2-.16.55 0 .35.16.55.16.2.43.2.27 0 .43-.2.16-.2.16-.55 0-.35-.16-.55-.16-.2-.43-.2zm0-.2q.39 0 .62.26.23.26.23.7 0 .44-.23.7-.23.26-.62.26-.39 0-.62-.26-.23-.26-.23-.7 0-.43.23-.7.23-.26.62-.26z"/><path d="m3.03 13.47q-.27 0-.43.2-.16.2-.16.55 0 .35.16.55.16.2.43.2.27 0 .43-.2.16-.2.16-.55 0-.35-.16-.55-.16-.2-.43-.2zm0-.21q.39 0 .62.26.23.26.23.7 0 .44-.23.7-.23.26-.62.26-.39 0-.62-.26-.23-.26-.23-.7 0-.43.23-.7.23-.26.62-.26z"/><path d="m.56 13.29h.25v.76h.91v-.76h.25v1.85h-.25v-.88h-.91v.88h-.25z"/><path d="m7.43 5.84q-.27 0-.43.2-.16.2-.16.55 0 .35.16.55.16.2.43.2.27 0 .43-.2.16-.2.16-.55 0-.35-.16-.55-.16-.2-.43-.2zm0-.2q.39 0 .62.26.23.26.23.7 0 .44-.23.7-.23.26-.62.26-.39 0-.62-.26-.23-.26-.23-.7 0-.43.23-.7.23-.26.62-.26z"/><path d="m4.96 5.67h.25v.76h.91v-.76h.25v1.85h-.25v-.88h-.91v.88h-.25z"/><path d="m16.23.76q-.27 0-.43.2-.16.2-.16.55 0 .35.16.55.16.2.43.2.27 0 .43-.2.16-.2.16-.55 0-.35-.16-.55-.16-.2-.43-.2zm0-.2q.39 0 .62.26.23.26.23.7 0 .44-.23.7-.23.26-.62.26-.39 0-.62-.26-.23-.26-.23-.7 0-.43.23-.7.23-.26.62-.26z"/><path d="m17.29.59h.25v.76h.91v-.76h.25v1.85h-.25v-.88h-.91v.88h-.25z"/><path d="m25.03 5.84q-.27 0-.43.2-.16.2-.16.55 0 .35.16.55.16.2.43.2.27 0 .43-.2.16-.2.16-.55 0-.35-.16-.55-.16-.2-.43-.2zm0-.2q.39 0 .62.26.23.26.23.7 0 .44-.23.7-.23.26-.62.26-.39 0-.62-.26-.23-.26-.23-.7 0-.43.23-.7.23-.26.62-.26z"/><path d="m26.1 5.67h.25v.76h.91v-.76h.25v1.85h-.25v-.88h-.91v.88h-.25z"/><path d="m29.44 8.38q-.27 0-.43.2-.16.2-.16.55 0 .35.16.55.16.2.43.2.27 0 .43-.2.16-.2.16-.55 0-.35-.16-.55-.16-.2-.43-.2zm0-.2q.39 0 .62.26.23.26.23.7 0 .44-.23.7-.23.26-.62.26-.39 0-.62-.26-.23-.26-.23-.7 0-.43.23-.7.23-.26.62-.26z"/><path d="m30.5 8.21h.25v.76h.91v-.76h.25v1.85h-.25v-.88h-.91v.88h-.25z"/></g></g></svg>