<svg xmlns="http://www.w3.org/2000/svg" xmlns:xlink="http://www.w3.org/1999/xlink" width="58.88mm" height="97.89" version="1.2" viewBox="0 0 58.88 25.9"><desc>Generated by the Chemistry Development Kit (http://github.com/cdk)</desc><g fill="#FF0D0D" stroke="#000" stroke-linecap="round" stroke-linejoin="round" stroke-width=".21"><rect width="59" height="26" x="0" y="0" fill="#FFF" stroke="none"/><g id="mol1" class="mol"><g id="mol1bnd1" class="bond"><line x1="38.65" x2="38.65" y1="10.52" y2="14.45"/><line x1="37.83" x2="37.83" y1="10.52" y2="14.45"/></g><line id="mol1bnd2" x1="38.24" x2="42.64" y1="14.22" y2="16.76" class="bond"/><g id="mol1bnd3" class="bond"><line x1="47.05" x2="42.64" y1="14.22" y2="16.76"/><line x1="47.05" x2="43.46" y1="15.16" y2="17.23"/></g><line id="mol1bnd4" x1="47.05" x2="51.45" y1="14.22" y2="16.76" class="bond"/><line id="mol1bnd5" x1="51.45" x2="54.66" y1="16.76" y2="14.9" class="bond"/><g id="mol1bnd6" class="bond"><line x1="51.45" x2="51.45" y1="21.84" y2="16.76"/><line x1="50.64" x2="50.64" y1="21.37" y2="17.23"/></g><line id="mol1bnd7" x1="51.45" x2="54.66" y1="21.84" y2="23.7" class="bond"/><line id="mol1bnd8" x1="51.45" x2="47.05" y1="21.84" y2="24.38" class="bond"/><g id="mol1bnd9" class="bond"><line x1="42.64" x2="47.05" y1="21.84" y2="24.38"/><line x1="43.46" x2="47.05" y1="21.37" y2="23.44"/></g><line id="mol1bnd10" x1="42.64" x2="42.64" y1="16.76" y2="21.84" class="bond"/><line id="mol1bnd11" x1="42.64" x2="39.42" y1="21.84" y2="23.7" class="bond"/><line id="mol1bnd12" x1="37.06" x2="33.84" y1="23.7" y2="21.84" class="bond"/><g id="mol1bnd13" class="bond"><line x1="29.43" x2="33.84" y1="24.38" y2="21.84"/><line x1="29.43" x2="33.02" y1="23.44" y2="21.37"/></g><line id="mol1bnd14" x1="29.43" x2="25.03" y1="24.38" y2="21.84" class="bond"/><line id="mol1bnd15" x1="25.03" x2="21.82" y1="21.84" y2="23.7" class="bond"/><g id="mol1bnd16" class="bond"><line x1="25.03" x2="25.03" y1="16.76" y2="21.84"/><line x1="25.84" x2="25.84" y1="17.23" y2="21.37"/></g><line id="mol1bnd17" x1="25.03" x2="20.63" y1="16.76" y2="14.22" class="bond"/><line id="mol1bnd18" x1="20.63" x2="17.41" y1="14.22" y2="16.08" class="bond"/><line id="mol1bnd19" x1="15.05" x2="11.83" y1="16.08" y2="14.22" class="bond"/><line id="mol1bnd20" x1="11.83" x2="7.43" y1="14.22" y2="16.76" class="bond"/><line id="mol1bnd21" x1="7.43" x2="4.21" y1="16.76" y2="14.9" class="bond"/><line id="mol1bnd22" x1="11.83" x2="11.83" y1="14.22" y2="9.14" class="bond"/><line id="mol1bnd23" x1="11.83" x2="8.61" y1="9.14" y2="7.28" class="bond"/><line id="mol1bnd24" x1="11.83" x2="16.23" y1="9.14" y2="6.6" class="bond"/><line id="mol1bnd25" x1="16.23" x2="16.23" y1="6.6" y2="2.9" class="bond"/><line id="mol1bnd26" x1="16.23" x2="20.63" y1="6.6" y2="9.14" class="bond"/><line id="mol1bnd27" x1="20.63" x2="20.63" y1="14.22" y2="9.14" class="bond"/><line id="mol1bnd28" x1="20.63" x2="23.85" y1="9.14" y2="7.28" class="bond"/><line id="mol1bnd29" x1="25.03" x2="29.43" y1="16.76" y2="14.22" class="bond"/><line id="mol1bnd30" x1="29.43" x2="29.43" y1="14.22" y2="10.52" class="bond"/><g id="mol1bnd31" class="bond"><line x1="33.84" x2="29.43" y1="16.76" y2="14.22"/><line x1="33.02" x2="29.43" y1="17.23" y2="15.16"/></g><line id="mol1bnd32" x1="38.24" x2="33.84" y1="14.22" y2="16.76" class="bond"/><line id="mol1bnd33" x1="33.84" x2="33.84" y1="21.84" y2="16.76" class="bond"/><path id="mol1atm1" stroke="none" d="M38.24 8.38q-.27 .0 -.43 .2q-.16 .2 -.16 .55q.0 .35 .16 .55q.16 .2 .43 .2q.27 .0 .43 -.2q.16 -.2 .16 -.55q.0 -.35 -.16 -.55q-.16 -.2 -.43 -.2zM38.24 8.18q.39 .0 .62 .26q.23 .26 .23 .7q.0 .44 -.23 .7q-.23 .26 -.62 .26q-.39 .0 -.62 -.26q-.23 -.26 -.23 -.7q.0 -.43 .23 -.7q.23 -.26 .62 -.26z" class="atom"/><g id="mol1atm6" class="atom"><path stroke="none" d="M55.85 13.46q-.27 .0 -.43 .2q-.16 .2 -.16 .55q.0 .35 .16 .55q.16 .2 .43 .2q.27 .0 .43 -.2q.16 -.2 .16 -.55q.0 -.35 -.16 -.55q-.16 -.2 -.43 -.2zM55.85 13.26q.39 .0 .62 .26q.23 .26 .23 .7q.0 .44 -.23 .7q-.23 .26 -.62 .26q-.39 .0 -.62 -.26q-.23 -.26 -.23 -.7q.0 -.43 .23 -.7q.23 -.26 .62 -.26z"/><path stroke="none" d="M56.91 13.29h.25v.76h.91v-.76h.25v1.85h-.25v-.88h-.91v.88h-.25v-1.85z"/></g><g id="mol1atm8" class="atom"><path stroke="none" d="M55.85 23.63q-.27 .0 -.43 .2q-.16 .2 -.16 .55q.0 .35 .16 .55q.16 .2 .43 .2q.27 .0 .43 -.2q.16 -.2 .16 -.55q.0 -.35 -.16 -.55q-.16 -.2 -.43 -.2zM55.85 23.42q.39 .0 .62 .26q.23 .26 .23 .7q.0 .44 -.23 .7q-.23 .26 -.62 .26q-.39 .0 -.62 -.26q-.23 -.26 -.23 -.7q.0 -.43 .23 -.7q.23 -.26 .62 -.26z"/><path stroke="none" d="M56.91 23.45h.25v.76h.91v-.76h.25v1.85h-.25v-.88h-.91v.88h-.25v-1.85z"/></g><path id="mol1atm11" stroke="none" d="M38.24 23.62q-.27 .0 -.43 .2q-.16 .2 -.16 .55q.0 .35 .16 .55q.16 .2 .43 .2q.27 .0 .43 -.2q.16 -.2 .16 -.55q.0 -.35 -.16 -.55q-.16 -.2 -.43 -.2zM38.24 23.42q.39 .0 .62 .26q.23 .26 .23 .7q.0 .44 -.23 .7q-.23 .26 -.62 .26q-.39 .0 -.62 -.26q-.23 -.26 -.23 -.7q.0 -.43 .23 -.7q.23 -.26 .62 -.26z" class="atom"/><g id="mol1atm15" class="atom"><path stroke="none" d="M20.63 23.63q-.27 .0 -.43 .2q-.16 .2 -.16 .55q.0 .35 .16 .55q.16 .2 .43 .2q.27 .0 .43 -.2q.16 -.2 .16 -.55q.0 -.35 -.16 -.55q-.16 -.2 -.43 -.2zM20.63 23.42q.39 .0 .62 .26q.23 .26 .23 .7q.0 .44 -.23 .7q-.23 .26 -.62 .26q-.39 .0 -.62 -.26q-.23 -.26 -.23 -.7q.0 -.43 .23 -.7q.23 -.26 .62 -.26z"/><path stroke="none" d="M18.16 23.45h.25v.76h.91v-.76h.25v1.85h-.25v-.88h-.91v.88h-.25v-1.85z"/></g><path id="mol1atm18" stroke="none" d="M16.23 16.0q-.27 .0 -.43 .2q-.16 .2 -.16 .55q.0 .35 .16 .55q.16 .2 .43 .2q.27 .0 .43 -.2q.16 -.2 .16 -.55q.0 -.35 -.16 -.55q-.16 -.2 -.43 -.2zM16.23 15.8q.39 .0 .62 .26q.23 .26 .23 .7q.0 .44 -.23 .7q-.23 .26 -.62 .26q-.39 .0 -.62 -.26q-.23 -.26 -.23 -.7q.0 -.43 .23 -.7q.23 -.26 .62 -.26z" class="atom"/><g id="mol1atm21" class="atom"><path stroke="none" d="M3.03 13.47q-.27 .0 -.43 .2q-.16 .2 -.16 .55q.0 .35 .16 .55q.16 .2 .43 .2q.27 .0 .43 -.2q.16 -.2 .16 -.55q.0 -.35 -.16 -.55q-.16 -.2 -.43 -.2zM3.03 13.26q.39 .0 .62 .26q.23 .26 .23 .7q.0 .44 -.23 .7q-.23 .26 -.62 .26q-.39 .0 -.62 -.26q-.23 -.26 -.23 -.7q.0 -.43 .23 -.7q.23 -.26 .62 -.26z"/><path stroke="none" d="M.56 13.29h.25v.76h.91v-.76h.25v1.85h-.25v-.88h-.91v.88h-.25v-1.85z"/></g><g id="mol1atm23" class="atom"><path stroke="none" d="M7.43 5.84q-.27 .0 -.43 .2q-.16 .2 -.16 .55q.0 .35 .16 .55q.16 .2 .43 .2q.27 .0 .43 -.2q.16 -.2 .16 -.55q.0 -.35 -.16 -.55q-.16 -.2 -.43 -.2zM7.43 5.64q.39 .0 .62 .26q.23 .26 .23 .7q.0 .44 -.23 .7q-.23 .26 -.62 .26q-.39 .0 -.62 -.26q-.23 -.26 -.23 -.7q.0 -.43 .23 -.7q.23 -.26 .62 -.26z"/><path stroke="none" d="M4.96 5.67h.25v.76h.91v-.76h.25v1.85h-.25v-.88h-.91v.88h-.25v-1.85z"/></g><g id="mol1atm25" class="atom"><path stroke="none" d="M16.23 .76q-.27 .0 -.43 .2q-.16 .2 -.16 .55q.0 .35 .16 .55q.16 .2 .43 .2q.27 .0 .43 -.2q.16 -.2 .16 -.55q.0 -.35 -.16 -.55q-.16 -.2 -.43 -.2zM16.23 .56q.39 .0 .62 .26q.23 .26 .23 .7q.0 .44 -.23 .7q-.23 .26 -.62 .26q-.39 .0 -.62 -.26q-.23 -.26 -.23 -.7q.0 -.43 .23 -.7q.23 -.26 .62 -.26z"/><path stroke="none" d="M17.29 .59h.25v.76h.91v-.76h.25v1.85h-.25v-.88h-.91v.88h-.25v-1.85z"/></g><g id="mol1atm27" class="atom"><path stroke="none" d="M25.03 5.84q-.27 .0 -.43 .2q-.16 .2 -.16 .55q.0 .35 .16 .55q.16 .2 .43 .2q.27 .0 .43 -.2q.16 -.2 .16 -.55q.0 -.35 -.16 -.55q-.16 -.2 -.43 -.2zM25.03 5.64q.39 .0 .62 .26q.23 .26 .23 .7q.0 .44 -.23 .7q-.23 .26 -.62 .26q-.39 .0 -.62 -.26q-.23 -.26 -.23 -.7q.0 -.43 .23 -.7q.23 -.26 .62 -.26z"/><path stroke="none" d="M26.1 5.67h.25v.76h.91v-.76h.25v1.85h-.25v-.88h-.91v.88h-.25v-1.85z"/></g><g id="mol1atm29" class="atom"><path stroke="none" d="M29.44 8.38q-.27 .0 -.43 .2q-.16 .2 -.16 .55q.0 .35 .16 .55q.16 .2 .43 .2q.27 .0 .43 -.2q.16 -.2 .16 -.55q.0 -.35 -.16 -.55q-.16 -.2 -.43 -.2zM29.44 8.18q.39 .0 .62 .26q.23 .26 .23 .7q.0 .44 -.23 .7q-.23 .26 -.62 .26q-.39 .0 -.62 -.26q-.23 -.26 -.23 -.7q.0 -.43 .23 -.7q.23 -.26 .62 -.26z"/><path stroke="none" d="M30.5 8.21h.25v.76h.91v-.76h.25v1.85h-.25v-.88h-.91v.88h-.25v-1.85z"/></g></g></g></svg>