<svg xmlns="http://www.w3.org/2000/svg" xmlns:xlink="http://www.w3.org/1999/xlink" width="48.52mm" height="26.66mm" version="1.2" viewBox="0 0 48.52 26.66"><desc>Generated by the Chemistry Development Kit (http://github.com/cdk)</desc><g fill="#FF0D0D" stroke="#000" stroke-linecap="round" stroke-linejoin="round" stroke-width=".21"><rect width="49" height="27" x="0" y="0" fill="#FFF" stroke="none"/><g id="mol1" class="mol"><path id="mol1bnd1" fill="none" stroke="#000" stroke-width=".21" d="M19.02 26.1c.08 -.14 .02 -.35 -.12 -.43c-.14 -.08 -.35 -.02 -.43 .12c-.08 .14 -.3 .2 -.43 .12c-.14 -.08 -.2 -.3 -.12 -.43c.08 -.14 .02 -.35 -.12 -.43c-.14 -.08 -.35 -.02 -.43 .12c-.08 .14 -.3 .2 -.43 .12c-.14 -.08 -.2 -.3 -.12 -.43c.08 -.14 .02 -.35 -.12 -.43c-.14 -.08 -.35 -.02 -.43 .12c-.08 .14 -.3 .2 -.43 .12c-.14 -.08 -.2 -.3 -.12 -.43c.08 -.14 .02 -.35 -.12 -.43c-.14 -.08 -.35 -.02 -.43 .12c-.08 .14 -.3 .2 -.43 .12c-.14 -.08 -.2 -.3 -.12 -.43" class="bond"/><g id="mol1bnd2" class="bond"><line x1="14.62" x2="14.62" y1="23.56" y2="18.48"/><line x1="15.43" x2="15.43" y1="23.09" y2="18.95"/></g><line id="mol1bnd3" x1="14.62" x2="10.22" y1="18.48" y2="15.94" class="bond"/><g id="mol1bnd4" class="bond"><line x1="10.22" x2="10.22" y1="15.94" y2="10.86"/><line x1="9.41" x2="9.41" y1="15.47" y2="11.33"/></g><line id="mol1bnd5" x1="10.22" x2="5.82" y1="10.86" y2="8.32" class="bond"/><g id="mol1bnd6" class="bond"><line x1="5.41" x2="5.41" y1="8.56" y2="4.62"/><line x1="6.22" x2="6.22" y1="8.56" y2="4.62"/></g><line id="mol1bnd7" x1="5.82" x2="2.6" y1="8.32" y2="10.18" class="bond"/><line id="mol1bnd8" x1="1.41" x2="1.41" y1="12.24" y2="15.94" class="bond"/><line id="mol1bnd9" x1="1.41" x2="5.82" y1="15.94" y2="18.48" class="bond"/><line id="mol1bnd10" x1="10.22" x2="5.82" y1="15.94" y2="18.48" class="bond"/><line id="mol1bnd11" x1="10.22" x2="14.62" y1="10.86" y2="8.32" class="bond"/><line id="mol1bnd12" x1="14.62" x2="14.62" y1="8.32" y2="4.62" class="bond"/><line id="mol1bnd13" x1="15.8" x2="19.02" y1="2.56" y2=".7" class="bond"/><line id="mol1bnd14" x1="14.62" x2="17.84" y1="8.32" y2="10.18" class="bond"/><line id="mol1bnd15" x1="19.02" x2="19.02" y1="12.24" y2="15.94" class="bond"/><line id="mol1bnd16" x1="14.62" x2="19.02" y1="18.48" y2="15.94" class="bond"/><line id="mol1bnd17" x1="19.02" x2="22.24" y1="15.94" y2="17.8" class="bond"/><line id="mol1bnd18" x1="24.61" x2="27.82" y1="17.8" y2="15.94" class="bond"/><line id="mol1bnd19" x1="27.82" x2="31.1" y1="15.94" y2="17.82" class="bond"/><line id="mol1bnd20" x1="33.47" x2="36.7" y1="17.82" y2="15.98" class="bond"/><line id="mol1bnd21" x1="36.7" x2="41.09" y1="15.98" y2="18.53" class="bond"/><line id="mol1bnd22" x1="41.09" x2="44.31" y1="18.53" y2="16.69" class="bond"/><line id="mol1bnd23" x1="36.7" x2="36.71" y1="15.98" y2="10.93" class="bond"/><line id="mol1bnd24" x1="36.71" x2="39.94" y1="10.93" y2="9.1" class="bond"/><line id="mol1bnd25" x1="36.71" x2="32.32" y1="10.93" y2="8.34" class="bond"/><line id="mol1bnd26" x1="32.32" x2="32.35" y1="8.34" y2="4.64" class="bond"/><line id="mol1bnd27" x1="32.32" x2="27.84" y1="8.34" y2="10.9" class="bond"/><line id="mol1bnd28" x1="27.82" x2="27.84" y1="15.94" y2="10.9" class="bond"/><line id="mol1bnd29" x1="27.84" x2="24.63" y1="10.9" y2="9.03" class="bond"/><path id="mol1atm7" stroke="none" d="M5.82 2.49q-.27 .0 -.43 .2q-.16 .2 -.16 .55q.0 .35 .16 .55q.16 .2 .43 .2q.27 .0 .43 -.2q.16 -.2 .16 -.55q.0 -.35 -.16 -.55q-.16 -.2 -.43 -.2zM5.82 2.29q.39 .0 .62 .26q.23 .26 .23 .7q.0 .44 -.23 .7q-.23 .26 -.62 .26q-.39 .0 -.62 -.26q-.23 -.26 -.23 -.7q.0 -.43 .23 -.7q.23 -.26 .62 -.26z" class="atom"/><path id="mol1atm8" stroke="none" d="M1.41 10.11q-.27 .0 -.43 .2q-.16 .2 -.16 .55q.0 .35 .16 .55q.16 .2 .43 .2q.27 .0 .43 -.2q.16 -.2 .16 -.55q.0 -.35 -.16 -.55q-.16 -.2 -.43 -.2zM1.41 9.91q.39 .0 .62 .26q.23 .26 .23 .7q.0 .44 -.23 .7q-.23 .26 -.62 .26q-.39 .0 -.62 -.26q-.23 -.26 -.23 -.7q.0 -.43 .23 -.7q.23 -.26 .62 -.26z" class="atom"/><path id="mol1atm12" stroke="none" d="M14.62 2.49q-.27 .0 -.43 .2q-.16 .2 -.16 .55q.0 .35 .16 .55q.16 .2 .43 .2q.27 .0 .43 -.2q.16 -.2 .16 -.55q.0 -.35 -.16 -.55q-.16 -.2 -.43 -.2zM14.62 2.29q.39 .0 .62 .26q.23 .26 .23 .7q.0 .44 -.23 .7q-.23 .26 -.62 .26q-.39 .0 -.62 -.26q-.23 -.26 -.23 -.7q.0 -.43 .23 -.7q.23 -.26 .62 -.26z" class="atom"/><path id="mol1atm14" stroke="none" d="M19.03 10.11q-.27 .0 -.43 .2q-.16 .2 -.16 .55q.0 .35 .16 .55q.16 .2 .43 .2q.27 .0 .43 -.2q.16 -.2 .16 -.55q.0 -.35 -.16 -.55q-.16 -.2 -.43 -.2zM19.03 9.91q.39 .0 .62 .26q.23 .26 .23 .7q.0 .44 -.23 .7q-.23 .26 -.62 .26q-.39 .0 -.62 -.26q-.23 -.26 -.23 -.7q.0 -.43 .23 -.7q.23 -.26 .62 -.26z" class="atom"/><path id="mol1atm16" stroke="none" d="M23.42 17.73q-.27 .0 -.43 .2q-.16 .2 -.16 .55q.0 .35 .16 .55q.16 .2 .43 .2q.27 .0 .43 -.2q.16 -.2 .16 -.55q.0 -.35 -.16 -.55q-.16 -.2 -.43 -.2zM23.42 17.53q.39 .0 .62 .26q.23 .26 .23 .7q.0 .44 -.23 .7q-.23 .26 -.62 .26q-.39 .0 -.62 -.26q-.23 -.26 -.23 -.7q.0 -.43 .23 -.7q.23 -.26 .62 -.26z" class="atom"/><path id="mol1atm18" stroke="none" d="M32.29 17.75q-.27 .0 -.43 .2q-.16 .2 -.16 .55q.0 .35 .16 .55q.16 .2 .43 .2q.27 .0 .43 -.2q.16 -.2 .16 -.55q.0 -.35 -.16 -.55q-.16 -.2 -.43 -.2zM32.29 17.54q.39 .0 .62 .26q.23 .26 .23 .7q.0 .44 -.23 .7q-.23 .26 -.62 .26q-.39 .0 -.62 -.26q-.23 -.26 -.23 -.7q.0 -.43 .23 -.7q.23 -.26 .62 -.26z" class="atom"/><g id="mol1atm21" class="atom"><path stroke="none" d="M45.5 15.26q-.27 .0 -.43 .2q-.16 .2 -.16 .55q.0 .35 .16 .55q.16 .2 .43 .2q.27 .0 .43 -.2q.16 -.2 .16 -.55q.0 -.35 -.16 -.55q-.16 -.2 -.43 -.2zM45.5 15.05q.39 .0 .62 .26q.23 .26 .23 .7q.0 .44 -.23 .7q-.23 .26 -.62 .26q-.39 .0 -.62 -.26q-.23 -.26 -.23 -.7q.0 -.43 .23 -.7q.23 -.26 .62 -.26z"/><path stroke="none" d="M46.56 15.09h.25v.76h.91v-.76h.25v1.85h-.25v-.88h-.91v.88h-.25v-1.85z"/></g><g id="mol1atm23" class="atom"><path stroke="none" d="M41.13 7.66q-.27 .0 -.43 .2q-.16 .2 -.16 .55q.0 .35 .16 .55q.16 .2 .43 .2q.27 .0 .43 -.2q.16 -.2 .16 -.55q.0 -.35 -.16 -.55q-.16 -.2 -.43 -.2zM41.13 7.46q.39 .0 .62 .26q.23 .26 .23 .7q.0 .44 -.23 .7q-.23 .26 -.62 .26q-.39 .0 -.62 -.26q-.23 -.26 -.23 -.7q.0 -.43 .23 -.7q.23 -.26 .62 -.26z"/><path stroke="none" d="M42.19 7.49h.25v.76h.91v-.76h.25v1.85h-.25v-.88h-.91v.88h-.25v-1.85z"/></g><g id="mol1atm25" class="atom"><path stroke="none" d="M32.36 2.51q-.27 .0 -.43 .2q-.16 .2 -.16 .55q.0 .35 .16 .55q.16 .2 .43 .2q.27 .0 .43 -.2q.16 -.2 .16 -.55q.0 -.35 -.16 -.55q-.16 -.2 -.43 -.2zM32.36 2.3q.39 .0 .62 .26q.23 .26 .23 .7q.0 .44 -.23 .7q-.23 .26 -.62 .26q-.39 .0 -.62 -.26q-.23 -.26 -.23 -.7q.0 -.43 .23 -.7q.23 -.26 .62 -.26z"/><path stroke="none" d="M33.42 2.34h.25v.76h.91v-.76h.25v1.85h-.25v-.88h-.91v.88h-.25v-1.85z"/></g><g id="mol1atm27" class="atom"><path stroke="none" d="M23.45 7.59q-.27 .0 -.43 .2q-.16 .2 -.16 .55q.0 .35 .16 .55q.16 .2 .43 .2q.27 .0 .43 -.2q.16 -.2 .16 -.55q.0 -.35 -.16 -.55q-.16 -.2 -.43 -.2zM23.45 7.38q.39 .0 .62 .26q.23 .26 .23 .7q.0 .44 -.23 .7q-.23 .26 -.62 .26q-.39 .0 -.62 -.26q-.23 -.26 -.23 -.7q.0 -.43 .23 -.7q.23 -.26 .62 -.26z"/><path stroke="none" d="M20.98 7.42h.25v.76h.91v-.76h.25v1.85h-.25v-.88h-.91v.88h-.25v-1.85z"/></g></g></g></svg>