<svg height="26.66mm" viewBox="0 0 48.52 26.66" width="48.52mm" xmlns="http://www.w3.org/2000/svg"><g fill="#ff0d0d" stroke="#000" stroke-linecap="round" stroke-linejoin="round" stroke-width=".21"><path d="m0 0h49v27h-49z" fill="#fff" stroke="none"/><path d="m19.02 26.1c.08-.14.02-.35-.12-.43s-.35-.02-.43.12-.3.2-.43.12c-.14-.08-.2-.3-.12-.43.08-.14.02-.35-.12-.43s-.35-.02-.43.12-.3.2-.43.12c-.14-.08-.2-.3-.12-.43.08-.14.02-.35-.12-.43s-.35-.02-.43.12-.3.2-.43.12c-.14-.08-.2-.3-.12-.43.08-.14.02-.35-.12-.43s-.35-.02-.43.12-.3.2-.43.12c-.14-.08-.2-.3-.12-.43" fill="none" stroke="#000" stroke-width=".21"/><path d="m14.62 23.56v-5.08"/><path d="m15.43 23.09v-4.14"/><path d="m14.62 18.48-4.4-2.54"/><path d="m10.22 15.94v-5.08"/><path d="m9.41 15.47v-4.14"/><path d="m10.22 10.86-4.4-2.54"/><path d="m5.41 8.56v-3.94"/><path d="m6.22 8.56v-3.94"/><path d="m5.82 8.32-3.22 1.86"/><path d="m1.41 12.24v3.7"/><path d="m1.41 15.94 4.41 2.54"/><path d="m10.22 15.94-4.4 2.54"/><path d="m10.22 10.86 4.4-2.54"/><path d="m14.62 8.32v-3.7"/><path d="m15.8 2.56 3.22-1.86"/><path d="m14.62 8.32 3.22 1.86"/><path d="m19.02 12.24v3.7"/><path d="m14.62 18.48 4.4-2.54"/><path d="m19.02 15.94 3.22 1.86"/><path d="m24.61 17.8 3.21-1.86"/><path d="m27.82 15.94 3.28 1.88"/><path d="m33.47 17.82 3.23-1.84"/><path d="m36.7 15.98 4.39 2.55"/><path d="m41.09 18.53 3.22-1.84"/><path d="m36.7 15.98.01-5.05"/><path d="m36.71 10.93 3.23-1.83"/><path d="m36.71 10.93-4.39-2.59"/><path d="m32.32 8.34.03-3.7"/><path d="m32.32 8.34-4.48 2.56"/><path d="m27.82 15.94.02-5.04"/><path d="m27.84 10.9-3.21-1.87"/><g stroke="none"><path d="m5.82 2.49q-.27 0-.43.2-.16.2-.16.55 0 .35.16.55.16.2.43.2.27 0 .43-.2.16-.2.16-.55 0-.35-.16-.55-.16-.2-.43-.2zm0-.2q.39 0 .62.26.23.26.23.7 0 .44-.23.7-.23.26-.62.26-.39 0-.62-.26-.23-.26-.23-.7 0-.43.23-.7.23-.26.62-.26z"/><path d="m1.41 10.11q-.27 0-.43.2-.16.2-.16.55 0 .35.16.55.16.2.43.2.27 0 .43-.2.16-.2.16-.55 0-.35-.16-.55-.16-.2-.43-.2zm0-.2q.39 0 .62.26.23.26.23.7 0 .44-.23.7-.23.26-.62.26-.39 0-.62-.26-.23-.26-.23-.7 0-.43.23-.7.23-.26.62-.26z"/><path d="m14.62 2.49q-.27 0-.43.2-.16.2-.16.55 0 .35.16.55.16.2.43.2.27 0 .43-.2.16-.2.16-.55 0-.35-.16-.55-.16-.2-.43-.2zm0-.2q.39 0 .62.26.23.26.23.7 0 .44-.23.7-.23.26-.62.26-.39 0-.62-.26-.23-.26-.23-.7 0-.43.23-.7.23-.26.62-.26z"/><path d="m19.03 10.11q-.27 0-.43.2-.16.2-.16.55 0 .35.16.55.16.2.43.2.27 0 .43-.2.16-.2.16-.55 0-.35-.16-.55-.16-.2-.43-.2zm0-.2q.39 0 .62.26.23.26.23.7 0 .44-.23.7-.23.26-.62.26-.39 0-.62-.26-.23-.26-.23-.7 0-.43.23-.7.23-.26.62-.26z"/><path d="m23.42 17.73q-.27 0-.43.2-.16.2-.16.55 0 .35.16.55.16.2.43.2.27 0 .43-.2.16-.2.16-.55 0-.35-.16-.55-.16-.2-.43-.2zm0-.2q.39 0 .62.26.23.26.23.7 0 .44-.23.7-.23.26-.62.26-.39 0-.62-.26-.23-.26-.23-.7 0-.43.23-.7.23-.26.62-.26z"/><path d="m32.29 17.75q-.27 0-.43.2-.16.2-.16.55 0 .35.16.55.16.2.43.2.27 0 .43-.2.16-.2.16-.55 0-.35-.16-.55-.16-.2-.43-.2zm0-.21q.39 0 .62.26.23.26.23.7 0 .44-.23.7-.23.26-.62.26-.39 0-.62-.26-.23-.26-.23-.7 0-.43.23-.7.23-.26.62-.26z"/><path d="m45.5 15.26q-.27 0-.43.2-.16.2-.16.55 0 .35.16.55.16.2.43.2.27 0 .43-.2.16-.2.16-.55 0-.35-.16-.55-.16-.2-.43-.2zm0-.21q.39 0 .62.26.23.26.23.7 0 .44-.23.7-.23.26-.62.26-.39 0-.62-.26-.23-.26-.23-.7 0-.43.23-.7.23-.26.62-.26z"/><path d="m46.56 15.09h.25v.76h.91v-.76h.25v1.85h-.25v-.88h-.91v.88h-.25z"/><path d="m41.13 7.66q-.27 0-.43.2-.16.2-.16.55 0 .35.16.55.16.2.43.2.27 0 .43-.2.16-.2.16-.55 0-.35-.16-.55-.16-.2-.43-.2zm0-.2q.39 0 .62.26.23.26.23.7 0 .44-.23.7-.23.26-.62.26-.39 0-.62-.26-.23-.26-.23-.7 0-.43.23-.7.23-.26.62-.26z"/><path d="m42.19 7.49h.25v.76h.91v-.76h.25v1.85h-.25v-.88h-.91v.88h-.25z"/><path d="m32.36 2.51q-.27 0-.43.2-.16.2-.16.55 0 .35.16.55.16.2.43.2.27 0 .43-.2.16-.2.16-.55 0-.35-.16-.55-.16-.2-.43-.2zm0-.21q.39 0 .62.26.23.26.23.7 0 .44-.23.7-.23.26-.62.26-.39 0-.62-.26-.23-.26-.23-.7 0-.43.23-.7.23-.26.62-.26z"/><path d="m33.42 2.34h.25v.76h.91v-.76h.25v1.85h-.25v-.88h-.91v.88h-.25z"/><path d="m23.45 7.59q-.27 0-.43.2-.16.2-.16.55 0 .35.16.55.16.2.43.2.27 0 .43-.2.16-.2.16-.55 0-.35-.16-.55-.16-.2-.43-.2zm0-.21q.39 0 .62.26.23.26.23.7 0 .44-.23.7-.23.26-.62.26-.39 0-.62-.26-.23-.26-.23-.7 0-.43.23-.7.23-.26.62-.26z"/><path d="m20.98 7.42h.25v.76h.91v-.76h.25v1.85h-.25v-.88h-.91v.88h-.25z"/></g></g></svg>