<svg xmlns="http://www.w3.org/2000/svg" xmlns:xlink="http://www.w3.org/1999/xlink" width="43.32mm" height="69.052" version="1.2" viewBox="0 0 43.32 18.27"><desc>Generated by the Chemistry Development Kit (http://github.com/cdk)</desc><g fill="#FF0D0D" stroke="#000" stroke-linecap="round" stroke-linejoin="round" stroke-width=".21"><rect width="44" height="19" x="0" y="0" fill="#FFF" stroke="none"/><g id="mol1" class="mol"><line id="mol1bnd1" x1=".7" x2="3.92" y1="14.21" y2="16.07" class="bond"/><line id="mol1bnd2" x1="6.28" x2="9.5" y1="16.07" y2="14.21" class="bond"/><g id="mol1bnd3" class="bond"><line x1="9.5" x2="9.5" y1="9.13" y2="14.21"/><line x1="10.31" x2="10.31" y1="9.6" y2="13.74"/></g><line id="mol1bnd4" x1="9.5" x2="13.9" y1="9.13" y2="6.6" class="bond"/><line id="mol1bnd5" x1="13.9" x2="13.9" y1="6.6" y2="2.9" class="bond"/><g id="mol1bnd6" class="bond"><line x1="18.3" x2="13.9" y1="9.13" y2="6.6"/><line x1="17.48" x2="13.9" y1="9.6" y2="7.53"/></g><line id="mol1bnd7" x1="18.3" x2="22.7" y1="9.13" y2="6.6" class="bond"/><g id="mol1bnd8" class="bond"><line x1="22.29" x2="22.29" y1="6.83" y2="2.9"/><line x1="23.1" x2="23.1" y1="6.83" y2="2.9"/></g><line id="mol1bnd9" x1="22.7" x2="27.1" y1="6.6" y2="9.13" class="bond"/><g id="mol1bnd10" class="bond"><line x1="31.5" x2="27.1" y1="6.6" y2="9.13"/><line x1="31.5" x2="27.91" y1="7.53" y2="9.6"/></g><line id="mol1bnd11" x1="31.5" x2="31.5" y1="6.6" y2="2.9" class="bond"/><line id="mol1bnd12" x1="31.5" x2="35.9" y1="6.6" y2="9.13" class="bond"/><line id="mol1bnd13" x1="35.9" x2="39.11" y1="9.13" y2="7.28" class="bond"/><g id="mol1bnd14" class="bond"><line x1="35.9" x2="35.9" y1="14.21" y2="9.13"/><line x1="35.09" x2="35.09" y1="13.74" y2="9.6"/></g><line id="mol1bnd15" x1="35.9" x2="31.5" y1="14.21" y2="16.75" class="bond"/><g id="mol1bnd16" class="bond"><line x1="27.1" x2="31.5" y1="14.21" y2="16.75"/><line x1="27.91" x2="31.5" y1="13.74" y2="15.81"/></g><line id="mol1bnd17" x1="27.1" x2="27.1" y1="9.13" y2="14.21" class="bond"/><line id="mol1bnd18" x1="27.1" x2="23.88" y1="14.21" y2="16.07" class="bond"/><line id="mol1bnd19" x1="21.51" x2="18.3" y1="16.07" y2="14.21" class="bond"/><line id="mol1bnd20" x1="18.3" x2="18.3" y1="9.13" y2="14.21" class="bond"/><g id="mol1bnd21" class="bond"><line x1="13.9" x2="18.3" y1="16.75" y2="14.21"/><line x1="13.9" x2="17.48" y1="15.81" y2="13.74"/></g><line id="mol1bnd22" x1="9.5" x2="13.9" y1="14.21" y2="16.75" class="bond"/><path id="mol1atm2" stroke="none" d="M5.1 16.0q-.27 .0 -.43 .2q-.16 .2 -.16 .55q.0 .35 .16 .55q.16 .2 .43 .2q.27 .0 .43 -.2q.16 -.2 .16 -.55q.0 -.35 -.16 -.55q-.16 -.2 -.43 -.2zM5.1 15.79q.39 .0 .62 .26q.23 .26 .23 .7q.0 .44 -.23 .7q-.23 .26 -.62 .26q-.39 .0 -.62 -.26q-.23 -.26 -.23 -.7q.0 -.43 .23 -.7q.23 -.26 .62 -.26z" class="atom"/><g id="mol1atm6" class="atom"><path stroke="none" d="M13.9 .76q-.27 .0 -.43 .2q-.16 .2 -.16 .55q.0 .35 .16 .55q.16 .2 .43 .2q.27 .0 .43 -.2q.16 -.2 .16 -.55q.0 -.35 -.16 -.55q-.16 -.2 -.43 -.2zM13.9 .56q.39 .0 .62 .26q.23 .26 .23 .7q.0 .44 -.23 .7q-.23 .26 -.62 .26q-.39 .0 -.62 -.26q-.23 -.26 -.23 -.7q.0 -.43 .23 -.7q.23 -.26 .62 -.26z"/><path stroke="none" d="M14.96 .59h.25v.76h.91v-.76h.25v1.85h-.25v-.88h-.91v.88h-.25v-1.85z"/></g><path id="mol1atm9" stroke="none" d="M22.7 .76q-.27 .0 -.43 .2q-.16 .2 -.16 .55q.0 .35 .16 .55q.16 .2 .43 .2q.27 .0 .43 -.2q.16 -.2 .16 -.55q.0 -.35 -.16 -.55q-.16 -.2 -.43 -.2zM22.7 .56q.39 .0 .62 .26q.23 .26 .23 .7q.0 .44 -.23 .7q-.23 .26 -.62 .26q-.39 .0 -.62 -.26q-.23 -.26 -.23 -.7q.0 -.43 .23 -.7q.23 -.26 .62 -.26z" class="atom"/><g id="mol1atm12" class="atom"><path stroke="none" d="M31.5 .76q-.27 .0 -.43 .2q-.16 .2 -.16 .55q.0 .35 .16 .55q.16 .2 .43 .2q.27 .0 .43 -.2q.16 -.2 .16 -.55q.0 -.35 -.16 -.55q-.16 -.2 -.43 -.2zM31.5 .56q.39 .0 .62 .26q.23 .26 .23 .7q.0 .44 -.23 .7q-.23 .26 -.62 .26q-.39 .0 -.62 -.26q-.23 -.26 -.23 -.7q.0 -.43 .23 -.7q.23 -.26 .62 -.26z"/><path stroke="none" d="M32.56 .59h.25v.76h.91v-.76h.25v1.85h-.25v-.88h-.91v.88h-.25v-1.85z"/></g><g id="mol1atm14" class="atom"><path stroke="none" d="M40.3 5.84q-.27 .0 -.43 .2q-.16 .2 -.16 .55q.0 .35 .16 .55q.16 .2 .43 .2q.27 .0 .43 -.2q.16 -.2 .16 -.55q.0 -.35 -.16 -.55q-.16 -.2 -.43 -.2zM40.3 5.64q.39 .0 .62 .26q.23 .26 .23 .7q.0 .44 -.23 .7q-.23 .26 -.62 .26q-.39 .0 -.62 -.26q-.23 -.26 -.23 -.7q.0 -.43 .23 -.7q.23 -.26 .62 -.26z"/><path stroke="none" d="M41.36 5.67h.25v.76h.91v-.76h.25v1.85h-.25v-.88h-.91v.88h-.25v-1.85z"/></g><path id="mol1atm18" stroke="none" d="M22.7 16.0q-.27 .0 -.43 .2q-.16 .2 -.16 .55q.0 .35 .16 .55q.16 .2 .43 .2q.27 .0 .43 -.2q.16 -.2 .16 -.55q.0 -.35 -.16 -.55q-.16 -.2 -.43 -.2zM22.7 15.79q.39 .0 .62 .26q.23 .26 .23 .7q.0 .44 -.23 .7q-.23 .26 -.62 .26q-.39 .0 -.62 -.26q-.23 -.26 -.23 -.7q.0 -.43 .23 -.7q.23 -.26 .62 -.26z" class="atom"/></g></g></svg>