<svg height="69.052" viewBox="0 0 43.32 18.27" width="43.32mm" xmlns="http://www.w3.org/2000/svg"><g fill="#ff0d0d" stroke="#000" stroke-linecap="round" stroke-linejoin="round" stroke-width=".21"><path d="m0 0h44v19h-44z" fill="#fff" stroke="none"/><path d="m.7 14.21 3.22 1.86"/><path d="m6.28 16.07 3.22-1.86"/><path d="m9.5 9.13v5.08"/><path d="m10.31 9.6v4.14"/><path d="m9.5 9.13 4.4-2.53"/><path d="m13.9 6.6v-3.7"/><path d="m18.3 9.13-4.4-2.53"/><path d="m17.48 9.6-3.58-2.07"/><path d="m18.3 9.13 4.4-2.53"/><path d="m22.29 6.83v-3.93"/><path d="m23.1 6.83v-3.93"/><path d="m22.7 6.6 4.4 2.53"/><path d="m31.5 6.6-4.4 2.53"/><path d="m31.5 7.53-3.59 2.07"/><path d="m31.5 6.6v-3.7"/><path d="m31.5 6.6 4.4 2.53"/><path d="m35.9 9.13 3.21-1.85"/><path d="m35.9 14.21v-5.08"/><path d="m35.09 13.74v-4.14"/><path d="m35.9 14.21-4.4 2.54"/><path d="m27.1 14.21 4.4 2.54"/><path d="m27.91 13.74 3.59 2.07"/><path d="m27.1 9.13v5.08"/><path d="m27.1 14.21-3.22 1.86"/><path d="m21.51 16.07-3.21-1.86"/><path d="m18.3 9.13v5.08"/><path d="m13.9 16.75 4.4-2.54"/><path d="m13.9 15.81 3.58-2.07"/><path d="m9.5 14.21 4.4 2.54"/><g stroke="none"><path d="m5.1 16q-.27 0-.43.2-.16.2-.16.55 0 .35.16.55.16.2.43.2.27 0 .43-.2.16-.2.16-.55 0-.35-.16-.55-.16-.2-.43-.2zm0-.21q.39 0 .62.26.23.26.23.7 0 .44-.23.7-.23.26-.62.26-.39 0-.62-.26-.23-.26-.23-.7 0-.43.23-.7.23-.26.62-.26z"/><path d="m13.9.76q-.27 0-.43.2-.16.2-.16.55 0 .35.16.55.16.2.43.2.27 0 .43-.2.16-.2.16-.55 0-.35-.16-.55-.16-.2-.43-.2zm0-.2q.39 0 .62.26.23.26.23.7 0 .44-.23.7-.23.26-.62.26-.39 0-.62-.26-.23-.26-.23-.7 0-.43.23-.7.23-.26.62-.26z"/><path d="m14.96.59h.25v.76h.91v-.76h.25v1.85h-.25v-.88h-.91v.88h-.25z"/><path d="m22.7.76q-.27 0-.43.2-.16.2-.16.55 0 .35.16.55.16.2.43.2.27 0 .43-.2.16-.2.16-.55 0-.35-.16-.55-.16-.2-.43-.2zm0-.2q.39 0 .62.26.23.26.23.7 0 .44-.23.7-.23.26-.62.26-.39 0-.62-.26-.23-.26-.23-.7 0-.43.23-.7.23-.26.62-.26z"/><path d="m31.5.76q-.27 0-.43.2-.16.2-.16.55 0 .35.16.55.16.2.43.2.27 0 .43-.2.16-.2.16-.55 0-.35-.16-.55-.16-.2-.43-.2zm0-.2q.39 0 .62.26.23.26.23.7 0 .44-.23.7-.23.26-.62.26-.39 0-.62-.26-.23-.26-.23-.7 0-.43.23-.7.23-.26.62-.26z"/><path d="m32.56.59h.25v.76h.91v-.76h.25v1.85h-.25v-.88h-.91v.88h-.25z"/><path d="m40.3 5.84q-.27 0-.43.2-.16.2-.16.55 0 .35.16.55.16.2.43.2.27 0 .43-.2.16-.2.16-.55 0-.35-.16-.55-.16-.2-.43-.2zm0-.2q.39 0 .62.26.23.26.23.7 0 .44-.23.7-.23.26-.62.26-.39 0-.62-.26-.23-.26-.23-.7 0-.43.23-.7.23-.26.62-.26z"/><path d="m41.36 5.67h.25v.76h.91v-.76h.25v1.85h-.25v-.88h-.91v.88h-.25z"/><path d="m22.7 16q-.27 0-.43.2-.16.2-.16.55 0 .35.16.55.16.2.43.2.27 0 .43-.2.16-.2.16-.55 0-.35-.16-.55-.16-.2-.43-.2zm0-.21q.39 0 .62.26.23.26.23.7 0 .44-.23.7-.23.26-.62.26-.39 0-.62-.26-.23-.26-.23-.7 0-.43.23-.7.23-.26.62-.26z"/></g></g></svg>