<svg height="35.74mm" viewBox="0 0 50.04 35.74" width="50.04mm" xmlns="http://www.w3.org/2000/svg"><g fill="#ff0d0d" stroke="#000" stroke-linecap="round" stroke-linejoin="round" stroke-width=".21"><path d="m0 0h51v36h-51z" fill="#fff" stroke="none"/><path d="m38.21.66v5.08"/><path d="m38.21 5.74 4.41 2.54"/><path d="m42.62 8.28v5.08"/><path d="m42.62 13.36-4.41 2.54"/><path d="m38.21 15.9 4.4 2.55"/><path d="m43.02 18.21v3.94"/><path d="m42.21 18.21-.01 3.94"/><path d="m42.61 18.45 3.22-1.86"/><path d="m38.21 15.9v5.08"/><path d="m38.21 20.98-4.4 2.54"/><path d="m33.81 23.52-4.4-2.54"/><path d="m29.41 20.98v5.08"/><path d="m29.41 20.98v-5.08"/><path d="m29.41 15.9-4.41-2.54"/><path d="m28.59 16.37-3.58-2.07"/><path d="m25 13.36-4.36 2.54"/><path d="m20.64 15.9-3.22-1.85"/><path d="m20.64 15.9v5.08"/><path d="m20.64 20.98-4.41 2.54"/><path d="m16.23 23.52v-5.08"/><path d="m16.23 23.52-4.4-2.54"/><path d="m11.83 20.98-4.4 2.54"/><path d="m7.43 23.52v5.08"/><path d="m7.43 28.6-3.22 1.86"/><path d="m7.43 28.6 4.4 2.54"/><path d="m11.83 31.14-3.26 3.9"/><path d="m11.83 31.14 3.27 3.9"/><path d="m11.83 31.14 4.4-2.54"/><path d="m16.23 23.52v5.08"/><path d="m16.23 28.6 4.41 2.54"/><path d="m20.64 31.14 4.36-2.54"/><path d="m25 28.6v-5.08"/><path d="m20.64 20.98 4.36 2.54"/><path d="m29.41 20.98-4.41 2.54"/><path d="m25 23.52.01-5.08"/><path d="m29.41 15.9 4.4-2.54"/><path d="m38.21 15.9-4.4-2.54"/><path d="m33.81 13.36v-5.08"/><path d="m38.21 5.74-4.4 2.54"/><path d="m33.81 8.28-4.4-2.54"/><g stroke="none"><path d="m42.61 22.77q-.27 0-.43.2-.16.2-.16.55 0 .35.16.55.16.2.43.2.27 0 .43-.2.16-.2.16-.55 0-.35-.16-.55-.16-.2-.43-.2zm0-.2q.39 0 .62.26.23.26.23.7 0 .44-.23.7-.23.26-.62.26-.39 0-.62-.26-.23-.26-.23-.7 0-.43.23-.7.23-.26.62-.26z"/><path d="m47.01 15.15q-.27 0-.43.2-.16.2-.16.55 0 .35.16.55.16.2.43.2.27 0 .43-.2.16-.2.16-.55 0-.35-.16-.55-.16-.2-.43-.2zm0-.2q.39 0 .62.26.23.26.23.7 0 .44-.23.7-.23.26-.62.26-.39 0-.62-.26-.23-.26-.23-.7 0-.43.23-.7.23-.26.62-.26z"/><path d="m48.08 14.98h.25v.76h.91v-.76h.25v1.85h-.25v-.88h-.91v.88h-.25z"/><path d="m16.23 12.62q-.27 0-.43.2-.16.2-.16.55 0 .35.16.55.16.2.43.2.27 0 .43-.2.16-.2.16-.55 0-.35-.16-.55-.16-.2-.43-.2zm0-.21q.39 0 .62.26.23.26.23.7 0 .44-.23.7-.23.26-.62.26-.39 0-.62-.26-.23-.26-.23-.7 0-.43.23-.7.23-.26.62-.26z"/><path d="m13.76 12.45h.25v.76h.91v-.76h.25v1.85h-.25v-.88h-.91v.88h-.25z"/><path d="m3.03 30.39q-.27 0-.43.2-.16.2-.16.55 0 .35.16.55.16.2.43.2.27 0 .43-.2.16-.2.16-.55 0-.35-.16-.55-.16-.2-.43-.2zm0-.2q.39 0 .62.26.23.26.23.7 0 .44-.23.7-.23.26-.62.26-.39 0-.62-.26-.23-.26-.23-.7 0-.43.23-.7.23-.26.62-.26z"/><path d="m.56 30.22h.25v.76h.91v-.76h.25v1.85h-.25v-.88h-.91v.88h-.25z"/></g></g></svg>