<svg height="42.92mm" viewBox="0 0 57.25 42.92" width="57.25mm" xmlns="http://www.w3.org/2000/svg"><g fill="#ff0d0d" stroke="#000" stroke-linecap="round" stroke-linejoin="round" stroke-width=".21"><path d="m0 0h58v43h-58z" fill="#fff" stroke="none"/><path d="m33.83 34.59-4.39-2.54"/><path d="m33.83 33.65-3.99-2.31"/><path d="m33.83 34.59 4.4-2.54"/><path d="m38.23 32.05v-5.08"/><path d="m38.23 26.97-3.21-1.86"/><path d="m33.84 23.05v-3.71"/><path d="m33.84 19.34 3.26-1.89"/><path d="m38.29 15.38.01-3.7"/><path d="m38.3 11.68 4.41-2.53"/><path d="m42.71 9.15.01-3.7"/><path d="m38.3 11.68-4.36-2.54"/><path d="m33.94 9.14.02-3.7"/><path d="m33.94 9.14-4.44 2.51"/><path d="m29.5 11.65-3.2-1.88"/><path d="m29.5 11.65-.02 5.16"/><path d="m33.84 19.34-4.36-2.53"/><path d="m29.48 16.81-3.23 1.84"/><path d="m23.89 18.64-3.21-1.87"/><path d="m20.27 17 .02-3.94"/><path d="m21.08 17.01.02-3.94"/><path d="m20.68 16.77-4.41 2.52"/><path d="m16.24 24.37.03-5.08"/><path d="m15.43 23.9.02-4.14"/><path d="m16.24 24.37 3.21 1.87"/><path d="m16.24 24.37-4.41 2.52"/><path d="m7.44 24.33 4.39 2.56"/><path d="m8.25 23.87 3.58 2.08"/><path d="m7.44 24.33-3.22 1.84"/><path d="m7.44 24.33.02-5.08"/><path d="m11.87 16.73-4.41 2.52"/><path d="m11.87 17.67-3.6 2.05"/><path d="m16.27 19.29-4.4-2.56"/><path d="m11.87 16.73.03-5.08"/><path d="m7.51 9.09 4.39 2.56"/><path d="m8.32 8.62 3.58 2.09"/><path d="m7.51 9.09.03-5.05"/><path d="m11.95 1.51-4.41 2.53"/><path d="m11.95 2.45-3.6 2.06"/><path d="m11.95 1.51 4.38 2.54"/><path d="m16.33 4.05 3.22-1.85"/><path d="m16.31 9.13.02-5.08"/><path d="m15.5 8.66.01-4.15"/><path d="m11.9 11.65 4.41-2.52"/><path d="m38.23 26.97 3.22-1.86"/><path d="m43.82 25.11 3.21 1.86"/><path d="m47.03 32.05v-5.08"/><path d="m46.22 31.58v-4.14"/><path d="m47.03 32.05 4.4 2.55"/><path d="m51.03 34.36 3.42-1.97"/><path d="m51.43 35.07 3.42-1.97"/><path d="m51.43 34.6v3.7"/><path d="m50.25 40.36-3.22 1.86"/><path d="m47.03 42.22-4.4-2.54"/><path d="m42.63 39.68v-5.09"/><path d="m47.03 32.05-4.4 2.54"/><path d="m38.23 32.05 4.4 2.54"/><g stroke="none"><path d="m33.84 23.67q-.27 0-.43.2-.16.2-.16.55 0 .35.16.55.16.2.43.2.27 0 .43-.2.16-.2.16-.55 0-.35-.16-.55-.16-.2-.43-.2zm0-.2q.39 0 .62.26.23.26.23.7 0 .44-.23.7-.23.26-.62.26-.39 0-.62-.26-.23-.26-.23-.7 0-.43.23-.7.23-.26.62-.26z"/><path d="m38.28 16q-.27 0-.43.2-.16.2-.16.55 0 .35.16.55.16.2.43.2.27 0 .43-.2.16-.2.16-.55 0-.35-.16-.55-.16-.2-.43-.2zm0-.2q.39 0 .62.26.23.26.23.7 0 .44-.23.7-.23.26-.62.26-.39 0-.62-.26-.23-.26-.23-.7 0-.43.23-.7.23-.26.62-.26z"/><path d="m42.73 3.32q-.27 0-.43.2-.16.2-.16.55 0 .35.16.55.16.2.43.2.27 0 .43-.2.16-.2.16-.55 0-.35-.16-.55-.16-.2-.43-.2zm0-.2q.39 0 .62.26.23.26.23.7 0 .44-.23.7-.23.26-.62.26-.39 0-.62-.26-.23-.26-.23-.7 0-.43.23-.7.23-.26.62-.26z"/><path d="m43.79 3.15h.25v.76h.91v-.76h.25v1.85h-.25v-.88h-.91v.88h-.25z"/><path d="m33.97 3.3q-.27 0-.43.2-.16.2-.16.55 0 .35.16.55.16.2.43.2.27 0 .43-.2.16-.2.16-.55 0-.35-.16-.55-.16-.2-.43-.2zm0-.2q.39 0 .62.26.23.26.23.7 0 .44-.23.7-.23.26-.62.26-.39 0-.62-.26-.23-.26-.23-.7 0-.43.23-.7.23-.26.62-.26z"/><path d="m35.04 3.13h.25v.76h.91v-.76h.25v1.85h-.25v-.88h-.91v.88h-.25z"/><path d="m25.12 8.32q-.27 0-.43.2-.16.2-.16.55 0 .35.16.55.16.2.43.2.27 0 .43-.2.16-.2.16-.55 0-.35-.16-.55-.16-.2-.43-.2zm0-.2q.39 0 .62.26.23.26.23.7 0 .44-.23.7-.23.26-.62.26-.39 0-.62-.26-.23-.26-.23-.7 0-.43.23-.7.23-.26.62-.26z"/><path d="m22.65 8.15h.25v.76h.91v-.76h.25v1.85h-.25v-.88h-.91v.88h-.25z"/><path d="m25.07 18.57q-.27 0-.43.2-.16.2-.16.55 0 .35.16.55.16.2.43.2.27 0 .43-.2.16-.2.16-.55 0-.35-.16-.55-.16-.2-.43-.2zm0-.2q.39 0 .62.26.23.26.23.7 0 .44-.23.7-.23.26-.62.26-.39 0-.62-.26-.23-.26-.23-.7 0-.43.23-.7.23-.26.62-.26z"/><path d="m20.7 10.93q-.27 0-.43.2-.16.2-.16.55 0 .35.16.55.16.2.43.2.27 0 .43-.2.16-.2.16-.55 0-.35-.16-.55-.16-.2-.43-.2zm0-.2q.39 0 .62.26.23.26.23.7 0 .44-.23.7-.23.26-.62.26-.39 0-.62-.26-.23-.26-.23-.7 0-.43.23-.7.23-.26.62-.26z"/><path d="m20.63 26.18q-.27 0-.43.2-.16.2-.16.55 0 .35.16.55.16.2.43.2.27 0 .43-.2.16-.2.16-.55 0-.35-.16-.55-.16-.2-.43-.2zm0-.21q.39 0 .62.26.23.26.23.7 0 .44-.23.7-.23.26-.62.26-.39 0-.62-.26-.23-.26-.23-.7 0-.43.23-.7.23-.26.62-.26z"/><path d="m21.7 26.01h.25v.76h.91v-.76h.25v1.85h-.25v-.88h-.91v.88h-.25z"/><path d="m3.03 26.1q-.27 0-.43.2-.16.2-.16.55 0 .35.16.55.16.2.43.2.27 0 .43-.2.16-.2.16-.55 0-.35-.16-.55-.16-.2-.43-.2zm0-.2q.39 0 .62.26.23.26.23.7 0 .44-.23.7-.23.26-.62.26-.39 0-.62-.26-.23-.26-.23-.7 0-.43.23-.7.23-.26.62-.26z"/><path d="m.56 25.93h.25v.76h.91v-.76h.25v1.85h-.25v-.88h-.91v.88h-.25z"/><path d="m20.73.76q-.27 0-.43.2-.16.2-.16.55 0 .35.16.55.16.2.43.2.27 0 .43-.2.16-.2.16-.55 0-.35-.16-.55-.16-.2-.43-.2zm0-.2q.39 0 .62.26.23.26.23.7 0 .44-.23.7-.23.26-.62.26-.39 0-.62-.26-.23-.26-.23-.7 0-.43.23-.7.23-.26.62-.26z"/><path d="m21.8.59h.25v.76h.91v-.76h.25v1.85h-.25v-.88h-.91v.88h-.25z"/><path d="m42.64 23.67q-.27 0-.43.2-.16.2-.16.55 0 .35.16.55.16.2.43.2.27 0 .43-.2.16-.2.16-.55 0-.35-.16-.55-.16-.2-.43-.2zm0-.2q.39 0 .62.26.23.26.23.7 0 .44-.23.7-.23.26-.62.26-.39 0-.62-.26-.23-.26-.23-.7 0-.43.23-.7.23-.26.62-.26z"/><path d="m55.84 31.31q-.27 0-.43.2-.16.2-.16.55 0 .35.16.55.16.2.43.2.27 0 .43-.2.16-.2.16-.55 0-.35-.16-.55-.16-.2-.43-.2zm0-.21q.39 0 .62.26.23.26.23.7 0 .44-.23.7-.23.26-.62.26-.39 0-.62-.26-.23-.26-.23-.7 0-.43.23-.7.23-.26.62-.26z"/><path d="m51.44 38.93q-.27 0-.43.2-.16.2-.16.55 0 .35.16.55.16.2.43.2.27 0 .43-.2.16-.2.16-.55 0-.35-.16-.55-.16-.2-.43-.2zm0-.21q.39 0 .62.26.23.26.23.7 0 .44-.23.7-.23.26-.62.26-.39 0-.62-.26-.23-.26-.23-.7 0-.43.23-.7.23-.26.62-.26z"/></g></g></svg>