<svg xmlns="http://www.w3.org/2000/svg" xmlns:xlink="http://www.w3.org/1999/xlink" width="57.25mm" height="42.92mm" version="1.2" viewBox="0 0 57.25 42.92"><desc>Generated by the Chemistry Development Kit (http://github.com/cdk)</desc><g fill="#FF0D0D" stroke="#000" stroke-linecap="round" stroke-linejoin="round" stroke-width=".21"><rect width="58" height="43" x="0" y="0" fill="#FFF" stroke="none"/><g id="mol1" class="mol"><g id="mol1bnd1" class="bond"><line x1="33.83" x2="29.44" y1="34.59" y2="32.05"/><line x1="33.83" x2="29.84" y1="33.65" y2="31.34"/></g><line id="mol1bnd2" x1="33.83" x2="38.23" y1="34.59" y2="32.05" class="bond"/><line id="mol1bnd3" x1="38.23" x2="38.23" y1="32.05" y2="26.97" class="bond"/><line id="mol1bnd4" x1="38.23" x2="35.02" y1="26.97" y2="25.11" class="bond"/><line id="mol1bnd5" x1="33.84" x2="33.84" y1="23.05" y2="19.34" class="bond"/><line id="mol1bnd6" x1="33.84" x2="37.1" y1="19.34" y2="17.45" class="bond"/><line id="mol1bnd7" x1="38.29" x2="38.3" y1="15.38" y2="11.68" class="bond"/><line id="mol1bnd8" x1="38.3" x2="42.71" y1="11.68" y2="9.15" class="bond"/><line id="mol1bnd9" x1="42.71" x2="42.72" y1="9.15" y2="5.45" class="bond"/><line id="mol1bnd10" x1="38.3" x2="33.94" y1="11.68" y2="9.14" class="bond"/><line id="mol1bnd11" x1="33.94" x2="33.96" y1="9.14" y2="5.44" class="bond"/><line id="mol1bnd12" x1="33.94" x2="29.5" y1="9.14" y2="11.65" class="bond"/><line id="mol1bnd13" x1="29.5" x2="26.3" y1="11.65" y2="9.77" class="bond"/><line id="mol1bnd14" x1="29.5" x2="29.48" y1="11.65" y2="16.81" class="bond"/><line id="mol1bnd15" x1="33.84" x2="29.48" y1="19.34" y2="16.81" class="bond"/><line id="mol1bnd16" x1="29.48" x2="26.25" y1="16.81" y2="18.65" class="bond"/><line id="mol1bnd17" x1="23.89" x2="20.68" y1="18.64" y2="16.77" class="bond"/><g id="mol1bnd18" class="bond"><line x1="20.27" x2="20.29" y1="17" y2="13.06"/><line x1="21.08" x2="21.1" y1="17.01" y2="13.07"/></g><line id="mol1bnd19" x1="20.68" x2="16.27" y1="16.77" y2="19.29" class="bond"/><g id="mol1bnd20" class="bond"><line x1="16.24" x2="16.27" y1="24.37" y2="19.29"/><line x1="15.43" x2="15.45" y1="23.9" y2="19.76"/></g><line id="mol1bnd21" x1="16.24" x2="19.45" y1="24.37" y2="26.24" class="bond"/><line id="mol1bnd22" x1="16.24" x2="11.83" y1="24.37" y2="26.89" class="bond"/><g id="mol1bnd23" class="bond"><line x1="7.44" x2="11.83" y1="24.33" y2="26.89"/><line x1="8.25" x2="11.83" y1="23.87" y2="25.95"/></g><line id="mol1bnd24" x1="7.44" x2="4.22" y1="24.33" y2="26.17" class="bond"/><line id="mol1bnd25" x1="7.44" x2="7.46" y1="24.33" y2="19.25" class="bond"/><g id="mol1bnd26" class="bond"><line x1="11.87" x2="7.46" y1="16.73" y2="19.25"/><line x1="11.87" x2="8.27" y1="17.67" y2="19.72"/></g><line id="mol1bnd27" x1="16.27" x2="11.87" y1="19.29" y2="16.73" class="bond"/><line id="mol1bnd28" x1="11.87" x2="11.9" y1="16.73" y2="11.65" class="bond"/><g id="mol1bnd29" class="bond"><line x1="7.51" x2="11.9" y1="9.09" y2="11.65"/><line x1="8.32" x2="11.9" y1="8.62" y2="10.71"/></g><line id="mol1bnd30" x1="7.51" x2="7.54" y1="9.09" y2="4.04" class="bond"/><g id="mol1bnd31" class="bond"><line x1="11.95" x2="7.54" y1="1.51" y2="4.04"/><line x1="11.95" x2="8.35" y1="2.45" y2="4.51"/></g><line id="mol1bnd32" x1="11.95" x2="16.33" y1="1.51" y2="4.05" class="bond"/><line id="mol1bnd33" x1="16.33" x2="19.55" y1="4.05" y2="2.2" class="bond"/><g id="mol1bnd34" class="bond"><line x1="16.31" x2="16.33" y1="9.13" y2="4.05"/><line x1="15.5" x2="15.51" y1="8.66" y2="4.51"/></g><line id="mol1bnd35" x1="11.9" x2="16.31" y1="11.65" y2="9.13" class="bond"/><line id="mol1bnd36" x1="38.23" x2="41.45" y1="26.97" y2="25.11" class="bond"/><line id="mol1bnd37" x1="43.82" x2="47.03" y1="25.11" y2="26.97" class="bond"/><g id="mol1bnd38" class="bond"><line x1="47.03" x2="47.03" y1="32.05" y2="26.97"/><line x1="46.22" x2="46.22" y1="31.58" y2="27.44"/></g><line id="mol1bnd39" x1="47.03" x2="51.43" y1="32.05" y2="34.6" class="bond"/><g id="mol1bnd40" class="bond"><line x1="51.03" x2="54.45" y1="34.36" y2="32.39"/><line x1="51.43" x2="54.85" y1="35.07" y2="33.1"/></g><line id="mol1bnd41" x1="51.43" x2="51.43" y1="34.6" y2="38.3" class="bond"/><line id="mol1bnd42" x1="50.25" x2="47.03" y1="40.36" y2="42.22" class="bond"/><line id="mol1bnd43" x1="47.03" x2="42.63" y1="42.22" y2="39.68" class="bond"/><line id="mol1bnd44" x1="42.63" x2="42.63" y1="39.68" y2="34.59" class="bond"/><line id="mol1bnd45" x1="47.03" x2="42.63" y1="32.05" y2="34.59" class="bond"/><line id="mol1bnd46" x1="38.23" x2="42.63" y1="32.05" y2="34.59" class="bond"/><path id="mol1atm5" stroke="none" d="M33.84 23.67q-.27 .0 -.43 .2q-.16 .2 -.16 .55q.0 .35 .16 .55q.16 .2 .43 .2q.27 .0 .43 -.2q.16 -.2 .16 -.55q.0 -.35 -.16 -.55q-.16 -.2 -.43 -.2zM33.84 23.47q.39 .0 .62 .26q.23 .26 .23 .7q.0 .44 -.23 .7q-.23 .26 -.62 .26q-.39 .0 -.62 -.26q-.23 -.26 -.23 -.7q.0 -.43 .23 -.7q.23 -.26 .62 -.26z" class="atom"/><path id="mol1atm7" stroke="none" d="M38.28 16.0q-.27 .0 -.43 .2q-.16 .2 -.16 .55q.0 .35 .16 .55q.16 .2 .43 .2q.27 .0 .43 -.2q.16 -.2 .16 -.55q.0 -.35 -.16 -.55q-.16 -.2 -.43 -.2zM38.28 15.8q.39 .0 .62 .26q.23 .26 .23 .7q.0 .44 -.23 .7q-.23 .26 -.62 .26q-.39 .0 -.62 -.26q-.23 -.26 -.23 -.7q.0 -.43 .23 -.7q.23 -.26 .62 -.26z" class="atom"/><g id="mol1atm10" class="atom"><path stroke="none" d="M42.73 3.32q-.27 .0 -.43 .2q-.16 .2 -.16 .55q.0 .35 .16 .55q.16 .2 .43 .2q.27 .0 .43 -.2q.16 -.2 .16 -.55q.0 -.35 -.16 -.55q-.16 -.2 -.43 -.2zM42.73 3.12q.39 .0 .62 .26q.23 .26 .23 .7q.0 .44 -.23 .7q-.23 .26 -.62 .26q-.39 .0 -.62 -.26q-.23 -.26 -.23 -.7q.0 -.43 .23 -.7q.23 -.26 .62 -.26z"/><path stroke="none" d="M43.79 3.15h.25v.76h.91v-.76h.25v1.85h-.25v-.88h-.91v.88h-.25v-1.85z"/></g><g id="mol1atm12" class="atom"><path stroke="none" d="M33.97 3.3q-.27 .0 -.43 .2q-.16 .2 -.16 .55q.0 .35 .16 .55q.16 .2 .43 .2q.27 .0 .43 -.2q.16 -.2 .16 -.55q.0 -.35 -.16 -.55q-.16 -.2 -.43 -.2zM33.97 3.1q.39 .0 .62 .26q.23 .26 .23 .7q.0 .44 -.23 .7q-.23 .26 -.62 .26q-.39 .0 -.62 -.26q-.23 -.26 -.23 -.7q.0 -.43 .23 -.7q.23 -.26 .62 -.26z"/><path stroke="none" d="M35.04 3.13h.25v.76h.91v-.76h.25v1.85h-.25v-.88h-.91v.88h-.25v-1.85z"/></g><g id="mol1atm14" class="atom"><path stroke="none" d="M25.12 8.32q-.27 .0 -.43 .2q-.16 .2 -.16 .55q.0 .35 .16 .55q.16 .2 .43 .2q.27 .0 .43 -.2q.16 -.2 .16 -.55q.0 -.35 -.16 -.55q-.16 -.2 -.43 -.2zM25.12 8.12q.39 .0 .62 .26q.23 .26 .23 .7q.0 .44 -.23 .7q-.23 .26 -.62 .26q-.39 .0 -.62 -.26q-.23 -.26 -.23 -.7q.0 -.43 .23 -.7q.23 -.26 .62 -.26z"/><path stroke="none" d="M22.65 8.15h.25v.76h.91v-.76h.25v1.85h-.25v-.88h-.91v.88h-.25v-1.85z"/></g><path id="mol1atm16" stroke="none" d="M25.07 18.57q-.27 .0 -.43 .2q-.16 .2 -.16 .55q.0 .35 .16 .55q.16 .2 .43 .2q.27 .0 .43 -.2q.16 -.2 .16 -.55q.0 -.35 -.16 -.55q-.16 -.2 -.43 -.2zM25.07 18.37q.39 .0 .62 .26q.23 .26 .23 .7q.0 .44 -.23 .7q-.23 .26 -.62 .26q-.39 .0 -.62 -.26q-.23 -.26 -.23 -.7q.0 -.43 .23 -.7q.23 -.26 .62 -.26z" class="atom"/><path id="mol1atm18" stroke="none" d="M20.7 10.93q-.27 .0 -.43 .2q-.16 .2 -.16 .55q.0 .35 .16 .55q.16 .2 .43 .2q.27 .0 .43 -.2q.16 -.2 .16 -.55q.0 -.35 -.16 -.55q-.16 -.2 -.43 -.2zM20.7 10.73q.39 .0 .62 .26q.23 .26 .23 .7q.0 .44 -.23 .7q-.23 .26 -.62 .26q-.39 .0 -.62 -.26q-.23 -.26 -.23 -.7q.0 -.43 .23 -.7q.23 -.26 .62 -.26z" class="atom"/><g id="mol1atm21" class="atom"><path stroke="none" d="M20.63 26.18q-.27 .0 -.43 .2q-.16 .2 -.16 .55q.0 .35 .16 .55q.16 .2 .43 .2q.27 .0 .43 -.2q.16 -.2 .16 -.55q.0 -.35 -.16 -.55q-.16 -.2 -.43 -.2zM20.63 25.97q.39 .0 .62 .26q.23 .26 .23 .7q.0 .44 -.23 .7q-.23 .26 -.62 .26q-.39 .0 -.62 -.26q-.23 -.26 -.23 -.7q.0 -.43 .23 -.7q.23 -.26 .62 -.26z"/><path stroke="none" d="M21.7 26.01h.25v.76h.91v-.76h.25v1.85h-.25v-.88h-.91v.88h-.25v-1.85z"/></g><g id="mol1atm24" class="atom"><path stroke="none" d="M3.03 26.1q-.27 .0 -.43 .2q-.16 .2 -.16 .55q.0 .35 .16 .55q.16 .2 .43 .2q.27 .0 .43 -.2q.16 -.2 .16 -.55q.0 -.35 -.16 -.55q-.16 -.2 -.43 -.2zM3.03 25.9q.39 .0 .62 .26q.23 .26 .23 .7q.0 .44 -.23 .7q-.23 .26 -.62 .26q-.39 .0 -.62 -.26q-.23 -.26 -.23 -.7q.0 -.43 .23 -.7q.23 -.26 .62 -.26z"/><path stroke="none" d="M.56 25.93h.25v.76h.91v-.76h.25v1.85h-.25v-.88h-.91v.88h-.25v-1.85z"/></g><g id="mol1atm32" class="atom"><path stroke="none" d="M20.73 .76q-.27 .0 -.43 .2q-.16 .2 -.16 .55q.0 .35 .16 .55q.16 .2 .43 .2q.27 .0 .43 -.2q.16 -.2 .16 -.55q.0 -.35 -.16 -.55q-.16 -.2 -.43 -.2zM20.73 .56q.39 .0 .62 .26q.23 .26 .23 .7q.0 .44 -.23 .7q-.23 .26 -.62 .26q-.39 .0 -.62 -.26q-.23 -.26 -.23 -.7q.0 -.43 .23 -.7q.23 -.26 .62 -.26z"/><path stroke="none" d="M21.8 .59h.25v.76h.91v-.76h.25v1.85h-.25v-.88h-.91v.88h-.25v-1.85z"/></g><path id="mol1atm34" stroke="none" d="M42.64 23.67q-.27 .0 -.43 .2q-.16 .2 -.16 .55q.0 .35 .16 .55q.16 .2 .43 .2q.27 .0 .43 -.2q.16 -.2 .16 -.55q.0 -.35 -.16 -.55q-.16 -.2 -.43 -.2zM42.64 23.47q.39 .0 .62 .26q.23 .26 .23 .7q.0 .44 -.23 .7q-.23 .26 -.62 .26q-.39 .0 -.62 -.26q-.23 -.26 -.23 -.7q.0 -.43 .23 -.7q.23 -.26 .62 -.26z" class="atom"/><path id="mol1atm38" stroke="none" d="M55.84 31.31q-.27 .0 -.43 .2q-.16 .2 -.16 .55q.0 .35 .16 .55q.16 .2 .43 .2q.27 .0 .43 -.2q.16 -.2 .16 -.55q.0 -.35 -.16 -.55q-.16 -.2 -.43 -.2zM55.84 31.1q.39 .0 .62 .26q.23 .26 .23 .7q.0 .44 -.23 .7q-.23 .26 -.62 .26q-.39 .0 -.62 -.26q-.23 -.26 -.23 -.7q.0 -.43 .23 -.7q.23 -.26 .62 -.26z" class="atom"/><path id="mol1atm39" stroke="none" d="M51.44 38.93q-.27 .0 -.43 .2q-.16 .2 -.16 .55q.0 .35 .16 .55q.16 .2 .43 .2q.27 .0 .43 -.2q.16 -.2 .16 -.55q.0 -.35 -.16 -.55q-.16 -.2 -.43 -.2zM51.44 38.72q.39 .0 .62 .26q.23 .26 .23 .7q.0 .44 -.23 .7q-.23 .26 -.62 .26q-.39 .0 -.62 -.26q-.23 -.26 -.23 -.7q.0 -.43 .23 -.7q.23 -.26 .62 -.26z" class="atom"/></g></g></svg>