<svg xmlns="http://www.w3.org/2000/svg" xmlns:xlink="http://www.w3.org/1999/xlink" width="34.53mm" height="26.79mm" version="1.2" viewBox="0 0 34.53 26.79"><desc>Generated by the Chemistry Development Kit (http://github.com/cdk)</desc><g fill="#FF0D0D" stroke="#000" stroke-linecap="round" stroke-linejoin="round" stroke-width=".21"><rect width="35" height="27" x="0" y="0" fill="#FFF" stroke="none"/><g id="mol1" class="mol"><line id="mol1bnd1" x1="7.43" x2="10.64" y1="26.09" y2="24.23" class="bond"/><line id="mol1bnd2" x1="11.83" x2="11.83" y1="22.17" y2="18.47" class="bond"/><g id="mol1bnd3" class="bond"><line x1="7.43" x2="11.83" y1="15.93" y2="18.47"/><line x1="8.24" x2="11.83" y1="15.47" y2="17.54"/></g><line id="mol1bnd4" x1="7.43" x2="4.21" y1="15.93" y2="17.79" class="bond"/><line id="mol1bnd5" x1="7.43" x2="7.43" y1="15.93" y2="10.86" class="bond"/><g id="mol1bnd6" class="bond"><line x1="11.83" x2="7.43" y1="8.32" y2="10.86"/><line x1="11.83" x2="8.24" y1="9.26" y2="11.33"/></g><line id="mol1bnd7" x1="11.83" x2="11.83" y1="8.32" y2="4.62" class="bond"/><line id="mol1bnd8" x1="11.83" x2="16.23" y1="8.32" y2="10.86" class="bond"/><line id="mol1bnd9" x1="16.23" x2="20.63" y1="10.86" y2="8.32" class="bond"/><g id="mol1bnd10" class="bond"><line x1="20.22" x2="20.22" y1="8.55" y2="4.62"/><line x1="21.03" x2="21.03" y1="8.55" y2="4.62"/></g><line id="mol1bnd11" x1="20.63" x2="25.03" y1="8.32" y2="10.86" class="bond"/><g id="mol1bnd12" class="bond"><line x1="29.43" x2="25.03" y1="8.32" y2="10.86"/><line x1="29.43" x2="25.84" y1="9.26" y2="11.33"/></g><line id="mol1bnd13" x1="29.43" x2="29.43" y1="8.32" y2="4.62" class="bond"/><line id="mol1bnd14" x1="30.61" x2="33.82" y1="2.56" y2=".7" class="bond"/><line id="mol1bnd15" x1="29.43" x2="33.83" y1="8.32" y2="10.86" class="bond"/><g id="mol1bnd16" class="bond"><line x1="33.83" x2="33.83" y1="15.93" y2="10.86"/><line x1="33.01" x2="33.01" y1="15.47" y2="11.33"/></g><line id="mol1bnd17" x1="33.83" x2="29.43" y1="15.93" y2="18.47" class="bond"/><g id="mol1bnd18" class="bond"><line x1="25.03" x2="29.43" y1="15.93" y2="18.47"/><line x1="25.84" x2="29.43" y1="15.47" y2="17.54"/></g><line id="mol1bnd19" x1="25.03" x2="25.03" y1="10.86" y2="15.93" class="bond"/><line id="mol1bnd20" x1="25.03" x2="21.81" y1="15.93" y2="17.79" class="bond"/><line id="mol1bnd21" x1="19.44" x2="16.23" y1="17.79" y2="15.93" class="bond"/><line id="mol1bnd22" x1="11.83" x2="16.23" y1="18.47" y2="15.93" class="bond"/><g id="mol1bnd23" class="bond"><line x1="16.23" x2="16.23" y1="15.93" y2="10.86"/><line x1="15.41" x2="15.41" y1="15.47" y2="11.33"/></g><path id="mol1atm2" stroke="none" d="M11.83 22.8q-.27 .0 -.43 .2q-.16 .2 -.16 .55q.0 .35 .16 .55q.16 .2 .43 .2q.27 .0 .43 -.2q.16 -.2 .16 -.55q.0 -.35 -.16 -.55q-.16 -.2 -.43 -.2zM11.83 22.59q.39 .0 .62 .26q.23 .26 .23 .7q.0 .44 -.23 .7q-.23 .26 -.62 .26q-.39 .0 -.62 -.26q-.23 -.26 -.23 -.7q.0 -.43 .23 -.7q.23 -.26 .62 -.26z" class="atom"/><g id="mol1atm5" class="atom"><path stroke="none" d="M3.03 17.72q-.27 .0 -.43 .2q-.16 .2 -.16 .55q.0 .35 .16 .55q.16 .2 .43 .2q.27 .0 .43 -.2q.16 -.2 .16 -.55q.0 -.35 -.16 -.55q-.16 -.2 -.43 -.2zM3.03 17.52q.39 .0 .62 .26q.23 .26 .23 .7q.0 .44 -.23 .7q-.23 .26 -.62 .26q-.39 .0 -.62 -.26q-.23 -.26 -.23 -.7q.0 -.43 .23 -.7q.23 -.26 .62 -.26z"/><path stroke="none" d="M.56 17.55h.25v.76h.91v-.76h.25v1.85h-.25v-.88h-.91v.88h-.25v-1.85z"/></g><g id="mol1atm8" class="atom"><path stroke="none" d="M11.83 2.49q-.27 .0 -.43 .2q-.16 .2 -.16 .55q.0 .35 .16 .55q.16 .2 .43 .2q.27 .0 .43 -.2q.16 -.2 .16 -.55q.0 -.35 -.16 -.55q-.16 -.2 -.43 -.2zM11.83 2.28q.39 .0 .62 .26q.23 .26 .23 .7q.0 .44 -.23 .7q-.23 .26 -.62 .26q-.39 .0 -.62 -.26q-.23 -.26 -.23 -.7q.0 -.43 .23 -.7q.23 -.26 .62 -.26z"/><path stroke="none" d="M12.89 2.32h.25v.76h.91v-.76h.25v1.85h-.25v-.88h-.91v.88h-.25v-1.85z"/></g><path id="mol1atm11" stroke="none" d="M20.63 2.49q-.27 .0 -.43 .2q-.16 .2 -.16 .55q.0 .35 .16 .55q.16 .2 .43 .2q.27 .0 .43 -.2q.16 -.2 .16 -.55q.0 -.35 -.16 -.55q-.16 -.2 -.43 -.2zM20.63 2.28q.39 .0 .62 .26q.23 .26 .23 .7q.0 .44 -.23 .7q-.23 .26 -.62 .26q-.39 .0 -.62 -.26q-.23 -.26 -.23 -.7q.0 -.43 .23 -.7q.23 -.26 .62 -.26z" class="atom"/><path id="mol1atm14" stroke="none" d="M29.43 2.49q-.27 .0 -.43 .2q-.16 .2 -.16 .55q.0 .35 .16 .55q.16 .2 .43 .2q.27 .0 .43 -.2q.16 -.2 .16 -.55q.0 -.35 -.16 -.55q-.16 -.2 -.43 -.2zM29.43 2.28q.39 .0 .62 .26q.23 .26 .23 .7q.0 .44 -.23 .7q-.23 .26 -.62 .26q-.39 .0 -.62 -.26q-.23 -.26 -.23 -.7q.0 -.43 .23 -.7q.23 -.26 .62 -.26z" class="atom"/><path id="mol1atm20" stroke="none" d="M20.63 17.72q-.27 .0 -.43 .2q-.16 .2 -.16 .55q.0 .35 .16 .55q.16 .2 .43 .2q.27 .0 .43 -.2q.16 -.2 .16 -.55q.0 -.35 -.16 -.55q-.16 -.2 -.43 -.2zM20.63 17.52q.39 .0 .62 .26q.23 .26 .23 .7q.0 .44 -.23 .7q-.23 .26 -.62 .26q-.39 .0 -.62 -.26q-.23 -.26 -.23 -.7q.0 -.43 .23 -.7q.23 -.26 .62 -.26z" class="atom"/></g></g></svg>