<svg height="26.79mm" viewBox="0 0 34.53 26.79" width="34.53mm" xmlns="http://www.w3.org/2000/svg"><g fill="#ff0d0d" stroke="#000" stroke-linecap="round" stroke-linejoin="round" stroke-width=".21"><path d="m0 0h35v27h-35z" fill="#fff" stroke="none"/><path d="m7.43 26.09 3.21-1.86"/><path d="m11.83 22.17v-3.7"/><path d="m7.43 15.93 4.4 2.54"/><path d="m8.24 15.47 3.59 2.07"/><path d="m7.43 15.93-3.22 1.86"/><path d="m7.43 15.93v-5.07"/><path d="m11.83 8.32-4.4 2.54"/><path d="m11.83 9.26-3.59 2.07"/><path d="m11.83 8.32v-3.7"/><path d="m11.83 8.32 4.4 2.54"/><path d="m16.23 10.86 4.4-2.54"/><path d="m20.22 8.55v-3.93"/><path d="m21.03 8.55v-3.93"/><path d="m20.63 8.32 4.4 2.54"/><path d="m29.43 8.32-4.4 2.54"/><path d="m29.43 9.26-3.59 2.07"/><path d="m29.43 8.32v-3.7"/><path d="m30.61 2.56 3.21-1.86"/><path d="m29.43 8.32 4.4 2.54"/><path d="m33.83 15.93v-5.07"/><path d="m33.01 15.47v-4.14"/><path d="m33.83 15.93-4.4 2.54"/><path d="m25.03 15.93 4.4 2.54"/><path d="m25.84 15.47 3.59 2.07"/><path d="m25.03 10.86v5.07"/><path d="m25.03 15.93-3.22 1.86"/><path d="m19.44 17.79-3.21-1.86"/><path d="m11.83 18.47 4.4-2.54"/><path d="m16.23 15.93v-5.07"/><path d="m15.41 15.47v-4.14"/><g stroke="none"><path d="m11.83 22.8q-.27 0-.43.2-.16.2-.16.55 0 .35.16.55.16.2.43.2.27 0 .43-.2.16-.2.16-.55 0-.35-.16-.55-.16-.2-.43-.2zm0-.21q.39 0 .62.26.23.26.23.7 0 .44-.23.7-.23.26-.62.26-.39 0-.62-.26-.23-.26-.23-.7 0-.43.23-.7.23-.26.62-.26z"/><path d="m3.03 17.72q-.27 0-.43.2-.16.2-.16.55 0 .35.16.55.16.2.43.2.27 0 .43-.2.16-.2.16-.55 0-.35-.16-.55-.16-.2-.43-.2zm0-.2q.39 0 .62.26.23.26.23.7 0 .44-.23.7-.23.26-.62.26-.39 0-.62-.26-.23-.26-.23-.7 0-.43.23-.7.23-.26.62-.26z"/><path d="m.56 17.55h.25v.76h.91v-.76h.25v1.85h-.25v-.88h-.91v.88h-.25z"/><path d="m11.83 2.49q-.27 0-.43.2-.16.2-.16.55 0 .35.16.55.16.2.43.2.27 0 .43-.2.16-.2.16-.55 0-.35-.16-.55-.16-.2-.43-.2zm0-.21q.39 0 .62.26.23.26.23.7 0 .44-.23.7-.23.26-.62.26-.39 0-.62-.26-.23-.26-.23-.7 0-.43.23-.7.23-.26.62-.26z"/><path d="m12.89 2.32h.25v.76h.91v-.76h.25v1.85h-.25v-.88h-.91v.88h-.25z"/><path d="m20.63 2.49q-.27 0-.43.2-.16.2-.16.55 0 .35.16.55.16.2.43.2.27 0 .43-.2.16-.2.16-.55 0-.35-.16-.55-.16-.2-.43-.2zm0-.21q.39 0 .62.26.23.26.23.7 0 .44-.23.7-.23.26-.62.26-.39 0-.62-.26-.23-.26-.23-.7 0-.43.23-.7.23-.26.62-.26z"/><path d="m29.43 2.49q-.27 0-.43.2-.16.2-.16.55 0 .35.16.55.16.2.43.2.27 0 .43-.2.16-.2.16-.55 0-.35-.16-.55-.16-.2-.43-.2zm0-.21q.39 0 .62.26.23.26.23.7 0 .44-.23.7-.23.26-.62.26-.39 0-.62-.26-.23-.26-.23-.7 0-.43.23-.7.23-.26.62-.26z"/><path d="m20.63 17.72q-.27 0-.43.2-.16.2-.16.55 0 .35.16.55.16.2.43.2.27 0 .43-.2.16-.2.16-.55 0-.35-.16-.55-.16-.2-.43-.2zm0-.2q.39 0 .62.26.23.26.23.7 0 .44-.23.7-.23.26-.62.26-.39 0-.62-.26-.23-.26-.23-.7 0-.43.23-.7.23-.26.62-.26z"/></g></g></svg>