<svg height="61.48mm" viewBox="0 0 54.44 61.48" width="54.44mm" xmlns="http://www.w3.org/2000/svg"><g fill="#ff0d0d" stroke="#000" stroke-linecap="round" stroke-linejoin="round" stroke-width=".21"><path d="m0 0h55v62h-55z" fill="#fff" stroke="none"/><path d="m8.82 29.83 3.41 1.97"/><path d="m8.41 30.53 3.42 1.97"/><path d="m11.83 32.03 4.4-2.54"/><path d="m16.23 29.49 4.39 2.54"/><path d="m17.04 29.02 3.58 2.07"/><path d="m20.62 32.03v3.7"/><path d="m19.44 37.8-3.22 1.85"/><path d="m16.22 44.73v-5.08"/><path d="m15.41 44.26v-4.14"/><path d="m16.22 44.73 4.4 2.54"/><path d="m20.62 47.27v5.08"/><path d="m21.43 47.74v4.14"/><path d="m20.62 52.35 4.4 2.54"/><path d="m25.02 54.89v3.7"/><path d="m25.02 54.89 4.4-2.54"/><path d="m25.02 53.95 3.58-2.07"/><path d="m29.42 52.35 3.21 1.86"/><path d="m35 54.21 3.22-1.86"/><path d="m38.22 52.35 4.4 2.54"/><path d="m39.03 51.88 3.59 2.07"/><path d="m42.62 54.89 4.4-2.54"/><path d="m47.02 52.35 3.21 1.86"/><path d="m47.02 52.35v-5.08"/><path d="m46.2 51.88v-4.14"/><path d="m47.02 47.27-4.4-2.54"/><path d="m42.62 44.73v-3.7"/><path d="m42.62 44.73-4.4 2.54"/><path d="m42.62 45.67-3.59 2.07"/><path d="m38.22 52.35v-5.08"/><path d="m38.22 47.27-4.4-2.54"/><path d="m33.41 44.97v-3.94"/><path d="m34.22 44.97v-3.94"/><path d="m33.82 44.73-4.4 2.54"/><path d="m29.42 52.35v-5.08"/><path d="m29.42 47.27-4.4-2.54"/><path d="m28.6 47.74-3.58-2.07"/><path d="m20.62 47.27 4.4-2.54"/><path d="m25.02 44.73v-3.7"/><path d="m16.22 44.73-4.4 2.54"/><path d="m11.82 47.27v3.7"/><path d="m7.42 44.73 4.4 2.54"/><path d="m8.24 44.27 3.58 2.06"/><path d="m7.42 44.73.01-5.08"/><path d="m7.43 39.65-3.22-1.85"/><path d="m11.82 37.11-4.39 2.54"/><path d="m11.82 38.05-3.58 2.07"/><path d="m11.83 32.03-.01 5.08"/><path d="m16.22 39.65-4.4-2.54"/><path d="m20.62 32.03 4.4-2.54"/><path d="m25.02 29.49 3.22 1.86"/><path d="m25.02 29.49v-5.08"/><path d="m25.02 24.41-4.39-2.54"/><path d="m20.63 21.87-4.4 2.54"/><path d="m16.23 29.49v-5.08"/><path d="m16.23 24.41-3.21-1.85"/><path d="m11.83 20.5v-3.7"/><path d="m11.83 16.8 3.26-1.9"/><path d="m16.28 12.83.01-3.7"/><path d="m16.29 9.13 4.41-2.52"/><path d="m20.7 6.61.01-3.7"/><path d="m16.29 9.13-4.35-2.53"/><path d="m11.94 6.6.02-3.7"/><path d="m11.94 6.6-4.44 2.5"/><path d="m7.5 9.1-3.2-1.87"/><path d="m7.5 9.1-.03 5.16"/><path d="m11.83 16.8-4.36-2.54"/><path d="m7.47 14.26-3.22 1.84"/><g stroke="none"><path d="m7.43 28.74q-.27 0-.43.2-.16.2-.16.55 0 .35.16.55.16.2.43.2.27 0 .43-.2.16-.2.16-.55 0-.35-.16-.55-.16-.2-.43-.2zm0-.2q.39 0 .62.26.23.26.23.7 0 .44-.23.7-.23.26-.62.26-.39 0-.62-.26-.23-.26-.23-.7 0-.43.23-.7.23-.26.62-.26z"/><path d="m20.62 36.36q-.27 0-.43.2-.16.2-.16.55 0 .35.16.55.16.2.43.2.27 0 .43-.2.16-.2.16-.55 0-.35-.16-.55-.16-.2-.43-.2zm0-.21q.39 0 .62.26.23.26.23.7 0 .44-.23.7-.23.26-.62.26-.39 0-.62-.26-.23-.26-.23-.7 0-.43.23-.7.23-.26.62-.26z"/><path d="m25.02 59.21q-.27 0-.43.2-.16.2-.16.55 0 .35.16.55.16.2.43.2.27 0 .43-.2.16-.2.16-.55 0-.35-.16-.55-.16-.2-.43-.2zm0-.2q.39 0 .62.26.23.26.23.7 0 .44-.23.7-.23.26-.62.26-.39 0-.62-.26-.23-.26-.23-.7 0-.43.23-.7.23-.26.62-.26z"/><path d="m26.08 59.04h.25v.76h.91v-.76h.25v1.85h-.25v-.88h-.91v.88h-.25z"/><path d="m33.82 54.13q-.27 0-.43.2-.16.2-.16.55 0 .35.16.55.16.2.43.2.27 0 .43-.2.16-.2.16-.55 0-.35-.16-.55-.16-.2-.43-.2zm0-.2q.39 0 .62.26.23.26.23.7 0 .44-.23.7-.23.26-.62.26-.39 0-.62-.26-.23-.26-.23-.7 0-.43.23-.7.23-.26.62-.26z"/><path d="m51.41 54.13q-.27 0-.43.2-.16.2-.16.55 0 .35.16.55.16.2.43.2.27 0 .43-.2.16-.2.16-.55 0-.35-.16-.55-.16-.2-.43-.2zm0-.2q.39 0 .62.26.23.26.23.7 0 .44-.23.7-.23.26-.62.26-.39 0-.62-.26-.23-.26-.23-.7 0-.43.23-.7.23-.26.62-.26z"/><path d="m52.48 53.96h.25v.76h.91v-.76h.25v1.85h-.25v-.88h-.91v.88h-.25z"/><path d="m42.62 38.9q-.27 0-.43.2-.16.2-.16.55 0 .35.16.55.16.2.43.2.27 0 .43-.2.16-.2.16-.55 0-.35-.16-.55-.16-.2-.43-.2zm0-.2q.39 0 .62.26.23.26.23.7 0 .44-.23.7-.23.26-.62.26-.39 0-.62-.26-.23-.26-.23-.7 0-.43.23-.7.23-.26.62-.26z"/><path d="m43.68 38.73h.25v.76h.91v-.76h.25v1.85h-.25v-.88h-.91v.88h-.25z"/><path d="m33.82 38.9q-.27 0-.43.2-.16.2-.16.55 0 .35.16.55.16.2.43.2.27 0 .43-.2.16-.2.16-.55 0-.35-.16-.55-.16-.2-.43-.2zm0-.2q.39 0 .62.26.23.26.23.7 0 .44-.23.7-.23.26-.62.26-.39 0-.62-.26-.23-.26-.23-.7 0-.43.23-.7.23-.26.62-.26z"/><path d="m25.02 38.9q-.27 0-.43.2-.16.2-.16.55 0 .35.16.55.16.2.43.2.27 0 .43-.2.16-.2.16-.55 0-.35-.16-.55-.16-.2-.43-.2zm0-.2q.39 0 .62.26.23.26.23.7 0 .44-.23.7-.23.26-.62.26-.39 0-.62-.26-.23-.26-.23-.7 0-.43.23-.7.23-.26.62-.26z"/><path d="m26.08 38.73h.25v.76h.91v-.76h.25v1.85h-.25v-.88h-.91v.88h-.25z"/><path d="m11.82 51.6q-.27 0-.43.2-.16.2-.16.55 0 .35.16.55.16.2.43.2.27 0 .43-.2.16-.2.16-.55 0-.35-.16-.55-.16-.2-.43-.2zm0-.21q.39 0 .62.26.23.26.23.7 0 .44-.23.7-.23.26-.62.26-.39 0-.62-.26-.23-.26-.23-.7 0-.43.23-.7.23-.26.62-.26z"/><path d="m12.88 51.43h.25v.76h.91v-.76h.25v1.85h-.25v-.88h-.91v.88h-.25z"/><path d="m3.03 36.36q-.27 0-.43.2-.16.2-.16.55 0 .35.16.55.16.2.43.2.27 0 .43-.2.16-.2.16-.55 0-.35-.16-.55-.16-.2-.43-.2zm0-.2q.39 0 .62.26.23.26.23.7 0 .44-.23.7-.23.26-.62.26-.39 0-.62-.26-.23-.26-.23-.7 0-.43.23-.7.23-.26.62-.26z"/><path d="m.56 36.19h.25v.76h.91v-.76h.25v1.85h-.25v-.88h-.91v.88h-.25z"/><path d="m29.42 31.28q-.27 0-.43.2-.16.2-.16.55 0 .35.16.55.16.2.43.2.27 0 .43-.2.16-.2.16-.55 0-.35-.16-.55-.16-.2-.43-.2zm0-.21q.39 0 .62.26.23.26.23.7 0 .44-.23.7-.23.26-.62.26-.39 0-.62-.26-.23-.26-.23-.7 0-.43.23-.7.23-.26.62-.26z"/><path d="m30.48 31.11h.25v.76h.91v-.76h.25v1.85h-.25v-.88h-.91v.88h-.25z"/><path d="m11.83 21.12q-.27 0-.43.2-.16.2-.16.55 0 .35.16.55.16.2.43.2.27 0 .43-.2.16-.2.16-.55 0-.35-.16-.55-.16-.2-.43-.2zm0-.2q.39 0 .62.26.23.26.23.7 0 .44-.23.7-.23.26-.62.26-.39 0-.62-.26-.23-.26-.23-.7 0-.43.23-.7.23-.26.62-.26z"/><path d="m16.28 13.46q-.27 0-.43.2-.16.2-.16.55 0 .35.16.55.16.2.43.2.27 0 .43-.2.16-.2.16-.55 0-.35-.16-.55-.16-.2-.43-.2zm0-.21q.39 0 .62.26.23.26.23.7 0 .44-.23.7-.23.26-.62.26-.39 0-.62-.26-.23-.26-.23-.7 0-.43.23-.7.23-.26.62-.26z"/><path d="m20.72.78q-.27 0-.43.2-.16.2-.16.55 0 .35.16.55.16.2.43.2.27 0 .43-.2.16-.2.16-.55 0-.35-.16-.55-.16-.2-.43-.2zm0-.2q.39 0 .62.26.23.26.23.7 0 .44-.23.7-.23.26-.62.26-.39 0-.62-.26-.23-.26-.23-.7 0-.43.23-.7.23-.26.62-.26z"/><path d="m21.78.61h.25v.76h.91v-.76h.25v1.85h-.25v-.88h-.91v.88h-.25z"/><path d="m11.97.76q-.27 0-.43.2-.16.2-.16.55 0 .35.16.55.16.2.43.2.27 0 .43-.2.16-.2.16-.55 0-.35-.16-.55-.16-.2-.43-.2zm0-.2q.39 0 .62.26.23.26.23.7 0 .44-.23.7-.23.26-.62.26-.39 0-.62-.26-.23-.26-.23-.7 0-.43.23-.7.23-.26.62-.26z"/><path d="m13.03.59h.25v.76h.91v-.76h.25v1.85h-.25v-.88h-.91v.88h-.25z"/><path d="m3.12 5.78q-.27 0-.43.2-.16.2-.16.55 0 .35.16.55.16.2.43.2.27 0 .43-.2.16-.2.16-.55 0-.35-.16-.55-.16-.2-.43-.2zm0-.2q.39 0 .62.26.23.26.23.7 0 .44-.23.7-.23.26-.62.26-.39 0-.62-.26-.23-.26-.23-.7 0-.43.23-.7.23-.26.62-.26z"/><path d="m.65 5.61h.25v.76h.91v-.76h.25v1.85h-.25v-.88h-.91v.88h-.25z"/><path d="m3.07 16.02q-.27 0-.43.2-.16.2-.16.55 0 .35.16.55.16.2.43.2.27 0 .43-.2.16-.2.16-.55 0-.35-.16-.55-.16-.2-.43-.2zm0-.2q.39 0 .62.26.23.26.23.7 0 .44-.23.7-.23.26-.62.26-.39 0-.62-.26-.23-.26-.23-.7 0-.43.23-.7.23-.26.62-.26z"/><path d="m.6 15.85h.25v.76h.91v-.76h.25v1.85h-.25v-.88h-.91v.88h-.25z"/></g></g></svg>