<svg xmlns="http://www.w3.org/2000/svg" xmlns:xlink="http://www.w3.org/1999/xlink" width="54.44mm" height="61.48mm" version="1.2" viewBox="0 0 54.44 61.48"><desc>Generated by the Chemistry Development Kit (http://github.com/cdk)</desc><g fill="#FF0D0D" stroke="#000" stroke-linecap="round" stroke-linejoin="round" stroke-width=".21"><rect width="55" height="62" x="0" y="0" fill="#FFF" stroke="none"/><g id="mol1" class="mol"><g id="mol1bnd1" class="bond"><line x1="8.82" x2="12.23" y1="29.83" y2="31.8"/><line x1="8.41" x2="11.83" y1="30.53" y2="32.5"/></g><line id="mol1bnd2" x1="11.83" x2="16.23" y1="32.03" y2="29.49" class="bond"/><g id="mol1bnd3" class="bond"><line x1="16.23" x2="20.62" y1="29.49" y2="32.03"/><line x1="17.04" x2="20.62" y1="29.02" y2="31.09"/></g><line id="mol1bnd4" x1="20.62" x2="20.62" y1="32.03" y2="35.73" class="bond"/><line id="mol1bnd5" x1="19.44" x2="16.22" y1="37.8" y2="39.65" class="bond"/><g id="mol1bnd6" class="bond"><line x1="16.22" x2="16.22" y1="44.73" y2="39.65"/><line x1="15.41" x2="15.41" y1="44.26" y2="40.12"/></g><line id="mol1bnd7" x1="16.22" x2="20.62" y1="44.73" y2="47.27" class="bond"/><g id="mol1bnd8" class="bond"><line x1="20.62" x2="20.62" y1="47.27" y2="52.35"/><line x1="21.43" x2="21.43" y1="47.74" y2="51.88"/></g><line id="mol1bnd9" x1="20.62" x2="25.02" y1="52.35" y2="54.89" class="bond"/><line id="mol1bnd10" x1="25.02" x2="25.02" y1="54.89" y2="58.59" class="bond"/><g id="mol1bnd11" class="bond"><line x1="25.02" x2="29.42" y1="54.89" y2="52.35"/><line x1="25.02" x2="28.6" y1="53.95" y2="51.88"/></g><line id="mol1bnd12" x1="29.42" x2="32.63" y1="52.35" y2="54.21" class="bond"/><line id="mol1bnd13" x1="35" x2="38.22" y1="54.21" y2="52.35" class="bond"/><g id="mol1bnd14" class="bond"><line x1="38.22" x2="42.62" y1="52.35" y2="54.89"/><line x1="39.03" x2="42.62" y1="51.88" y2="53.95"/></g><line id="mol1bnd15" x1="42.62" x2="47.02" y1="54.89" y2="52.35" class="bond"/><line id="mol1bnd16" x1="47.02" x2="50.23" y1="52.35" y2="54.21" class="bond"/><g id="mol1bnd17" class="bond"><line x1="47.02" x2="47.02" y1="52.35" y2="47.27"/><line x1="46.2" x2="46.2" y1="51.88" y2="47.74"/></g><line id="mol1bnd18" x1="47.02" x2="42.62" y1="47.27" y2="44.73" class="bond"/><line id="mol1bnd19" x1="42.62" x2="42.62" y1="44.73" y2="41.03" class="bond"/><g id="mol1bnd20" class="bond"><line x1="42.62" x2="38.22" y1="44.73" y2="47.27"/><line x1="42.62" x2="39.03" y1="45.67" y2="47.74"/></g><line id="mol1bnd21" x1="38.22" x2="38.22" y1="52.35" y2="47.27" class="bond"/><line id="mol1bnd22" x1="38.22" x2="33.82" y1="47.27" y2="44.73" class="bond"/><g id="mol1bnd23" class="bond"><line x1="33.41" x2="33.41" y1="44.97" y2="41.03"/><line x1="34.22" x2="34.22" y1="44.97" y2="41.03"/></g><line id="mol1bnd24" x1="33.82" x2="29.42" y1="44.73" y2="47.27" class="bond"/><line id="mol1bnd25" x1="29.42" x2="29.42" y1="52.35" y2="47.27" class="bond"/><g id="mol1bnd26" class="bond"><line x1="29.42" x2="25.02" y1="47.27" y2="44.73"/><line x1="28.6" x2="25.02" y1="47.74" y2="45.67"/></g><line id="mol1bnd27" x1="20.62" x2="25.02" y1="47.27" y2="44.73" class="bond"/><line id="mol1bnd28" x1="25.02" x2="25.02" y1="44.73" y2="41.03" class="bond"/><line id="mol1bnd29" x1="16.22" x2="11.82" y1="44.73" y2="47.27" class="bond"/><line id="mol1bnd30" x1="11.82" x2="11.82" y1="47.27" y2="50.97" class="bond"/><g id="mol1bnd31" class="bond"><line x1="7.42" x2="11.82" y1="44.73" y2="47.27"/><line x1="8.24" x2="11.82" y1="44.27" y2="46.33"/></g><line id="mol1bnd32" x1="7.42" x2="7.43" y1="44.73" y2="39.65" class="bond"/><line id="mol1bnd33" x1="7.43" x2="4.21" y1="39.65" y2="37.8" class="bond"/><g id="mol1bnd34" class="bond"><line x1="11.82" x2="7.43" y1="37.11" y2="39.65"/><line x1="11.82" x2="8.24" y1="38.05" y2="40.12"/></g><line id="mol1bnd35" x1="11.83" x2="11.82" y1="32.03" y2="37.11" class="bond"/><line id="mol1bnd36" x1="16.22" x2="11.82" y1="39.65" y2="37.11" class="bond"/><line id="mol1bnd37" x1="20.62" x2="25.02" y1="32.03" y2="29.49" class="bond"/><line id="mol1bnd38" x1="25.02" x2="28.24" y1="29.49" y2="31.35" class="bond"/><line id="mol1bnd39" x1="25.02" x2="25.02" y1="29.49" y2="24.41" class="bond"/><line id="mol1bnd40" x1="25.02" x2="20.63" y1="24.41" y2="21.87" class="bond"/><line id="mol1bnd41" x1="20.63" x2="16.23" y1="21.87" y2="24.41" class="bond"/><line id="mol1bnd42" x1="16.23" x2="16.23" y1="29.49" y2="24.41" class="bond"/><line id="mol1bnd43" x1="16.23" x2="13.02" y1="24.41" y2="22.56" class="bond"/><line id="mol1bnd44" x1="11.83" x2="11.83" y1="20.5" y2="16.8" class="bond"/><line id="mol1bnd45" x1="11.83" x2="15.09" y1="16.8" y2="14.9" class="bond"/><line id="mol1bnd46" x1="16.28" x2="16.29" y1="12.83" y2="9.13" class="bond"/><line id="mol1bnd47" x1="16.29" x2="20.7" y1="9.13" y2="6.61" class="bond"/><line id="mol1bnd48" x1="20.7" x2="20.71" y1="6.61" y2="2.91" class="bond"/><line id="mol1bnd49" x1="16.29" x2="11.94" y1="9.13" y2="6.6" class="bond"/><line id="mol1bnd50" x1="11.94" x2="11.96" y1="6.6" y2="2.9" class="bond"/><line id="mol1bnd51" x1="11.94" x2="7.5" y1="6.6" y2="9.1" class="bond"/><line id="mol1bnd52" x1="7.5" x2="4.3" y1="9.1" y2="7.23" class="bond"/><line id="mol1bnd53" x1="7.5" x2="7.47" y1="9.1" y2="14.26" class="bond"/><line id="mol1bnd54" x1="11.83" x2="7.47" y1="16.8" y2="14.26" class="bond"/><line id="mol1bnd55" x1="7.47" x2="4.25" y1="14.26" y2="16.1" class="bond"/><path id="mol1atm1" stroke="none" d="M7.43 28.74q-.27 .0 -.43 .2q-.16 .2 -.16 .55q.0 .35 .16 .55q.16 .2 .43 .2q.27 .0 .43 -.2q.16 -.2 .16 -.55q.0 -.35 -.16 -.55q-.16 -.2 -.43 -.2zM7.43 28.54q.39 .0 .62 .26q.23 .26 .23 .7q.0 .44 -.23 .7q-.23 .26 -.62 .26q-.39 .0 -.62 -.26q-.23 -.26 -.23 -.7q.0 -.43 .23 -.7q.23 -.26 .62 -.26z" class="atom"/><path id="mol1atm5" stroke="none" d="M20.62 36.36q-.27 .0 -.43 .2q-.16 .2 -.16 .55q.0 .35 .16 .55q.16 .2 .43 .2q.27 .0 .43 -.2q.16 -.2 .16 -.55q.0 -.35 -.16 -.55q-.16 -.2 -.43 -.2zM20.62 36.15q.39 .0 .62 .26q.23 .26 .23 .7q.0 .44 -.23 .7q-.23 .26 -.62 .26q-.39 .0 -.62 -.26q-.23 -.26 -.23 -.7q.0 -.43 .23 -.7q.23 -.26 .62 -.26z" class="atom"/><g id="mol1atm11" class="atom"><path stroke="none" d="M25.02 59.21q-.27 .0 -.43 .2q-.16 .2 -.16 .55q.0 .35 .16 .55q.16 .2 .43 .2q.27 .0 .43 -.2q.16 -.2 .16 -.55q.0 -.35 -.16 -.55q-.16 -.2 -.43 -.2zM25.02 59.01q.39 .0 .62 .26q.23 .26 .23 .7q.0 .44 -.23 .7q-.23 .26 -.62 .26q-.39 .0 -.62 -.26q-.23 -.26 -.23 -.7q.0 -.43 .23 -.7q.23 -.26 .62 -.26z"/><path stroke="none" d="M26.08 59.04h.25v.76h.91v-.76h.25v1.85h-.25v-.88h-.91v.88h-.25v-1.85z"/></g><path id="mol1atm13" stroke="none" d="M33.82 54.13q-.27 .0 -.43 .2q-.16 .2 -.16 .55q.0 .35 .16 .55q.16 .2 .43 .2q.27 .0 .43 -.2q.16 -.2 .16 -.55q.0 -.35 -.16 -.55q-.16 -.2 -.43 -.2zM33.82 53.93q.39 .0 .62 .26q.23 .26 .23 .7q.0 .44 -.23 .7q-.23 .26 -.62 .26q-.39 .0 -.62 -.26q-.23 -.26 -.23 -.7q.0 -.43 .23 -.7q.23 -.26 .62 -.26z" class="atom"/><g id="mol1atm17" class="atom"><path stroke="none" d="M51.41 54.13q-.27 .0 -.43 .2q-.16 .2 -.16 .55q.0 .35 .16 .55q.16 .2 .43 .2q.27 .0 .43 -.2q.16 -.2 .16 -.55q.0 -.35 -.16 -.55q-.16 -.2 -.43 -.2zM51.41 53.93q.39 .0 .62 .26q.23 .26 .23 .7q.0 .44 -.23 .7q-.23 .26 -.62 .26q-.39 .0 -.62 -.26q-.23 -.26 -.23 -.7q.0 -.43 .23 -.7q.23 -.26 .62 -.26z"/><path stroke="none" d="M52.48 53.96h.25v.76h.91v-.76h.25v1.85h-.25v-.88h-.91v.88h-.25v-1.85z"/></g><g id="mol1atm20" class="atom"><path stroke="none" d="M42.62 38.9q-.27 .0 -.43 .2q-.16 .2 -.16 .55q.0 .35 .16 .55q.16 .2 .43 .2q.27 .0 .43 -.2q.16 -.2 .16 -.55q.0 -.35 -.16 -.55q-.16 -.2 -.43 -.2zM42.62 38.7q.39 .0 .62 .26q.23 .26 .23 .7q.0 .44 -.23 .7q-.23 .26 -.62 .26q-.39 .0 -.62 -.26q-.23 -.26 -.23 -.7q.0 -.43 .23 -.7q.23 -.26 .62 -.26z"/><path stroke="none" d="M43.68 38.73h.25v.76h.91v-.76h.25v1.85h-.25v-.88h-.91v.88h-.25v-1.85z"/></g><path id="mol1atm23" stroke="none" d="M33.82 38.9q-.27 .0 -.43 .2q-.16 .2 -.16 .55q.0 .35 .16 .55q.16 .2 .43 .2q.27 .0 .43 -.2q.16 -.2 .16 -.55q.0 -.35 -.16 -.55q-.16 -.2 -.43 -.2zM33.82 38.7q.39 .0 .62 .26q.23 .26 .23 .7q.0 .44 -.23 .7q-.23 .26 -.62 .26q-.39 .0 -.62 -.26q-.23 -.26 -.23 -.7q.0 -.43 .23 -.7q.23 -.26 .62 -.26z" class="atom"/><g id="mol1atm26" class="atom"><path stroke="none" d="M25.02 38.9q-.27 .0 -.43 .2q-.16 .2 -.16 .55q.0 .35 .16 .55q.16 .2 .43 .2q.27 .0 .43 -.2q.16 -.2 .16 -.55q.0 -.35 -.16 -.55q-.16 -.2 -.43 -.2zM25.02 38.7q.39 .0 .62 .26q.23 .26 .23 .7q.0 .44 -.23 .7q-.23 .26 -.62 .26q-.39 .0 -.62 -.26q-.23 -.26 -.23 -.7q.0 -.43 .23 -.7q.23 -.26 .62 -.26z"/><path stroke="none" d="M26.08 38.73h.25v.76h.91v-.76h.25v1.85h-.25v-.88h-.91v.88h-.25v-1.85z"/></g><g id="mol1atm28" class="atom"><path stroke="none" d="M11.82 51.6q-.27 .0 -.43 .2q-.16 .2 -.16 .55q.0 .35 .16 .55q.16 .2 .43 .2q.27 .0 .43 -.2q.16 -.2 .16 -.55q.0 -.35 -.16 -.55q-.16 -.2 -.43 -.2zM11.82 51.39q.39 .0 .62 .26q.23 .26 .23 .7q.0 .44 -.23 .7q-.23 .26 -.62 .26q-.39 .0 -.62 -.26q-.23 -.26 -.23 -.7q.0 -.43 .23 -.7q.23 -.26 .62 -.26z"/><path stroke="none" d="M12.88 51.43h.25v.76h.91v-.76h.25v1.85h-.25v-.88h-.91v.88h-.25v-1.85z"/></g><g id="mol1atm31" class="atom"><path stroke="none" d="M3.03 36.36q-.27 .0 -.43 .2q-.16 .2 -.16 .55q.0 .35 .16 .55q.16 .2 .43 .2q.27 .0 .43 -.2q.16 -.2 .16 -.55q.0 -.35 -.16 -.55q-.16 -.2 -.43 -.2zM3.03 36.16q.39 .0 .62 .26q.23 .26 .23 .7q.0 .44 -.23 .7q-.23 .26 -.62 .26q-.39 .0 -.62 -.26q-.23 -.26 -.23 -.7q.0 -.43 .23 -.7q.23 -.26 .62 -.26z"/><path stroke="none" d="M.56 36.19h.25v.76h.91v-.76h.25v1.85h-.25v-.88h-.91v.88h-.25v-1.85z"/></g><g id="mol1atm34" class="atom"><path stroke="none" d="M29.42 31.28q-.27 .0 -.43 .2q-.16 .2 -.16 .55q.0 .35 .16 .55q.16 .2 .43 .2q.27 .0 .43 -.2q.16 -.2 .16 -.55q.0 -.35 -.16 -.55q-.16 -.2 -.43 -.2zM29.42 31.07q.39 .0 .62 .26q.23 .26 .23 .7q.0 .44 -.23 .7q-.23 .26 -.62 .26q-.39 .0 -.62 -.26q-.23 -.26 -.23 -.7q.0 -.43 .23 -.7q.23 -.26 .62 -.26z"/><path stroke="none" d="M30.48 31.11h.25v.76h.91v-.76h.25v1.85h-.25v-.88h-.91v.88h-.25v-1.85z"/></g><path id="mol1atm38" stroke="none" d="M11.83 21.12q-.27 .0 -.43 .2q-.16 .2 -.16 .55q.0 .35 .16 .55q.16 .2 .43 .2q.27 .0 .43 -.2q.16 -.2 .16 -.55q.0 -.35 -.16 -.55q-.16 -.2 -.43 -.2zM11.83 20.92q.39 .0 .62 .26q.23 .26 .23 .7q.0 .44 -.23 .7q-.23 .26 -.62 .26q-.39 .0 -.62 -.26q-.23 -.26 -.23 -.7q.0 -.43 .23 -.7q.23 -.26 .62 -.26z" class="atom"/><path id="mol1atm40" stroke="none" d="M16.28 13.46q-.27 .0 -.43 .2q-.16 .2 -.16 .55q.0 .35 .16 .55q.16 .2 .43 .2q.27 .0 .43 -.2q.16 -.2 .16 -.55q.0 -.35 -.16 -.55q-.16 -.2 -.43 -.2zM16.28 13.25q.39 .0 .62 .26q.23 .26 .23 .7q.0 .44 -.23 .7q-.23 .26 -.62 .26q-.39 .0 -.62 -.26q-.23 -.26 -.23 -.7q.0 -.43 .23 -.7q.23 -.26 .62 -.26z" class="atom"/><g id="mol1atm43" class="atom"><path stroke="none" d="M20.72 .78q-.27 .0 -.43 .2q-.16 .2 -.16 .55q.0 .35 .16 .55q.16 .2 .43 .2q.27 .0 .43 -.2q.16 -.2 .16 -.55q.0 -.35 -.16 -.55q-.16 -.2 -.43 -.2zM20.72 .58q.39 .0 .62 .26q.23 .26 .23 .7q.0 .44 -.23 .7q-.23 .26 -.62 .26q-.39 .0 -.62 -.26q-.23 -.26 -.23 -.7q.0 -.43 .23 -.7q.23 -.26 .62 -.26z"/><path stroke="none" d="M21.78 .61h.25v.76h.91v-.76h.25v1.85h-.25v-.88h-.91v.88h-.25v-1.85z"/></g><g id="mol1atm45" class="atom"><path stroke="none" d="M11.97 .76q-.27 .0 -.43 .2q-.16 .2 -.16 .55q.0 .35 .16 .55q.16 .2 .43 .2q.27 .0 .43 -.2q.16 -.2 .16 -.55q.0 -.35 -.16 -.55q-.16 -.2 -.43 -.2zM11.97 .56q.39 .0 .62 .26q.23 .26 .23 .7q.0 .44 -.23 .7q-.23 .26 -.62 .26q-.39 .0 -.62 -.26q-.23 -.26 -.23 -.7q.0 -.43 .23 -.7q.23 -.26 .62 -.26z"/><path stroke="none" d="M13.03 .59h.25v.76h.91v-.76h.25v1.85h-.25v-.88h-.91v.88h-.25v-1.85z"/></g><g id="mol1atm47" class="atom"><path stroke="none" d="M3.12 5.78q-.27 .0 -.43 .2q-.16 .2 -.16 .55q.0 .35 .16 .55q.16 .2 .43 .2q.27 .0 .43 -.2q.16 -.2 .16 -.55q.0 -.35 -.16 -.55q-.16 -.2 -.43 -.2zM3.12 5.58q.39 .0 .62 .26q.23 .26 .23 .7q.0 .44 -.23 .7q-.23 .26 -.62 .26q-.39 .0 -.62 -.26q-.23 -.26 -.23 -.7q.0 -.43 .23 -.7q.23 -.26 .62 -.26z"/><path stroke="none" d="M.65 5.61h.25v.76h.91v-.76h.25v1.85h-.25v-.88h-.91v.88h-.25v-1.85z"/></g><g id="mol1atm49" class="atom"><path stroke="none" d="M3.07 16.02q-.27 .0 -.43 .2q-.16 .2 -.16 .55q.0 .35 .16 .55q.16 .2 .43 .2q.27 .0 .43 -.2q.16 -.2 .16 -.55q.0 -.35 -.16 -.55q-.16 -.2 -.43 -.2zM3.07 15.82q.39 .0 .62 .26q.23 .26 .23 .7q.0 .44 -.23 .7q-.23 .26 -.62 .26q-.39 .0 -.62 -.26q-.23 -.26 -.23 -.7q.0 -.43 .23 -.7q.23 -.26 .62 -.26z"/><path stroke="none" d="M.6 15.85h.25v.76h.91v-.76h.25v1.85h-.25v-.88h-.91v.88h-.25v-1.85z"/></g></g></g></svg>