<svg height="63.16mm" viewBox="0 0 58.85 63.16" width="58.85mm" xmlns="http://www.w3.org/2000/svg"><g fill="#ff0d0d" stroke="#000" stroke-linecap="round" stroke-linejoin="round" stroke-width=".21"><path d="m0 0h59v64h-59z" fill="#fff" stroke="none"/><path d="m16.22 62.46 3.21-1.85"/><path d="m20.61 58.54v-3.7"/><path d="m16.22 52.31 4.39 2.53"/><path d="m17.03 51.84 3.58 2.07"/><path d="m16.22 52.31v-5.08"/><path d="m16.22 47.23-3.21-1.86"/><path d="m20.62 44.68-4.4 2.55"/><path d="m20.62 45.62-3.59 2.07"/><path d="m20.62 44.68v-5.08"/><path d="m20.62 40.07-3.42-1.97"/><path d="m21.03 39.37-3.42-1.97"/><path d="m20.62 39.6 4.4-2.54"/><path d="m25.02 31.98v5.08"/><path d="m25.83 32.45v4.14"/><path d="m25.02 31.98-3.21-1.85"/><path d="m25.02 31.98 4.4-2.54"/><path d="m29.42 29.44v-5.07"/><path d="m25.02 21.83 4.4 2.54"/><path d="m25.83 21.36 3.59 2.07"/><path d="m25.02 21.83-3.21 1.85"/><path d="m25.02 21.83v-5.08"/><path d="m25.02 16.75-4.4-2.54"/><path d="m20.62 14.21-3.21 1.86"/><path d="m15.04 16.07-3.22-1.86"/><path d="m11.82 14.21-4.39 2.54"/><path d="m7.43 16.75-3.22-1.85"/><path d="m11.82 14.21v-5.08"/><path d="m11.82 9.13-3.21-1.85"/><path d="m11.82 9.13 4.4-2.53"/><path d="m16.22 6.6v-3.7"/><path d="m16.22 6.6 4.4 2.53"/><path d="m20.62 14.21v-5.08"/><path d="m20.62 9.13 3.22-1.85"/><path d="m29.42 14.21-4.4 2.54"/><path d="m29.42 15.15-3.59 2.07"/><path d="m29.42 14.21v-3.7"/><path d="m29.42 14.21 4.4 2.54"/><path d="m33.82 16.75 4.4-2.54"/><path d="m37.81 14.45v-3.94"/><path d="m38.63 14.45v-3.94"/><path d="m38.22 14.21 4.4 2.54"/><path d="m47.02 14.21-4.4 2.54"/><path d="m47.02 15.15-3.59 2.07"/><path d="m47.02 14.21 4.4 2.54"/><path d="m51.42 16.75 3.21-1.85"/><path d="m51.42 21.83v-5.08"/><path d="m50.61 21.36v-4.14"/><path d="m51.42 21.83 3.22 1.85"/><path d="m51.42 21.83-4.4 2.54"/><path d="m42.62 21.83 4.4 2.54"/><path d="m43.43 21.36 3.59 2.07"/><path d="m42.62 16.75v5.08"/><path d="m42.62 21.83-3.22 1.85"/><path d="m37.04 23.68-3.22-1.85"/><path d="m29.42 24.37 4.4-2.54"/><path d="m33.82 21.83v-5.08"/><path d="m33.01 21.36v-4.14"/><path d="m33.82 31.98-4.4-2.54"/><path d="m33 32.45-3.58-2.07"/><path d="m33.82 31.98-.01 5.08"/><path d="m33.81 37.06 3.22 1.86"/><path d="m29.42 39.6 4.39-2.54"/><path d="m29.42 38.66 3.58-2.07"/><path d="m25.02 37.06 4.4 2.54"/><path d="m29.42 39.6-.01 3.71"/><path d="m28.23 45.37-3.22 1.85"/><path d="m20.62 44.68 4.39 2.54"/><path d="m25.01 52.3v-5.08"/><path d="m24.2 51.83v-4.14"/><path d="m20.61 54.84 4.4-2.54"/><g stroke="none"><path d="m20.61 59.17q-.27 0-.43.2-.16.2-.16.55 0 .35.16.55.16.2.43.2.27 0 .43-.2.16-.2.16-.55 0-.35-.16-.55-.16-.2-.43-.2zm0-.21q.39 0 .62.26.23.26.23.7 0 .44-.23.7-.23.26-.62.26-.39 0-.62-.26-.23-.26-.23-.7 0-.43.23-.7.23-.26.62-.26z"/><path d="m11.82 43.93q-.27 0-.43.2-.16.2-.16.55 0 .35.16.55.16.2.43.2.27 0 .43-.2.16-.2.16-.55 0-.35-.16-.55-.16-.2-.43-.2zm0-.2q.39 0 .62.26.23.26.23.7 0 .44-.23.7-.23.26-.62.26-.39 0-.62-.26-.23-.26-.23-.7 0-.43.23-.7.23-.26.62-.26z"/><path d="m9.35 43.76h.25v.76h.91v-.76h.25v1.85h-.25v-.88h-.91v.88h-.25z"/><path d="m16.22 36.31q-.27 0-.43.2-.16.2-.16.55 0 .35.16.55.16.2.43.2.27 0 .43-.2.16-.2.16-.55 0-.35-.16-.55-.16-.2-.43-.2zm0-.2q.39 0 .62.26.23.26.23.7 0 .44-.23.7-.23.26-.62.26-.39 0-.62-.26-.23-.26-.23-.7 0-.43.23-.7.23-.26.62-.26z"/><path d="m20.63 28.69q-.27 0-.43.2-.16.2-.16.55 0 .35.16.55.16.2.43.2.27 0 .43-.2.16-.2.16-.55 0-.35-.16-.55-.16-.2-.43-.2zm0-.2q.39 0 .62.26.23.26.23.7 0 .44-.23.7-.23.26-.62.26-.39 0-.62-.26-.23-.26-.23-.7 0-.43.23-.7.23-.26.62-.26z"/><path d="m18.16 28.52h.25v.76h.91v-.76h.25v1.85h-.25v-.88h-.91v.88h-.25z"/><path d="m20.62 23.61q-.27 0-.43.2-.16.2-.16.55 0 .35.16.55.16.2.43.2.27 0 .43-.2.16-.2.16-.55 0-.35-.16-.55-.16-.2-.43-.2zm0-.2q.39 0 .62.26.23.26.23.7 0 .44-.23.7-.23.26-.62.26-.39 0-.62-.26-.23-.26-.23-.7 0-.43.23-.7.23-.26.62-.26z"/><path d="m18.15 23.44h.25v.76h.91v-.76h.25v1.85h-.25v-.88h-.91v.88h-.25z"/><path d="m16.22 16q-.27 0-.43.2-.16.2-.16.55 0 .35.16.55.16.2.43.2.27 0 .43-.2.16-.2.16-.55 0-.35-.16-.55-.16-.2-.43-.2zm0-.21q.39 0 .62.26.23.26.23.7 0 .44-.23.7-.23.26-.62.26-.39 0-.62-.26-.23-.26-.23-.7 0-.43.23-.7.23-.26.62-.26z"/><path d="m3.03 13.46q-.27 0-.43.2-.16.2-.16.55 0 .35.16.55.16.2.43.2.27 0 .43-.2.16-.2.16-.55 0-.35-.16-.55-.16-.2-.43-.2zm0-.21q.39 0 .62.26.23.26.23.7 0 .44-.23.7-.23.26-.62.26-.39 0-.62-.26-.23-.26-.23-.7 0-.43.23-.7.23-.26.62-.26z"/><path d="m.56 13.29h.25v.76h.91v-.76h.25v1.85h-.25v-.88h-.91v.88h-.25z"/><path d="m7.43 5.84q-.27 0-.43.2-.16.2-.16.55 0 .35.16.55.16.2.43.2.27 0 .43-.2.16-.2.16-.55 0-.35-.16-.55-.16-.2-.43-.2zm0-.2q.39 0 .62.26.23.26.23.7 0 .44-.23.7-.23.26-.62.26-.39 0-.62-.26-.23-.26-.23-.7 0-.43.23-.7.23-.26.62-.26z"/><path d="m4.96 5.67h.25v.76h.91v-.76h.25v1.85h-.25v-.88h-.91v.88h-.25z"/><path d="m16.22.76q-.27 0-.43.2-.16.2-.16.55 0 .35.16.55.16.2.43.2.27 0 .43-.2.16-.2.16-.55 0-.35-.16-.55-.16-.2-.43-.2zm0-.2q.39 0 .62.26.23.26.23.7 0 .44-.23.7-.23.26-.62.26-.39 0-.62-.26-.23-.26-.23-.7 0-.43.23-.7.23-.26.62-.26z"/><path d="m17.29.59h.25v.76h.91v-.76h.25v1.85h-.25v-.88h-.91v.88h-.25z"/><path d="m25.02 5.84q-.27 0-.43.2-.16.2-.16.55 0 .35.16.55.16.2.43.2.27 0 .43-.2.16-.2.16-.55 0-.35-.16-.55-.16-.2-.43-.2zm0-.2q.39 0 .62.26.23.26.23.7 0 .44-.23.7-.23.26-.62.26-.39 0-.62-.26-.23-.26-.23-.7 0-.43.23-.7.23-.26.62-.26z"/><path d="m26.08 5.67h.25v.76h.91v-.76h.25v1.85h-.25v-.88h-.91v.88h-.25z"/><path d="m29.42 8.38q-.27 0-.43.2-.16.2-.16.55 0 .35.16.55.16.2.43.2.27 0 .43-.2.16-.2.16-.55 0-.35-.16-.55-.16-.2-.43-.2zm0-.2q.39 0 .62.26.23.26.23.7 0 .44-.23.7-.23.26-.62.26-.39 0-.62-.26-.23-.26-.23-.7 0-.43.23-.7.23-.26.62-.26z"/><path d="m30.48 8.21h.25v.76h.91v-.76h.25v1.85h-.25v-.88h-.91v.88h-.25z"/><path d="m38.22 8.38q-.27 0-.43.2-.16.2-.16.55 0 .35.16.55.16.2.43.2.27 0 .43-.2.16-.2.16-.55 0-.35-.16-.55-.16-.2-.43-.2zm0-.2q.39 0 .62.26.23.26.23.7 0 .44-.23.7-.23.26-.62.26-.39 0-.62-.26-.23-.26-.23-.7 0-.43.23-.7.23-.26.62-.26z"/><path d="m55.82 13.46q-.27 0-.43.2-.16.2-.16.55 0 .35.16.55.16.2.43.2.27 0 .43-.2.16-.2.16-.55 0-.35-.16-.55-.16-.2-.43-.2zm0-.21q.39 0 .62.26.23.26.23.7 0 .44-.23.7-.23.26-.62.26-.39 0-.62-.26-.23-.26-.23-.7 0-.43.23-.7.23-.26.62-.26z"/><path d="m56.88 13.29h.25v.76h.91v-.76h.25v1.85h-.25v-.88h-.91v.88h-.25z"/><path d="m55.82 23.61q-.27 0-.43.2-.16.2-.16.55 0 .35.16.55.16.2.43.2.27 0 .43-.2.16-.2.16-.55 0-.35-.16-.55-.16-.2-.43-.2zm0-.2q.39 0 .62.26.23.26.23.7 0 .44-.23.7-.23.26-.62.26-.39 0-.62-.26-.23-.26-.23-.7 0-.43.23-.7.23-.26.62-.26z"/><path d="m56.88 23.44h.25v.76h.91v-.76h.25v1.85h-.25v-.88h-.91v.88h-.25z"/><path d="m38.22 23.61q-.27 0-.43.2-.16.2-.16.55 0 .35.16.55.16.2.43.2.27 0 .43-.2.16-.2.16-.55 0-.35-.16-.55-.16-.2-.43-.2zm0-.2q.39 0 .62.26.23.26.23.7 0 .44-.23.7-.23.26-.62.26-.39 0-.62-.26-.23-.26-.23-.7 0-.43.23-.7.23-.26.62-.26z"/><path d="m38.21 38.85q-.27 0-.43.2-.16.2-.16.55 0 .35.16.55.16.2.43.2.27 0 .43-.2.16-.2.16-.55 0-.35-.16-.55-.16-.2-.43-.2zm0-.21q.39 0 .62.26.23.26.23.7 0 .44-.23.7-.23.26-.62.26-.39 0-.62-.26-.23-.26-.23-.7 0-.43.23-.7.23-.26.62-.26z"/><path d="m39.27 38.68h.25v.76h.91v-.76h.25v1.85h-.25v-.88h-.91v.88h-.25z"/><path d="m29.41 43.93q-.27 0-.43.2-.16.2-.16.55 0 .35.16.55.16.2.43.2.27 0 .43-.2.16-.2.16-.55 0-.35-.16-.55-.16-.2-.43-.2zm0-.2q.39 0 .62.26.23.26.23.7 0 .44-.23.7-.23.26-.62.26-.39 0-.62-.26-.23-.26-.23-.7 0-.43.23-.7.23-.26.62-.26z"/></g></g></svg>