<svg xmlns="http://www.w3.org/2000/svg" xmlns:xlink="http://www.w3.org/1999/xlink" width="58.85mm" height="63.16mm" version="1.2" viewBox="0 0 58.85 63.16"><desc>Generated by the Chemistry Development Kit (http://github.com/cdk)</desc><g fill="#FF0D0D" stroke="#000" stroke-linecap="round" stroke-linejoin="round" stroke-width=".21"><rect width="59" height="64" x="0" y="0" fill="#FFF" stroke="none"/><g id="mol1" class="mol"><line id="mol1bnd1" x1="16.22" x2="19.43" y1="62.46" y2="60.61" class="bond"/><line id="mol1bnd2" x1="20.61" x2="20.61" y1="58.54" y2="54.84" class="bond"/><g id="mol1bnd3" class="bond"><line x1="16.22" x2="20.61" y1="52.31" y2="54.84"/><line x1="17.03" x2="20.61" y1="51.84" y2="53.91"/></g><line id="mol1bnd4" x1="16.22" x2="16.22" y1="52.31" y2="47.23" class="bond"/><line id="mol1bnd5" x1="16.22" x2="13.01" y1="47.23" y2="45.37" class="bond"/><g id="mol1bnd6" class="bond"><line x1="20.62" x2="16.22" y1="44.68" y2="47.23"/><line x1="20.62" x2="17.03" y1="45.62" y2="47.69"/></g><line id="mol1bnd7" x1="20.62" x2="20.62" y1="44.68" y2="39.6" class="bond"/><g id="mol1bnd8" class="bond"><line x1="20.62" x2="17.2" y1="40.07" y2="38.1"/><line x1="21.03" x2="17.61" y1="39.37" y2="37.4"/></g><line id="mol1bnd9" x1="20.62" x2="25.02" y1="39.6" y2="37.06" class="bond"/><g id="mol1bnd10" class="bond"><line x1="25.02" x2="25.02" y1="31.98" y2="37.06"/><line x1="25.83" x2="25.83" y1="32.45" y2="36.59"/></g><line id="mol1bnd11" x1="25.02" x2="21.81" y1="31.98" y2="30.13" class="bond"/><line id="mol1bnd12" x1="25.02" x2="29.42" y1="31.98" y2="29.44" class="bond"/><line id="mol1bnd13" x1="29.42" x2="29.42" y1="29.44" y2="24.37" class="bond"/><g id="mol1bnd14" class="bond"><line x1="25.02" x2="29.42" y1="21.83" y2="24.37"/><line x1="25.83" x2="29.42" y1="21.36" y2="23.43"/></g><line id="mol1bnd15" x1="25.02" x2="21.81" y1="21.83" y2="23.68" class="bond"/><line id="mol1bnd16" x1="25.02" x2="25.02" y1="21.83" y2="16.75" class="bond"/><line id="mol1bnd17" x1="25.02" x2="20.62" y1="16.75" y2="14.21" class="bond"/><line id="mol1bnd18" x1="20.62" x2="17.41" y1="14.21" y2="16.07" class="bond"/><line id="mol1bnd19" x1="15.04" x2="11.82" y1="16.07" y2="14.21" class="bond"/><line id="mol1bnd20" x1="11.82" x2="7.43" y1="14.21" y2="16.75" class="bond"/><line id="mol1bnd21" x1="7.43" x2="4.21" y1="16.75" y2="14.9" class="bond"/><line id="mol1bnd22" x1="11.82" x2="11.82" y1="14.21" y2="9.13" class="bond"/><line id="mol1bnd23" x1="11.82" x2="8.61" y1="9.13" y2="7.28" class="bond"/><line id="mol1bnd24" x1="11.82" x2="16.22" y1="9.13" y2="6.6" class="bond"/><line id="mol1bnd25" x1="16.22" x2="16.22" y1="6.6" y2="2.9" class="bond"/><line id="mol1bnd26" x1="16.22" x2="20.62" y1="6.6" y2="9.13" class="bond"/><line id="mol1bnd27" x1="20.62" x2="20.62" y1="14.21" y2="9.13" class="bond"/><line id="mol1bnd28" x1="20.62" x2="23.84" y1="9.13" y2="7.28" class="bond"/><g id="mol1bnd29" class="bond"><line x1="29.42" x2="25.02" y1="14.21" y2="16.75"/><line x1="29.42" x2="25.83" y1="15.15" y2="17.22"/></g><line id="mol1bnd30" x1="29.42" x2="29.42" y1="14.21" y2="10.51" class="bond"/><line id="mol1bnd31" x1="29.42" x2="33.82" y1="14.21" y2="16.75" class="bond"/><line id="mol1bnd32" x1="33.82" x2="38.22" y1="16.75" y2="14.21" class="bond"/><g id="mol1bnd33" class="bond"><line x1="37.81" x2="37.81" y1="14.45" y2="10.51"/><line x1="38.63" x2="38.63" y1="14.45" y2="10.51"/></g><line id="mol1bnd34" x1="38.22" x2="42.62" y1="14.21" y2="16.75" class="bond"/><g id="mol1bnd35" class="bond"><line x1="47.02" x2="42.62" y1="14.21" y2="16.75"/><line x1="47.02" x2="43.43" y1="15.15" y2="17.22"/></g><line id="mol1bnd36" x1="47.02" x2="51.42" y1="14.21" y2="16.75" class="bond"/><line id="mol1bnd37" x1="51.42" x2="54.63" y1="16.75" y2="14.9" class="bond"/><g id="mol1bnd38" class="bond"><line x1="51.42" x2="51.42" y1="21.83" y2="16.75"/><line x1="50.61" x2="50.61" y1="21.36" y2="17.22"/></g><line id="mol1bnd39" x1="51.42" x2="54.64" y1="21.83" y2="23.68" class="bond"/><line id="mol1bnd40" x1="51.42" x2="47.02" y1="21.83" y2="24.37" class="bond"/><g id="mol1bnd41" class="bond"><line x1="42.62" x2="47.02" y1="21.83" y2="24.37"/><line x1="43.43" x2="47.02" y1="21.36" y2="23.43"/></g><line id="mol1bnd42" x1="42.62" x2="42.62" y1="16.75" y2="21.83" class="bond"/><line id="mol1bnd43" x1="42.62" x2="39.4" y1="21.83" y2="23.68" class="bond"/><line id="mol1bnd44" x1="37.04" x2="33.82" y1="23.68" y2="21.83" class="bond"/><line id="mol1bnd45" x1="29.42" x2="33.82" y1="24.37" y2="21.83" class="bond"/><g id="mol1bnd46" class="bond"><line x1="33.82" x2="33.82" y1="21.83" y2="16.75"/><line x1="33.01" x2="33.01" y1="21.36" y2="17.22"/></g><g id="mol1bnd47" class="bond"><line x1="33.82" x2="29.42" y1="31.98" y2="29.44"/><line x1="33" x2="29.42" y1="32.45" y2="30.38"/></g><line id="mol1bnd48" x1="33.82" x2="33.81" y1="31.98" y2="37.06" class="bond"/><line id="mol1bnd49" x1="33.81" x2="37.03" y1="37.06" y2="38.92" class="bond"/><g id="mol1bnd50" class="bond"><line x1="29.42" x2="33.81" y1="39.6" y2="37.06"/><line x1="29.42" x2="33" y1="38.66" y2="36.59"/></g><line id="mol1bnd51" x1="25.02" x2="29.42" y1="37.06" y2="39.6" class="bond"/><line id="mol1bnd52" x1="29.42" x2="29.41" y1="39.6" y2="43.31" class="bond"/><line id="mol1bnd53" x1="28.23" x2="25.01" y1="45.37" y2="47.22" class="bond"/><line id="mol1bnd54" x1="20.62" x2="25.01" y1="44.68" y2="47.22" class="bond"/><g id="mol1bnd55" class="bond"><line x1="25.01" x2="25.01" y1="52.3" y2="47.22"/><line x1="24.2" x2="24.2" y1="51.83" y2="47.69"/></g><line id="mol1bnd56" x1="20.61" x2="25.01" y1="54.84" y2="52.3" class="bond"/><path id="mol1atm2" stroke="none" d="M20.61 59.17q-.27 .0 -.43 .2q-.16 .2 -.16 .55q.0 .35 .16 .55q.16 .2 .43 .2q.27 .0 .43 -.2q.16 -.2 .16 -.55q.0 -.35 -.16 -.55q-.16 -.2 -.43 -.2zM20.61 58.96q.39 .0 .62 .26q.23 .26 .23 .7q.0 .44 -.23 .7q-.23 .26 -.62 .26q-.39 .0 -.62 -.26q-.23 -.26 -.23 -.7q.0 -.43 .23 -.7q.23 -.26 .62 -.26z" class="atom"/><g id="mol1atm6" class="atom"><path stroke="none" d="M11.82 43.93q-.27 .0 -.43 .2q-.16 .2 -.16 .55q.0 .35 .16 .55q.16 .2 .43 .2q.27 .0 .43 -.2q.16 -.2 .16 -.55q.0 -.35 -.16 -.55q-.16 -.2 -.43 -.2zM11.82 43.73q.39 .0 .62 .26q.23 .26 .23 .7q.0 .44 -.23 .7q-.23 .26 -.62 .26q-.39 .0 -.62 -.26q-.23 -.26 -.23 -.7q.0 -.43 .23 -.7q.23 -.26 .62 -.26z"/><path stroke="none" d="M9.35 43.76h.25v.76h.91v-.76h.25v1.85h-.25v-.88h-.91v.88h-.25v-1.85z"/></g><path id="mol1atm9" stroke="none" d="M16.22 36.31q-.27 .0 -.43 .2q-.16 .2 -.16 .55q.0 .35 .16 .55q.16 .2 .43 .2q.27 .0 .43 -.2q.16 -.2 .16 -.55q.0 -.35 -.16 -.55q-.16 -.2 -.43 -.2zM16.22 36.11q.39 .0 .62 .26q.23 .26 .23 .7q.0 .44 -.23 .7q-.23 .26 -.62 .26q-.39 .0 -.62 -.26q-.23 -.26 -.23 -.7q.0 -.43 .23 -.7q.23 -.26 .62 -.26z" class="atom"/><g id="mol1atm12" class="atom"><path stroke="none" d="M20.63 28.69q-.27 .0 -.43 .2q-.16 .2 -.16 .55q.0 .35 .16 .55q.16 .2 .43 .2q.27 .0 .43 -.2q.16 -.2 .16 -.55q.0 -.35 -.16 -.55q-.16 -.2 -.43 -.2zM20.63 28.49q.39 .0 .62 .26q.23 .26 .23 .7q.0 .44 -.23 .7q-.23 .26 -.62 .26q-.39 .0 -.62 -.26q-.23 -.26 -.23 -.7q.0 -.43 .23 -.7q.23 -.26 .62 -.26z"/><path stroke="none" d="M18.16 28.52h.25v.76h.91v-.76h.25v1.85h-.25v-.88h-.91v.88h-.25v-1.85z"/></g><g id="mol1atm16" class="atom"><path stroke="none" d="M20.62 23.61q-.27 .0 -.43 .2q-.16 .2 -.16 .55q.0 .35 .16 .55q.16 .2 .43 .2q.27 .0 .43 -.2q.16 -.2 .16 -.55q.0 -.35 -.16 -.55q-.16 -.2 -.43 -.2zM20.62 23.41q.39 .0 .62 .26q.23 .26 .23 .7q.0 .44 -.23 .7q-.23 .26 -.62 .26q-.39 .0 -.62 -.26q-.23 -.26 -.23 -.7q.0 -.43 .23 -.7q.23 -.26 .62 -.26z"/><path stroke="none" d="M18.15 23.44h.25v.76h.91v-.76h.25v1.85h-.25v-.88h-.91v.88h-.25v-1.85z"/></g><path id="mol1atm19" stroke="none" d="M16.22 16.0q-.27 .0 -.43 .2q-.16 .2 -.16 .55q.0 .35 .16 .55q.16 .2 .43 .2q.27 .0 .43 -.2q.16 -.2 .16 -.55q.0 -.35 -.16 -.55q-.16 -.2 -.43 -.2zM16.22 15.79q.39 .0 .62 .26q.23 .26 .23 .7q.0 .44 -.23 .7q-.23 .26 -.62 .26q-.39 .0 -.62 -.26q-.23 -.26 -.23 -.7q.0 -.43 .23 -.7q.23 -.26 .62 -.26z" class="atom"/><g id="mol1atm22" class="atom"><path stroke="none" d="M3.03 13.46q-.27 .0 -.43 .2q-.16 .2 -.16 .55q.0 .35 .16 .55q.16 .2 .43 .2q.27 .0 .43 -.2q.16 -.2 .16 -.55q.0 -.35 -.16 -.55q-.16 -.2 -.43 -.2zM3.03 13.25q.39 .0 .62 .26q.23 .26 .23 .7q.0 .44 -.23 .7q-.23 .26 -.62 .26q-.39 .0 -.62 -.26q-.23 -.26 -.23 -.7q.0 -.43 .23 -.7q.23 -.26 .62 -.26z"/><path stroke="none" d="M.56 13.29h.25v.76h.91v-.76h.25v1.85h-.25v-.88h-.91v.88h-.25v-1.85z"/></g><g id="mol1atm24" class="atom"><path stroke="none" d="M7.43 5.84q-.27 .0 -.43 .2q-.16 .2 -.16 .55q.0 .35 .16 .55q.16 .2 .43 .2q.27 .0 .43 -.2q.16 -.2 .16 -.55q.0 -.35 -.16 -.55q-.16 -.2 -.43 -.2zM7.43 5.64q.39 .0 .62 .26q.23 .26 .23 .7q.0 .44 -.23 .7q-.23 .26 -.62 .26q-.39 .0 -.62 -.26q-.23 -.26 -.23 -.7q.0 -.43 .23 -.7q.23 -.26 .62 -.26z"/><path stroke="none" d="M4.96 5.67h.25v.76h.91v-.76h.25v1.85h-.25v-.88h-.91v.88h-.25v-1.85z"/></g><g id="mol1atm26" class="atom"><path stroke="none" d="M16.22 .76q-.27 .0 -.43 .2q-.16 .2 -.16 .55q.0 .35 .16 .55q.16 .2 .43 .2q.27 .0 .43 -.2q.16 -.2 .16 -.55q.0 -.35 -.16 -.55q-.16 -.2 -.43 -.2zM16.22 .56q.39 .0 .62 .26q.23 .26 .23 .7q.0 .44 -.23 .7q-.23 .26 -.62 .26q-.39 .0 -.62 -.26q-.23 -.26 -.23 -.7q.0 -.43 .23 -.7q.23 -.26 .62 -.26z"/><path stroke="none" d="M17.29 .59h.25v.76h.91v-.76h.25v1.85h-.25v-.88h-.91v.88h-.25v-1.85z"/></g><g id="mol1atm28" class="atom"><path stroke="none" d="M25.02 5.84q-.27 .0 -.43 .2q-.16 .2 -.16 .55q.0 .35 .16 .55q.16 .2 .43 .2q.27 .0 .43 -.2q.16 -.2 .16 -.55q.0 -.35 -.16 -.55q-.16 -.2 -.43 -.2zM25.02 5.64q.39 .0 .62 .26q.23 .26 .23 .7q.0 .44 -.23 .7q-.23 .26 -.62 .26q-.39 .0 -.62 -.26q-.23 -.26 -.23 -.7q.0 -.43 .23 -.7q.23 -.26 .62 -.26z"/><path stroke="none" d="M26.08 5.67h.25v.76h.91v-.76h.25v1.85h-.25v-.88h-.91v.88h-.25v-1.85z"/></g><g id="mol1atm30" class="atom"><path stroke="none" d="M29.42 8.38q-.27 .0 -.43 .2q-.16 .2 -.16 .55q.0 .35 .16 .55q.16 .2 .43 .2q.27 .0 .43 -.2q.16 -.2 .16 -.55q.0 -.35 -.16 -.55q-.16 -.2 -.43 -.2zM29.42 8.18q.39 .0 .62 .26q.23 .26 .23 .7q.0 .44 -.23 .7q-.23 .26 -.62 .26q-.39 .0 -.62 -.26q-.23 -.26 -.23 -.7q.0 -.43 .23 -.7q.23 -.26 .62 -.26z"/><path stroke="none" d="M30.48 8.21h.25v.76h.91v-.76h.25v1.85h-.25v-.88h-.91v.88h-.25v-1.85z"/></g><path id="mol1atm33" stroke="none" d="M38.22 8.38q-.27 .0 -.43 .2q-.16 .2 -.16 .55q.0 .35 .16 .55q.16 .2 .43 .2q.27 .0 .43 -.2q.16 -.2 .16 -.55q.0 -.35 -.16 -.55q-.16 -.2 -.43 -.2zM38.22 8.18q.39 .0 .62 .26q.23 .26 .23 .7q.0 .44 -.23 .7q-.23 .26 -.62 .26q-.39 .0 -.62 -.26q-.23 -.26 -.23 -.7q.0 -.43 .23 -.7q.23 -.26 .62 -.26z" class="atom"/><g id="mol1atm37" class="atom"><path stroke="none" d="M55.82 13.46q-.27 .0 -.43 .2q-.16 .2 -.16 .55q.0 .35 .16 .55q.16 .2 .43 .2q.27 .0 .43 -.2q.16 -.2 .16 -.55q.0 -.35 -.16 -.55q-.16 -.2 -.43 -.2zM55.82 13.25q.39 .0 .62 .26q.23 .26 .23 .7q.0 .44 -.23 .7q-.23 .26 -.62 .26q-.39 .0 -.62 -.26q-.23 -.26 -.23 -.7q.0 -.43 .23 -.7q.23 -.26 .62 -.26z"/><path stroke="none" d="M56.88 13.29h.25v.76h.91v-.76h.25v1.85h-.25v-.88h-.91v.88h-.25v-1.85z"/></g><g id="mol1atm39" class="atom"><path stroke="none" d="M55.82 23.61q-.27 .0 -.43 .2q-.16 .2 -.16 .55q.0 .35 .16 .55q.16 .2 .43 .2q.27 .0 .43 -.2q.16 -.2 .16 -.55q.0 -.35 -.16 -.55q-.16 -.2 -.43 -.2zM55.82 23.41q.39 .0 .62 .26q.23 .26 .23 .7q.0 .44 -.23 .7q-.23 .26 -.62 .26q-.39 .0 -.62 -.26q-.23 -.26 -.23 -.7q.0 -.43 .23 -.7q.23 -.26 .62 -.26z"/><path stroke="none" d="M56.88 23.44h.25v.76h.91v-.76h.25v1.85h-.25v-.88h-.91v.88h-.25v-1.85z"/></g><path id="mol1atm42" stroke="none" d="M38.22 23.61q-.27 .0 -.43 .2q-.16 .2 -.16 .55q.0 .35 .16 .55q.16 .2 .43 .2q.27 .0 .43 -.2q.16 -.2 .16 -.55q.0 -.35 -.16 -.55q-.16 -.2 -.43 -.2zM38.22 23.41q.39 .0 .62 .26q.23 .26 .23 .7q.0 .44 -.23 .7q-.23 .26 -.62 .26q-.39 .0 -.62 -.26q-.23 -.26 -.23 -.7q.0 -.43 .23 -.7q.23 -.26 .62 -.26z" class="atom"/><g id="mol1atm46" class="atom"><path stroke="none" d="M38.21 38.85q-.27 .0 -.43 .2q-.16 .2 -.16 .55q.0 .35 .16 .55q.16 .2 .43 .2q.27 .0 .43 -.2q.16 -.2 .16 -.55q.0 -.35 -.16 -.55q-.16 -.2 -.43 -.2zM38.21 38.64q.39 .0 .62 .26q.23 .26 .23 .7q.0 .44 -.23 .7q-.23 .26 -.62 .26q-.39 .0 -.62 -.26q-.23 -.26 -.23 -.7q.0 -.43 .23 -.7q.23 -.26 .62 -.26z"/><path stroke="none" d="M39.27 38.68h.25v.76h.91v-.76h.25v1.85h-.25v-.88h-.91v.88h-.25v-1.85z"/></g><path id="mol1atm48" stroke="none" d="M29.41 43.93q-.27 .0 -.43 .2q-.16 .2 -.16 .55q.0 .35 .16 .55q.16 .2 .43 .2q.27 .0 .43 -.2q.16 -.2 .16 -.55q.0 -.35 -.16 -.55q-.16 -.2 -.43 -.2zM29.41 43.73q.39 .0 .62 .26q.23 .26 .23 .7q.0 .44 -.23 .7q-.23 .26 -.62 .26q-.39 .0 -.62 -.26q-.23 -.26 -.23 -.7q.0 -.43 .23 -.7q.23 -.26 .62 -.26z" class="atom"/></g></g></svg>