<svg height="59.49" viewBox="0 0 35.24 15.74" width="35.24mm" xmlns="http://www.w3.org/2000/svg"><g stroke="#000" stroke-linecap="round" stroke-linejoin="round" stroke-width=".21"><path d="m0 0h36v16h-36z" fill="#fff" stroke="none"/><path d="m2.8 6.93.31.18"/><path d="m2.39 7.63.31.18"/><path d="m6.92 8.5 1.16-.67"/><path d="m10.21 5.08v-2.18"/><path d="m11.33 7.25.35.2"/><path d="m14.61 10.52v2.32"/><path d="m15.73 8.49 1.15-.66"/><path d="m19.01 5.08v-2.18"/><path d="m20.13 7.25.35.2"/><path d="m23.41 10.52v2.32"/><path d="m24.53 8.49 1.96-1.13"/><path d="m29.09 7.34 1.94 1.12"/><g stroke="none"><path d="m1.41 5.84q-.27 0-.43.2-.16.2-.16.55 0 .35.16.55.16.2.43.2.27 0 .43-.2.16-.2.16-.55 0-.35-.16-.55-.16-.2-.43-.2zm0-.2q.39 0 .62.26.23.26.23.7 0 .44-.23.7-.23.26-.62.26-.39 0-.62-.26-.23-.26-.23-.7 0-.43.23-.7.23-.26.62-.26z" fill="#ff0d0d"/><path d="m6.56 8.36v.26q-.13-.12-.27-.18-.14-.06-.3-.06-.32 0-.49.19-.17.19-.17.56 0 .36.17.56.17.19.49.19.16 0 .3-.06.14-.06.27-.17v.26q-.13.09-.28.14-.15.04-.31.04-.42 0-.66-.26-.24-.26-.24-.7 0-.44.24-.7.24-.26.66-.26.16 0 .31.05.15.04.28.13z"/><path d="m5.18 10.31h.25v.76h.91v-.76h.25v1.85h-.25v-.88h-.91v.88h-.25z"/><path d="m3.24 8.61h.24v-.84l-.27.05v-.14l.26-.05h.15v.98h.24v.13h-.64v-.13zm1.39-.47q.11.02.17.1.06.07.06.18 0 .16-.11.25-.11.09-.32.09-.07 0-.14-.01-.07-.01-.15-.04v-.15q.06.04.14.06.07.02.16.02.14 0 .21-.05.07-.06.07-.16 0-.1-.07-.15-.07-.05-.19-.05h-.13v-.12h.14q.11 0 .17-.04.06-.04.06-.13 0-.08-.06-.13-.06-.05-.17-.05-.06 0-.13.01-.07.01-.15.04v-.14q.08-.02.16-.03.07-.01.14-.01.17 0 .27.08.1.08.1.21 0 .09-.05.16-.05.06-.15.09z"/><path d="m10.96 5.82v.26q-.13-.12-.27-.18-.14-.06-.3-.06-.32 0-.49.19-.17.19-.17.56 0 .36.17.56.17.19.49.19.16 0 .3-.06.14-.06.27-.17v.26q-.13.09-.28.14-.15.04-.31.04-.42 0-.66-.26-.24-.26-.24-.7 0-.44.24-.7.24-.26.66-.26.16 0 .31.05.15.04.28.13z"/><path d="m9.57 7.77h.25v.76h.91v-.76h.25v1.85h-.25v-.88h-.91v.88h-.25z"/><path d="m7.63 6.07h.24v-.84l-.27.05v-.14l.26-.05h.15v.98h.24v.13h-.64v-.13zm1.4-.47q.11.02.17.1.06.07.06.18 0 .16-.11.25-.11.09-.32.09-.07 0-.14-.01-.07-.01-.15-.04v-.15q.06.04.14.06.07.02.16.02.14 0 .21-.05.07-.06.07-.16 0-.1-.07-.15-.07-.05-.19-.05h-.13v-.12h.14q.11 0 .17-.04.06-.04.06-.13 0-.08-.06-.13-.06-.05-.17-.05-.06 0-.13.01-.07.01-.15.04v-.14q.08-.02.16-.03.07-.01.14-.01.17 0 .27.08.1.08.1.21 0 .09-.05.16-.05.06-.15.09z"/><path d="m10.21.76q-.27 0-.43.2-.16.2-.16.55 0 .35.16.55.16.2.43.2.27 0 .43-.2.16-.2.16-.55 0-.35-.16-.55-.16-.2-.43-.2zm0-.2q.39 0 .62.26.23.26.23.7 0 .44-.23.7-.23.26-.62.26-.39 0-.62-.26-.23-.26-.23-.7 0-.43.23-.7.23-.26.62-.26z" fill="#ff0d0d"/><path d="m11.28.59h.25v.76h.91v-.76h.25v1.85h-.25v-.88h-.91v.88h-.25z" fill="#ff0d0d"/><path d="m15.35 8.36v.26q-.13-.12-.27-.18-.14-.06-.3-.06-.32 0-.49.19-.17.19-.17.56 0 .36.17.56.17.19.49.19.16 0 .3-.06.14-.06.27-.17v.26q-.13.09-.28.14-.15.04-.31.04-.42 0-.66-.26-.24-.26-.24-.7 0-.44.24-.7.24-.26.66-.26.16 0 .31.05.15.04.28.13z"/><path d="m13.97 6.12h.25v.76h.91v-.76h.25v1.85h-.25v-.88h-.91v.88h-.25z"/><path d="m12.03 8.61h.24v-.84l-.27.05v-.14l.26-.05h.15v.98h.24v.13h-.64v-.13zm1.4-.47q.11.02.17.1.06.07.06.18 0 .16-.11.25-.11.09-.32.09-.07 0-.14-.01-.07-.01-.15-.04v-.15q.06.04.14.06.07.02.16.02.14 0 .21-.05.07-.06.07-.16 0-.1-.07-.15-.07-.05-.19-.05h-.13v-.12h.14q.11 0 .17-.04.06-.04.06-.13 0-.08-.06-.13-.06-.05-.17-.05-.06 0-.13.01-.07.01-.15.04v-.14q.08-.02.16-.03.07-.01.14-.01.17 0 .27.08.1.08.1.21 0 .09-.05.16-.05.06-.15.09z"/><path d="m14.61 13.46q-.27 0-.43.2-.16.2-.16.55 0 .35.16.55.16.2.43.2.27 0 .43-.2.16-.2.16-.55 0-.35-.16-.55-.16-.2-.43-.2zm0-.2q.39 0 .62.26.23.26.23.7 0 .44-.23.7-.23.26-.62.26-.39 0-.62-.26-.23-.26-.23-.7 0-.43.23-.7.23-.26.62-.26z" fill="#ff0d0d"/><path d="m15.68 13.29h.25v.76h.91v-.76h.25v1.85h-.25v-.88h-.91v.88h-.25z" fill="#ff0d0d"/><path d="m19.75 5.82v.26q-.13-.12-.27-.18-.14-.06-.3-.06-.32 0-.49.19-.17.19-.17.56 0 .36.17.56.17.19.49.19.16 0 .3-.06.14-.06.27-.17v.26q-.13.09-.28.14-.15.04-.31.04-.42 0-.66-.26-.24-.26-.24-.7 0-.44.24-.7.24-.26.66-.26.16 0 .31.05.15.04.28.13z"/><path d="m18.37 7.77h.25v.76h.91v-.76h.25v1.85h-.25v-.88h-.91v.88h-.25z"/><path d="m16.43 6.07h.24v-.84l-.27.05v-.14l.26-.05h.15v.98h.24v.13h-.64v-.13zm1.4-.47q.11.02.17.1.06.07.06.18 0 .16-.11.25-.11.09-.32.09-.07 0-.14-.01-.07-.01-.15-.04v-.15q.06.04.14.06.07.02.16.02.14 0 .21-.05.07-.06.07-.16 0-.1-.07-.15-.07-.05-.19-.05h-.13v-.12h.14q.11 0 .17-.04.06-.04.06-.13 0-.08-.06-.13-.06-.05-.17-.05-.06 0-.13.01-.07.01-.15.04v-.14q.08-.02.16-.03.07-.01.14-.01.17 0 .27.08.1.08.1.21 0 .09-.05.16-.05.06-.15.09z"/><path d="m19.01.76q-.27 0-.43.2-.16.2-.16.55 0 .35.16.55.16.2.43.2.27 0 .43-.2.16-.2.16-.55 0-.35-.16-.55-.16-.2-.43-.2zm0-.2q.39 0 .62.26.23.26.23.7 0 .44-.23.7-.23.26-.62.26-.39 0-.62-.26-.23-.26-.23-.7 0-.43.23-.7.23-.26.62-.26z" fill="#ff0d0d"/><path d="m20.07.59h.25v.76h.91v-.76h.25v1.85h-.25v-.88h-.91v.88h-.25z" fill="#ff0d0d"/><path d="m24.15 8.36v.26q-.13-.12-.27-.18-.14-.06-.3-.06-.32 0-.49.19-.17.19-.17.56 0 .36.17.56.17.19.49.19.16 0 .3-.06.14-.06.27-.17v.26q-.13.09-.28.14-.15.04-.31.04-.42 0-.66-.26-.24-.26-.24-.7 0-.44.24-.7.24-.26.66-.26.16 0 .31.05.15.04.28.13z"/><path d="m22.77 6.12h.25v.76h.91v-.76h.25v1.85h-.25v-.88h-.91v.88h-.25z"/><path d="m20.83 8.61h.24v-.84l-.27.05v-.14l.26-.05h.15v.98h.24v.13h-.64v-.13zm1.4-.47q.11.02.17.1.06.07.06.18 0 .16-.11.25-.11.09-.32.09-.07 0-.14-.01-.07-.01-.15-.04v-.15q.06.04.14.06.07.02.16.02.14 0 .21-.05.07-.06.07-.16 0-.1-.07-.15-.07-.05-.19-.05h-.13v-.12h.14q.11 0 .17-.04.06-.04.06-.13 0-.08-.06-.13-.06-.05-.17-.05-.06 0-.13.01-.07.01-.15.04v-.14q.08-.02.16-.03.07-.01.14-.01.17 0 .27.08.1.08.1.21 0 .09-.05.16-.05.06-.15.09z"/><path d="m23.41 13.46q-.27 0-.43.2-.16.2-.16.55 0 .35.16.55.16.2.43.2.27 0 .43-.2.16-.2.16-.55 0-.35-.16-.55-.16-.2-.43-.2zm0-.2q.39 0 .62.26.23.26.23.7 0 .44-.23.7-.23.26-.62.26-.39 0-.62-.26-.23-.26-.23-.7 0-.43.23-.7.23-.26.62-.26z" fill="#ff0d0d"/><path d="m24.47 13.29h.25v.76h.91v-.76h.25v1.85h-.25v-.88h-.91v.88h-.25z" fill="#ff0d0d"/><path d="m28.55 5.82v.26q-.13-.12-.27-.18-.14-.06-.3-.06-.32 0-.49.19-.17.19-.17.56 0 .36.17.56.17.19.49.19.16 0 .3-.06.14-.06.27-.17v.26q-.13.09-.28.14-.15.04-.31.04-.42 0-.66-.26-.24-.26-.24-.7 0-.44.24-.7.24-.26.66-.26.16 0 .31.05.15.04.28.13z"/><path d="m27.17 3.58h.25v.76h.91v-.76h.25v1.85h-.25v-.88h-.91v.88h-.25z"/><path d="m28.97 5.87h.52v.13h-.7v-.13q.09-.09.23-.24.15-.15.19-.19.07-.08.1-.14.03-.06.03-.11 0-.09-.06-.14-.06-.05-.16-.05-.07 0-.15.02-.08.02-.17.07v-.15q.09-.04.17-.05.08-.02.14-.02.17 0 .28.09.1.09.1.23 0 .07-.03.13-.03.06-.09.14-.02.02-.12.13-.1.1-.28.29z"/><path d="m25.23 6.07h.24v-.84l-.27.05v-.14l.26-.05h.15v.98h.24v.13h-.64v-.13zm1.4-.47q.11.02.17.1.06.07.06.18 0 .16-.11.25-.11.09-.32.09-.07 0-.14-.01-.07-.01-.15-.04v-.15q.06.04.14.06.07.02.16.02.14 0 .21-.05.07-.06.07-.16 0-.1-.07-.15-.07-.05-.19-.05h-.13v-.12h.14q.11 0 .17-.04.06-.04.06-.13 0-.08-.06-.13-.06-.05-.17-.05-.06 0-.13.01-.07.01-.15.04v-.14q.08-.02.16-.03.07-.01.14-.01.17 0 .27.08.1.08.1.21 0 .09-.05.16-.05.06-.15.09z"/><g fill="#ff0d0d"><path d="m32.21 8.38q-.27 0-.43.2-.16.2-.16.55 0 .35.16.55.16.2.43.2.27 0 .43-.2.16-.2.16-.55 0-.35-.16-.55-.16-.2-.43-.2zm0-.2q.39 0 .62.26.23.26.23.7 0 .44-.23.7-.23.26-.62.26-.39 0-.62-.26-.23-.26-.23-.7 0-.43.23-.7.23-.26.62-.26z"/><path d="m33.27 8.21h.25v.76h.91v-.76h.25v1.85h-.25v-.88h-.91v.88h-.25z"/></g></g></g></svg>