<svg xmlns="http://www.w3.org/2000/svg" xmlns:xlink="http://www.w3.org/1999/xlink" width="35.24mm" height="59.49" version="1.2" viewBox="0 0 35.24 15.74"><desc>Generated by the Chemistry Development Kit (http://github.com/cdk)</desc><g fill="#000" stroke="#000" stroke-linecap="round" stroke-linejoin="round" stroke-width=".21"><rect width="36" height="16" x="0" y="0" fill="#FFF" stroke="none"/><g id="mol1" class="mol"><g id="mol1bnd1" class="bond"><line x1="2.8" x2="3.11" y1="6.93" y2="7.11"/><line x1="2.39" x2="2.7" y1="7.63" y2="7.81"/></g><line id="mol1bnd2" x1="6.92" x2="8.08" y1="8.5" y2="7.83" class="bond"/><line id="mol1bnd3" x1="10.21" x2="10.21" y1="5.08" y2="2.9" class="bond"/><line id="mol1bnd4" x1="11.33" x2="11.68" y1="7.25" y2="7.45" class="bond"/><line id="mol1bnd5" x1="14.61" x2="14.61" y1="10.52" y2="12.84" class="bond"/><line id="mol1bnd6" x1="15.73" x2="16.88" y1="8.49" y2="7.83" class="bond"/><line id="mol1bnd7" x1="19.01" x2="19.01" y1="5.08" y2="2.9" class="bond"/><line id="mol1bnd8" x1="20.13" x2="20.48" y1="7.25" y2="7.45" class="bond"/><line id="mol1bnd9" x1="23.41" x2="23.41" y1="10.52" y2="12.84" class="bond"/><line id="mol1bnd10" x1="24.53" x2="26.49" y1="8.49" y2="7.36" class="bond"/><line id="mol1bnd11" x1="29.09" x2="31.03" y1="7.34" y2="8.46" class="bond"/><path id="mol1atm1" fill="#FF0D0D" stroke="none" d="M1.41 5.84q-.27 .0 -.43 .2q-.16 .2 -.16 .55q.0 .35 .16 .55q.16 .2 .43 .2q.27 .0 .43 -.2q.16 -.2 .16 -.55q.0 -.35 -.16 -.55q-.16 -.2 -.43 -.2zM1.41 5.64q.39 .0 .62 .26q.23 .26 .23 .7q.0 .44 -.23 .7q-.23 .26 -.62 .26q-.39 .0 -.62 -.26q-.23 -.26 -.23 -.7q.0 -.43 .23 -.7q.23 -.26 .62 -.26z" class="atom"/><g id="mol1atm2" class="atom"><path stroke="none" d="M6.56 8.36v.26q-.13 -.12 -.27 -.18q-.14 -.06 -.3 -.06q-.32 .0 -.49 .19q-.17 .19 -.17 .56q.0 .36 .17 .56q.17 .19 .49 .19q.16 .0 .3 -.06q.14 -.06 .27 -.17v.26q-.13 .09 -.28 .14q-.15 .04 -.31 .04q-.42 .0 -.66 -.26q-.24 -.26 -.24 -.7q.0 -.44 .24 -.7q.24 -.26 .66 -.26q.16 .0 .31 .05q.15 .04 .28 .13z"/><path stroke="none" d="M5.18 10.31h.25v.76h.91v-.76h.25v1.85h-.25v-.88h-.91v.88h-.25v-1.85z"/><path stroke="none" d="M3.24 8.61h.24v-.84l-.27 .05v-.14l.26 -.05h.15v.98h.24v.13h-.64v-.13zM4.63 8.14q.11 .02 .17 .1q.06 .07 .06 .18q.0 .16 -.11 .25q-.11 .09 -.32 .09q-.07 .0 -.14 -.01q-.07 -.01 -.15 -.04v-.15q.06 .04 .14 .06q.07 .02 .16 .02q.14 .0 .21 -.05q.07 -.06 .07 -.16q.0 -.1 -.07 -.15q-.07 -.05 -.19 -.05h-.13v-.12h.14q.11 .0 .17 -.04q.06 -.04 .06 -.13q.0 -.08 -.06 -.13q-.06 -.05 -.17 -.05q-.06 .0 -.13 .01q-.07 .01 -.15 .04v-.14q.08 -.02 .16 -.03q.07 -.01 .14 -.01q.17 .0 .27 .08q.1 .08 .1 .21q.0 .09 -.05 .16q-.05 .06 -.15 .09z"/></g><g id="mol1atm3" class="atom"><path stroke="none" d="M10.96 5.82v.26q-.13 -.12 -.27 -.18q-.14 -.06 -.3 -.06q-.32 .0 -.49 .19q-.17 .19 -.17 .56q.0 .36 .17 .56q.17 .19 .49 .19q.16 .0 .3 -.06q.14 -.06 .27 -.17v.26q-.13 .09 -.28 .14q-.15 .04 -.31 .04q-.42 .0 -.66 -.26q-.24 -.26 -.24 -.7q.0 -.44 .24 -.7q.24 -.26 .66 -.26q.16 .0 .31 .05q.15 .04 .28 .13z"/><path stroke="none" d="M9.57 7.77h.25v.76h.91v-.76h.25v1.85h-.25v-.88h-.91v.88h-.25v-1.85z"/><path stroke="none" d="M7.63 6.07h.24v-.84l-.27 .05v-.14l.26 -.05h.15v.98h.24v.13h-.64v-.13zM9.03 5.6q.11 .02 .17 .1q.06 .07 .06 .18q.0 .16 -.11 .25q-.11 .09 -.32 .09q-.07 .0 -.14 -.01q-.07 -.01 -.15 -.04v-.15q.06 .04 .14 .06q.07 .02 .16 .02q.14 .0 .21 -.05q.07 -.06 .07 -.16q.0 -.1 -.07 -.15q-.07 -.05 -.19 -.05h-.13v-.12h.14q.11 .0 .17 -.04q.06 -.04 .06 -.13q.0 -.08 -.06 -.13q-.06 -.05 -.17 -.05q-.06 .0 -.13 .01q-.07 .01 -.15 .04v-.14q.08 -.02 .16 -.03q.07 -.01 .14 -.01q.17 .0 .27 .08q.1 .08 .1 .21q.0 .09 -.05 .16q-.05 .06 -.15 .09z"/></g><g id="mol1atm4" class="atom"><path fill="#FF0D0D" stroke="none" d="M10.21 .76q-.27 .0 -.43 .2q-.16 .2 -.16 .55q.0 .35 .16 .55q.16 .2 .43 .2q.27 .0 .43 -.2q.16 -.2 .16 -.55q.0 -.35 -.16 -.55q-.16 -.2 -.43 -.2zM10.21 .56q.39 .0 .62 .26q.23 .26 .23 .7q.0 .44 -.23 .7q-.23 .26 -.62 .26q-.39 .0 -.62 -.26q-.23 -.26 -.23 -.7q.0 -.43 .23 -.7q.23 -.26 .62 -.26z"/><path fill="#FF0D0D" stroke="none" d="M11.28 .59h.25v.76h.91v-.76h.25v1.85h-.25v-.88h-.91v.88h-.25v-1.85z"/></g><g id="mol1atm5" class="atom"><path stroke="none" d="M15.35 8.36v.26q-.13 -.12 -.27 -.18q-.14 -.06 -.3 -.06q-.32 .0 -.49 .19q-.17 .19 -.17 .56q.0 .36 .17 .56q.17 .19 .49 .19q.16 .0 .3 -.06q.14 -.06 .27 -.17v.26q-.13 .09 -.28 .14q-.15 .04 -.31 .04q-.42 .0 -.66 -.26q-.24 -.26 -.24 -.7q.0 -.44 .24 -.7q.24 -.26 .66 -.26q.16 .0 .31 .05q.15 .04 .28 .13z"/><path stroke="none" d="M13.97 6.12h.25v.76h.91v-.76h.25v1.85h-.25v-.88h-.91v.88h-.25v-1.85z"/><path stroke="none" d="M12.03 8.61h.24v-.84l-.27 .05v-.14l.26 -.05h.15v.98h.24v.13h-.64v-.13zM13.43 8.14q.11 .02 .17 .1q.06 .07 .06 .18q.0 .16 -.11 .25q-.11 .09 -.32 .09q-.07 .0 -.14 -.01q-.07 -.01 -.15 -.04v-.15q.06 .04 .14 .06q.07 .02 .16 .02q.14 .0 .21 -.05q.07 -.06 .07 -.16q.0 -.1 -.07 -.15q-.07 -.05 -.19 -.05h-.13v-.12h.14q.11 .0 .17 -.04q.06 -.04 .06 -.13q.0 -.08 -.06 -.13q-.06 -.05 -.17 -.05q-.06 .0 -.13 .01q-.07 .01 -.15 .04v-.14q.08 -.02 .16 -.03q.07 -.01 .14 -.01q.17 .0 .27 .08q.1 .08 .1 .21q.0 .09 -.05 .16q-.05 .06 -.15 .09z"/></g><g id="mol1atm6" class="atom"><path fill="#FF0D0D" stroke="none" d="M14.61 13.46q-.27 .0 -.43 .2q-.16 .2 -.16 .55q.0 .35 .16 .55q.16 .2 .43 .2q.27 .0 .43 -.2q.16 -.2 .16 -.55q.0 -.35 -.16 -.55q-.16 -.2 -.43 -.2zM14.61 13.26q.39 .0 .62 .26q.23 .26 .23 .7q.0 .44 -.23 .7q-.23 .26 -.62 .26q-.39 .0 -.62 -.26q-.23 -.26 -.23 -.7q.0 -.43 .23 -.7q.23 -.26 .62 -.26z"/><path fill="#FF0D0D" stroke="none" d="M15.68 13.29h.25v.76h.91v-.76h.25v1.85h-.25v-.88h-.91v.88h-.25v-1.85z"/></g><g id="mol1atm7" class="atom"><path stroke="none" d="M19.75 5.82v.26q-.13 -.12 -.27 -.18q-.14 -.06 -.3 -.06q-.32 .0 -.49 .19q-.17 .19 -.17 .56q.0 .36 .17 .56q.17 .19 .49 .19q.16 .0 .3 -.06q.14 -.06 .27 -.17v.26q-.13 .09 -.28 .14q-.15 .04 -.31 .04q-.42 .0 -.66 -.26q-.24 -.26 -.24 -.7q.0 -.44 .24 -.7q.24 -.26 .66 -.26q.16 .0 .31 .05q.15 .04 .28 .13z"/><path stroke="none" d="M18.37 7.77h.25v.76h.91v-.76h.25v1.85h-.25v-.88h-.91v.88h-.25v-1.85z"/><path stroke="none" d="M16.43 6.07h.24v-.84l-.27 .05v-.14l.26 -.05h.15v.98h.24v.13h-.64v-.13zM17.83 5.6q.11 .02 .17 .1q.06 .07 .06 .18q.0 .16 -.11 .25q-.11 .09 -.32 .09q-.07 .0 -.14 -.01q-.07 -.01 -.15 -.04v-.15q.06 .04 .14 .06q.07 .02 .16 .02q.14 .0 .21 -.05q.07 -.06 .07 -.16q.0 -.1 -.07 -.15q-.07 -.05 -.19 -.05h-.13v-.12h.14q.11 .0 .17 -.04q.06 -.04 .06 -.13q.0 -.08 -.06 -.13q-.06 -.05 -.17 -.05q-.06 .0 -.13 .01q-.07 .01 -.15 .04v-.14q.08 -.02 .16 -.03q.07 -.01 .14 -.01q.17 .0 .27 .08q.1 .08 .1 .21q.0 .09 -.05 .16q-.05 .06 -.15 .09z"/></g><g id="mol1atm8" class="atom"><path fill="#FF0D0D" stroke="none" d="M19.01 .76q-.27 .0 -.43 .2q-.16 .2 -.16 .55q.0 .35 .16 .55q.16 .2 .43 .2q.27 .0 .43 -.2q.16 -.2 .16 -.55q.0 -.35 -.16 -.55q-.16 -.2 -.43 -.2zM19.01 .56q.39 .0 .62 .26q.23 .26 .23 .7q.0 .44 -.23 .7q-.23 .26 -.62 .26q-.39 .0 -.62 -.26q-.23 -.26 -.23 -.7q.0 -.43 .23 -.7q.23 -.26 .62 -.26z"/><path fill="#FF0D0D" stroke="none" d="M20.07 .59h.25v.76h.91v-.76h.25v1.85h-.25v-.88h-.91v.88h-.25v-1.85z"/></g><g id="mol1atm9" class="atom"><path stroke="none" d="M24.15 8.36v.26q-.13 -.12 -.27 -.18q-.14 -.06 -.3 -.06q-.32 .0 -.49 .19q-.17 .19 -.17 .56q.0 .36 .17 .56q.17 .19 .49 .19q.16 .0 .3 -.06q.14 -.06 .27 -.17v.26q-.13 .09 -.28 .14q-.15 .04 -.31 .04q-.42 .0 -.66 -.26q-.24 -.26 -.24 -.7q.0 -.44 .24 -.7q.24 -.26 .66 -.26q.16 .0 .31 .05q.15 .04 .28 .13z"/><path stroke="none" d="M22.77 6.12h.25v.76h.91v-.76h.25v1.85h-.25v-.88h-.91v.88h-.25v-1.85z"/><path stroke="none" d="M20.83 8.61h.24v-.84l-.27 .05v-.14l.26 -.05h.15v.98h.24v.13h-.64v-.13zM22.23 8.14q.11 .02 .17 .1q.06 .07 .06 .18q.0 .16 -.11 .25q-.11 .09 -.32 .09q-.07 .0 -.14 -.01q-.07 -.01 -.15 -.04v-.15q.06 .04 .14 .06q.07 .02 .16 .02q.14 .0 .21 -.05q.07 -.06 .07 -.16q.0 -.1 -.07 -.15q-.07 -.05 -.19 -.05h-.13v-.12h.14q.11 .0 .17 -.04q.06 -.04 .06 -.13q.0 -.08 -.06 -.13q-.06 -.05 -.17 -.05q-.06 .0 -.13 .01q-.07 .01 -.15 .04v-.14q.08 -.02 .16 -.03q.07 -.01 .14 -.01q.17 .0 .27 .08q.1 .08 .1 .21q.0 .09 -.05 .16q-.05 .06 -.15 .09z"/></g><g id="mol1atm10" class="atom"><path fill="#FF0D0D" stroke="none" d="M23.41 13.46q-.27 .0 -.43 .2q-.16 .2 -.16 .55q.0 .35 .16 .55q.16 .2 .43 .2q.27 .0 .43 -.2q.16 -.2 .16 -.55q.0 -.35 -.16 -.55q-.16 -.2 -.43 -.2zM23.41 13.26q.39 .0 .62 .26q.23 .26 .23 .7q.0 .44 -.23 .7q-.23 .26 -.62 .26q-.39 .0 -.62 -.26q-.23 -.26 -.23 -.7q.0 -.43 .23 -.7q.23 -.26 .62 -.26z"/><path fill="#FF0D0D" stroke="none" d="M24.47 13.29h.25v.76h.91v-.76h.25v1.85h-.25v-.88h-.91v.88h-.25v-1.85z"/></g><g id="mol1atm11" class="atom"><path stroke="none" d="M28.55 5.82v.26q-.13 -.12 -.27 -.18q-.14 -.06 -.3 -.06q-.32 .0 -.49 .19q-.17 .19 -.17 .56q.0 .36 .17 .56q.17 .19 .49 .19q.16 .0 .3 -.06q.14 -.06 .27 -.17v.26q-.13 .09 -.28 .14q-.15 .04 -.31 .04q-.42 .0 -.66 -.26q-.24 -.26 -.24 -.7q.0 -.44 .24 -.7q.24 -.26 .66 -.26q.16 .0 .31 .05q.15 .04 .28 .13z"/><path stroke="none" d="M27.17 3.58h.25v.76h.91v-.76h.25v1.85h-.25v-.88h-.91v.88h-.25v-1.85z"/><path stroke="none" d="M28.97 5.87h.52v.13h-.7v-.13q.09 -.09 .23 -.24q.15 -.15 .19 -.19q.07 -.08 .1 -.14q.03 -.06 .03 -.11q.0 -.09 -.06 -.14q-.06 -.05 -.16 -.05q-.07 .0 -.15 .02q-.08 .02 -.17 .07v-.15q.09 -.04 .17 -.05q.08 -.02 .14 -.02q.17 .0 .28 .09q.1 .09 .1 .23q.0 .07 -.03 .13q-.03 .06 -.09 .14q-.02 .02 -.12 .13q-.1 .1 -.28 .29z"/><path stroke="none" d="M25.23 6.07h.24v-.84l-.27 .05v-.14l.26 -.05h.15v.98h.24v.13h-.64v-.13zM26.63 5.6q.11 .02 .17 .1q.06 .07 .06 .18q.0 .16 -.11 .25q-.11 .09 -.32 .09q-.07 .0 -.14 -.01q-.07 -.01 -.15 -.04v-.15q.06 .04 .14 .06q.07 .02 .16 .02q.14 .0 .21 -.05q.07 -.06 .07 -.16q.0 -.1 -.07 -.15q-.07 -.05 -.19 -.05h-.13v-.12h.14q.11 .0 .17 -.04q.06 -.04 .06 -.13q.0 -.08 -.06 -.13q-.06 -.05 -.17 -.05q-.06 .0 -.13 .01q-.07 .01 -.15 .04v-.14q.08 -.02 .16 -.03q.07 -.01 .14 -.01q.17 .0 .27 .08q.1 .08 .1 .21q.0 .09 -.05 .16q-.05 .06 -.15 .09z"/></g><g id="mol1atm12" class="atom"><path fill="#FF0D0D" stroke="none" d="M32.21 8.38q-.27 .0 -.43 .2q-.16 .2 -.16 .55q.0 .35 .16 .55q.16 .2 .43 .2q.27 .0 .43 -.2q.16 -.2 .16 -.55q.0 -.35 -.16 -.55q-.16 -.2 -.43 -.2zM32.21 8.18q.39 .0 .62 .26q.23 .26 .23 .7q.0 .44 -.23 .7q-.23 .26 -.62 .26q-.39 .0 -.62 -.26q-.23 -.26 -.23 -.7q.0 -.43 .23 -.7q.23 -.26 .62 -.26z"/><path fill="#FF0D0D" stroke="none" d="M33.27 8.21h.25v.76h.91v-.76h.25v1.85h-.25v-.88h-.91v.88h-.25v-1.85z"/></g></g></g></svg>