<svg height="94.791" viewBox="0 0 48.52 25.08" width="48.52mm" xmlns="http://www.w3.org/2000/svg"><g fill="#ff0d0d" stroke="#000" stroke-linecap="round" stroke-linejoin="round" stroke-width=".21"><path d="m0 0h49v26h-49z" fill="#fff" stroke="none"/><path d="m33.9 3.24-4.4-2.54"/><path d="m33.09 3.71-3.99-2.3"/><path d="m33.9 3.24v5.08"/><path d="m33.9 8.32-4.4 2.54"/><path d="m29.5 10.86-3.22-1.85"/><path d="m23.92 9.01-3.22 1.85"/><path d="m20.7 10.86-3.27-1.87"/><path d="m15.05 8.99-3.22 1.84"/><path d="m11.83 10.83-4.39-2.56"/><path d="m7.44 8.27-3.23 1.85"/><path d="m11.83 10.83-.02 5.05"/><path d="m11.81 15.88-3.23 1.83"/><path d="m11.81 15.88 4.39 2.59"/><path d="m16.2 18.47-.02 3.7"/><path d="m16.2 18.47 4.48-2.56"/><path d="m20.7 10.86-.02 5.05"/><path d="m20.68 15.91 3.21 1.87"/><path d="m29.5 10.86v3.71"/><path d="m30.68 16.63 3.22 1.85"/><path d="m33.9 18.48 4.4-2.54"/><path d="m33.9 17.54 3.59-2.07"/><path d="m38.3 15.94 4.41 2.54"/><path d="m43.11 18.25v3.94"/><path d="m42.3 18.25v3.94"/><path d="m42.71 18.48 3.22-1.85"/><path d="m47.11 14.57v-3.71"/><path d="m47.11 10.86-4.4-2.54"/><path d="m42.71 8.32-4.41 2.54"/><path d="m38.3 15.94v-5.08"/><path d="m33.9 8.32 4.4 2.54"/><path d="m38.3 10.86v-3.7"/><g stroke="none"><path d="m25.1 7.57q-.27 0-.43.2-.16.2-.16.55 0 .35.16.55.16.2.43.2.27 0 .43-.2.16-.2.16-.55 0-.35-.16-.55-.16-.2-.43-.2zm0-.21q.39 0 .62.26.23.26.23.7 0 .44-.23.7-.23.26-.62.26-.39 0-.62-.26-.23-.26-.23-.7 0-.43.23-.7.23-.26.62-.26z"/><path d="m16.24 7.55q-.27 0-.43.2-.16.2-.16.55 0 .35.16.55.16.2.43.2.27 0 .43-.2.16-.2.16-.55 0-.35-.16-.55-.16-.2-.43-.2zm0-.2q.39 0 .62.26.23.26.23.7 0 .44-.23.7-.23.26-.62.26-.39 0-.62-.26-.23-.26-.23-.7 0-.43.23-.7.23-.26.62-.26z"/><path d="m3.03 10.04q-.27 0-.43.2-.16.2-.16.55 0 .35.16.55.16.2.43.2.27 0 .43-.2.16-.2.16-.55 0-.35-.16-.55-.16-.2-.43-.2zm0-.2q.39 0 .62.26.23.26.23.7 0 .44-.23.7-.23.26-.62.26-.39 0-.62-.26-.23-.26-.23-.7 0-.43.23-.7.23-.26.62-.26z"/><path d="m.56 9.87h.25v.76h.91v-.76h.25v1.85h-.25v-.88h-.91v.88h-.25z"/><path d="m7.4 17.63q-.27 0-.43.2-.16.2-.16.55 0 .35.16.55.16.2.43.2.27 0 .43-.2.16-.2.16-.55 0-.35-.16-.55-.16-.2-.43-.2zm0-.2q.39 0 .62.26.23.26.23.7 0 .44-.23.7-.23.26-.62.26-.39 0-.62-.26-.23-.26-.23-.7 0-.43.23-.7.23-.26.62-.26z"/><path d="m4.93 17.46h.25v.76h.91v-.76h.25v1.85h-.25v-.88h-.91v.88h-.25z"/><path d="m16.17 22.79q-.27 0-.43.2-.16.2-.16.55 0 .35.16.55.16.2.43.2.27 0 .43-.2.16-.2.16-.55 0-.35-.16-.55-.16-.2-.43-.2zm0-.2q.39 0 .62.26.23.26.23.7 0 .44-.23.7-.23.26-.62.26-.39 0-.62-.26-.23-.26-.23-.7 0-.43.23-.7.23-.26.62-.26z"/><path d="m17.23 22.62h.25v.76h.91v-.76h.25v1.85h-.25v-.88h-.91v.88h-.25z"/><path d="m25.07 17.71q-.27 0-.43.2-.16.2-.16.55 0 .35.16.55.16.2.43.2.27 0 .43-.2.16-.2.16-.55 0-.35-.16-.55-.16-.2-.43-.2zm0-.2q.39 0 .62.26.23.26.23.7 0 .44-.23.7-.23.26-.62.26-.39 0-.62-.26-.23-.26-.23-.7 0-.43.23-.7.23-.26.62-.26z"/><path d="m26.13 17.54h.25v.76h.91v-.76h.25v1.85h-.25v-.88h-.91v.88h-.25z"/><path d="m29.5 15.19q-.27 0-.43.2-.16.2-.16.55 0 .35.16.55.16.2.43.2.27 0 .43-.2.16-.2.16-.55 0-.35-.16-.55-.16-.2-.43-.2zm0-.2q.39 0 .62.26.23.26.23.7 0 .44-.23.7-.23.26-.62.26-.39 0-.62-.26-.23-.26-.23-.7 0-.43.23-.7.23-.26.62-.26z"/><path d="m42.71 22.81q-.27 0-.43.2-.16.2-.16.55 0 .35.16.55.16.2.43.2.27 0 .43-.2.16-.2.16-.55 0-.35-.16-.55-.16-.2-.43-.2zm0-.2q.39 0 .62.26.23.26.23.7 0 .44-.23.7-.23.26-.62.26-.39 0-.62-.26-.23-.26-.23-.7 0-.43.23-.7.23-.26.62-.26z"/><path d="m47.11 15.19q-.27 0-.43.2-.16.2-.16.55 0 .35.16.55.16.2.43.2.27 0 .43-.2.16-.2.16-.55 0-.35-.16-.55-.16-.2-.43-.2zm0-.2q.39 0 .62.26.23.26.23.7 0 .44-.23.7-.23.26-.62.26-.39 0-.62-.26-.23-.26-.23-.7 0-.43.23-.7.23-.26.62-.26z"/><path d="m38.31 5.03q-.27 0-.43.2-.16.2-.16.55 0 .35.16.55.16.2.43.2.27 0 .43-.2.16-.2.16-.55 0-.35-.16-.55-.16-.2-.43-.2zm0-.2q.39 0 .62.26.23.26.23.7 0 .44-.23.7-.23.26-.62.26-.39 0-.62-.26-.23-.26-.23-.7 0-.43.23-.7.23-.26.62-.26z"/><path d="m39.37 4.86h.25v.76h.91v-.76h.25v1.85h-.25v-.88h-.91v.88h-.25z"/></g></g></svg>