<svg xmlns="http://www.w3.org/2000/svg" xmlns:xlink="http://www.w3.org/1999/xlink" width="172.46" height="32.59mm" version="1.2" viewBox="0 0 45.63 32.59"><desc>Generated by the Chemistry Development Kit (http://github.com/cdk)</desc><g fill="#FF0D0D" stroke="#000" stroke-linecap="round" stroke-linejoin="round" stroke-width=".21"><rect width="46" height="33" x="0" y="0" fill="#FFF" stroke="none"/><g id="mol1" class="mol"><line id="mol1bnd1" x1="23.64" x2="26.98" y1="10.96" y2="12.57" class="bond"/><line id="mol1bnd2" x1="26.98" x2="30.7" y1="12.57" y2="9.12" class="bond"/><line id="mol1bnd3" x1="30.7" x2="29.88" y1="9.12" y2="5.53" class="bond"/><line id="mol1bnd4" x1="30.56" x2="33.29" y1="3.25" y2=".71" class="bond"/><g id="mol1bnd5" class="bond"><line x1="35.54" x2="30.7" y1="10.61" y2="9.12"/><line x1="34.86" x2="30.91" y1="11.25" y2="10.03"/></g><line id="mol1bnd6" x1="35.54" x2="36.7" y1="10.61" y2="15.55" class="bond"/><g id="mol1bnd7" class="bond"><line x1="32.97" x2="36.7" y1="19.01" y2="15.55"/><line x1="32.76" x2="35.8" y1="18.09" y2="15.28"/></g><line id="mol1bnd8" x1="32.97" x2="28.13" y1="19.01" y2="17.52" class="bond"/><g id="mol1bnd9" class="bond"><line x1="26.98" x2="28.13" y1="12.57" y2="17.52"/><line x1="27.88" x2="28.81" y1="12.85" y2="16.88"/></g><line id="mol1bnd10" x1="28.13" x2="24.94" y1="17.52" y2="21.48" class="bond"/><g id="mol1bnd11" class="bond"><line x1="19.86" x2="24.94" y1="21.48" y2="21.48"/><line x1="20.25" x2="24.55" y1="20.67" y2="20.67"/></g><line id="mol1bnd12" x1="19.86" x2="16.68" y1="21.48" y2="17.52" class="bond"/><line id="mol1bnd13" x1="16.68" x2="11.84" y1="17.52" y2="19.01" class="bond"/><g id="mol1bnd14" class="bond"><line x1="8.11" x2="11.84" y1="15.55" y2="19.01"/><line x1="9.01" x2="12.05" y1="15.28" y2="18.09"/></g><line id="mol1bnd15" x1="8.11" x2="9.26" y1="15.55" y2="10.61" class="bond"/><line id="mol1bnd16" x1="9.26" x2="6.53" y1="10.61" y2="8.06" class="bond"/><line id="mol1bnd17" x1="4.29" x2=".69" y1="7.53" y2="8.63" class="bond"/><g id="mol1bnd18" class="bond"><line x1="14.11" x2="9.26" y1="9.12" y2="10.61"/><line x1="13.9" x2="9.95" y1="10.03" y2="11.25"/></g><line id="mol1bnd19" x1="14.11" x2="14.93" y1="9.12" y2="5.53" class="bond"/><line id="mol1bnd20" x1="14.25" x2="11.52" y1="3.25" y2=".71" class="bond"/><line id="mol1bnd21" x1="14.11" x2="17.83" y1="9.12" y2="12.57" class="bond"/><line id="mol1bnd22" x1="21.17" x2="17.83" y1="10.96" y2="12.57" class="bond"/><g id="mol1bnd23" class="bond"><line x1="16.68" x2="17.83" y1="17.52" y2="12.57"/><line x1="16" x2="16.93" y1="16.88" y2="12.85"/></g><line id="mol1bnd24" x1="32.97" x2="34.1" y1="19.01" y2="23.96" class="bond"/><line id="mol1bnd25" x1="34.1" x2="38.96" y1="23.96" y2="25.45" class="bond"/><line id="mol1bnd26" x1="38.96" x2="39.78" y1="25.45" y2="29.07" class="bond"/><line id="mol1bnd27" x1="41.19" x2="44.94" y1="30.75" y2="31.9" class="bond"/><path id="mol1atm1" stroke="none" d="M22.41 9.62q-.27 .0 -.43 .2q-.16 .2 -.16 .55q.0 .35 .16 .55q.16 .2 .43 .2q.27 .0 .43 -.2q.16 -.2 .16 -.55q.0 -.35 -.16 -.55q-.16 -.2 -.43 -.2zM22.41 9.41q.39 .0 .62 .26q.23 .26 .23 .7q.0 .44 -.23 .7q-.23 .26 -.62 .26q-.39 .0 -.62 -.26q-.23 -.26 -.23 -.7q.0 -.43 .23 -.7q.23 -.26 .62 -.26z" class="atom"/><path id="mol1atm4" stroke="none" d="M29.57 3.41q-.27 .0 -.43 .2q-.16 .2 -.16 .55q.0 .35 .16 .55q.16 .2 .43 .2q.27 .0 .43 -.2q.16 -.2 .16 -.55q.0 -.35 -.16 -.55q-.16 -.2 -.43 -.2zM29.57 3.21q.39 .0 .62 .26q.23 .26 .23 .7q.0 .44 -.23 .7q-.23 .26 -.62 .26q-.39 .0 -.62 -.26q-.23 -.26 -.23 -.7q.0 -.43 .23 -.7q.23 -.26 .62 -.26z" class="atom"/><path id="mol1atm16" stroke="none" d="M5.55 6.39q-.27 .0 -.43 .2q-.16 .2 -.16 .55q.0 .35 .16 .55q.16 .2 .43 .2q.27 .0 .43 -.2q.16 -.2 .16 -.55q.0 -.35 -.16 -.55q-.16 -.2 -.43 -.2zM5.55 6.18q.39 .0 .62 .26q.23 .26 .23 .7q.0 .44 -.23 .7q-.23 .26 -.62 .26q-.39 .0 -.62 -.26q-.23 -.26 -.23 -.7q.0 -.43 .23 -.7q.23 -.26 .62 -.26z" class="atom"/><path id="mol1atm19" stroke="none" d="M15.24 3.41q-.27 .0 -.43 .2q-.16 .2 -.16 .55q.0 .35 .16 .55q.16 .2 .43 .2q.27 .0 .43 -.2q.16 -.2 .16 -.55q.0 -.35 -.16 -.55q-.16 -.2 -.43 -.2zM15.24 3.21q.39 .0 .62 .26q.23 .26 .23 .7q.0 .44 -.23 .7q-.23 .26 -.62 .26q-.39 .0 -.62 -.26q-.23 -.26 -.23 -.7q.0 -.43 .23 -.7q.23 -.26 .62 -.26z" class="atom"/><g id="mol1atm24" class="atom"><path fill="#3050F8" stroke="none" d="M39.39 29.48h.33l.82 1.54v-1.54h.24v1.85h-.34l-.82 -1.54v1.54h-.24v-1.85z"/><path fill="#3050F8" stroke="none" d="M37.77 29.48h.25v.76h.91v-.76h.25v1.85h-.25v-.88h-.91v.88h-.25v-1.85z"/></g></g></g></svg>