<svg height="36.72mm" viewBox="0 0 43.72 36.72" width="43.72mm" xmlns="http://www.w3.org/2000/svg"><g fill="#ff0d0d" stroke="#000" stroke-linecap="round" stroke-linejoin="round" stroke-width=".21"><path d="m0 0h44v37h-44z" fill="#fff" stroke="none"/><path d="m38.46.67.02 3.7"/><path d="m37.31 6.44-3.2 1.88"/><path d="m34.21 13.43-.1-5.11"/><path d="m33.39 12.95-.08-4.16"/><path d="m34.21 13.43-4.53 2.41"/><path d="m25.31 13.3 4.37 2.54"/><path d="m26.12 12.83 3.57 2.08"/><path d="m25.31 13.3-4.47 2.6"/><path d="m20.84 15.9-.04 5.05"/><path d="m20.8 20.95-4.4 2.51"/><path d="m16.4 23.46-4.5-2.65"/><path d="m15.58 23.92-3.69-2.16"/><path d="m11.9 20.81-4.47 2.61"/><path d="m7.43 23.42-.04 5.05"/><path d="m8.24 23.89-.03 4.11"/><path d="m7.39 28.47 4.51 2.64"/><path d="m11.9 31.11 4.4-2.51"/><path d="m11.9 30.17 3.59-2.04"/><path d="m16.4 23.46-.1 5.14"/><path d="m16.3 28.6 4.4 2.58"/><path d="m20.7 31.18 4.57-2.54"/><path d="m25.27 28.64-.07-3.77"/><path d="m20.8 20.95 3.31 1.95"/><path d="m26.24 22.96 3.47-1.84"/><path d="m29.68 15.84.03 5.28"/><path d="m7.39 28.47-3.23 1.83"/><path d="m2.97 32.36-.03 3.7"/><path d="m7.43 23.42-3.22-1.86"/><path d="m25.31 13.3v-5.08"/><path d="m29.71 5.74-4.4 2.48"/><path d="m29.7 6.68-3.58 2.01"/><path d="m34.11 8.32-4.4-2.58"/><path d="m34.21 13.43 3.21 1.89"/><path d="m39.78 15.33 3.23-1.83"/><g stroke="none"><path d="m38.49 4.99q-.27 0-.43.2-.16.2-.16.55 0 .35.16.55.16.2.43.2.27 0 .43-.2.16-.2.16-.55 0-.35-.16-.55-.16-.2-.43-.2zm0-.2q.39 0 .62.26.23.26.23.7 0 .44-.23.7-.23.26-.62.26-.39 0-.62-.26-.23-.26-.23-.7 0-.43.23-.7.23-.26.62-.26z"/><path d="m24.47 22.6h.33l.82 1.54v-1.54h.24v1.85h-.34l-.82-1.54v1.54h-.24v-1.85z" fill="#3050f8"/><path d="m2.98 30.22q-.27 0-.43.2-.16.2-.16.55 0 .35.16.55.16.2.43.2.27 0 .43-.2.16-.2.16-.55 0-.35-.16-.55-.16-.2-.43-.2zm0-.2q.39 0 .62.26.23.26.23.7 0 .44-.23.7-.23.26-.62.26-.39 0-.62-.26-.23-.26-.23-.7 0-.43.23-.7.23-.26.62-.26z"/><path d="m3.03 20.12q-.27 0-.43.2-.16.2-.16.55 0 .35.16.55.16.2.43.2.27 0 .43-.2.16-.2.16-.55 0-.35-.16-.55-.16-.2-.43-.2zm0-.2q.39 0 .62.26.23.26.23.7 0 .44-.23.7-.23.26-.62.26-.39 0-.62-.26-.23-.26-.23-.7 0-.43.23-.7.23-.26.62-.26z"/><path d="m.56 19.95h.25v.76h.91v-.76h.25v1.85h-.25v-.88h-.91v.88h-.25z"/><path d="m38.59 15.25q-.27 0-.43.2-.16.2-.16.55 0 .35.16.55.16.2.43.2.27 0 .43-.2.16-.2.16-.55 0-.35-.16-.55-.16-.2-.43-.2zm0-.2q.39 0 .62.26.23.26.23.7 0 .44-.23.7-.23.26-.62.26-.39 0-.62-.26-.23-.26-.23-.7 0-.43.23-.7.23-.26.62-.26z"/></g></g></svg>