<svg xmlns="http://www.w3.org/2000/svg" xmlns:xlink="http://www.w3.org/1999/xlink" width="43.72mm" height="36.72mm" version="1.2" viewBox="0 0 43.72 36.72"><desc>Generated by the Chemistry Development Kit (http://github.com/cdk)</desc><g fill="#FF0D0D" stroke="#000" stroke-linecap="round" stroke-linejoin="round" stroke-width=".21"><rect width="44" height="37" x="0" y="0" fill="#FFF" stroke="none"/><g id="mol1" class="mol"><line id="mol1bnd1" x1="38.46" x2="38.48" y1=".67" y2="4.37" class="bond"/><line id="mol1bnd2" x1="37.31" x2="34.11" y1="6.44" y2="8.32" class="bond"/><g id="mol1bnd3" class="bond"><line x1="34.21" x2="34.11" y1="13.43" y2="8.32"/><line x1="33.39" x2="33.31" y1="12.95" y2="8.79"/></g><line id="mol1bnd4" x1="34.21" x2="29.68" y1="13.43" y2="15.84" class="bond"/><g id="mol1bnd5" class="bond"><line x1="25.31" x2="29.68" y1="13.3" y2="15.84"/><line x1="26.12" x2="29.69" y1="12.83" y2="14.91"/></g><line id="mol1bnd6" x1="25.31" x2="20.84" y1="13.3" y2="15.9" class="bond"/><line id="mol1bnd7" x1="20.84" x2="20.8" y1="15.9" y2="20.95" class="bond"/><line id="mol1bnd8" x1="20.8" x2="16.4" y1="20.95" y2="23.46" class="bond"/><g id="mol1bnd9" class="bond"><line x1="16.4" x2="11.9" y1="23.46" y2="20.81"/><line x1="15.58" x2="11.89" y1="23.92" y2="21.76"/></g><line id="mol1bnd10" x1="11.9" x2="7.43" y1="20.81" y2="23.42" class="bond"/><g id="mol1bnd11" class="bond"><line x1="7.43" x2="7.39" y1="23.42" y2="28.47"/><line x1="8.24" x2="8.21" y1="23.89" y2="28"/></g><line id="mol1bnd12" x1="7.39" x2="11.9" y1="28.47" y2="31.11" class="bond"/><g id="mol1bnd13" class="bond"><line x1="11.9" x2="16.3" y1="31.11" y2="28.6"/><line x1="11.9" x2="15.49" y1="30.17" y2="28.13"/></g><line id="mol1bnd14" x1="16.4" x2="16.3" y1="23.46" y2="28.6" class="bond"/><line id="mol1bnd15" x1="16.3" x2="20.7" y1="28.6" y2="31.18" class="bond"/><line id="mol1bnd16" x1="20.7" x2="25.27" y1="31.18" y2="28.64" class="bond"/><line id="mol1bnd17" x1="25.27" x2="25.2" y1="28.64" y2="24.87" class="bond"/><line id="mol1bnd18" x1="20.8" x2="24.11" y1="20.95" y2="22.9" class="bond"/><line id="mol1bnd19" x1="26.24" x2="29.71" y1="22.96" y2="21.12" class="bond"/><line id="mol1bnd20" x1="29.68" x2="29.71" y1="15.84" y2="21.12" class="bond"/><line id="mol1bnd21" x1="7.39" x2="4.16" y1="28.47" y2="30.3" class="bond"/><line id="mol1bnd22" x1="2.97" x2="2.94" y1="32.36" y2="36.06" class="bond"/><line id="mol1bnd23" x1="7.43" x2="4.21" y1="23.42" y2="21.56" class="bond"/><line id="mol1bnd24" x1="25.31" x2="25.31" y1="13.3" y2="8.22" class="bond"/><g id="mol1bnd25" class="bond"><line x1="29.71" x2="25.31" y1="5.74" y2="8.22"/><line x1="29.7" x2="26.12" y1="6.68" y2="8.69"/></g><line id="mol1bnd26" x1="34.11" x2="29.71" y1="8.32" y2="5.74" class="bond"/><line id="mol1bnd27" x1="34.21" x2="37.42" y1="13.43" y2="15.32" class="bond"/><line id="mol1bnd28" x1="39.78" x2="43.01" y1="15.33" y2="13.5" class="bond"/><path id="mol1atm2" stroke="none" d="M38.49 4.99q-.27 .0 -.43 .2q-.16 .2 -.16 .55q.0 .35 .16 .55q.16 .2 .43 .2q.27 .0 .43 -.2q.16 -.2 .16 -.55q.0 -.35 -.16 -.55q-.16 -.2 -.43 -.2zM38.49 4.79q.39 .0 .62 .26q.23 .26 .23 .7q.0 .44 -.23 .7q-.23 .26 -.62 .26q-.39 .0 -.62 -.26q-.23 -.26 -.23 -.7q.0 -.43 .23 -.7q.23 -.26 .62 -.26z" class="atom"/><path id="mol1atm17" fill="#3050F8" stroke="none" d="M24.47 22.6h.33l.82 1.54v-1.54h.24v1.85h-.34l-.82 -1.54v1.54h-.24v-1.85z" class="atom"/><path id="mol1atm19" stroke="none" d="M2.98 30.22q-.27 .0 -.43 .2q-.16 .2 -.16 .55q.0 .35 .16 .55q.16 .2 .43 .2q.27 .0 .43 -.2q.16 -.2 .16 -.55q.0 -.35 -.16 -.55q-.16 -.2 -.43 -.2zM2.98 30.02q.39 .0 .62 .26q.23 .26 .23 .7q.0 .44 -.23 .7q-.23 .26 -.62 .26q-.39 .0 -.62 -.26q-.23 -.26 -.23 -.7q.0 -.43 .23 -.7q.23 -.26 .62 -.26z" class="atom"/><g id="mol1atm21" class="atom"><path stroke="none" d="M3.03 20.12q-.27 .0 -.43 .2q-.16 .2 -.16 .55q.0 .35 .16 .55q.16 .2 .43 .2q.27 .0 .43 -.2q.16 -.2 .16 -.55q.0 -.35 -.16 -.55q-.16 -.2 -.43 -.2zM3.03 19.92q.39 .0 .62 .26q.23 .26 .23 .7q.0 .44 -.23 .7q-.23 .26 -.62 .26q-.39 .0 -.62 -.26q-.23 -.26 -.23 -.7q.0 -.43 .23 -.7q.23 -.26 .62 -.26z"/><path stroke="none" d="M.56 19.95h.25v.76h.91v-.76h.25v1.85h-.25v-.88h-.91v.88h-.25v-1.85z"/></g><path id="mol1atm24" stroke="none" d="M38.59 15.25q-.27 .0 -.43 .2q-.16 .2 -.16 .55q.0 .35 .16 .55q.16 .2 .43 .2q.27 .0 .43 -.2q.16 -.2 .16 -.55q.0 -.35 -.16 -.55q-.16 -.2 -.43 -.2zM38.59 15.05q.39 .0 .62 .26q.23 .26 .23 .7q.0 .44 -.23 .7q-.23 .26 -.62 .26q-.39 .0 -.62 -.26q-.23 -.26 -.23 -.7q.0 -.43 .23 -.7q.23 -.26 .62 -.26z" class="atom"/></g></g></svg>