<svg xmlns="http://www.w3.org/2000/svg" xmlns:xlink="http://www.w3.org/1999/xlink" width="54.22mm" height="88.29" version="1.2" viewBox="0 0 54.22 23.36"><desc>Generated by the Chemistry Development Kit (http://github.com/cdk)</desc><g fill="#FF0D0D" stroke="#000" stroke-linecap="round" stroke-linejoin="round" stroke-width=".21"><rect width="55" height="24" x="0" y="0" fill="#FFF" stroke="none"/><g id="mol1" class="mol"><line id="mol1bnd1" x1=".7" x2="3.92" y1="16.76" y2="14.9" class="bond"/><line id="mol1bnd2" x1="6.29" x2="9.5" y1="14.9" y2="16.76" class="bond"/><g id="mol1bnd3" class="bond"><line x1="9.91" x2="9.91" y1="16.52" y2="20.46"/><line x1="9.1" x2="9.1" y1="16.52" y2="20.46"/></g><line id="mol1bnd4" x1="9.5" x2="13.9" y1="16.76" y2="14.22" class="bond"/><g id="mol1bnd5" class="bond"><line x1="13.9" x2="13.9" y1="9.14" y2="14.22"/><line x1="14.71" x2="14.71" y1="9.61" y2="13.75"/></g><line id="mol1bnd6" x1="13.9" x2="18.3" y1="9.14" y2="6.6" class="bond"/><g id="mol1bnd7" class="bond"><line x1="22.71" x2="18.3" y1="9.14" y2="6.6"/><line x1="21.89" x2="18.3" y1="9.61" y2="7.54"/></g><line id="mol1bnd8" x1="22.71" x2="27.11" y1="9.14" y2="6.6" class="bond"/><g id="mol1bnd9" class="bond"><line x1="26.7" x2="26.7" y1="6.83" y2="2.9"/><line x1="27.52" x2="27.52" y1="6.83" y2="2.9"/></g><line id="mol1bnd10" x1="27.11" x2="31.51" y1="6.6" y2="9.14" class="bond"/><g id="mol1bnd11" class="bond"><line x1="35.91" x2="31.51" y1="6.6" y2="9.14"/><line x1="35.91" x2="32.32" y1="7.54" y2="9.61"/></g><line id="mol1bnd12" x1="35.91" x2="35.91" y1="6.6" y2="2.9" class="bond"/><line id="mol1bnd13" x1="35.91" x2="40.32" y1="6.6" y2="9.14" class="bond"/><g id="mol1bnd14" class="bond"><line x1="40.32" x2="40.32" y1="14.22" y2="9.14"/><line x1="39.5" x2="39.5" y1="13.75" y2="9.61"/></g><line id="mol1bnd15" x1="40.32" x2="44.72" y1="14.22" y2="16.76" class="bond"/><line id="mol1bnd16" x1="44.72" x2="49.12" y1="16.76" y2="14.22" class="bond"/><line id="mol1bnd17" x1="49.12" x2="53.51" y1="14.22" y2="16.76" class="bond"/><g id="mol1bnd18" class="bond"><line x1="48.71" x2="48.71" y1="14.45" y2="10.52"/><line x1="49.52" x2="49.52" y1="14.45" y2="10.52"/></g><line id="mol1bnd19" x1="40.32" x2="35.91" y1="14.22" y2="16.76" class="bond"/><g id="mol1bnd20" class="bond"><line x1="31.51" x2="35.91" y1="14.22" y2="16.76"/><line x1="32.32" x2="35.91" y1="13.75" y2="15.82"/></g><line id="mol1bnd21" x1="31.51" x2="31.51" y1="9.14" y2="14.22" class="bond"/><line id="mol1bnd22" x1="31.51" x2="28.29" y1="14.22" y2="16.08" class="bond"/><line id="mol1bnd23" x1="25.93" x2="22.71" y1="16.08" y2="14.22" class="bond"/><line id="mol1bnd24" x1="22.71" x2="22.71" y1="9.14" y2="14.22" class="bond"/><g id="mol1bnd25" class="bond"><line x1="18.3" x2="22.71" y1="16.76" y2="14.22"/><line x1="18.3" x2="21.89" y1="15.82" y2="13.75"/></g><line id="mol1bnd26" x1="13.9" x2="18.3" y1="14.22" y2="16.76" class="bond"/><line id="mol1bnd27" x1="18.3" x2="18.3" y1="16.76" y2="20.46" class="bond"/><path id="mol1atm2" stroke="none" d="M5.1 13.47q-.27 .0 -.43 .2q-.16 .2 -.16 .55q.0 .35 .16 .55q.16 .2 .43 .2q.27 .0 .43 -.2q.16 -.2 .16 -.55q.0 -.35 -.16 -.55q-.16 -.2 -.43 -.2zM5.1 13.26q.39 .0 .62 .26q.23 .26 .23 .7q.0 .44 -.23 .7q-.23 .26 -.62 .26q-.39 .0 -.62 -.26q-.23 -.26 -.23 -.7q.0 -.43 .23 -.7q.23 -.26 .62 -.26z" class="atom"/><path id="mol1atm4" stroke="none" d="M9.5 21.08q-.27 .0 -.43 .2q-.16 .2 -.16 .55q.0 .35 .16 .55q.16 .2 .43 .2q.27 .0 .43 -.2q.16 -.2 .16 -.55q.0 -.35 -.16 -.55q-.16 -.2 -.43 -.2zM9.5 20.88q.39 .0 .62 .26q.23 .26 .23 .7q.0 .44 -.23 .7q-.23 .26 -.62 .26q-.39 .0 -.62 -.26q-.23 -.26 -.23 -.7q.0 -.43 .23 -.7q.23 -.26 .62 -.26z" class="atom"/><path id="mol1atm10" stroke="none" d="M27.11 .76q-.27 .0 -.43 .2q-.16 .2 -.16 .55q.0 .35 .16 .55q.16 .2 .43 .2q.27 .0 .43 -.2q.16 -.2 .16 -.55q.0 -.35 -.16 -.55q-.16 -.2 -.43 -.2zM27.11 .56q.39 .0 .62 .26q.23 .26 .23 .7q.0 .44 -.23 .7q-.23 .26 -.62 .26q-.39 .0 -.62 -.26q-.23 -.26 -.23 -.7q.0 -.43 .23 -.7q.23 -.26 .62 -.26z" class="atom"/><g id="mol1atm13" class="atom"><path stroke="none" d="M35.92 .76q-.27 .0 -.43 .2q-.16 .2 -.16 .55q.0 .35 .16 .55q.16 .2 .43 .2q.27 .0 .43 -.2q.16 -.2 .16 -.55q.0 -.35 -.16 -.55q-.16 -.2 -.43 -.2zM35.92 .56q.39 .0 .62 .26q.23 .26 .23 .7q.0 .44 -.23 .7q-.23 .26 -.62 .26q-.39 .0 -.62 -.26q-.23 -.26 -.23 -.7q.0 -.43 .23 -.7q.23 -.26 .62 -.26z"/><path stroke="none" d="M36.98 .59h.25v.76h.91v-.76h.25v1.85h-.25v-.88h-.91v.88h-.25v-1.85z"/></g><path id="mol1atm19" stroke="none" d="M49.12 8.39q-.27 .0 -.43 .2q-.16 .2 -.16 .55q.0 .35 .16 .55q.16 .2 .43 .2q.27 .0 .43 -.2q.16 -.2 .16 -.55q.0 -.35 -.16 -.55q-.16 -.2 -.43 -.2zM49.12 8.18q.39 .0 .62 .26q.23 .26 .23 .7q.0 .44 -.23 .7q-.23 .26 -.62 .26q-.39 .0 -.62 -.26q-.23 -.26 -.23 -.7q.0 -.43 .23 -.7q.23 -.26 .62 -.26z" class="atom"/><path id="mol1atm22" stroke="none" d="M27.11 16.0q-.27 .0 -.43 .2q-.16 .2 -.16 .55q.0 .35 .16 .55q.16 .2 .43 .2q.27 .0 .43 -.2q.16 -.2 .16 -.55q.0 -.35 -.16 -.55q-.16 -.2 -.43 -.2zM27.11 15.8q.39 .0 .62 .26q.23 .26 .23 .7q.0 .44 -.23 .7q-.23 .26 -.62 .26q-.39 .0 -.62 -.26q-.23 -.26 -.23 -.7q.0 -.43 .23 -.7q.23 -.26 .62 -.26z" class="atom"/><g id="mol1atm25" class="atom"><path stroke="none" d="M18.31 21.08q-.27 .0 -.43 .2q-.16 .2 -.16 .55q.0 .35 .16 .55q.16 .2 .43 .2q.27 .0 .43 -.2q.16 -.2 .16 -.55q.0 -.35 -.16 -.55q-.16 -.2 -.43 -.2zM18.31 20.88q.39 .0 .62 .26q.23 .26 .23 .7q.0 .44 -.23 .7q-.23 .26 -.62 .26q-.39 .0 -.62 -.26q-.23 -.26 -.23 -.7q.0 -.43 .23 -.7q.23 -.26 .62 -.26z"/><path stroke="none" d="M19.37 20.91h.25v.76h.91v-.76h.25v1.85h-.25v-.88h-.91v.88h-.25v-1.85z"/></g></g></g></svg>