<svg height="88.29" viewBox="0 0 54.22 23.36" width="54.22mm" xmlns="http://www.w3.org/2000/svg"><g fill="#ff0d0d" stroke="#000" stroke-linecap="round" stroke-linejoin="round" stroke-width=".21"><path d="m0 0h55v24h-55z" fill="#fff" stroke="none"/><path d="m.7 16.76 3.22-1.86"/><path d="m6.29 14.9 3.21 1.86"/><path d="m9.91 16.52v3.94"/><path d="m9.1 16.52v3.94"/><path d="m9.5 16.76 4.4-2.54"/><path d="m13.9 9.14v5.08"/><path d="m14.71 9.61v4.14"/><path d="m13.9 9.14 4.4-2.54"/><path d="m22.71 9.14-4.41-2.54"/><path d="m21.89 9.61-3.59-2.07"/><path d="m22.71 9.14 4.4-2.54"/><path d="m26.7 6.83v-3.93"/><path d="m27.52 6.83v-3.93"/><path d="m27.11 6.6 4.4 2.54"/><path d="m35.91 6.6-4.4 2.54"/><path d="m35.91 7.54-3.59 2.07"/><path d="m35.91 6.6v-3.7"/><path d="m35.91 6.6 4.41 2.54"/><path d="m40.32 14.22v-5.08"/><path d="m39.5 13.75v-4.14"/><path d="m40.32 14.22 4.4 2.54"/><path d="m44.72 16.76 4.4-2.54"/><path d="m49.12 14.22 4.39 2.54"/><path d="m48.71 14.45v-3.93"/><path d="m49.52 14.45v-3.93"/><path d="m40.32 14.22-4.41 2.54"/><path d="m31.51 14.22 4.4 2.54"/><path d="m32.32 13.75 3.59 2.07"/><path d="m31.51 9.14v5.08"/><path d="m31.51 14.22-3.22 1.86"/><path d="m25.93 16.08-3.22-1.86"/><path d="m22.71 9.14v5.08"/><path d="m18.3 16.76 4.41-2.54"/><path d="m18.3 15.82 3.59-2.07"/><path d="m13.9 14.22 4.4 2.54"/><path d="m18.3 16.76v3.7"/><g stroke="none"><path d="m5.1 13.47q-.27 0-.43.2-.16.2-.16.55 0 .35.16.55.16.2.43.2.27 0 .43-.2.16-.2.16-.55 0-.35-.16-.55-.16-.2-.43-.2zm0-.21q.39 0 .62.26.23.26.23.7 0 .44-.23.7-.23.26-.62.26-.39 0-.62-.26-.23-.26-.23-.7 0-.43.23-.7.23-.26.62-.26z"/><path d="m9.5 21.08q-.27 0-.43.2-.16.2-.16.55 0 .35.16.55.16.2.43.2.27 0 .43-.2.16-.2.16-.55 0-.35-.16-.55-.16-.2-.43-.2zm0-.2q.39 0 .62.26.23.26.23.7 0 .44-.23.7-.23.26-.62.26-.39 0-.62-.26-.23-.26-.23-.7 0-.43.23-.7.23-.26.62-.26z"/><path d="m27.11.76q-.27 0-.43.2-.16.2-.16.55 0 .35.16.55.16.2.43.2.27 0 .43-.2.16-.2.16-.55 0-.35-.16-.55-.16-.2-.43-.2zm0-.2q.39 0 .62.26.23.26.23.7 0 .44-.23.7-.23.26-.62.26-.39 0-.62-.26-.23-.26-.23-.7 0-.43.23-.7.23-.26.62-.26z"/><path d="m35.92.76q-.27 0-.43.2-.16.2-.16.55 0 .35.16.55.16.2.43.2.27 0 .43-.2.16-.2.16-.55 0-.35-.16-.55-.16-.2-.43-.2zm0-.2q.39 0 .62.26.23.26.23.7 0 .44-.23.7-.23.26-.62.26-.39 0-.62-.26-.23-.26-.23-.7 0-.43.23-.7.23-.26.62-.26z"/><path d="m36.98.59h.25v.76h.91v-.76h.25v1.85h-.25v-.88h-.91v.88h-.25z"/><path d="m49.12 8.39q-.27 0-.43.2-.16.2-.16.55 0 .35.16.55.16.2.43.2.27 0 .43-.2.16-.2.16-.55 0-.35-.16-.55-.16-.2-.43-.2zm0-.21q.39 0 .62.26.23.26.23.7 0 .44-.23.7-.23.26-.62.26-.39 0-.62-.26-.23-.26-.23-.7 0-.43.23-.7.23-.26.62-.26z"/><path d="m27.11 16q-.27 0-.43.2-.16.2-.16.55 0 .35.16.55.16.2.43.2.27 0 .43-.2.16-.2.16-.55 0-.35-.16-.55-.16-.2-.43-.2zm0-.2q.39 0 .62.26.23.26.23.7 0 .44-.23.7-.23.26-.62.26-.39 0-.62-.26-.23-.26-.23-.7 0-.43.23-.7.23-.26.62-.26z"/><path d="m18.31 21.08q-.27 0-.43.2-.16.2-.16.55 0 .35.16.55.16.2.43.2.27 0 .43-.2.16-.2.16-.55 0-.35-.16-.55-.16-.2-.43-.2zm0-.2q.39 0 .62.26.23.26.23.7 0 .44-.23.7-.23.26-.62.26-.39 0-.62-.26-.23-.26-.23-.7 0-.43.23-.7.23-.26.62-.26z"/><path d="m19.37 20.91h.25v.76h.91v-.76h.25v1.85h-.25v-.88h-.91v.88h-.25z"/></g></g></svg>