<svg height="36.6mm" viewBox="0 0 50.04 36.6" width="50.04mm" xmlns="http://www.w3.org/2000/svg"><g fill="#ff0d0d" stroke="#000" stroke-linecap="round" stroke-linejoin="round" stroke-width=".21"><path d="m0 0h51v37h-51z" fill="#fff" stroke="none"/><path d="m41.48.71-3.27 3.89"/><path d="m38.21 4.6-3.26-3.89"/><path d="m38.21 4.6 4.41 2.54"/><path d="m42.62 7.14v5.08"/><path d="m42.62 12.22-4.41 2.54"/><path d="m38.21 14.76 4.4 2.54"/><path d="m43.02 17.07v3.93"/><path d="m42.21 17.07-.01 3.93"/><path d="m42.61 17.3 3.22-1.86"/><path d="m38.21 14.76v5.08"/><path d="m38.21 19.84-4.4 2.54"/><path d="m33.81 22.38-4.4-2.54"/><path d="m29.41 19.84v5.08"/><path d="m29.41 19.84v-5.08"/><path d="m29.41 14.76-4.41-2.54"/><path d="m28.59 15.23-3.58-2.07"/><path d="m25 12.22-4.36 2.54"/><path d="m20.64 14.76v5.08"/><path d="m20.64 19.84-4.41 2.54"/><path d="m16.23 22.38v-5.08"/><path d="m16.23 22.38-4.4-2.54"/><path d="m11.83 19.84-4.4 2.54"/><path d="m7.43 22.38v5.08"/><path d="m7.43 27.46-3.22 1.86"/><path d="m7.43 27.46 4.4 2.54"/><path d="m11.83 30-3.26 3.89"/><path d="m11.83 30 3.27 3.89"/><path d="m11.83 30 4.4-2.54"/><path d="m16.23 22.38v5.08"/><path d="m16.23 27.46 4.41 2.54"/><path d="m20.64 30v3.7"/><path d="m20.64 30 4.36-2.54"/><path d="m25 27.46v-5.08"/><path d="m20.64 19.84 4.36 2.54"/><path d="m29.41 19.84-4.41 2.54"/><path d="m25 22.38.01-5.08"/><path d="m29.41 14.76 4.4-2.54"/><path d="m38.21 14.76-4.4-2.54"/><path d="m33.81 12.22v-5.08"/><path d="m38.21 4.6-4.4 2.54"/><g stroke="none"><path d="m42.61 21.63q-.27 0-.43.2-.16.2-.16.55 0 .35.16.55.16.2.43.2.27 0 .43-.2.16-.2.16-.55 0-.35-.16-.55-.16-.2-.43-.2zm0-.21q.39 0 .62.26.23.26.23.7 0 .44-.23.7-.23.26-.62.26-.39 0-.62-.26-.23-.26-.23-.7 0-.43.23-.7.23-.26.62-.26z"/><path d="m47.01 14.01q-.27 0-.43.2-.16.2-.16.55 0 .35.16.55.16.2.43.2.27 0 .43-.2.16-.2.16-.55 0-.35-.16-.55-.16-.2-.43-.2zm0-.21q.39 0 .62.26.23.26.23.7 0 .44-.23.7-.23.26-.62.26-.39 0-.62-.26-.23-.26-.23-.7 0-.43.23-.7.23-.26.62-.26z"/><path d="m48.08 13.84h.25v.76h.91v-.76h.25v1.85h-.25v-.88h-.91v.88h-.25z"/><path d="m3.03 29.25q-.27 0-.43.2-.16.2-.16.55 0 .35.16.55.16.2.43.2.27 0 .43-.2.16-.2.16-.55 0-.35-.16-.55-.16-.2-.43-.2zm0-.21q.39 0 .62.26.23.26.23.7 0 .44-.23.7-.23.26-.62.26-.39 0-.62-.26-.23-.26-.23-.7 0-.43.23-.7.23-.26.62-.26z"/><path d="m.56 29.08h.25v.76h.91v-.76h.25v1.85h-.25v-.88h-.91v.88h-.25z"/><path d="m20.65 34.33q-.27 0-.43.2-.16.2-.16.55 0 .35.16.55.16.2.43.2.27 0 .43-.2.16-.2.16-.55 0-.35-.16-.55-.16-.2-.43-.2zm0-.21q.39 0 .62.26.23.26.23.7 0 .44-.23.7-.23.26-.62.26-.39 0-.62-.26-.23-.26-.23-.7 0-.43.23-.7.23-.26.62-.26z"/><path d="m21.71 34.16h.25v.76h.91v-.76h.25v1.85h-.25v-.88h-.91v.88h-.25z"/></g></g></svg>