<svg xmlns="http://www.w3.org/2000/svg" xmlns:xlink="http://www.w3.org/1999/xlink" width="50.04mm" height="36.6mm" version="1.2" viewBox="0 0 50.04 36.6"><desc>Generated by the Chemistry Development Kit (http://github.com/cdk)</desc><g fill="#FF0D0D" stroke="#000" stroke-linecap="round" stroke-linejoin="round" stroke-width=".21"><rect width="51" height="37" x="0" y="0" fill="#FFF" stroke="none"/><g id="mol1" class="mol"><line id="mol1bnd1" x1="41.48" x2="38.21" y1=".71" y2="4.6" class="bond"/><line id="mol1bnd2" x1="38.21" x2="34.95" y1="4.6" y2=".71" class="bond"/><line id="mol1bnd3" x1="38.21" x2="42.62" y1="4.6" y2="7.14" class="bond"/><line id="mol1bnd4" x1="42.62" x2="42.62" y1="7.14" y2="12.22" class="bond"/><line id="mol1bnd5" x1="42.62" x2="38.21" y1="12.22" y2="14.76" class="bond"/><line id="mol1bnd6" x1="38.21" x2="42.61" y1="14.76" y2="17.3" class="bond"/><g id="mol1bnd7" class="bond"><line x1="43.02" x2="43.02" y1="17.07" y2="21"/><line x1="42.21" x2="42.2" y1="17.07" y2="21"/></g><line id="mol1bnd8" x1="42.61" x2="45.83" y1="17.3" y2="15.44" class="bond"/><line id="mol1bnd9" x1="38.21" x2="38.21" y1="14.76" y2="19.84" class="bond"/><line id="mol1bnd10" x1="38.21" x2="33.81" y1="19.84" y2="22.38" class="bond"/><line id="mol1bnd11" x1="33.81" x2="29.41" y1="22.38" y2="19.84" class="bond"/><line id="mol1bnd12" x1="29.41" x2="29.41" y1="19.84" y2="24.92" class="bond"/><line id="mol1bnd13" x1="29.41" x2="29.41" y1="19.84" y2="14.76" class="bond"/><g id="mol1bnd14" class="bond"><line x1="29.41" x2="25" y1="14.76" y2="12.22"/><line x1="28.59" x2="25.01" y1="15.23" y2="13.16"/></g><line id="mol1bnd15" x1="25" x2="20.64" y1="12.22" y2="14.76" class="bond"/><line id="mol1bnd16" x1="20.64" x2="20.64" y1="14.76" y2="19.84" class="bond"/><line id="mol1bnd17" x1="20.64" x2="16.23" y1="19.84" y2="22.38" class="bond"/><line id="mol1bnd18" x1="16.23" x2="16.23" y1="22.38" y2="17.3" class="bond"/><line id="mol1bnd19" x1="16.23" x2="11.83" y1="22.38" y2="19.84" class="bond"/><line id="mol1bnd20" x1="11.83" x2="7.43" y1="19.84" y2="22.38" class="bond"/><line id="mol1bnd21" x1="7.43" x2="7.43" y1="22.38" y2="27.46" class="bond"/><line id="mol1bnd22" x1="7.43" x2="4.21" y1="27.46" y2="29.32" class="bond"/><line id="mol1bnd23" x1="7.43" x2="11.83" y1="27.46" y2="30" class="bond"/><line id="mol1bnd24" x1="11.83" x2="8.57" y1="30" y2="33.89" class="bond"/><line id="mol1bnd25" x1="11.83" x2="15.1" y1="30" y2="33.89" class="bond"/><line id="mol1bnd26" x1="11.83" x2="16.23" y1="30" y2="27.46" class="bond"/><line id="mol1bnd27" x1="16.23" x2="16.23" y1="22.38" y2="27.46" class="bond"/><line id="mol1bnd28" x1="16.23" x2="20.64" y1="27.46" y2="30" class="bond"/><line id="mol1bnd29" x1="20.64" x2="20.64" y1="30" y2="33.7" class="bond"/><line id="mol1bnd30" x1="20.64" x2="25" y1="30" y2="27.46" class="bond"/><line id="mol1bnd31" x1="25" x2="25" y1="27.46" y2="22.38" class="bond"/><line id="mol1bnd32" x1="20.64" x2="25" y1="19.84" y2="22.38" class="bond"/><line id="mol1bnd33" x1="29.41" x2="25" y1="19.84" y2="22.38" class="bond"/><line id="mol1bnd34" x1="25" x2="25.01" y1="22.38" y2="17.3" class="bond"/><line id="mol1bnd35" x1="29.41" x2="33.81" y1="14.76" y2="12.22" class="bond"/><line id="mol1bnd36" x1="38.21" x2="33.81" y1="14.76" y2="12.22" class="bond"/><line id="mol1bnd37" x1="33.81" x2="33.81" y1="12.22" y2="7.14" class="bond"/><line id="mol1bnd38" x1="38.21" x2="33.81" y1="4.6" y2="7.14" class="bond"/><path id="mol1atm8" stroke="none" d="M42.61 21.63q-.27 .0 -.43 .2q-.16 .2 -.16 .55q.0 .35 .16 .55q.16 .2 .43 .2q.27 .0 .43 -.2q.16 -.2 .16 -.55q.0 -.35 -.16 -.55q-.16 -.2 -.43 -.2zM42.61 21.42q.39 .0 .62 .26q.23 .26 .23 .7q.0 .44 -.23 .7q-.23 .26 -.62 .26q-.39 .0 -.62 -.26q-.23 -.26 -.23 -.7q.0 -.43 .23 -.7q.23 -.26 .62 -.26z" class="atom"/><g id="mol1atm9" class="atom"><path stroke="none" d="M47.01 14.01q-.27 .0 -.43 .2q-.16 .2 -.16 .55q.0 .35 .16 .55q.16 .2 .43 .2q.27 .0 .43 -.2q.16 -.2 .16 -.55q.0 -.35 -.16 -.55q-.16 -.2 -.43 -.2zM47.01 13.8q.39 .0 .62 .26q.23 .26 .23 .7q.0 .44 -.23 .7q-.23 .26 -.62 .26q-.39 .0 -.62 -.26q-.23 -.26 -.23 -.7q.0 -.43 .23 -.7q.23 -.26 .62 -.26z"/><path stroke="none" d="M48.08 13.84h.25v.76h.91v-.76h.25v1.85h-.25v-.88h-.91v.88h-.25v-1.85z"/></g><g id="mol1atm23" class="atom"><path stroke="none" d="M3.03 29.25q-.27 .0 -.43 .2q-.16 .2 -.16 .55q.0 .35 .16 .55q.16 .2 .43 .2q.27 .0 .43 -.2q.16 -.2 .16 -.55q.0 -.35 -.16 -.55q-.16 -.2 -.43 -.2zM3.03 29.04q.39 .0 .62 .26q.23 .26 .23 .7q.0 .44 -.23 .7q-.23 .26 -.62 .26q-.39 .0 -.62 -.26q-.23 -.26 -.23 -.7q.0 -.43 .23 -.7q.23 -.26 .62 -.26z"/><path stroke="none" d="M.56 29.08h.25v.76h.91v-.76h.25v1.85h-.25v-.88h-.91v.88h-.25v-1.85z"/></g><g id="mol1atm29" class="atom"><path stroke="none" d="M20.65 34.33q-.27 .0 -.43 .2q-.16 .2 -.16 .55q.0 .35 .16 .55q.16 .2 .43 .2q.27 .0 .43 -.2q.16 -.2 .16 -.55q.0 -.35 -.16 -.55q-.16 -.2 -.43 -.2zM20.65 34.12q.39 .0 .62 .26q.23 .26 .23 .7q.0 .44 -.23 .7q-.23 .26 -.62 .26q-.39 .0 -.62 -.26q-.23 -.26 -.23 -.7q.0 -.43 .23 -.7q.23 -.26 .62 -.26z"/><path stroke="none" d="M21.71 34.16h.25v.76h.91v-.76h.25v1.85h-.25v-.88h-.91v.88h-.25v-1.85z"/></g></g></g></svg>