<svg xmlns="http://www.w3.org/2000/svg" xmlns:xlink="http://www.w3.org/1999/xlink" width="67.75mm" height="26mm" version="1.2" viewBox="0 0 67.75 26"><desc>Generated by the Chemistry Development Kit (http://github.com/cdk)</desc><g fill="#FF0D0D" stroke="#000" stroke-linecap="round" stroke-linejoin="round" stroke-width=".21"><rect width="68" height="27" x="0" y="0" fill="#FFF" stroke="none"/><g id="mol1" class="mol"><g id="mol1bnd1" class="bond"><line x1="42.3" x2="42.3" y1="23.1" y2="19.17"/><line x1="43.11" x2="43.11" y1="23.1" y2="19.17"/></g><line id="mol1bnd2" x1="42.71" x2="47.11" y1="19.4" y2="16.86" class="bond"/><g id="mol1bnd3" class="bond"><line x1="47.11" x2="47.11" y1="16.86" y2="11.78"/><line x1="46.3" x2="46.3" y1="16.39" y2="12.25"/></g><line id="mol1bnd4" x1="47.11" x2="51.51" y1="11.78" y2="9.24" class="bond"/><g id="mol1bnd5" class="bond"><line x1="51.48" x2="51.51" y1="4.16" y2="9.24"/><line x1="52.3" x2="52.32" y1="4.62" y2="8.77"/></g><line id="mol1bnd6" x1="51.48" x2="55.77" y1="4.16" y2="1.6" class="bond"/><g id="mol1bnd7" class="bond"><line x1="60.36" x2="55.77" y1="4.12" y2="1.6"/><line x1="59.55" x2="55.79" y1="4.6" y2="2.54"/></g><line id="mol1bnd8" x1="60.36" x2="63.55" y1="4.12" y2="2.22" class="bond"/><line id="mol1bnd9" x1="60.36" x2="60.38" y1="4.12" y2="9.2" class="bond"/><g id="mol1bnd10" class="bond"><line x1="55.82" x2="60.38" y1="11.76" y2="9.2"/><line x1="55.83" x2="59.57" y1="10.82" y2="8.72"/></g><line id="mol1bnd11" x1="51.51" x2="55.82" y1="9.24" y2="11.76" class="bond"/><line id="mol1bnd12" x1="47.11" x2="43.89" y1="11.78" y2="9.93" class="bond"/><line id="mol1bnd13" x1="41.52" x2="38.3" y1="9.93" y2="11.78" class="bond"/><g id="mol1bnd14" class="bond"><line x1="38.3" x2="33.9" y1="11.78" y2="9.24"/><line x1="37.49" x2="33.9" y1="12.25" y2="10.18"/></g><line id="mol1bnd15" x1="33.9" x2="29.5" y1="9.24" y2="11.78" class="bond"/><line id="mol1bnd16" x1="29.5" x2="26.28" y1="11.78" y2="9.93" class="bond"/><line id="mol1bnd17" x1="23.92" x2="20.7" y1="9.93" y2="11.78" class="bond"/><line id="mol1bnd18" x1="20.7" x2="17.43" y1="11.78" y2="9.9" class="bond"/><line id="mol1bnd19" x1="15.05" x2="11.83" y1="9.9" y2="11.75" class="bond"/><line id="mol1bnd20" x1="11.83" x2="7.44" y1="11.75" y2="9.19" class="bond"/><line id="mol1bnd21" x1="7.44" x2="4.21" y1="9.19" y2="11.04" class="bond"/><line id="mol1bnd22" x1="11.83" x2="11.81" y1="11.75" y2="16.79" class="bond"/><line id="mol1bnd23" x1="11.81" x2="8.58" y1="16.79" y2="18.63" class="bond"/><line id="mol1bnd24" x1="11.81" x2="16.2" y1="16.79" y2="19.38" class="bond"/><line id="mol1bnd25" x1="16.2" x2="16.18" y1="19.38" y2="23.09" class="bond"/><line id="mol1bnd26" x1="16.2" x2="20.68" y1="19.38" y2="16.83" class="bond"/><line id="mol1bnd27" x1="20.7" x2="20.68" y1="11.78" y2="16.83" class="bond"/><line id="mol1bnd28" x1="20.68" x2="23.89" y1="16.83" y2="18.7" class="bond"/><g id="mol1bnd29" class="bond"><line x1="29.5" x2="29.5" y1="11.78" y2="16.86"/><line x1="30.31" x2="30.31" y1="12.25" y2="16.39"/></g><line id="mol1bnd30" x1="29.5" x2="33.9" y1="16.86" y2="19.4" class="bond"/><line id="mol1bnd31" x1="33.9" x2="33.9" y1="19.4" y2="23.1" class="bond"/><g id="mol1bnd32" class="bond"><line x1="33.9" x2="38.3" y1="19.4" y2="16.86"/><line x1="33.9" x2="37.49" y1="18.46" y2="16.39"/></g><line id="mol1bnd33" x1="42.71" x2="38.3" y1="19.4" y2="16.86" class="bond"/><line id="mol1bnd34" x1="38.3" x2="38.3" y1="11.78" y2="16.86" class="bond"/><path id="mol1atm1" stroke="none" d="M42.71 23.73q-.27 .0 -.43 .2q-.16 .2 -.16 .55q.0 .35 .16 .55q.16 .2 .43 .2q.27 .0 .43 -.2q.16 -.2 .16 -.55q.0 -.35 -.16 -.55q-.16 -.2 -.43 -.2zM42.71 23.52q.39 .0 .62 .26q.23 .26 .23 .7q.0 .44 -.23 .7q-.23 .26 -.62 .26q-.39 .0 -.62 -.26q-.23 -.26 -.23 -.7q.0 -.43 .23 -.7q.23 -.26 .62 -.26z" class="atom"/><g id="mol1atm9" class="atom"><path stroke="none" d="M64.72 .76q-.27 .0 -.43 .2q-.16 .2 -.16 .55q.0 .35 .16 .55q.16 .2 .43 .2q.27 .0 .43 -.2q.16 -.2 .16 -.55q.0 -.35 -.16 -.55q-.16 -.2 -.43 -.2zM64.72 .56q.39 .0 .62 .26q.23 .26 .23 .7q.0 .44 -.23 .7q-.23 .26 -.62 .26q-.39 .0 -.62 -.26q-.23 -.26 -.23 -.7q.0 -.43 .23 -.7q.23 -.26 .62 -.26z"/><path stroke="none" d="M65.79 .59h.25v.76h.91v-.76h.25v1.85h-.25v-.88h-.91v.88h-.25v-1.85z"/></g><path id="mol1atm12" stroke="none" d="M42.71 8.49q-.27 .0 -.43 .2q-.16 .2 -.16 .55q.0 .35 .16 .55q.16 .2 .43 .2q.27 .0 .43 -.2q.16 -.2 .16 -.55q.0 -.35 -.16 -.55q-.16 -.2 -.43 -.2zM42.71 8.28q.39 .0 .62 .26q.23 .26 .23 .7q.0 .44 -.23 .7q-.23 .26 -.62 .26q-.39 .0 -.62 -.26q-.23 -.26 -.23 -.7q.0 -.43 .23 -.7q.23 -.26 .62 -.26z" class="atom"/><path id="mol1atm16" stroke="none" d="M25.1 8.49q-.27 .0 -.43 .2q-.16 .2 -.16 .55q.0 .35 .16 .55q.16 .2 .43 .2q.27 .0 .43 -.2q.16 -.2 .16 -.55q.0 -.35 -.16 -.55q-.16 -.2 -.43 -.2zM25.1 8.28q.39 .0 .62 .26q.23 .26 .23 .7q.0 .44 -.23 .7q-.23 .26 -.62 .26q-.39 .0 -.62 -.26q-.23 -.26 -.23 -.7q.0 -.43 .23 -.7q.23 -.26 .62 -.26z" class="atom"/><path id="mol1atm18" stroke="none" d="M16.24 8.47q-.27 .0 -.43 .2q-.16 .2 -.16 .55q.0 .35 .16 .55q.16 .2 .43 .2q.27 .0 .43 -.2q.16 -.2 .16 -.55q.0 -.35 -.16 -.55q-.16 -.2 -.43 -.2zM16.24 8.27q.39 .0 .62 .26q.23 .26 .23 .7q.0 .44 -.23 .7q-.23 .26 -.62 .26q-.39 .0 -.62 -.26q-.23 -.26 -.23 -.7q.0 -.43 .23 -.7q.23 -.26 .62 -.26z" class="atom"/><g id="mol1atm21" class="atom"><path stroke="none" d="M3.03 10.96q-.27 .0 -.43 .2q-.16 .2 -.16 .55q.0 .35 .16 .55q.16 .2 .43 .2q.27 .0 .43 -.2q.16 -.2 .16 -.55q.0 -.35 -.16 -.55q-.16 -.2 -.43 -.2zM3.03 10.76q.39 .0 .62 .26q.23 .26 .23 .7q.0 .44 -.23 .7q-.23 .26 -.62 .26q-.39 .0 -.62 -.26q-.23 -.26 -.23 -.7q.0 -.43 .23 -.7q.23 -.26 .62 -.26z"/><path stroke="none" d="M.56 10.79h.25v.76h.91v-.76h.25v1.85h-.25v-.88h-.91v.88h-.25v-1.85z"/></g><g id="mol1atm23" class="atom"><path stroke="none" d="M7.4 18.55q-.27 .0 -.43 .2q-.16 .2 -.16 .55q.0 .35 .16 .55q.16 .2 .43 .2q.27 .0 .43 -.2q.16 -.2 .16 -.55q.0 -.35 -.16 -.55q-.16 -.2 -.43 -.2zM7.4 18.35q.39 .0 .62 .26q.23 .26 .23 .7q.0 .44 -.23 .7q-.23 .26 -.62 .26q-.39 .0 -.62 -.26q-.23 -.26 -.23 -.7q.0 -.43 .23 -.7q.23 -.26 .62 -.26z"/><path stroke="none" d="M4.93 18.38h.25v.76h.91v-.76h.25v1.85h-.25v-.88h-.91v.88h-.25v-1.85z"/></g><g id="mol1atm25" class="atom"><path stroke="none" d="M16.17 23.71q-.27 .0 -.43 .2q-.16 .2 -.16 .55q.0 .35 .16 .55q.16 .2 .43 .2q.27 .0 .43 -.2q.16 -.2 .16 -.55q.0 -.35 -.16 -.55q-.16 -.2 -.43 -.2zM16.17 23.51q.39 .0 .62 .26q.23 .26 .23 .7q.0 .44 -.23 .7q-.23 .26 -.62 .26q-.39 .0 -.62 -.26q-.23 -.26 -.23 -.7q.0 -.43 .23 -.7q.23 -.26 .62 -.26z"/><path stroke="none" d="M17.23 23.54h.25v.76h.91v-.76h.25v1.85h-.25v-.88h-.91v.88h-.25v-1.85z"/></g><g id="mol1atm27" class="atom"><path stroke="none" d="M25.07 18.63q-.27 .0 -.43 .2q-.16 .2 -.16 .55q.0 .35 .16 .55q.16 .2 .43 .2q.27 .0 .43 -.2q.16 -.2 .16 -.55q.0 -.35 -.16 -.55q-.16 -.2 -.43 -.2zM25.07 18.43q.39 .0 .62 .26q.23 .26 .23 .7q.0 .44 -.23 .7q-.23 .26 -.62 .26q-.39 .0 -.62 -.26q-.23 -.26 -.23 -.7q.0 -.43 .23 -.7q.23 -.26 .62 -.26z"/><path stroke="none" d="M26.13 18.46h.25v.76h.91v-.76h.25v1.85h-.25v-.88h-.91v.88h-.25v-1.85z"/></g><g id="mol1atm30" class="atom"><path stroke="none" d="M33.9 23.73q-.27 .0 -.43 .2q-.16 .2 -.16 .55q.0 .35 .16 .55q.16 .2 .43 .2q.27 .0 .43 -.2q.16 -.2 .16 -.55q.0 -.35 -.16 -.55q-.16 -.2 -.43 -.2zM33.9 23.52q.39 .0 .62 .26q.23 .26 .23 .7q.0 .44 -.23 .7q-.23 .26 -.62 .26q-.39 .0 -.62 -.26q-.23 -.26 -.23 -.7q.0 -.43 .23 -.7q.23 -.26 .62 -.26z"/><path stroke="none" d="M34.97 23.56h.25v.76h.91v-.76h.25v1.85h-.25v-.88h-.91v.88h-.25v-1.85z"/></g></g></g></svg>