<svg height="26mm" viewBox="0 0 67.75 26" width="67.75mm" xmlns="http://www.w3.org/2000/svg"><g fill="#ff0d0d" stroke="#000" stroke-linecap="round" stroke-linejoin="round" stroke-width=".21"><path d="m0 0h68v27h-68z" fill="#fff" stroke="none"/><path d="m42.3 23.1v-3.93"/><path d="m43.11 23.1v-3.93"/><path d="m42.71 19.4 4.4-2.54"/><path d="m47.11 16.86v-5.08"/><path d="m46.3 16.39v-4.14"/><path d="m47.11 11.78 4.4-2.54"/><path d="m51.48 4.16.03 5.08"/><path d="m52.3 4.62.02 4.15"/><path d="m51.48 4.16 4.29-2.56"/><path d="m60.36 4.12-4.59-2.52"/><path d="m59.55 4.6-3.76-2.06"/><path d="m60.36 4.12 3.19-1.9"/><path d="m60.36 4.12.02 5.08"/><path d="m55.82 11.76 4.56-2.56"/><path d="m55.83 10.82 3.74-2.1"/><path d="m51.51 9.24 4.31 2.52"/><path d="m47.11 11.78-3.22-1.85"/><path d="m41.52 9.93-3.22 1.85"/><path d="m38.3 11.78-4.4-2.54"/><path d="m37.49 12.25-3.59-2.07"/><path d="m33.9 9.24-4.4 2.54"/><path d="m29.5 11.78-3.22-1.85"/><path d="m23.92 9.93-3.22 1.85"/><path d="m20.7 11.78-3.27-1.88"/><path d="m15.05 9.9-3.22 1.85"/><path d="m11.83 11.75-4.39-2.56"/><path d="m7.44 9.19-3.23 1.85"/><path d="m11.83 11.75-.02 5.04"/><path d="m11.81 16.79-3.23 1.84"/><path d="m11.81 16.79 4.39 2.59"/><path d="m16.2 19.38-.02 3.71"/><path d="m16.2 19.38 4.48-2.55"/><path d="m20.7 11.78-.02 5.05"/><path d="m20.68 16.83 3.21 1.87"/><path d="m29.5 11.78v5.08"/><path d="m30.31 12.25v4.14"/><path d="m29.5 16.86 4.4 2.54"/><path d="m33.9 19.4v3.7"/><path d="m33.9 19.4 4.4-2.54"/><path d="m33.9 18.46 3.59-2.07"/><path d="m42.71 19.4-4.41-2.54"/><path d="m38.3 11.78v5.08"/><g stroke="none"><path d="m42.71 23.73q-.27 0-.43.2-.16.2-.16.55 0 .35.16.55.16.2.43.2.27 0 .43-.2.16-.2.16-.55 0-.35-.16-.55-.16-.2-.43-.2zm0-.21q.39 0 .62.26.23.26.23.7 0 .44-.23.7-.23.26-.62.26-.39 0-.62-.26-.23-.26-.23-.7 0-.43.23-.7.23-.26.62-.26z"/><path d="m64.72.76q-.27 0-.43.2-.16.2-.16.55 0 .35.16.55.16.2.43.2.27 0 .43-.2.16-.2.16-.55 0-.35-.16-.55-.16-.2-.43-.2zm0-.2q.39 0 .62.26.23.26.23.7 0 .44-.23.7-.23.26-.62.26-.39 0-.62-.26-.23-.26-.23-.7 0-.43.23-.7.23-.26.62-.26z"/><path d="m65.79.59h.25v.76h.91v-.76h.25v1.85h-.25v-.88h-.91v.88h-.25z"/><path d="m42.71 8.49q-.27 0-.43.2-.16.2-.16.55 0 .35.16.55.16.2.43.2.27 0 .43-.2.16-.2.16-.55 0-.35-.16-.55-.16-.2-.43-.2zm0-.21q.39 0 .62.26.23.26.23.7 0 .44-.23.7-.23.26-.62.26-.39 0-.62-.26-.23-.26-.23-.7 0-.43.23-.7.23-.26.62-.26z"/><path d="m25.1 8.49q-.27 0-.43.2-.16.2-.16.55 0 .35.16.55.16.2.43.2.27 0 .43-.2.16-.2.16-.55 0-.35-.16-.55-.16-.2-.43-.2zm0-.21q.39 0 .62.26.23.26.23.7 0 .44-.23.7-.23.26-.62.26-.39 0-.62-.26-.23-.26-.23-.7 0-.43.23-.7.23-.26.62-.26z"/><path d="m16.24 8.47q-.27 0-.43.2-.16.2-.16.55 0 .35.16.55.16.2.43.2.27 0 .43-.2.16-.2.16-.55 0-.35-.16-.55-.16-.2-.43-.2zm0-.2q.39 0 .62.26.23.26.23.7 0 .44-.23.7-.23.26-.62.26-.39 0-.62-.26-.23-.26-.23-.7 0-.43.23-.7.23-.26.62-.26z"/><path d="m3.03 10.96q-.27 0-.43.2-.16.2-.16.55 0 .35.16.55.16.2.43.2.27 0 .43-.2.16-.2.16-.55 0-.35-.16-.55-.16-.2-.43-.2zm0-.2q.39 0 .62.26.23.26.23.7 0 .44-.23.7-.23.26-.62.26-.39 0-.62-.26-.23-.26-.23-.7 0-.43.23-.7.23-.26.62-.26z"/><path d="m.56 10.79h.25v.76h.91v-.76h.25v1.85h-.25v-.88h-.91v.88h-.25z"/><path d="m7.4 18.55q-.27 0-.43.2-.16.2-.16.55 0 .35.16.55.16.2.43.2.27 0 .43-.2.16-.2.16-.55 0-.35-.16-.55-.16-.2-.43-.2zm0-.2q.39 0 .62.26.23.26.23.7 0 .44-.23.7-.23.26-.62.26-.39 0-.62-.26-.23-.26-.23-.7 0-.43.23-.7.23-.26.62-.26z"/><path d="m4.93 18.38h.25v.76h.91v-.76h.25v1.85h-.25v-.88h-.91v.88h-.25z"/><path d="m16.17 23.71q-.27 0-.43.2-.16.2-.16.55 0 .35.16.55.16.2.43.2.27 0 .43-.2.16-.2.16-.55 0-.35-.16-.55-.16-.2-.43-.2zm0-.2q.39 0 .62.26.23.26.23.7 0 .44-.23.7-.23.26-.62.26-.39 0-.62-.26-.23-.26-.23-.7 0-.43.23-.7.23-.26.62-.26z"/><path d="m17.23 23.54h.25v.76h.91v-.76h.25v1.85h-.25v-.88h-.91v.88h-.25z"/><path d="m25.07 18.63q-.27 0-.43.2-.16.2-.16.55 0 .35.16.55.16.2.43.2.27 0 .43-.2.16-.2.16-.55 0-.35-.16-.55-.16-.2-.43-.2zm0-.2q.39 0 .62.26.23.26.23.7 0 .44-.23.7-.23.26-.62.26-.39 0-.62-.26-.23-.26-.23-.7 0-.43.23-.7.23-.26.62-.26z"/><path d="m26.13 18.46h.25v.76h.91v-.76h.25v1.85h-.25v-.88h-.91v.88h-.25z"/><path d="m33.9 23.73q-.27 0-.43.2-.16.2-.16.55 0 .35.16.55.16.2.43.2.27 0 .43-.2.16-.2.16-.55 0-.35-.16-.55-.16-.2-.43-.2zm0-.21q.39 0 .62.26.23.26.23.7 0 .44-.23.7-.23.26-.62.26-.39 0-.62-.26-.23-.26-.23-.7 0-.43.23-.7.23-.26.62-.26z"/><path d="m34.97 23.56h.25v.76h.91v-.76h.25v1.85h-.25v-.88h-.91v.88h-.25z"/></g></g></svg>