<svg xmlns="http://www.w3.org/2000/svg" xmlns:xlink="http://www.w3.org/1999/xlink" width="32.92mm" height="72.227" version="1.2" viewBox="0 0 32.92 19.11"><desc>Generated by the Chemistry Development Kit (http://github.com/cdk)</desc><g fill="#FF0D0D" stroke="#000" stroke-linecap="round" stroke-linejoin="round" stroke-width=".21"><rect width="33" height="20" x="0" y="0" fill="#FFF" stroke="none"/><g id="mol1" class="mol"><g id="mol1bnd1" class="bond"><line x1="27.41" x2="27.42" y1="18.45" y2="13.13"/><line x1="28.23" x2="28.23" y1="18.45" y2="13.13"/></g><line id="mol1bnd2" x1="27.82" x2="32.22" y1="13.37" y2="10.83" class="bond"/><line id="mol1bnd3" x1="27.82" x2="23.42" y1="13.37" y2="10.82" class="bond"/><line id="mol1bnd4" x1="23.42" x2="23.42" y1="10.82" y2="5.74" class="bond"/><line id="mol1bnd5" x1="23.42" x2="19.02" y1="5.74" y2="3.2" class="bond"/><line id="mol1bnd6" x1="19.02" x2="14.62" y1="3.2" y2="5.74" class="bond"/><line id="mol1bnd7" x1="14.62" x2="14.62" y1="5.74" y2=".66" class="bond"/><line id="mol1bnd8" x1="14.62" x2="10.21" y1="5.74" y2="3.2" class="bond"/><line id="mol1bnd9" x1="10.21" x2="5.81" y1="3.2" y2="5.74" class="bond"/><line id="mol1bnd10" x1="5.81" x2="5.81" y1="5.74" y2="10.82" class="bond"/><g id="mol1bnd11" class="bond"><line x1="6.22" x2="2.8" y1="11.06" y2="13.03"/><line x1="5.81" x2="2.39" y1="10.36" y2="12.33"/></g><line id="mol1bnd12" x1="5.81" x2="10.21" y1="10.82" y2="13.36" class="bond"/><line id="mol1bnd13" x1="10.21" x2="10.21" y1="13.36" y2="18.44" class="bond"/><g id="mol1bnd14" class="bond"><line x1="10.21" x2="14.62" y1="13.36" y2="10.82"/><line x1="10.21" x2="13.8" y1="12.43" y2="10.36"/></g><line id="mol1bnd15" x1="14.62" x2="14.62" y1="5.74" y2="10.82" class="bond"/><line id="mol1bnd16" x1="14.62" x2="19.02" y1="10.82" y2="13.36" class="bond"/><line id="mol1bnd17" x1="23.42" x2="19.02" y1="10.82" y2="13.36" class="bond"/><path id="mol1atm12" stroke="none" d="M1.41 12.61q-.27 .0 -.43 .2q-.16 .2 -.16 .55q.0 .35 .16 .55q.16 .2 .43 .2q.27 .0 .43 -.2q.16 -.2 .16 -.55q.0 -.35 -.16 -.55q-.16 -.2 -.43 -.2zM1.41 12.41q.39 .0 .62 .26q.23 .26 .23 .7q.0 .44 -.23 .7q-.23 .26 -.62 .26q-.39 .0 -.62 -.26q-.23 -.26 -.23 -.7q.0 -.43 .23 -.7q.23 -.26 .62 -.26z" class="atom"/></g></g></svg>