<svg height="84.321" viewBox="0 0 46.07 22.31" width="46.07mm" xmlns="http://www.w3.org/2000/svg"><g fill="#ff0d0d" stroke="#000" stroke-linecap="round" stroke-linejoin="round" stroke-width=".21"><path d="m0 0h47v23h-47z" fill="#fff" stroke="none"/><path d="m41.2 10.6-3.8-.31"/><path d="m37.4 10.29-2.89 4.17"/><path d="m29.45 14.05 5.06.41"/><path d="m29.98 13.27 4.13.34"/><path d="m29.45 14.05-2.17-4.6"/><path d="m30.17 5.28-2.89 4.17"/><path d="m30.57 6.12-2.36 3.41"/><path d="m30.17 5.28 5.06.41"/><path d="m37.4 10.29-2.17-4.6"/><path d="m36.47 10.21-1.77-3.74"/><path d="m35.23 5.69 2.11-3.04"/><path d="m39.4 1.62 3.79.32"/><path d="m27.28 9.45-4.52-.53"/><path d="m22.76 8.92-4.42 2.5"/><path d="m18.34 11.42-4.38-2.57"/><path d="m17.52 11.89-3.57-2.1"/><path d="m13.96 8.85-4.42 2.51"/><path d="m9.54 11.36-3.2-1.88"/><path d="m3.97 9.46-3.23 1.83"/><path d="m9.54 11.36-.04 5.08"/><path d="m10.35 11.83-.03 4.14"/><path d="m9.5 16.44-3.23 1.83"/><path d="m3.91 18.25-3.21-1.88"/><path d="m9.5 16.44 4.38 2.57"/><path d="m13.88 19.01 4.42-2.51"/><path d="m13.89 18.07 3.6-2.04"/><path d="m18.34 11.42-.04 5.08"/><path d="m18.3 16.5 4.38 2.57"/><path d="m22.68 19.07 3.36-1.9"/><path d="m28.16 17.19 7.52 4.42"/><path d="m27.11 15.23.03-3.74"/><path d="m22.76 8.92 4.38 2.57"/><path d="m22.68 19.07 4.53-.46"/><path d="m29.45 14.05-2.24 4.56"/><path d="m43.25 9.58 2.11-3.05"/><g stroke="none"><path d="m42.47 9.95q-.27 0-.43.2-.16.2-.16.55 0 .35.16.55.16.2.43.2.27 0 .43-.2.16-.2.16-.55 0-.35-.16-.55-.16-.2-.43-.2zm0-.2q.39 0 .62.26.23.26.23.7 0 .44-.23.7-.23.26-.62.26-.39 0-.62-.26-.23-.26-.23-.7 0-.43.23-.7.23-.26.62-.26z"/><path d="m38.13.76q-.27 0-.43.2-.16.2-.16.55 0 .35.16.55.16.2.43.2.27 0 .43-.2.16-.2.16-.55 0-.35-.16-.55-.16-.2-.43-.2zm0-.2q.39 0 .62.26.23.26.23.7 0 .44-.23.7-.23.26-.62.26-.39 0-.62-.26-.23-.26-.23-.7 0-.43.23-.7.23-.26.62-.26z"/><path d="m5.16 8.03q-.27 0-.43.2-.16.2-.16.55 0 .35.16.55.16.2.43.2.27 0 .43-.2.16-.2.16-.55 0-.35-.16-.55-.16-.2-.43-.2zm0-.2q.39 0 .62.26.23.26.23.7 0 .44-.23.7-.23.26-.62.26-.39 0-.62-.26-.23-.26-.23-.7 0-.43.23-.7.23-.26.62-.26z"/><path d="m5.09 18.19q-.27 0-.43.2-.16.2-.16.55 0 .35.16.55.16.2.43.2.27 0 .43-.2.16-.2.16-.55 0-.35-.16-.55-.16-.2-.43-.2zm0-.2q.39 0 .62.26.23.26.23.7 0 .44-.23.7-.23.26-.62.26-.39 0-.62-.26-.23-.26-.23-.7 0-.43.23-.7.23-.26.62-.26z"/><path d="m26.4 15.64h.33l.82 1.54v-1.54h.24v1.85h-.34l-.82-1.54v1.54h-.24v-1.85z" fill="#3050f8"/></g></g></svg>