<svg xmlns="http://www.w3.org/2000/svg" xmlns:xlink="http://www.w3.org/1999/xlink" width="46.07mm" height="84.321" version="1.2" viewBox="0 0 46.07 22.31"><desc>Generated by the Chemistry Development Kit (http://github.com/cdk)</desc><g fill="#FF0D0D" stroke="#000" stroke-linecap="round" stroke-linejoin="round" stroke-width=".21"><rect width="47" height="23" x="0" y="0" fill="#FFF" stroke="none"/><g id="mol1" class="mol"><line id="mol1bnd1" x1="41.2" x2="37.4" y1="10.6" y2="10.29" class="bond"/><line id="mol1bnd2" x1="37.4" x2="34.51" y1="10.29" y2="14.46" class="bond"/><g id="mol1bnd3" class="bond"><line x1="29.45" x2="34.51" y1="14.05" y2="14.46"/><line x1="29.98" x2="34.11" y1="13.27" y2="13.61"/></g><line id="mol1bnd4" x1="29.45" x2="27.28" y1="14.05" y2="9.45" class="bond"/><g id="mol1bnd5" class="bond"><line x1="30.17" x2="27.28" y1="5.28" y2="9.45"/><line x1="30.57" x2="28.21" y1="6.12" y2="9.53"/></g><line id="mol1bnd6" x1="30.17" x2="35.23" y1="5.28" y2="5.69" class="bond"/><g id="mol1bnd7" class="bond"><line x1="37.4" x2="35.23" y1="10.29" y2="5.69"/><line x1="36.47" x2="34.7" y1="10.21" y2="6.47"/></g><line id="mol1bnd8" x1="35.23" x2="37.34" y1="5.69" y2="2.65" class="bond"/><line id="mol1bnd9" x1="39.4" x2="43.19" y1="1.62" y2="1.94" class="bond"/><line id="mol1bnd10" x1="27.28" x2="22.76" y1="9.45" y2="8.92" class="bond"/><line id="mol1bnd11" x1="22.76" x2="18.34" y1="8.92" y2="11.42" class="bond"/><g id="mol1bnd12" class="bond"><line x1="18.34" x2="13.96" y1="11.42" y2="8.85"/><line x1="17.52" x2="13.95" y1="11.89" y2="9.79"/></g><line id="mol1bnd13" x1="13.96" x2="9.54" y1="8.85" y2="11.36" class="bond"/><line id="mol1bnd14" x1="9.54" x2="6.34" y1="11.36" y2="9.48" class="bond"/><line id="mol1bnd15" x1="3.97" x2=".74" y1="9.46" y2="11.29" class="bond"/><g id="mol1bnd16" class="bond"><line x1="9.54" x2="9.5" y1="11.36" y2="16.44"/><line x1="10.35" x2="10.32" y1="11.83" y2="15.97"/></g><line id="mol1bnd17" x1="9.5" x2="6.27" y1="16.44" y2="18.27" class="bond"/><line id="mol1bnd18" x1="3.91" x2=".7" y1="18.25" y2="16.37" class="bond"/><line id="mol1bnd19" x1="9.5" x2="13.88" y1="16.44" y2="19.01" class="bond"/><g id="mol1bnd20" class="bond"><line x1="13.88" x2="18.3" y1="19.01" y2="16.5"/><line x1="13.89" x2="17.49" y1="18.07" y2="16.03"/></g><line id="mol1bnd21" x1="18.34" x2="18.3" y1="11.42" y2="16.5" class="bond"/><line id="mol1bnd22" x1="18.3" x2="22.68" y1="16.5" y2="19.07" class="bond"/><line id="mol1bnd23" x1="22.68" x2="26.04" y1="19.07" y2="17.17" class="bond"/><line id="mol1bnd24" x1="28.16" x2="35.68" y1="17.19" y2="21.61" class="bond"/><line id="mol1bnd25" x1="27.11" x2="27.14" y1="15.23" y2="11.49" class="bond"/><line id="mol1bnd26" x1="22.76" x2="27.14" y1="8.92" y2="11.49" class="bond"/><line id="mol1bnd27" x1="22.68" x2="27.21" y1="19.07" y2="18.61" class="bond"/><line id="mol1bnd28" x1="29.45" x2="27.21" y1="14.05" y2="18.61" class="bond"/><line id="mol1bnd29" x1="43.25" x2="45.36" y1="9.58" y2="6.53" class="bond"/><path id="mol1atm1" stroke="none" d="M42.47 9.95q-.27 .0 -.43 .2q-.16 .2 -.16 .55q.0 .35 .16 .55q.16 .2 .43 .2q.27 .0 .43 -.2q.16 -.2 .16 -.55q.0 -.35 -.16 -.55q-.16 -.2 -.43 -.2zM42.47 9.75q.39 .0 .62 .26q.23 .26 .23 .7q.0 .44 -.23 .7q-.23 .26 -.62 .26q-.39 .0 -.62 -.26q-.23 -.26 -.23 -.7q.0 -.43 .23 -.7q.23 -.26 .62 -.26z" class="atom"/><path id="mol1atm8" stroke="none" d="M38.13 .76q-.27 .0 -.43 .2q-.16 .2 -.16 .55q.0 .35 .16 .55q.16 .2 .43 .2q.27 .0 .43 -.2q.16 -.2 .16 -.55q.0 -.35 -.16 -.55q-.16 -.2 -.43 -.2zM38.13 .56q.39 .0 .62 .26q.23 .26 .23 .7q.0 .44 -.23 .7q-.23 .26 -.62 .26q-.39 .0 -.62 -.26q-.23 -.26 -.23 -.7q.0 -.43 .23 -.7q.23 -.26 .62 -.26z" class="atom"/><path id="mol1atm14" stroke="none" d="M5.16 8.03q-.27 .0 -.43 .2q-.16 .2 -.16 .55q.0 .35 .16 .55q.16 .2 .43 .2q.27 .0 .43 -.2q.16 -.2 .16 -.55q.0 -.35 -.16 -.55q-.16 -.2 -.43 -.2zM5.16 7.83q.39 .0 .62 .26q.23 .26 .23 .7q.0 .44 -.23 .7q-.23 .26 -.62 .26q-.39 .0 -.62 -.26q-.23 -.26 -.23 -.7q.0 -.43 .23 -.7q.23 -.26 .62 -.26z" class="atom"/><path id="mol1atm17" stroke="none" d="M5.09 18.19q-.27 .0 -.43 .2q-.16 .2 -.16 .55q.0 .35 .16 .55q.16 .2 .43 .2q.27 .0 .43 -.2q.16 -.2 .16 -.55q.0 -.35 -.16 -.55q-.16 -.2 -.43 -.2zM5.09 17.99q.39 .0 .62 .26q.23 .26 .23 .7q.0 .44 -.23 .7q-.23 .26 -.62 .26q-.39 .0 -.62 -.26q-.23 -.26 -.23 -.7q.0 -.43 .23 -.7q.23 -.26 .62 -.26z" class="atom"/><path id="mol1atm22" fill="#3050F8" stroke="none" d="M26.4 15.64h.33l.82 1.54v-1.54h.24v1.85h-.34l-.82 -1.54v1.54h-.24v-1.85z" class="atom"/></g></g></svg>