<svg xmlns="http://www.w3.org/2000/svg" xmlns:xlink="http://www.w3.org/1999/xlink" width="45.42mm" height="94.791" version="1.2" viewBox="0 0 45.42 25.08"><desc>Generated by the Chemistry Development Kit (http://github.com/cdk)</desc><g fill="#FF0D0D" stroke="#000" stroke-linecap="round" stroke-linejoin="round" stroke-width=".21"><rect width="46" height="26" x="0" y="0" fill="#FFF" stroke="none"/><g id="mol1" class="mol"><line id="mol1bnd1" x1=".7" x2="3.92" y1="9.14" y2="7.28" class="bond"/><line id="mol1bnd2" x1="6.29" x2="9.5" y1="7.28" y2="9.14" class="bond"/><g id="mol1bnd3" class="bond"><line x1="9.5" x2="9.5" y1="9.14" y2="14.22"/><line x1="10.31" x2="10.31" y1="9.61" y2="13.75"/></g><line id="mol1bnd4" x1="9.5" x2="13.9" y1="14.22" y2="16.76" class="bond"/><g id="mol1bnd5" class="bond"><line x1="13.9" x2="18.31" y1="16.76" y2="14.22"/><line x1="13.9" x2="17.49" y1="15.82" y2="13.75"/></g><line id="mol1bnd6" x1="18.31" x2="21.53" y1="14.22" y2="16.08" class="bond"/><line id="mol1bnd7" x1="23.89" x2="27.11" y1="16.08" y2="14.22" class="bond"/><g id="mol1bnd8" class="bond"><line x1="27.11" x2="31.52" y1="14.22" y2="16.76"/><line x1="27.93" x2="31.52" y1="13.75" y2="15.82"/></g><line id="mol1bnd9" x1="31.52" x2="31.52" y1="16.76" y2="20.46" class="bond"/><line id="mol1bnd10" x1="32.7" x2="35.91" y1="22.52" y2="24.38" class="bond"/><line id="mol1bnd11" x1="31.52" x2="35.92" y1="16.76" y2="14.22" class="bond"/><line id="mol1bnd12" x1="35.92" x2="39.13" y1="14.22" y2="16.08" class="bond"/><line id="mol1bnd13" x1="41.5" x2="44.72" y1="16.08" y2="14.22" class="bond"/><g id="mol1bnd14" class="bond"><line x1="35.92" x2="35.92" y1="14.22" y2="9.14"/><line x1="35.11" x2="35.11" y1="13.75" y2="9.61"/></g><line id="mol1bnd15" x1="35.92" x2="39.13" y1="9.14" y2="7.28" class="bond"/><line id="mol1bnd16" x1="41.5" x2="44.72" y1="7.28" y2="9.14" class="bond"/><line id="mol1bnd17" x1="35.92" x2="31.52" y1="9.14" y2="6.6" class="bond"/><line id="mol1bnd18" x1="31.52" x2="31.52" y1="6.6" y2="2.9" class="bond"/><g id="mol1bnd19" class="bond"><line x1="31.52" x2="27.11" y1="6.6" y2="9.14"/><line x1="31.52" x2="27.93" y1="7.54" y2="9.61"/></g><line id="mol1bnd20" x1="27.11" x2="27.11" y1="14.22" y2="9.14" class="bond"/><line id="mol1bnd21" x1="27.11" x2="22.71" y1="9.14" y2="6.6" class="bond"/><g id="mol1bnd22" class="bond"><line x1="22.3" x2="22.3" y1="6.83" y2="2.9"/><line x1="23.12" x2="23.12" y1="6.83" y2="2.9"/></g><line id="mol1bnd23" x1="22.71" x2="18.31" y1="6.6" y2="9.14" class="bond"/><line id="mol1bnd24" x1="18.31" x2="18.31" y1="14.22" y2="9.14" class="bond"/><g id="mol1bnd25" class="bond"><line x1="18.31" x2="13.9" y1="9.14" y2="6.6"/><line x1="17.49" x2="13.9" y1="9.61" y2="7.54"/></g><line id="mol1bnd26" x1="9.5" x2="13.9" y1="9.14" y2="6.6" class="bond"/><path id="mol1atm2" stroke="none" d="M5.1 5.84q-.27 .0 -.43 .2q-.16 .2 -.16 .55q.0 .35 .16 .55q.16 .2 .43 .2q.27 .0 .43 -.2q.16 -.2 .16 -.55q.0 -.35 -.16 -.55q-.16 -.2 -.43 -.2zM5.1 5.64q.39 .0 .62 .26q.23 .26 .23 .7q.0 .44 -.23 .7q-.23 .26 -.62 .26q-.39 .0 -.62 -.26q-.23 -.26 -.23 -.7q.0 -.43 .23 -.7q.23 -.26 .62 -.26z" class="atom"/><path id="mol1atm7" stroke="none" d="M22.71 16.0q-.27 .0 -.43 .2q-.16 .2 -.16 .55q.0 .35 .16 .55q.16 .2 .43 .2q.27 .0 .43 -.2q.16 -.2 .16 -.55q.0 -.35 -.16 -.55q-.16 -.2 -.43 -.2zM22.71 15.8q.39 .0 .62 .26q.23 .26 .23 .7q.0 .44 -.23 .7q-.23 .26 -.62 .26q-.39 .0 -.62 -.26q-.23 -.26 -.23 -.7q.0 -.43 .23 -.7q.23 -.26 .62 -.26z" class="atom"/><path id="mol1atm10" stroke="none" d="M31.52 21.08q-.27 .0 -.43 .2q-.16 .2 -.16 .55q.0 .35 .16 .55q.16 .2 .43 .2q.27 .0 .43 -.2q.16 -.2 .16 -.55q.0 -.35 -.16 -.55q-.16 -.2 -.43 -.2zM31.52 20.88q.39 .0 .62 .26q.23 .26 .23 .7q.0 .44 -.23 .7q-.23 .26 -.62 .26q-.39 .0 -.62 -.26q-.23 -.26 -.23 -.7q.0 -.43 .23 -.7q.23 -.26 .62 -.26z" class="atom"/><path id="mol1atm13" stroke="none" d="M40.32 16.0q-.27 .0 -.43 .2q-.16 .2 -.16 .55q.0 .35 .16 .55q.16 .2 .43 .2q.27 .0 .43 -.2q.16 -.2 .16 -.55q.0 -.35 -.16 -.55q-.16 -.2 -.43 -.2zM40.32 15.8q.39 .0 .62 .26q.23 .26 .23 .7q.0 .44 -.23 .7q-.23 .26 -.62 .26q-.39 .0 -.62 -.26q-.23 -.26 -.23 -.7q.0 -.43 .23 -.7q.23 -.26 .62 -.26z" class="atom"/><path id="mol1atm16" stroke="none" d="M40.32 5.84q-.27 .0 -.43 .2q-.16 .2 -.16 .55q.0 .35 .16 .55q.16 .2 .43 .2q.27 .0 .43 -.2q.16 -.2 .16 -.55q.0 -.35 -.16 -.55q-.16 -.2 -.43 -.2zM40.32 5.64q.39 .0 .62 .26q.23 .26 .23 .7q.0 .44 -.23 .7q-.23 .26 -.62 .26q-.39 .0 -.62 -.26q-.23 -.26 -.23 -.7q.0 -.43 .23 -.7q.23 -.26 .62 -.26z" class="atom"/><g id="mol1atm19" class="atom"><path stroke="none" d="M31.52 .76q-.27 .0 -.43 .2q-.16 .2 -.16 .55q.0 .35 .16 .55q.16 .2 .43 .2q.27 .0 .43 -.2q.16 -.2 .16 -.55q.0 -.35 -.16 -.55q-.16 -.2 -.43 -.2zM31.52 .56q.39 .0 .62 .26q.23 .26 .23 .7q.0 .44 -.23 .7q-.23 .26 -.62 .26q-.39 .0 -.62 -.26q-.23 -.26 -.23 -.7q.0 -.43 .23 -.7q.23 -.26 .62 -.26z"/><path stroke="none" d="M32.58 .59h.25v.76h.91v-.76h.25v1.85h-.25v-.88h-.91v.88h-.25v-1.85z"/></g><path id="mol1atm22" stroke="none" d="M22.71 .76q-.27 .0 -.43 .2q-.16 .2 -.16 .55q.0 .35 .16 .55q.16 .2 .43 .2q.27 .0 .43 -.2q.16 -.2 .16 -.55q.0 -.35 -.16 -.55q-.16 -.2 -.43 -.2zM22.71 .56q.39 .0 .62 .26q.23 .26 .23 .7q.0 .44 -.23 .7q-.23 .26 -.62 .26q-.39 .0 -.62 -.26q-.23 -.26 -.23 -.7q.0 -.43 .23 -.7q.23 -.26 .62 -.26z" class="atom"/></g></g></svg>