<svg height="94.791" viewBox="0 0 45.42 25.08" width="45.42mm" xmlns="http://www.w3.org/2000/svg"><g fill="#ff0d0d" stroke="#000" stroke-linecap="round" stroke-linejoin="round" stroke-width=".21"><path d="m0 0h46v26h-46z" fill="#fff" stroke="none"/><path d="m.7 9.14 3.22-1.86"/><path d="m6.29 7.28 3.21 1.86"/><path d="m9.5 9.14v5.08"/><path d="m10.31 9.61v4.14"/><path d="m9.5 14.22 4.4 2.54"/><path d="m13.9 16.76 4.41-2.54"/><path d="m13.9 15.82 3.59-2.07"/><path d="m18.31 14.22 3.22 1.86"/><path d="m23.89 16.08 3.22-1.86"/><path d="m27.11 14.22 4.41 2.54"/><path d="m27.93 13.75 3.59 2.07"/><path d="m31.52 16.76v3.7"/><path d="m32.7 22.52 3.21 1.86"/><path d="m31.52 16.76 4.4-2.54"/><path d="m35.92 14.22 3.21 1.86"/><path d="m41.5 16.08 3.22-1.86"/><path d="m35.92 14.22v-5.08"/><path d="m35.11 13.75v-4.14"/><path d="m35.92 9.14 3.21-1.86"/><path d="m41.5 7.28 3.22 1.86"/><path d="m35.92 9.14-4.4-2.54"/><path d="m31.52 6.6v-3.7"/><path d="m31.52 6.6-4.41 2.54"/><path d="m31.52 7.54-3.59 2.07"/><path d="m27.11 14.22v-5.08"/><path d="m27.11 9.14-4.4-2.54"/><path d="m22.3 6.83v-3.93"/><path d="m23.12 6.83v-3.93"/><path d="m22.71 6.6-4.4 2.54"/><path d="m18.31 14.22v-5.08"/><path d="m18.31 9.14-4.41-2.54"/><path d="m17.49 9.61-3.59-2.07"/><path d="m9.5 9.14 4.4-2.54"/><g stroke="none"><path d="m5.1 5.84q-.27 0-.43.2-.16.2-.16.55 0 .35.16.55.16.2.43.2.27 0 .43-.2.16-.2.16-.55 0-.35-.16-.55-.16-.2-.43-.2zm0-.2q.39 0 .62.26.23.26.23.7 0 .44-.23.7-.23.26-.62.26-.39 0-.62-.26-.23-.26-.23-.7 0-.43.23-.7.23-.26.62-.26z"/><path d="m22.71 16q-.27 0-.43.2-.16.2-.16.55 0 .35.16.55.16.2.43.2.27 0 .43-.2.16-.2.16-.55 0-.35-.16-.55-.16-.2-.43-.2zm0-.2q.39 0 .62.26.23.26.23.7 0 .44-.23.7-.23.26-.62.26-.39 0-.62-.26-.23-.26-.23-.7 0-.43.23-.7.23-.26.62-.26z"/><path d="m31.52 21.08q-.27 0-.43.2-.16.2-.16.55 0 .35.16.55.16.2.43.2.27 0 .43-.2.16-.2.16-.55 0-.35-.16-.55-.16-.2-.43-.2zm0-.2q.39 0 .62.26.23.26.23.7 0 .44-.23.7-.23.26-.62.26-.39 0-.62-.26-.23-.26-.23-.7 0-.43.23-.7.23-.26.62-.26z"/><path d="m40.32 16q-.27 0-.43.2-.16.2-.16.55 0 .35.16.55.16.2.43.2.27 0 .43-.2.16-.2.16-.55 0-.35-.16-.55-.16-.2-.43-.2zm0-.2q.39 0 .62.26.23.26.23.7 0 .44-.23.7-.23.26-.62.26-.39 0-.62-.26-.23-.26-.23-.7 0-.43.23-.7.23-.26.62-.26z"/><path d="m40.32 5.84q-.27 0-.43.2-.16.2-.16.55 0 .35.16.55.16.2.43.2.27 0 .43-.2.16-.2.16-.55 0-.35-.16-.55-.16-.2-.43-.2zm0-.2q.39 0 .62.26.23.26.23.7 0 .44-.23.7-.23.26-.62.26-.39 0-.62-.26-.23-.26-.23-.7 0-.43.23-.7.23-.26.62-.26z"/><path d="m31.52.76q-.27 0-.43.2-.16.2-.16.55 0 .35.16.55.16.2.43.2.27 0 .43-.2.16-.2.16-.55 0-.35-.16-.55-.16-.2-.43-.2zm0-.2q.39 0 .62.26.23.26.23.7 0 .44-.23.7-.23.26-.62.26-.39 0-.62-.26-.23-.26-.23-.7 0-.43.23-.7.23-.26.62-.26z"/><path d="m32.58.59h.25v.76h.91v-.76h.25v1.85h-.25v-.88h-.91v.88h-.25z"/><path d="m22.71.76q-.27 0-.43.2-.16.2-.16.55 0 .35.16.55.16.2.43.2.27 0 .43-.2.16-.2.16-.55 0-.35-.16-.55-.16-.2-.43-.2zm0-.2q.39 0 .62.26.23.26.23.7 0 .44-.23.7-.23.26-.62.26-.39 0-.62-.26-.23-.26-.23-.7 0-.43.23-.7.23-.26.62-.26z"/></g></g></svg>