<svg height="23.42mm" viewBox="0 0 34.49 23.42" width="34.49mm" xmlns="http://www.w3.org/2000/svg"><g fill="#ff0d0d" stroke="#000" stroke-linecap="round" stroke-linejoin="round" stroke-width=".21"><path d="m0 0h35v24h-35z" fill="#fff" stroke="none"/><path d="m14.23 2.93.02 3.93"/><path d="m13.42 2.93.02 3.94"/><path d="m13.84 6.63 4.41 2.51"/><path d="m22.62 6.6-4.37 2.54"/><path d="m22.62 7.54-3.56 2.07"/><path d="m22.62 6.6-.02-3.7"/><path d="m22.62 6.6 4.4 2.5"/><path d="m27.05 14.18-.03-5.08"/><path d="m26.24 13.72-.03-4.14"/><path d="m27.05 14.18 3.22 1.85"/><path d="m27.05 14.18-4.4 2.54"/><path d="m18.25 14.22 4.4 2.5"/><path d="m19.06 13.75 3.59 2.04"/><path d="m18.25 9.14v5.08"/><path d="m18.25 14.22-3.2 1.88"/><path d="m12.69 16.11-3.22-1.86"/><path d="m5.11 16.83 4.36-2.58"/><path d="m5.1 15.88 3.56-2.09"/><path d="m5.11 16.83.01 3.7"/><path d="m5.11 16.83-4.41-2.54"/><path d="m.7 9.21v5.08"/><path d="m1.52 9.68v4.14"/><path d="m.7 9.21 4.41-2.54"/><path d="m5.11 6.67-.01-3.71"/><path d="m9.47 9.17-4.36-2.5"/><path d="m8.66 9.64-3.55-2.04"/><path d="m13.84 6.63-4.37 2.54"/><path d="m9.47 14.25v-5.08"/><g stroke="none"><path d="m13.82.8q-.27 0-.43.2-.16.2-.16.55 0 .35.16.55.16.2.43.2.27 0 .43-.2.16-.2.16-.55 0-.35-.16-.55-.16-.2-.43-.2zm0-.21q.39 0 .62.26.23.26.23.7 0 .44-.23.7-.23.26-.62.26-.39 0-.62-.26-.23-.26-.23-.7 0-.43.23-.7.23-.26.62-.26z"/><path d="m22.59.76q-.27 0-.43.2-.16.2-.16.55 0 .35.16.55.16.2.43.2.27 0 .43-.2.16-.2.16-.55 0-.35-.16-.55-.16-.2-.43-.2zm0-.2q.39 0 .62.26.23.26.23.7 0 .44-.23.7-.23.26-.62.26-.39 0-.62-.26-.23-.26-.23-.7 0-.43.23-.7.23-.26.62-.26z"/><path d="m23.66.59h.25v.76h.91v-.76h.25v1.85h-.25v-.88h-.91v.88h-.25z"/><path d="m31.46 15.96q-.27 0-.43.2-.16.2-.16.55 0 .35.16.55.16.2.43.2.27 0 .43-.2.16-.2.16-.55 0-.35-.16-.55-.16-.2-.43-.2zm0-.21q.39 0 .62.26.23.26.23.7 0 .44-.23.7-.23.26-.62.26-.39 0-.62-.26-.23-.26-.23-.7 0-.43.23-.7.23-.26.62-.26z"/><path d="m32.52 15.79h.25v.76h.91v-.76h.25v1.85h-.25v-.88h-.91v.88h-.25z"/><path d="m13.88 16.04q-.27 0-.43.2-.16.2-.16.55 0 .35.16.55.16.2.43.2.27 0 .43-.2.16-.2.16-.55 0-.35-.16-.55-.16-.2-.43-.2zm0-.21q.39 0 .62.26.23.26.23.7 0 .44-.23.7-.23.26-.62.26-.39 0-.62-.26-.23-.26-.23-.7 0-.43.23-.7.23-.26.62-.26z"/><path d="m5.13 21.15q-.27 0-.43.2-.16.2-.16.55 0 .35.16.55.16.2.43.2.27 0 .43-.2.16-.2.16-.55 0-.35-.16-.55-.16-.2-.43-.2zm0-.2q.39 0 .62.26.23.26.23.7 0 .44-.23.7-.23.26-.62.26-.39 0-.62-.26-.23-.26-.23-.7 0-.43.23-.7.23-.26.62-.26z"/><path d="m6.19 20.98h.25v.76h.91v-.76h.25v1.85h-.25v-.88h-.91v.88h-.25z"/><path d="m5.1.83q-.27 0-.43.2-.16.2-.16.55 0 .35.16.55.16.2.43.2.27 0 .43-.2.16-.2.16-.55 0-.35-.16-.55-.16-.2-.43-.2zm0-.2q.39 0 .62.26.23.26.23.7 0 .44-.23.7-.23.26-.62.26-.39 0-.62-.26-.23-.26-.23-.7 0-.43.23-.7.23-.26.62-.26z"/><path d="m6.16.66h.25v.76h.91v-.76h.25v1.85h-.25v-.88h-.91v.88h-.25z"/></g></g></svg>