<svg height="42.96mm" viewBox="0 0 52.19 42.96" width="52.19mm" xmlns="http://www.w3.org/2000/svg"><g fill="#ff0d0d" stroke="#000" stroke-linecap="round" stroke-linejoin="round" stroke-width=".21"><path d="m0 0h53v43h-53z" fill="#fff" stroke="none"/><path d="m7.48 32.09 3.21 1.86"/><path d="m13.06 33.95 3.22-1.86"/><path d="m16.28 27.01v5.08"/><path d="m17.09 27.48v4.14"/><path d="m16.28 27.01 4.4-2.54"/><path d="m20.68 24.47v-3.7"/><path d="m19.5 18.71-3.22-1.86"/><path d="m16.28 16.85-.01-3.76"/><path d="m15.08 11.02-3.21-1.87"/><path d="m11.87 9.15.02-5.08"/><path d="m11.89 4.07-3.21-1.86"/><path d="m11.87 9.15-4.38 2.51"/><path d="m7.49 11.66-3.2-1.87"/><path d="m7.49 11.66-.04 5.1"/><path d="m7.45 16.76-3.23 1.84"/><path d="m7.45 16.76 4.45 2.6"/><path d="m16.28 16.85-4.38 2.51"/><path d="m11.9 19.36-.01 3.7"/><path d="m25.08 27.01-4.4-2.54"/><path d="m24.27 27.48-3.59-2.07"/><path d="m25.08 27.01 4.4-2.54"/><path d="m29.08 24.71v-3.94"/><path d="m29.89 24.71v-3.94"/><path d="m29.48 24.47 4.41 2.54"/><path d="m38.29 24.47-4.4 2.54"/><path d="m38.29 25.41-3.59 2.07"/><path d="m38.29 24.47 4.4 2.54"/><path d="m42.69 32.09v-5.08"/><path d="m41.88 31.62v-4.14"/><path d="m42.69 32.09 3.22 1.86"/><path d="m48.27 33.95 3.22-1.86"/><path d="m42.69 32.09-4.4 2.54"/><path d="m38.29 34.63v3.71"/><path d="m39.47 40.4 3.22 1.85"/><path d="m33.89 32.09 4.4 2.54"/><path d="m34.7 31.62 3.59 2.08"/><path d="m33.89 27.01v5.08"/><path d="m33.89 32.09-3.22 1.86"/><path d="m28.3 33.95-3.22-1.86"/><path d="m25.08 27.01v5.08"/><path d="m20.68 34.63 4.4-2.54"/><path d="m20.68 33.7 3.59-2.08"/><path d="m16.28 32.09 4.4 2.54"/><g stroke="none"><path d="m11.88 33.88q-.27 0-.43.2-.16.2-.16.55 0 .35.16.55.16.2.43.2.27 0 .43-.2.16-.2.16-.55 0-.35-.16-.55-.16-.2-.43-.2zm0-.2q.39 0 .62.26.23.26.23.7 0 .44-.23.7-.23.26-.62.26-.39 0-.62-.26-.23-.26-.23-.7 0-.43.23-.7.23-.26.62-.26z"/><path d="m20.68 18.64q-.27 0-.43.2-.16.2-.16.55 0 .35.16.55.16.2.43.2.27 0 .43-.2.16-.2.16-.55 0-.35-.16-.55-.16-.2-.43-.2zm0-.2q.39 0 .62.26.23.26.23.7 0 .44-.23.7-.23.26-.62.26-.39 0-.62-.26-.23-.26-.23-.7 0-.43.23-.7.23-.26.62-.26z"/><path d="m16.26 10.96q-.27 0-.43.2-.16.2-.16.55 0 .35.16.55.16.2.43.2.27 0 .43-.2.16-.2.16-.55 0-.35-.16-.55-.16-.2-.43-.2zm0-.21q.39 0 .62.26.23.26.23.7 0 .44-.23.7-.23.26-.62.26-.39 0-.62-.26-.23-.26-.23-.7 0-.43.23-.7.23-.26.62-.26z"/><path d="m7.5.76q-.27 0-.43.2-.16.2-.16.55 0 .35.16.55.16.2.43.2.27 0 .43-.2.16-.2.16-.55 0-.35-.16-.55-.16-.2-.43-.2zm0-.2q.39 0 .62.26.23.26.23.7 0 .44-.23.7-.23.26-.62.26-.39 0-.62-.26-.23-.26-.23-.7 0-.43.23-.7.23-.26.62-.26z"/><path d="m5.03.59h.25v.76h.91v-.76h.25v1.85h-.25v-.88h-.91v.88h-.25z"/><path d="m3.11 8.34q-.27 0-.43.2-.16.2-.16.55 0 .35.16.55.16.2.43.2.27 0 .43-.2.16-.2.16-.55 0-.35-.16-.55-.16-.2-.43-.2zm0-.2q.39 0 .62.26.23.26.23.7 0 .44-.23.7-.23.26-.62.26-.39 0-.62-.26-.23-.26-.23-.7 0-.43.23-.7.23-.26.62-.26z"/><path d="m.64 8.17h.25v.76h.91v-.76h.25v1.85h-.25v-.88h-.91v.88h-.25z"/><path d="m3.03 18.52q-.27 0-.43.2-.16.2-.16.55 0 .35.16.55.16.2.43.2.27 0 .43-.2.16-.2.16-.55 0-.35-.16-.55-.16-.2-.43-.2zm0-.21q.39 0 .62.26.23.26.23.7 0 .44-.23.7-.23.26-.62.26-.39 0-.62-.26-.23-.26-.23-.7 0-.43.23-.7.23-.26.62-.26z"/><path d="m.56 18.35h.25v.76h.91v-.76h.25v1.85h-.25v-.88h-.91v.88h-.25z"/><path d="m11.88 23.69q-.27 0-.43.2-.16.2-.16.55 0 .35.16.55.16.2.43.2.27 0 .43-.2.16-.2.16-.55 0-.35-.16-.55-.16-.2-.43-.2zm0-.21q.39 0 .62.26.23.26.23.7 0 .44-.23.7-.23.26-.62.26-.39 0-.62-.26-.23-.26-.23-.7 0-.43.23-.7.23-.26.62-.26z"/><path d="m12.94 23.52h.25v.76h.91v-.76h.25v1.85h-.25v-.88h-.91v.88h-.25z"/><path d="m29.49 18.64q-.27 0-.43.2-.16.2-.16.55 0 .35.16.55.16.2.43.2.27 0 .43-.2.16-.2.16-.55 0-.35-.16-.55-.16-.2-.43-.2zm0-.2q.39 0 .62.26.23.26.23.7 0 .44-.23.7-.23.26-.62.26-.39 0-.62-.26-.23-.26-.23-.7 0-.43.23-.7.23-.26.62-.26z"/><path d="m47.09 33.88q-.27 0-.43.2-.16.2-.16.55 0 .35.16.55.16.2.43.2.27 0 .43-.2.16-.2.16-.55 0-.35-.16-.55-.16-.2-.43-.2zm0-.2q.39 0 .62.26.23.26.23.7 0 .44-.23.7-.23.26-.62.26-.39 0-.62-.26-.23-.26-.23-.7 0-.43.23-.7.23-.26.62-.26z"/><path d="m38.29 38.96q-.27 0-.43.2-.16.2-.16.55 0 .35.16.55.16.2.43.2.27 0 .43-.2.16-.2.16-.55 0-.35-.16-.55-.16-.2-.43-.2zm0-.2q.39 0 .62.26.23.26.23.7 0 .44-.23.7-.23.26-.62.26-.39 0-.62-.26-.23-.26-.23-.7 0-.43.23-.7.23-.26.62-.26z"/><path d="m29.49 33.88q-.27 0-.43.2-.16.2-.16.55 0 .35.16.55.16.2.43.2.27 0 .43-.2.16-.2.16-.55 0-.35-.16-.55-.16-.2-.43-.2zm0-.2q.39 0 .62.26.23.26.23.7 0 .44-.23.7-.23.26-.62.26-.39 0-.62-.26-.23-.26-.23-.7 0-.43.23-.7.23-.26.62-.26z"/></g></g></svg>