<svg xmlns="http://www.w3.org/2000/svg" xmlns:xlink="http://www.w3.org/1999/xlink" width="52.19mm" height="42.96mm" version="1.2" viewBox="0 0 52.19 42.96"><desc>Generated by the Chemistry Development Kit (http://github.com/cdk)</desc><g fill="#FF0D0D" stroke="#000" stroke-linecap="round" stroke-linejoin="round" stroke-width=".21"><rect width="53" height="43" x="0" y="0" fill="#FFF" stroke="none"/><g id="mol1" class="mol"><line id="mol1bnd1" x1="7.48" x2="10.69" y1="32.09" y2="33.95" class="bond"/><line id="mol1bnd2" x1="13.06" x2="16.28" y1="33.95" y2="32.09" class="bond"/><g id="mol1bnd3" class="bond"><line x1="16.28" x2="16.28" y1="27.01" y2="32.09"/><line x1="17.09" x2="17.09" y1="27.48" y2="31.62"/></g><line id="mol1bnd4" x1="16.28" x2="20.68" y1="27.01" y2="24.47" class="bond"/><line id="mol1bnd5" x1="20.68" x2="20.68" y1="24.47" y2="20.77" class="bond"/><line id="mol1bnd6" x1="19.5" x2="16.28" y1="18.71" y2="16.85" class="bond"/><line id="mol1bnd7" x1="16.28" x2="16.27" y1="16.85" y2="13.09" class="bond"/><line id="mol1bnd8" x1="15.08" x2="11.87" y1="11.02" y2="9.15" class="bond"/><line id="mol1bnd9" x1="11.87" x2="11.89" y1="9.15" y2="4.07" class="bond"/><line id="mol1bnd10" x1="11.89" x2="8.68" y1="4.07" y2="2.21" class="bond"/><line id="mol1bnd11" x1="11.87" x2="7.49" y1="9.15" y2="11.66" class="bond"/><line id="mol1bnd12" x1="7.49" x2="4.29" y1="11.66" y2="9.79" class="bond"/><line id="mol1bnd13" x1="7.49" x2="7.45" y1="11.66" y2="16.76" class="bond"/><line id="mol1bnd14" x1="7.45" x2="4.22" y1="16.76" y2="18.6" class="bond"/><line id="mol1bnd15" x1="7.45" x2="11.9" y1="16.76" y2="19.36" class="bond"/><line id="mol1bnd16" x1="16.28" x2="11.9" y1="16.85" y2="19.36" class="bond"/><line id="mol1bnd17" x1="11.9" x2="11.89" y1="19.36" y2="23.06" class="bond"/><g id="mol1bnd18" class="bond"><line x1="25.08" x2="20.68" y1="27.01" y2="24.47"/><line x1="24.27" x2="20.68" y1="27.48" y2="25.41"/></g><line id="mol1bnd19" x1="25.08" x2="29.48" y1="27.01" y2="24.47" class="bond"/><g id="mol1bnd20" class="bond"><line x1="29.08" x2="29.08" y1="24.71" y2="20.77"/><line x1="29.89" x2="29.89" y1="24.71" y2="20.77"/></g><line id="mol1bnd21" x1="29.48" x2="33.89" y1="24.47" y2="27.01" class="bond"/><g id="mol1bnd22" class="bond"><line x1="38.29" x2="33.89" y1="24.47" y2="27.01"/><line x1="38.29" x2="34.7" y1="25.41" y2="27.48"/></g><line id="mol1bnd23" x1="38.29" x2="42.69" y1="24.47" y2="27.01" class="bond"/><g id="mol1bnd24" class="bond"><line x1="42.69" x2="42.69" y1="32.09" y2="27.01"/><line x1="41.88" x2="41.88" y1="31.62" y2="27.48"/></g><line id="mol1bnd25" x1="42.69" x2="45.91" y1="32.09" y2="33.95" class="bond"/><line id="mol1bnd26" x1="48.27" x2="51.49" y1="33.95" y2="32.09" class="bond"/><line id="mol1bnd27" x1="42.69" x2="38.29" y1="32.09" y2="34.63" class="bond"/><line id="mol1bnd28" x1="38.29" x2="38.29" y1="34.63" y2="38.34" class="bond"/><line id="mol1bnd29" x1="39.47" x2="42.69" y1="40.4" y2="42.25" class="bond"/><g id="mol1bnd30" class="bond"><line x1="33.89" x2="38.29" y1="32.09" y2="34.63"/><line x1="34.7" x2="38.29" y1="31.62" y2="33.7"/></g><line id="mol1bnd31" x1="33.89" x2="33.89" y1="27.01" y2="32.09" class="bond"/><line id="mol1bnd32" x1="33.89" x2="30.67" y1="32.09" y2="33.95" class="bond"/><line id="mol1bnd33" x1="28.3" x2="25.08" y1="33.95" y2="32.09" class="bond"/><line id="mol1bnd34" x1="25.08" x2="25.08" y1="27.01" y2="32.09" class="bond"/><g id="mol1bnd35" class="bond"><line x1="20.68" x2="25.08" y1="34.63" y2="32.09"/><line x1="20.68" x2="24.27" y1="33.7" y2="31.62"/></g><line id="mol1bnd36" x1="16.28" x2="20.68" y1="32.09" y2="34.63" class="bond"/><path id="mol1atm2" stroke="none" d="M11.88 33.88q-.27 .0 -.43 .2q-.16 .2 -.16 .55q.0 .35 .16 .55q.16 .2 .43 .2q.27 .0 .43 -.2q.16 -.2 .16 -.55q.0 -.35 -.16 -.55q-.16 -.2 -.43 -.2zM11.88 33.68q.39 .0 .62 .26q.23 .26 .23 .7q.0 .44 -.23 .7q-.23 .26 -.62 .26q-.39 .0 -.62 -.26q-.23 -.26 -.23 -.7q.0 -.43 .23 -.7q.23 -.26 .62 -.26z" class="atom"/><path id="mol1atm6" stroke="none" d="M20.68 18.64q-.27 .0 -.43 .2q-.16 .2 -.16 .55q.0 .35 .16 .55q.16 .2 .43 .2q.27 .0 .43 -.2q.16 -.2 .16 -.55q.0 -.35 -.16 -.55q-.16 -.2 -.43 -.2zM20.68 18.44q.39 .0 .62 .26q.23 .26 .23 .7q.0 .44 -.23 .7q-.23 .26 -.62 .26q-.39 .0 -.62 -.26q-.23 -.26 -.23 -.7q.0 -.43 .23 -.7q.23 -.26 .62 -.26z" class="atom"/><path id="mol1atm8" stroke="none" d="M16.26 10.96q-.27 .0 -.43 .2q-.16 .2 -.16 .55q.0 .35 .16 .55q.16 .2 .43 .2q.27 .0 .43 -.2q.16 -.2 .16 -.55q.0 -.35 -.16 -.55q-.16 -.2 -.43 -.2zM16.26 10.75q.39 .0 .62 .26q.23 .26 .23 .7q.0 .44 -.23 .7q-.23 .26 -.62 .26q-.39 .0 -.62 -.26q-.23 -.26 -.23 -.7q.0 -.43 .23 -.7q.23 -.26 .62 -.26z" class="atom"/><g id="mol1atm11" class="atom"><path stroke="none" d="M7.5 .76q-.27 .0 -.43 .2q-.16 .2 -.16 .55q.0 .35 .16 .55q.16 .2 .43 .2q.27 .0 .43 -.2q.16 -.2 .16 -.55q.0 -.35 -.16 -.55q-.16 -.2 -.43 -.2zM7.5 .56q.39 .0 .62 .26q.23 .26 .23 .7q.0 .44 -.23 .7q-.23 .26 -.62 .26q-.39 .0 -.62 -.26q-.23 -.26 -.23 -.7q.0 -.43 .23 -.7q.23 -.26 .62 -.26z"/><path stroke="none" d="M5.03 .59h.25v.76h.91v-.76h.25v1.85h-.25v-.88h-.91v.88h-.25v-1.85z"/></g><g id="mol1atm13" class="atom"><path stroke="none" d="M3.11 8.34q-.27 .0 -.43 .2q-.16 .2 -.16 .55q.0 .35 .16 .55q.16 .2 .43 .2q.27 .0 .43 -.2q.16 -.2 .16 -.55q.0 -.35 -.16 -.55q-.16 -.2 -.43 -.2zM3.11 8.14q.39 .0 .62 .26q.23 .26 .23 .7q.0 .44 -.23 .7q-.23 .26 -.62 .26q-.39 .0 -.62 -.26q-.23 -.26 -.23 -.7q.0 -.43 .23 -.7q.23 -.26 .62 -.26z"/><path stroke="none" d="M.64 8.17h.25v.76h.91v-.76h.25v1.85h-.25v-.88h-.91v.88h-.25v-1.85z"/></g><g id="mol1atm15" class="atom"><path stroke="none" d="M3.03 18.52q-.27 .0 -.43 .2q-.16 .2 -.16 .55q.0 .35 .16 .55q.16 .2 .43 .2q.27 .0 .43 -.2q.16 -.2 .16 -.55q.0 -.35 -.16 -.55q-.16 -.2 -.43 -.2zM3.03 18.31q.39 .0 .62 .26q.23 .26 .23 .7q.0 .44 -.23 .7q-.23 .26 -.62 .26q-.39 .0 -.62 -.26q-.23 -.26 -.23 -.7q.0 -.43 .23 -.7q.23 -.26 .62 -.26z"/><path stroke="none" d="M.56 18.35h.25v.76h.91v-.76h.25v1.85h-.25v-.88h-.91v.88h-.25v-1.85z"/></g><g id="mol1atm17" class="atom"><path stroke="none" d="M11.88 23.69q-.27 .0 -.43 .2q-.16 .2 -.16 .55q.0 .35 .16 .55q.16 .2 .43 .2q.27 .0 .43 -.2q.16 -.2 .16 -.55q.0 -.35 -.16 -.55q-.16 -.2 -.43 -.2zM11.88 23.48q.39 .0 .62 .26q.23 .26 .23 .7q.0 .44 -.23 .7q-.23 .26 -.62 .26q-.39 .0 -.62 -.26q-.23 -.26 -.23 -.7q.0 -.43 .23 -.7q.23 -.26 .62 -.26z"/><path stroke="none" d="M12.94 23.52h.25v.76h.91v-.76h.25v1.85h-.25v-.88h-.91v.88h-.25v-1.85z"/></g><path id="mol1atm20" stroke="none" d="M29.49 18.64q-.27 .0 -.43 .2q-.16 .2 -.16 .55q.0 .35 .16 .55q.16 .2 .43 .2q.27 .0 .43 -.2q.16 -.2 .16 -.55q.0 -.35 -.16 -.55q-.16 -.2 -.43 -.2zM29.49 18.44q.39 .0 .62 .26q.23 .26 .23 .7q.0 .44 -.23 .7q-.23 .26 -.62 .26q-.39 .0 -.62 -.26q-.23 -.26 -.23 -.7q.0 -.43 .23 -.7q.23 -.26 .62 -.26z" class="atom"/><path id="mol1atm25" stroke="none" d="M47.09 33.88q-.27 .0 -.43 .2q-.16 .2 -.16 .55q.0 .35 .16 .55q.16 .2 .43 .2q.27 .0 .43 -.2q.16 -.2 .16 -.55q.0 -.35 -.16 -.55q-.16 -.2 -.43 -.2zM47.09 33.68q.39 .0 .62 .26q.23 .26 .23 .7q.0 .44 -.23 .7q-.23 .26 -.62 .26q-.39 .0 -.62 -.26q-.23 -.26 -.23 -.7q.0 -.43 .23 -.7q.23 -.26 .62 -.26z" class="atom"/><path id="mol1atm28" stroke="none" d="M38.29 38.96q-.27 .0 -.43 .2q-.16 .2 -.16 .55q.0 .35 .16 .55q.16 .2 .43 .2q.27 .0 .43 -.2q.16 -.2 .16 -.55q.0 -.35 -.16 -.55q-.16 -.2 -.43 -.2zM38.29 38.76q.39 .0 .62 .26q.23 .26 .23 .7q.0 .44 -.23 .7q-.23 .26 -.62 .26q-.39 .0 -.62 -.26q-.23 -.26 -.23 -.7q.0 -.43 .23 -.7q.23 -.26 .62 -.26z" class="atom"/><path id="mol1atm31" stroke="none" d="M29.49 33.88q-.27 .0 -.43 .2q-.16 .2 -.16 .55q.0 .35 .16 .55q.16 .2 .43 .2q.27 .0 .43 -.2q.16 -.2 .16 -.55q.0 -.35 -.16 -.55q-.16 -.2 -.43 -.2zM29.49 33.68q.39 .0 .62 .26q.23 .26 .23 .7q.0 .44 -.23 .7q-.23 .26 -.62 .26q-.39 .0 -.62 -.26q-.23 -.26 -.23 -.7q.0 -.43 .23 -.7q.23 -.26 .62 -.26z" class="atom"/></g></g></svg>