<svg xmlns="http://www.w3.org/2000/svg" xmlns:xlink="http://www.w3.org/1999/xlink" width="41.7mm" height="31.52mm" version="1.2" viewBox="0 0 41.7 31.52"><desc>Generated by the Chemistry Development Kit (http://github.com/cdk)</desc><g fill="#FF0D0D" stroke="#000" stroke-linecap="round" stroke-linejoin="round" stroke-width=".21"><rect width="42" height="32" x="0" y="0" fill="#FFF" stroke="none"/><g id="mol1" class="mol"><line id="mol1bnd1" x1="37.63" x2="35.89" y1="13.91" y2="9.14" class="bond"/><line id="mol1bnd2" x1="35.89" x2="40.89" y1="9.14" y2="8.26" class="bond"/><line id="mol1bnd3" x1="35.89" x2="35.89" y1="9.14" y2="4.06" class="bond"/><g id="mol1bnd4" class="bond"><line x1="35.48" x2="38.9" y1="3.82" y2="1.85"/><line x1="35.89" x2="39.31" y1="4.53" y2="2.55"/></g><line id="mol1bnd5" x1="35.89" x2="31.49" y1="4.06" y2="1.52" class="bond"/><line id="mol1bnd6" x1="31.49" x2="27.09" y1="1.52" y2="4.06" class="bond"/><line id="mol1bnd7" x1="27.09" x2="27.09" y1="4.06" y2="9.14" class="bond"/><line id="mol1bnd8" x1="27.09" x2="22.69" y1="9.14" y2="6.6" class="bond"/><line id="mol1bnd9" x1="27.09" x2="22.68" y1="9.14" y2="11.68" class="bond"/><line id="mol1bnd10" x1="22.68" x2="18.28" y1="11.68" y2="9.14" class="bond"/><line id="mol1bnd11" x1="18.28" x2="13.91" y1="9.14" y2="11.68" class="bond"/><line id="mol1bnd12" x1="13.91" x2="13.91" y1="11.68" y2="16.76" class="bond"/><line id="mol1bnd13" x1="13.91" x2="9.51" y1="16.76" y2="14.22" class="bond"/><line id="mol1bnd14" x1="13.91" x2="9.51" y1="16.76" y2="19.3" class="bond"/><line id="mol1bnd15" x1="9.51" x2="5.11" y1="19.3" y2="16.76" class="bond"/><line id="mol1bnd16" x1="5.11" x2=".7" y1="16.76" y2="19.3" class="bond"/><line id="mol1bnd17" x1=".7" x2=".7" y1="19.3" y2="24.38" class="bond"/><line id="mol1bnd18" x1=".7" x2="5.11" y1="24.38" y2="26.92" class="bond"/><line id="mol1bnd19" x1="5.11" x2="1.84" y1="26.92" y2="30.81" class="bond"/><line id="mol1bnd20" x1="5.11" x2="8.37" y1="26.92" y2="30.81" class="bond"/><line id="mol1bnd21" x1="5.11" x2="9.51" y1="26.92" y2="24.38" class="bond"/><line id="mol1bnd22" x1="9.51" x2="9.51" y1="19.3" y2="24.38" class="bond"/><line id="mol1bnd23" x1="9.51" x2="5.11" y1="24.38" y2="21.84" class="bond"/><line id="mol1bnd24" x1="9.51" x2="13.91" y1="24.38" y2="26.92" class="bond"/><line id="mol1bnd25" x1="13.91" x2="18.28" y1="26.92" y2="24.38" class="bond"/><line id="mol1bnd26" x1="18.28" x2="18.28" y1="24.38" y2="19.3" class="bond"/><line id="mol1bnd27" x1="13.91" x2="18.28" y1="16.76" y2="19.3" class="bond"/><line id="mol1bnd28" x1="18.28" x2="22.68" y1="19.3" y2="21.84" class="bond"/><line id="mol1bnd29" x1="18.28" x2="22.68" y1="19.3" y2="16.76" class="bond"/><line id="mol1bnd30" x1="22.68" x2="22.68" y1="11.68" y2="16.76" class="bond"/><g id="mol1bnd31" class="bond"><line x1="22.68" x2="27.09" y1="16.76" y2="19.3"/><line x1="23.5" x2="27.09" y1="16.29" y2="18.36"/></g><line id="mol1bnd32" x1="27.09" x2="31.49" y1="19.3" y2="16.76" class="bond"/><line id="mol1bnd33" x1="31.49" x2="31.49" y1="16.76" y2="11.68" class="bond"/><line id="mol1bnd34" x1="35.89" x2="31.49" y1="9.14" y2="11.68" class="bond"/><line id="mol1bnd35" x1="27.09" x2="31.49" y1="9.14" y2="11.68" class="bond"/><path id="mol1atm5" stroke="none" d="M40.29 .76q-.27 .0 -.43 .2q-.16 .2 -.16 .55q.0 .35 .16 .55q.16 .2 .43 .2q.27 .0 .43 -.2q.16 -.2 .16 -.55q.0 -.35 -.16 -.55q-.16 -.2 -.43 -.2zM40.29 .56q.39 .0 .62 .26q.23 .26 .23 .7q.0 .44 -.23 .7q-.23 .26 -.62 .26q-.39 .0 -.62 -.26q-.23 -.26 -.23 -.7q.0 -.43 .23 -.7q.23 -.26 .62 -.26z" class="atom"/></g></g></svg>