<svg height="31.52mm" viewBox="0 0 41.7 31.52" width="41.7mm" xmlns="http://www.w3.org/2000/svg"><g fill="#ff0d0d" stroke="#000" stroke-linecap="round" stroke-linejoin="round" stroke-width=".21"><path d="m0 0h42v32h-42z" fill="#fff" stroke="none"/><path d="m37.63 13.91-1.74-4.77"/><path d="m35.89 9.14 5-.88"/><path d="m35.89 9.14v-5.08"/><path d="m35.48 3.82 3.42-1.97"/><path d="m35.89 4.53 3.42-1.98"/><path d="m35.89 4.06-4.4-2.54"/><path d="m31.49 1.52-4.4 2.54"/><path d="m27.09 4.06v5.08"/><path d="m27.09 9.14-4.4-2.54"/><path d="m27.09 9.14-4.41 2.54"/><path d="m22.68 11.68-4.4-2.54"/><path d="m18.28 9.14-4.37 2.54"/><path d="m13.91 11.68v5.08"/><path d="m13.91 16.76-4.4-2.54"/><path d="m13.91 16.76-4.4 2.54"/><path d="m9.51 19.3-4.4-2.54"/><path d="m5.11 16.76-4.41 2.54"/><path d="m.7 19.3v5.08"/><path d="m.7 24.38 4.41 2.54"/><path d="m5.11 26.92-3.27 3.89"/><path d="m5.11 26.92 3.26 3.89"/><path d="m5.11 26.92 4.4-2.54"/><path d="m9.51 19.3v5.08"/><path d="m9.51 24.38-4.4-2.54"/><path d="m9.51 24.38 4.4 2.54"/><path d="m13.91 26.92 4.37-2.54"/><path d="m18.28 24.38v-5.08"/><path d="m13.91 16.76 4.37 2.54"/><path d="m18.28 19.3 4.4 2.54"/><path d="m18.28 19.3 4.4-2.54"/><path d="m22.68 11.68v5.08"/><path d="m22.68 16.76 4.41 2.54"/><path d="m23.5 16.29 3.59 2.07"/><path d="m27.09 19.3 4.4-2.54"/><path d="m31.49 16.76v-5.08"/><path d="m35.89 9.14-4.4 2.54"/><path d="m27.09 9.14 4.4 2.54"/><path d="m40.29.76q-.27 0-.43.2-.16.2-.16.55 0 .35.16.55.16.2.43.2.27 0 .43-.2.16-.2.16-.55 0-.35-.16-.55-.16-.2-.43-.2zm0-.2q.39 0 .62.26.23.26.23.7 0 .44-.23.7-.23.26-.62.26-.39 0-.62-.26-.23-.26-.23-.7 0-.43.23-.7.23-.26.62-.26z" stroke="none"/></g></svg>