<svg height="56.7mm" viewBox="0 0 63.69 56.7" width="63.69mm" xmlns="http://www.w3.org/2000/svg"><g fill="#ff0d0d" stroke="#000" stroke-linecap="round" stroke-linejoin="round" stroke-width=".21"><path d="m0 0h64v57h-64z" fill="#fff" stroke="none"/><path d="m61.28.68-4.98 1"/><path d="m56.3 1.68-1.63 4.81"/><path d="m54.67 6.49-4.98 1"/><path d="m49.69 7.49-1.63 4.81"/><path d="m48.06 12.3-4.98.99"/><path d="m43.08 13.29-3.35-3.81"/><path d="m43.08 13.29-1.63 4.82"/><path d="m41.45 18.11 2.84 4.09"/><path d="m44.29 22.2-2.84 4.03"/><path d="m41.45 26.23-4.84-1.59"/><path d="m36.61 24.64-4.3 2.44"/><path d="m32.31 27.08v5.18"/><path d="m32.31 32.26-4.51 2.54"/><path d="m23.4 32.26 4.4 2.54"/><path d="m24.21 31.79 3.6 2.08"/><path d="m23.4 32.26-4.3 2.54"/><path d="m19.1 34.8-4.44-2.54"/><path d="m14.66 32.26-3.21 1.86"/><path d="m10.27 36.19.01 3.7"/><path d="m10.28 39.89-3.27 1.91"/><path d="m5.83 43.86v3.71"/><path d="m5.83 47.57-4.41 2.53"/><path d="m1.42 50.1v3.7"/><path d="m5.83 47.57 4.36 2.53"/><path d="m10.19 50.1-.01 3.7"/><path d="m10.19 50.1 4.44-2.52"/><path d="m14.63 47.58 3.2 1.87"/><path d="m14.63 47.58.01-5.16"/><path d="m10.28 39.89 4.36 2.53"/><path d="m14.64 42.42 3.22-1.85"/><path d="m14.66 32.26v-5.18"/><path d="m14.66 27.08 4.44-2.44"/><path d="m19.1 24.64 4.3 2.44"/><path d="m23.4 32.26v-5.18"/><path d="m23.4 27.08.02-5.08"/><path d="m23.4 27.08 4.4-2.44"/><path d="m32.31 27.08-4.51-2.44"/><path d="m27.8 24.64v-4.98"/><path d="m27.8 19.66 4.51-2.57"/><path d="m32.31 17.09 4.3 2.57"/><path d="m41.45 18.11-4.84 1.55"/><path d="m36.61 24.64v-4.98"/><path d="m36.61 19.66.57-5.04"/><path d="m54.67 6.49 3.35 3.82"/><path d="m58.02 10.31 4.98-1"/><path d="m58.02 10.31-1.63 4.81"/><g stroke="none"><path d="m10.27 34.06q-.27 0-.43.2-.16.2-.16.55 0 .35.16.55.16.2.43.2.27 0 .43-.2.16-.2.16-.55 0-.35-.16-.55-.16-.2-.43-.2zm0-.21q.39 0 .62.26.23.26.23.7 0 .44-.23.7-.23.26-.62.26-.39 0-.62-.26-.23-.26-.23-.7 0-.43.23-.7.23-.26.62-.26z"/><path d="m5.84 41.73q-.27 0-.43.2-.16.2-.16.55 0 .35.16.55.16.2.43.2.27 0 .43-.2.16-.2.16-.55 0-.35-.16-.55-.16-.2-.43-.2zm0-.2q.39 0 .62.26.23.26.23.7 0 .44-.23.7-.23.26-.62.26-.39 0-.62-.26-.23-.26-.23-.7 0-.43.23-.7.23-.26.62-.26z"/><path d="m1.41 54.42q-.27 0-.43.2-.16.2-.16.55 0 .35.16.55.16.2.43.2.27 0 .43-.2.16-.2.16-.55 0-.35-.16-.55-.16-.2-.43-.2zm0-.2q.39 0 .62.26.23.26.23.7 0 .44-.23.7-.23.26-.62.26-.39 0-.62-.26-.23-.26-.23-.7 0-.43.23-.7.23-.26.62-.26z"/><path d="m2.48 54.25h.25v.76h.91v-.76h.25v1.85h-.25v-.88h-.91v.88h-.25z"/><path d="m10.17 54.42q-.27 0-.43.2-.16.2-.16.55 0 .35.16.55.16.2.43.2.27 0 .43-.2.16-.2.16-.55 0-.35-.16-.55-.16-.2-.43-.2zm0-.2q.39 0 .62.26.23.26.23.7 0 .44-.23.7-.23.26-.62.26-.39 0-.62-.26-.23-.26-.23-.7 0-.43.23-.7.23-.26.62-.26z"/><path d="m11.23 54.25h.25v.76h.91v-.76h.25v1.85h-.25v-.88h-.91v.88h-.25z"/><path d="m19.01 49.39q-.27 0-.43.2-.16.2-.16.55 0 .35.16.55.16.2.43.2.27 0 .43-.2.16-.2.16-.55 0-.35-.16-.55-.16-.2-.43-.2zm0-.21q.39 0 .62.26.23.26.23.7 0 .44-.23.7-.23.26-.62.26-.39 0-.62-.26-.23-.26-.23-.7 0-.43.23-.7.23-.26.62-.26z"/><path d="m20.08 49.22h.25v.76h.91v-.76h.25v1.85h-.25v-.88h-.91v.88h-.25z"/><path d="m19.05 39.14q-.27 0-.43.2-.16.2-.16.55 0 .35.16.55.16.2.43.2.27 0 .43-.2.16-.2.16-.55 0-.35-.16-.55-.16-.2-.43-.2zm0-.21q.39 0 .62.26.23.26.23.7 0 .44-.23.7-.23.26-.62.26-.39 0-.62-.26-.23-.26-.23-.7 0-.43.23-.7.23-.26.62-.26z"/><path d="m20.11 38.97h.25v.76h.91v-.76h.25v1.85h-.25v-.88h-.91v.88h-.25z"/></g></g></svg>