<svg xmlns="http://www.w3.org/2000/svg" xmlns:xlink="http://www.w3.org/1999/xlink" width="63.69mm" height="56.7mm" version="1.2" viewBox="0 0 63.69 56.7"><desc>Generated by the Chemistry Development Kit (http://github.com/cdk)</desc><g fill="#FF0D0D" stroke="#000" stroke-linecap="round" stroke-linejoin="round" stroke-width=".21"><rect width="64" height="57" x="0" y="0" fill="#FFF" stroke="none"/><g id="mol1" class="mol"><line id="mol1bnd1" x1="61.28" x2="56.3" y1=".68" y2="1.68" class="bond"/><line id="mol1bnd2" x1="56.3" x2="54.67" y1="1.68" y2="6.49" class="bond"/><line id="mol1bnd3" x1="54.67" x2="49.69" y1="6.49" y2="7.49" class="bond"/><line id="mol1bnd4" x1="49.69" x2="48.06" y1="7.49" y2="12.3" class="bond"/><line id="mol1bnd5" x1="48.06" x2="43.08" y1="12.3" y2="13.29" class="bond"/><line id="mol1bnd6" x1="43.08" x2="39.73" y1="13.29" y2="9.48" class="bond"/><line id="mol1bnd7" x1="43.08" x2="41.45" y1="13.29" y2="18.11" class="bond"/><line id="mol1bnd8" x1="41.45" x2="44.29" y1="18.11" y2="22.2" class="bond"/><line id="mol1bnd9" x1="44.29" x2="41.45" y1="22.2" y2="26.23" class="bond"/><line id="mol1bnd10" x1="41.45" x2="36.61" y1="26.23" y2="24.64" class="bond"/><line id="mol1bnd11" x1="36.61" x2="32.31" y1="24.64" y2="27.08" class="bond"/><line id="mol1bnd12" x1="32.31" x2="32.31" y1="27.08" y2="32.26" class="bond"/><line id="mol1bnd13" x1="32.31" x2="27.8" y1="32.26" y2="34.8" class="bond"/><g id="mol1bnd14" class="bond"><line x1="23.4" x2="27.8" y1="32.26" y2="34.8"/><line x1="24.21" x2="27.81" y1="31.79" y2="33.87"/></g><line id="mol1bnd15" x1="23.4" x2="19.1" y1="32.26" y2="34.8" class="bond"/><line id="mol1bnd16" x1="19.1" x2="14.66" y1="34.8" y2="32.26" class="bond"/><line id="mol1bnd17" x1="14.66" x2="11.45" y1="32.26" y2="34.12" class="bond"/><line id="mol1bnd18" x1="10.27" x2="10.28" y1="36.19" y2="39.89" class="bond"/><line id="mol1bnd19" x1="10.28" x2="7.01" y1="39.89" y2="41.8" class="bond"/><line id="mol1bnd20" x1="5.83" x2="5.83" y1="43.86" y2="47.57" class="bond"/><line id="mol1bnd21" x1="5.83" x2="1.42" y1="47.57" y2="50.1" class="bond"/><line id="mol1bnd22" x1="1.42" x2="1.42" y1="50.1" y2="53.8" class="bond"/><line id="mol1bnd23" x1="5.83" x2="10.19" y1="47.57" y2="50.1" class="bond"/><line id="mol1bnd24" x1="10.19" x2="10.18" y1="50.1" y2="53.8" class="bond"/><line id="mol1bnd25" x1="10.19" x2="14.63" y1="50.1" y2="47.58" class="bond"/><line id="mol1bnd26" x1="14.63" x2="17.83" y1="47.58" y2="49.45" class="bond"/><line id="mol1bnd27" x1="14.63" x2="14.64" y1="47.58" y2="42.42" class="bond"/><line id="mol1bnd28" x1="10.28" x2="14.64" y1="39.89" y2="42.42" class="bond"/><line id="mol1bnd29" x1="14.64" x2="17.86" y1="42.42" y2="40.57" class="bond"/><line id="mol1bnd30" x1="14.66" x2="14.66" y1="32.26" y2="27.08" class="bond"/><line id="mol1bnd31" x1="14.66" x2="19.1" y1="27.08" y2="24.64" class="bond"/><line id="mol1bnd32" x1="19.1" x2="23.4" y1="24.64" y2="27.08" class="bond"/><line id="mol1bnd33" x1="23.4" x2="23.4" y1="32.26" y2="27.08" class="bond"/><line id="mol1bnd34" x1="23.4" x2="23.42" y1="27.08" y2="22" class="bond"/><line id="mol1bnd35" x1="23.4" x2="27.8" y1="27.08" y2="24.64" class="bond"/><line id="mol1bnd36" x1="32.31" x2="27.8" y1="27.08" y2="24.64" class="bond"/><line id="mol1bnd37" x1="27.8" x2="27.8" y1="24.64" y2="19.66" class="bond"/><line id="mol1bnd38" x1="27.8" x2="32.31" y1="19.66" y2="17.09" class="bond"/><line id="mol1bnd39" x1="32.31" x2="36.61" y1="17.09" y2="19.66" class="bond"/><line id="mol1bnd40" x1="41.45" x2="36.61" y1="18.11" y2="19.66" class="bond"/><line id="mol1bnd41" x1="36.61" x2="36.61" y1="24.64" y2="19.66" class="bond"/><line id="mol1bnd42" x1="36.61" x2="37.18" y1="19.66" y2="14.62" class="bond"/><line id="mol1bnd43" x1="54.67" x2="58.02" y1="6.49" y2="10.31" class="bond"/><line id="mol1bnd44" x1="58.02" x2="63" y1="10.31" y2="9.31" class="bond"/><line id="mol1bnd45" x1="58.02" x2="56.39" y1="10.31" y2="15.12" class="bond"/><path id="mol1atm18" stroke="none" d="M10.27 34.06q-.27 .0 -.43 .2q-.16 .2 -.16 .55q.0 .35 .16 .55q.16 .2 .43 .2q.27 .0 .43 -.2q.16 -.2 .16 -.55q.0 -.35 -.16 -.55q-.16 -.2 -.43 -.2zM10.27 33.85q.39 .0 .62 .26q.23 .26 .23 .7q.0 .44 -.23 .7q-.23 .26 -.62 .26q-.39 .0 -.62 -.26q-.23 -.26 -.23 -.7q.0 -.43 .23 -.7q.23 -.26 .62 -.26z" class="atom"/><path id="mol1atm20" stroke="none" d="M5.84 41.73q-.27 .0 -.43 .2q-.16 .2 -.16 .55q.0 .35 .16 .55q.16 .2 .43 .2q.27 .0 .43 -.2q.16 -.2 .16 -.55q.0 -.35 -.16 -.55q-.16 -.2 -.43 -.2zM5.84 41.53q.39 .0 .62 .26q.23 .26 .23 .7q.0 .44 -.23 .7q-.23 .26 -.62 .26q-.39 .0 -.62 -.26q-.23 -.26 -.23 -.7q.0 -.43 .23 -.7q.23 -.26 .62 -.26z" class="atom"/><g id="mol1atm23" class="atom"><path stroke="none" d="M1.41 54.42q-.27 .0 -.43 .2q-.16 .2 -.16 .55q.0 .35 .16 .55q.16 .2 .43 .2q.27 .0 .43 -.2q.16 -.2 .16 -.55q.0 -.35 -.16 -.55q-.16 -.2 -.43 -.2zM1.41 54.22q.39 .0 .62 .26q.23 .26 .23 .7q.0 .44 -.23 .7q-.23 .26 -.62 .26q-.39 .0 -.62 -.26q-.23 -.26 -.23 -.7q.0 -.43 .23 -.7q.23 -.26 .62 -.26z"/><path stroke="none" d="M2.48 54.25h.25v.76h.91v-.76h.25v1.85h-.25v-.88h-.91v.88h-.25v-1.85z"/></g><g id="mol1atm25" class="atom"><path stroke="none" d="M10.17 54.42q-.27 .0 -.43 .2q-.16 .2 -.16 .55q.0 .35 .16 .55q.16 .2 .43 .2q.27 .0 .43 -.2q.16 -.2 .16 -.55q.0 -.35 -.16 -.55q-.16 -.2 -.43 -.2zM10.17 54.22q.39 .0 .62 .26q.23 .26 .23 .7q.0 .44 -.23 .7q-.23 .26 -.62 .26q-.39 .0 -.62 -.26q-.23 -.26 -.23 -.7q.0 -.43 .23 -.7q.23 -.26 .62 -.26z"/><path stroke="none" d="M11.23 54.25h.25v.76h.91v-.76h.25v1.85h-.25v-.88h-.91v.88h-.25v-1.85z"/></g><g id="mol1atm27" class="atom"><path stroke="none" d="M19.01 49.39q-.27 .0 -.43 .2q-.16 .2 -.16 .55q.0 .35 .16 .55q.16 .2 .43 .2q.27 .0 .43 -.2q.16 -.2 .16 -.55q.0 -.35 -.16 -.55q-.16 -.2 -.43 -.2zM19.01 49.18q.39 .0 .62 .26q.23 .26 .23 .7q.0 .44 -.23 .7q-.23 .26 -.62 .26q-.39 .0 -.62 -.26q-.23 -.26 -.23 -.7q.0 -.43 .23 -.7q.23 -.26 .62 -.26z"/><path stroke="none" d="M20.08 49.22h.25v.76h.91v-.76h.25v1.85h-.25v-.88h-.91v.88h-.25v-1.85z"/></g><g id="mol1atm29" class="atom"><path stroke="none" d="M19.05 39.14q-.27 .0 -.43 .2q-.16 .2 -.16 .55q.0 .35 .16 .55q.16 .2 .43 .2q.27 .0 .43 -.2q.16 -.2 .16 -.55q.0 -.35 -.16 -.55q-.16 -.2 -.43 -.2zM19.05 38.93q.39 .0 .62 .26q.23 .26 .23 .7q.0 .44 -.23 .7q-.23 .26 -.62 .26q-.39 .0 -.62 -.26q-.23 -.26 -.23 -.7q.0 -.43 .23 -.7q.23 -.26 .62 -.26z"/><path stroke="none" d="M20.11 38.97h.25v.76h.91v-.76h.25v1.85h-.25v-.88h-.91v.88h-.25v-1.85z"/></g></g></g></svg>