<svg xmlns="http://www.w3.org/2000/svg" xmlns:xlink="http://www.w3.org/1999/xlink" width="58.87mm" height="41.15mm" version="1.2" viewBox="0 0 58.87 41.15"><desc>Generated by the Chemistry Development Kit (http://github.com/cdk)</desc><g fill="#FF0D0D" stroke="#000" stroke-linecap="round" stroke-linejoin="round" stroke-width=".21"><rect width="59" height="42" x="0" y="0" fill="#FFF" stroke="none"/><g id="mol1" class="mol"><g id="mol1bnd1" class="bond"><line x1="33.43" x2="33.43" y1="28.09" y2="24.15"/><line x1="34.24" x2="34.24" y1="28.09" y2="24.15"/></g><line id="mol1bnd2" x1="33.84" x2="38.24" y1="24.39" y2="21.85" class="bond"/><g id="mol1bnd3" class="bond"><line x1="38.24" x2="38.24" y1="21.85" y2="16.77"/><line x1="37.43" x2="37.43" y1="21.38" y2="17.24"/></g><line id="mol1bnd4" x1="38.24" x2="42.64" y1="16.77" y2="14.23" class="bond"/><g id="mol1bnd5" class="bond"><line x1="42.64" x2="42.64" y1="9.14" y2="14.23"/><line x1="43.45" x2="43.45" y1="9.61" y2="13.76"/></g><line id="mol1bnd6" x1="42.64" x2="39.42" y1="9.14" y2="7.29" class="bond"/><line id="mol1bnd7" x1="42.64" x2="47.04" y1="9.14" y2="6.6" class="bond"/><line id="mol1bnd8" x1="47.04" x2="47.04" y1="6.6" y2="2.9" class="bond"/><g id="mol1bnd9" class="bond"><line x1="51.44" x2="47.04" y1="9.14" y2="6.6"/><line x1="50.63" x2="47.04" y1="9.61" y2="7.54"/></g><line id="mol1bnd10" x1="51.44" x2="51.44" y1="9.14" y2="14.22" class="bond"/><line id="mol1bnd11" x1="51.44" x2="54.66" y1="14.22" y2="16.08" class="bond"/><g id="mol1bnd12" class="bond"><line x1="47.04" x2="51.44" y1="16.76" y2="14.22"/><line x1="47.04" x2="50.63" y1="15.82" y2="13.75"/></g><line id="mol1bnd13" x1="42.64" x2="47.04" y1="14.23" y2="16.76" class="bond"/><line id="mol1bnd14" x1="47.04" x2="47.04" y1="16.76" y2="20.47" class="bond"/><line id="mol1bnd15" x1="38.24" x2="35.02" y1="16.77" y2="14.91" class="bond"/><line id="mol1bnd16" x1="32.65" x2="29.43" y1="14.91" y2="16.77" class="bond"/><g id="mol1bnd17" class="bond"><line x1="29.43" x2="25.03" y1="16.77" y2="14.23"/><line x1="28.62" x2="25.03" y1="17.24" y2="15.16"/></g><line id="mol1bnd18" x1="25.03" x2="20.63" y1="14.23" y2="16.77" class="bond"/><line id="mol1bnd19" x1="20.63" x2="17.41" y1="16.77" y2="14.91" class="bond"/><g id="mol1bnd20" class="bond"><line x1="20.63" x2="20.63" y1="16.77" y2="21.85"/><line x1="21.44" x2="21.44" y1="17.24" y2="21.38"/></g><line id="mol1bnd21" x1="20.63" x2="16.23" y1="21.85" y2="24.39" class="bond"/><line id="mol1bnd22" x1="16.23" x2="16.23" y1="24.39" y2="28.09" class="bond"/><line id="mol1bnd23" x1="15.05" x2="11.83" y1="30.15" y2="32.01" class="bond"/><line id="mol1bnd24" x1="11.83" x2="11.83" y1="32.01" y2="37.09" class="bond"/><line id="mol1bnd25" x1="11.83" x2="8.62" y1="37.09" y2="38.95" class="bond"/><line id="mol1bnd26" x1="11.83" x2="7.43" y1="32.01" y2="29.47" class="bond"/><line id="mol1bnd27" x1="7.43" x2="4.21" y1="29.47" y2="31.33" class="bond"/><line id="mol1bnd28" x1="7.43" x2="7.43" y1="29.47" y2="24.39" class="bond"/><line id="mol1bnd29" x1="7.43" x2="4.21" y1="24.39" y2="22.54" class="bond"/><line id="mol1bnd30" x1="7.43" x2="11.83" y1="24.39" y2="21.85" class="bond"/><line id="mol1bnd31" x1="16.23" x2="11.83" y1="24.39" y2="21.85" class="bond"/><line id="mol1bnd32" x1="11.83" x2="11.83" y1="21.85" y2="18.15" class="bond"/><line id="mol1bnd33" x1="20.63" x2="25.03" y1="21.85" y2="24.39" class="bond"/><line id="mol1bnd34" x1="25.03" x2="25.03" y1="24.39" y2="28.09" class="bond"/><g id="mol1bnd35" class="bond"><line x1="25.03" x2="29.43" y1="24.39" y2="21.85"/><line x1="25.03" x2="28.62" y1="23.45" y2="21.38"/></g><line id="mol1bnd36" x1="33.84" x2="29.43" y1="24.39" y2="21.85" class="bond"/><line id="mol1bnd37" x1="29.43" x2="29.43" y1="16.77" y2="21.85" class="bond"/><path id="mol1atm1" stroke="none" d="M33.84 28.71q-.27 .0 -.43 .2q-.16 .2 -.16 .55q.0 .35 .16 .55q.16 .2 .43 .2q.27 .0 .43 -.2q.16 -.2 .16 -.55q.0 -.35 -.16 -.55q-.16 -.2 -.43 -.2zM33.84 28.51q.39 .0 .62 .26q.23 .26 .23 .7q.0 .44 -.23 .7q-.23 .26 -.62 .26q-.39 .0 -.62 -.26q-.23 -.26 -.23 -.7q.0 -.43 .23 -.7q.23 -.26 .62 -.26z" class="atom"/><g id="mol1atm7" class="atom"><path stroke="none" d="M38.24 5.85q-.27 .0 -.43 .2q-.16 .2 -.16 .55q.0 .35 .16 .55q.16 .2 .43 .2q.27 .0 .43 -.2q.16 -.2 .16 -.55q.0 -.35 -.16 -.55q-.16 -.2 -.43 -.2zM38.24 5.65q.39 .0 .62 .26q.23 .26 .23 .7q.0 .44 -.23 .7q-.23 .26 -.62 .26q-.39 .0 -.62 -.26q-.23 -.26 -.23 -.7q.0 -.43 .23 -.7q.23 -.26 .62 -.26z"/><path stroke="none" d="M35.77 5.68h.25v.76h.91v-.76h.25v1.85h-.25v-.88h-.91v.88h-.25v-1.85z"/></g><g id="mol1atm9" class="atom"><path stroke="none" d="M47.04 .76q-.27 .0 -.43 .2q-.16 .2 -.16 .55q.0 .35 .16 .55q.16 .2 .43 .2q.27 .0 .43 -.2q.16 -.2 .16 -.55q.0 -.35 -.16 -.55q-.16 -.2 -.43 -.2zM47.04 .56q.39 .0 .62 .26q.23 .26 .23 .7q.0 .44 -.23 .7q-.23 .26 -.62 .26q-.39 .0 -.62 -.26q-.23 -.26 -.23 -.7q.0 -.43 .23 -.7q.23 -.26 .62 -.26z"/><path stroke="none" d="M48.1 .59h.25v.76h.91v-.76h.25v1.85h-.25v-.88h-.91v.88h-.25v-1.85z"/></g><g id="mol1atm12" class="atom"><path stroke="none" d="M55.84 16.0q-.27 .0 -.43 .2q-.16 .2 -.16 .55q.0 .35 .16 .55q.16 .2 .43 .2q.27 .0 .43 -.2q.16 -.2 .16 -.55q.0 -.35 -.16 -.55q-.16 -.2 -.43 -.2zM55.84 15.8q.39 .0 .62 .26q.23 .26 .23 .7q.0 .44 -.23 .7q-.23 .26 -.62 .26q-.39 .0 -.62 -.26q-.23 -.26 -.23 -.7q.0 -.43 .23 -.7q.23 -.26 .62 -.26z"/><path stroke="none" d="M56.9 15.83h.25v.76h.91v-.76h.25v1.85h-.25v-.88h-.91v.88h-.25v-1.85z"/></g><g id="mol1atm14" class="atom"><path stroke="none" d="M47.04 21.09q-.27 .0 -.43 .2q-.16 .2 -.16 .55q.0 .35 .16 .55q.16 .2 .43 .2q.27 .0 .43 -.2q.16 -.2 .16 -.55q.0 -.35 -.16 -.55q-.16 -.2 -.43 -.2zM47.04 20.89q.39 .0 .62 .26q.23 .26 .23 .7q.0 .44 -.23 .7q-.23 .26 -.62 .26q-.39 .0 -.62 -.26q-.23 -.26 -.23 -.7q.0 -.43 .23 -.7q.23 -.26 .62 -.26z"/><path stroke="none" d="M48.1 20.92h.25v.76h.91v-.76h.25v1.85h-.25v-.88h-.91v.88h-.25v-1.85z"/></g><path id="mol1atm15" stroke="none" d="M33.84 13.47q-.27 .0 -.43 .2q-.16 .2 -.16 .55q.0 .35 .16 .55q.16 .2 .43 .2q.27 .0 .43 -.2q.16 -.2 .16 -.55q.0 -.35 -.16 -.55q-.16 -.2 -.43 -.2zM33.84 13.27q.39 .0 .62 .26q.23 .26 .23 .7q.0 .44 -.23 .7q-.23 .26 -.62 .26q-.39 .0 -.62 -.26q-.23 -.26 -.23 -.7q.0 -.43 .23 -.7q.23 -.26 .62 -.26z" class="atom"/><g id="mol1atm19" class="atom"><path stroke="none" d="M16.23 13.47q-.27 .0 -.43 .2q-.16 .2 -.16 .55q.0 .35 .16 .55q.16 .2 .43 .2q.27 .0 .43 -.2q.16 -.2 .16 -.55q.0 -.35 -.16 -.55q-.16 -.2 -.43 -.2zM16.23 13.27q.39 .0 .62 .26q.23 .26 .23 .7q.0 .44 -.23 .7q-.23 .26 -.62 .26q-.39 .0 -.62 -.26q-.23 -.26 -.23 -.7q.0 -.43 .23 -.7q.23 -.26 .62 -.26z"/><path stroke="none" d="M13.76 13.3h.25v.76h.91v-.76h.25v1.85h-.25v-.88h-.91v.88h-.25v-1.85z"/></g><path id="mol1atm22" stroke="none" d="M16.23 28.72q-.27 .0 -.43 .2q-.16 .2 -.16 .55q.0 .35 .16 .55q.16 .2 .43 .2q.27 .0 .43 -.2q.16 -.2 .16 -.55q.0 -.35 -.16 -.55q-.16 -.2 -.43 -.2zM16.23 28.51q.39 .0 .62 .26q.23 .26 .23 .7q.0 .44 -.23 .7q-.23 .26 -.62 .26q-.39 .0 -.62 -.26q-.23 -.26 -.23 -.7q.0 -.43 .23 -.7q.23 -.26 .62 -.26z" class="atom"/><g id="mol1atm25" class="atom"><path stroke="none" d="M7.44 38.88q-.27 .0 -.43 .2q-.16 .2 -.16 .55q.0 .35 .16 .55q.16 .2 .43 .2q.27 .0 .43 -.2q.16 -.2 .16 -.55q.0 -.35 -.16 -.55q-.16 -.2 -.43 -.2zM7.44 38.68q.39 .0 .62 .26q.23 .26 .23 .7q.0 .44 -.23 .7q-.23 .26 -.62 .26q-.39 .0 -.62 -.26q-.23 -.26 -.23 -.7q.0 -.43 .23 -.7q.23 -.26 .62 -.26z"/><path stroke="none" d="M4.96 38.71h.25v.76h.91v-.76h.25v1.85h-.25v-.88h-.91v.88h-.25v-1.85z"/></g><g id="mol1atm27" class="atom"><path stroke="none" d="M3.03 31.26q-.27 .0 -.43 .2q-.16 .2 -.16 .55q.0 .35 .16 .55q.16 .2 .43 .2q.27 .0 .43 -.2q.16 -.2 .16 -.55q.0 -.35 -.16 -.55q-.16 -.2 -.43 -.2zM3.03 31.06q.39 .0 .62 .26q.23 .26 .23 .7q.0 .44 -.23 .7q-.23 .26 -.62 .26q-.39 .0 -.62 -.26q-.23 -.26 -.23 -.7q.0 -.43 .23 -.7q.23 -.26 .62 -.26z"/><path stroke="none" d="M.56 31.09h.25v.76h.91v-.76h.25v1.85h-.25v-.88h-.91v.88h-.25v-1.85z"/></g><g id="mol1atm29" class="atom"><path stroke="none" d="M3.03 21.1q-.27 .0 -.43 .2q-.16 .2 -.16 .55q.0 .35 .16 .55q.16 .2 .43 .2q.27 .0 .43 -.2q.16 -.2 .16 -.55q.0 -.35 -.16 -.55q-.16 -.2 -.43 -.2zM3.03 20.9q.39 .0 .62 .26q.23 .26 .23 .7q.0 .44 -.23 .7q-.23 .26 -.62 .26q-.39 .0 -.62 -.26q-.23 -.26 -.23 -.7q.0 -.43 .23 -.7q.23 -.26 .62 -.26z"/><path stroke="none" d="M.56 20.93h.25v.76h.91v-.76h.25v1.85h-.25v-.88h-.91v.88h-.25v-1.85z"/></g><g id="mol1atm31" class="atom"><path stroke="none" d="M11.83 16.01q-.27 .0 -.43 .2q-.16 .2 -.16 .55q.0 .35 .16 .55q.16 .2 .43 .2q.27 .0 .43 -.2q.16 -.2 .16 -.55q.0 -.35 -.16 -.55q-.16 -.2 -.43 -.2zM11.83 15.81q.39 .0 .62 .26q.23 .26 .23 .7q.0 .44 -.23 .7q-.23 .26 -.62 .26q-.39 .0 -.62 -.26q-.23 -.26 -.23 -.7q.0 -.43 .23 -.7q.23 -.26 .62 -.26z"/><path stroke="none" d="M12.89 15.84h.25v.76h.91v-.76h.25v1.85h-.25v-.88h-.91v.88h-.25v-1.85z"/></g><g id="mol1atm33" class="atom"><path stroke="none" d="M25.03 28.71q-.27 .0 -.43 .2q-.16 .2 -.16 .55q.0 .35 .16 .55q.16 .2 .43 .2q.27 .0 .43 -.2q.16 -.2 .16 -.55q.0 -.35 -.16 -.55q-.16 -.2 -.43 -.2zM25.03 28.51q.39 .0 .62 .26q.23 .26 .23 .7q.0 .44 -.23 .7q-.23 .26 -.62 .26q-.39 .0 -.62 -.26q-.23 -.26 -.23 -.7q.0 -.43 .23 -.7q.23 -.26 .62 -.26z"/><path stroke="none" d="M26.09 28.54h.25v.76h.91v-.76h.25v1.85h-.25v-.88h-.91v.88h-.25v-1.85z"/></g></g></g></svg>