<svg xmlns="http://www.w3.org/2000/svg" xmlns:xlink="http://www.w3.org/1999/xlink" width="50.64mm" height="29.85mm" version="1.2" viewBox="0 0 50.64 29.85"><desc>Generated by the Chemistry Development Kit (http://github.com/cdk)</desc><g fill="#FF0D0D" stroke="#000" stroke-linecap="round" stroke-linejoin="round" stroke-width=".21"><rect width="51" height="30" x="0" y="0" fill="#FFF" stroke="none"/><g id="mol1" class="mol"><line id="mol1bnd1" x1=".68" x2="5.68" y1="23.5" y2="24.38" class="bond"/><line id="mol1bnd2" x1="5.68" x2="3.95" y1="24.38" y2="29.15" class="bond"/><line id="mol1bnd3" x1="5.68" x2="5.68" y1="24.38" y2="19.3" class="bond"/><line id="mol1bnd4" x1="5.68" x2="10.09" y1="19.3" y2="16.76" class="bond"/><line id="mol1bnd5" x1="10.09" x2="14.49" y1="16.76" y2="19.3" class="bond"/><line id="mol1bnd6" x1="14.49" x2="14.49" y1="19.3" y2="14.22" class="bond"/><line id="mol1bnd7" x1="14.49" x2="14.49" y1="19.3" y2="24.38" class="bond"/><g id="mol1bnd8" class="bond"><line x1="14.49" x2="18.89" y1="24.38" y2="26.92"/><line x1="15.3" x2="18.89" y1="23.91" y2="25.98"/></g><line id="mol1bnd9" x1="18.89" x2="23.26" y1="26.92" y2="24.38" class="bond"/><line id="mol1bnd10" x1="23.26" x2="23.26" y1="24.38" y2="19.3" class="bond"/><line id="mol1bnd11" x1="23.26" x2="27.66" y1="19.3" y2="21.84" class="bond"/><line id="mol1bnd12" x1="23.26" x2="18.89" y1="19.3" y2="16.76" class="bond"/><line id="mol1bnd13" x1="14.49" x2="18.89" y1="19.3" y2="16.76" class="bond"/><line id="mol1bnd14" x1="18.89" x2="18.89" y1="16.76" y2="11.68" class="bond"/><line id="mol1bnd15" x1="18.89" x2="23.26" y1="11.68" y2="9.14" class="bond"/><line id="mol1bnd16" x1="23.26" x2="27.66" y1="9.14" y2="11.68" class="bond"/><line id="mol1bnd17" x1="27.66" x2="32.07" y1="11.68" y2="9.14" class="bond"/><line id="mol1bnd18" x1="32.07" x2="27.67" y1="9.14" y2="6.6" class="bond"/><line id="mol1bnd19" x1="32.07" x2="32.07" y1="9.14" y2="4.06" class="bond"/><line id="mol1bnd20" x1="32.07" x2="36.47" y1="4.06" y2="1.52" class="bond"/><line id="mol1bnd21" x1="36.47" x2="40.87" y1="1.52" y2="4.06" class="bond"/><line id="mol1bnd22" x1="40.87" x2="44.09" y1="4.06" y2="2.2" class="bond"/><line id="mol1bnd23" x1="40.87" x2="40.87" y1="4.06" y2="9.14" class="bond"/><line id="mol1bnd24" x1="40.87" x2="42.61" y1="9.14" y2="13.91" class="bond"/><line id="mol1bnd25" x1="40.87" x2="45.87" y1="9.14" y2="8.26" class="bond"/><line id="mol1bnd26" x1="45.87" x2="47.12" y1="8.26" y2="4.84" class="bond"/><line id="mol1bnd27" x1="40.87" x2="36.47" y1="9.14" y2="11.68" class="bond"/><line id="mol1bnd28" x1="32.07" x2="36.47" y1="9.14" y2="11.68" class="bond"/><line id="mol1bnd29" x1="36.47" x2="36.47" y1="11.68" y2="16.76" class="bond"/><line id="mol1bnd30" x1="36.47" x2="32.07" y1="16.76" y2="19.3" class="bond"/><line id="mol1bnd31" x1="32.07" x2="27.66" y1="19.3" y2="16.76" class="bond"/><line id="mol1bnd32" x1="27.66" x2="27.66" y1="11.68" y2="16.76" class="bond"/><line id="mol1bnd33" x1="23.26" x2="27.66" y1="19.3" y2="16.76" class="bond"/><line id="mol1bnd34" x1="27.66" x2="23.27" y1="16.76" y2="14.22" class="bond"/><line id="mol1bnd35" x1="14.49" x2="10.09" y1="24.38" y2="26.92" class="bond"/><line id="mol1bnd36" x1="5.68" x2="10.09" y1="24.38" y2="26.92" class="bond"/><g id="mol1atm22" class="atom"><path stroke="none" d="M45.27 .76q-.27 .0 -.43 .2q-.16 .2 -.16 .55q.0 .35 .16 .55q.16 .2 .43 .2q.27 .0 .43 -.2q.16 -.2 .16 -.55q.0 -.35 -.16 -.55q-.16 -.2 -.43 -.2zM45.27 .56q.39 .0 .62 .26q.23 .26 .23 .7q.0 .44 -.23 .7q-.23 .26 -.62 .26q-.39 .0 -.62 -.26q-.23 -.26 -.23 -.7q.0 -.43 .23 -.7q.23 -.26 .62 -.26z"/><path stroke="none" d="M46.33 .59h.25v.76h.91v-.76h.25v1.85h-.25v-.88h-.91v.88h-.25v-1.85z"/></g><g id="mol1atm26" class="atom"><path stroke="none" d="M47.61 2.73q-.27 .0 -.43 .2q-.16 .2 -.16 .55q.0 .35 .16 .55q.16 .2 .43 .2q.27 .0 .43 -.2q.16 -.2 .16 -.55q.0 -.35 -.16 -.55q-.16 -.2 -.43 -.2zM47.61 2.53q.39 .0 .62 .26q.23 .26 .23 .7q.0 .44 -.23 .7q-.23 .26 -.62 .26q-.39 .0 -.62 -.26q-.23 -.26 -.23 -.7q.0 -.43 .23 -.7q.23 -.26 .62 -.26z"/><path stroke="none" d="M48.68 2.56h.25v.76h.91v-.76h.25v1.85h-.25v-.88h-.91v.88h-.25v-1.85z"/></g></g></g></svg>