<svg height="29.85mm" viewBox="0 0 50.64 29.85" width="50.64mm" xmlns="http://www.w3.org/2000/svg"><g fill="#ff0d0d" stroke="#000" stroke-linecap="round" stroke-linejoin="round" stroke-width=".21"><path d="m0 0h51v30h-51z" fill="#fff" stroke="none"/><path d="m.68 23.5 5 .88"/><path d="m5.68 24.38-1.73 4.77"/><path d="m5.68 24.38v-5.08"/><path d="m5.68 19.3 4.41-2.54"/><path d="m10.09 16.76 4.4 2.54"/><path d="m14.49 19.3v-5.08"/><path d="m14.49 19.3v5.08"/><path d="m14.49 24.38 4.4 2.54"/><path d="m15.3 23.91 3.59 2.07"/><path d="m18.89 26.92 4.37-2.54"/><path d="m23.26 24.38v-5.08"/><path d="m23.26 19.3 4.4 2.54"/><path d="m23.26 19.3-4.37-2.54"/><path d="m14.49 19.3 4.4-2.54"/><path d="m18.89 16.76v-5.08"/><path d="m18.89 11.68 4.37-2.54"/><path d="m23.26 9.14 4.4 2.54"/><path d="m27.66 11.68 4.41-2.54"/><path d="m32.07 9.14-4.4-2.54"/><path d="m32.07 9.14v-5.08"/><path d="m32.07 4.06 4.4-2.54"/><path d="m36.47 1.52 4.4 2.54"/><path d="m40.87 4.06 3.22-1.86"/><path d="m40.87 4.06v5.08"/><path d="m40.87 9.14 1.74 4.77"/><path d="m40.87 9.14 5-.88"/><path d="m45.87 8.26 1.25-3.42"/><path d="m40.87 9.14-4.4 2.54"/><path d="m32.07 9.14 4.4 2.54"/><path d="m36.47 11.68v5.08"/><path d="m36.47 16.76-4.4 2.54"/><path d="m32.07 19.3-4.41-2.54"/><path d="m27.66 11.68v5.08"/><path d="m23.26 19.3 4.4-2.54"/><path d="m27.66 16.76-4.39-2.54"/><path d="m14.49 24.38-4.4 2.54"/><path d="m5.68 24.38 4.41 2.54"/><g stroke="none"><path d="m45.27.76q-.27 0-.43.2-.16.2-.16.55 0 .35.16.55.16.2.43.2.27 0 .43-.2.16-.2.16-.55 0-.35-.16-.55-.16-.2-.43-.2zm0-.2q.39 0 .62.26.23.26.23.7 0 .44-.23.7-.23.26-.62.26-.39 0-.62-.26-.23-.26-.23-.7 0-.43.23-.7.23-.26.62-.26z"/><path d="m46.33.59h.25v.76h.91v-.76h.25v1.85h-.25v-.88h-.91v.88h-.25z"/><path d="m47.61 2.73q-.27 0-.43.2-.16.2-.16.55 0 .35.16.55.16.2.43.2.27 0 .43-.2.16-.2.16-.55 0-.35-.16-.55-.16-.2-.43-.2zm0-.2q.39 0 .62.26.23.26.23.7 0 .44-.23.7-.23.26-.62.26-.39 0-.62-.26-.23-.26-.23-.7 0-.43.23-.7.23-.26.62-.26z"/><path d="m48.68 2.56h.25v.76h.91v-.76h.25v1.85h-.25v-.88h-.91v.88h-.25z"/></g></g></svg>