<svg height="35.26mm" viewBox="0 0 32.19 35.26" width="32.19mm" xmlns="http://www.w3.org/2000/svg"><g fill="#ff0d0d" stroke="#000" stroke-linecap="round" stroke-linejoin="round" stroke-width=".21"><path d="m0 0h33v36h-33z" fill="#fff" stroke="none"/><path d="m6.28 2.2 3.22 1.86"/><path d="m9.5 4.06 4.4-2.54"/><path d="m18.3 4.06-4.4-2.54"/><path d="m17.48 4.53-3.58-2.07"/><path d="m18.3 4.06v5.11"/><path d="m13.9 11.67 4.4-2.5"/><path d="m13.9 10.74 3.58-2.04"/><path d="m13.9 11.67-4.4-2.5"/><path d="m9.5 4.06v5.11"/><path d="m10.31 4.53v4.17"/><path d="m9.5 9.17-3.21 1.86"/><path d="m3.92 11.04-3.22-1.84"/><path d="m13.9 11.67v5.11"/><path d="m13.9 16.78-4.4 2.54"/><path d="m9.5 19.32v5.05"/><path d="m10.31 19.79v4.11"/><path d="m9.5 24.37-3.22 1.84"/><path d="m5.09 28.27-.01 3.7"/><path d="m9.5 24.37 4.4 2.57"/><path d="m13.9 26.94v3.7"/><path d="m12.71 32.7-3.21 1.85"/><path d="m13.9 26.94 4.4-2.57"/><path d="m13.9 26 3.58-2.1"/><path d="m18.3 24.37v-5.05"/><path d="m18.3 19.32-4.4-2.54"/><path d="m17.48 19.79-3.58-2.07"/><path d="m18.3 19.32 4.4-2.54"/><path d="m22.7 16.78v-5.11"/><path d="m18.3 9.17 4.4 2.5"/><path d="m22.7 11.67 3.34-1.9"/><path d="m28.16 9.79 3.33 1.93"/><path d="m27.1 7.83v-3.77"/><path d="m27.1 4.06-4.4-2.54"/><path d="m18.3 4.06 4.4-2.54"/><g stroke="none"><path d="m5.1.76q-.27 0-.43.2-.16.2-.16.55 0 .35.16.55.16.2.43.2.27 0 .43-.2.16-.2.16-.55 0-.35-.16-.55-.16-.2-.43-.2zm0-.2q.39 0 .62.26.23.26.23.7 0 .44-.23.7-.23.26-.62.26-.39 0-.62-.26-.23-.26-.23-.7 0-.43.23-.7.23-.26.62-.26z"/><path d="m2.63.59h.25v.76h.91v-.76h.25v1.85h-.25v-.88h-.91v.88h-.25z"/><path d="m5.11 10.97q-.27 0-.43.2-.16.2-.16.55 0 .35.16.55.16.2.43.2.27 0 .43-.2.16-.2.16-.55 0-.35-.16-.55-.16-.2-.43-.2zm0-.21q.39 0 .62.26.23.26.23.7 0 .44-.23.7-.23.26-.62.26-.39 0-.62-.26-.23-.26-.23-.7 0-.43.23-.7.23-.26.62-.26z"/><path d="m5.09 26.14q-.27 0-.43.2-.16.2-.16.55 0 .35.16.55.16.2.43.2.27 0 .43-.2.16-.2.16-.55 0-.35-.16-.55-.16-.2-.43-.2zm0-.21q.39 0 .62.26.23.26.23.7 0 .44-.23.7-.23.26-.62.26-.39 0-.62-.26-.23-.26-.23-.7 0-.43.23-.7.23-.26.62-.26z"/><path d="m13.9 31.26q-.27 0-.43.2-.16.2-.16.55 0 .35.16.55.16.2.43.2.27 0 .43-.2.16-.2.16-.55 0-.35-.16-.55-.16-.2-.43-.2zm0-.2q.39 0 .62.26.23.26.23.7 0 .44-.23.7-.23.26-.62.26-.39 0-.62-.26-.23-.26-.23-.7 0-.43.23-.7.23-.26.62-.26z"/><path d="m26.4 8.25h.33l.82 1.54v-1.54h.24v1.85h-.34l-.82-1.54v1.54h-.24v-1.85z" fill="#3050f8"/></g></g></svg>