<svg height="20.33mm" viewBox="0 0 48.74 20.33" width="48.74mm" xmlns="http://www.w3.org/2000/svg"><g fill="#ff0d0d" stroke="#000" stroke-linecap="round" stroke-linejoin="round" stroke-width=".21"><path d="m0 0h49v21h-49z" fill="#fff" stroke="none"/><path d="m6.3 8.98 3.2 1.89"/><path d="m9.5 10.87-.04 5.08"/><path d="m10.31 11.34-.03 4.15"/><path d="m9.46 15.95 4.39 2.57"/><path d="m13.85 18.52 4.41-2.51"/><path d="m13.85 17.58 3.6-2.05"/><path d="m18.26 16.01.04-5.06"/><path d="m18.3 10.95-4.38-2.59"/><path d="m17.48 11.41-3.56-2.11"/><path d="m9.5 10.87 4.42-2.51"/><path d="m13.92 8.36.04-3.7"/><path d="m12.8 2.59-3.2-1.89"/><path d="m18.3 10.95 3.66-3.6"/><path d="m21.96 7.35 3.98 4.07"/><path d="m28.05 12.39 5.58-.18"/><path d="m26.91 13.77-.07 5.85"/><path d="m26.84 19.62 3.6-3.57"/><path d="m30.44 16.05 4.4 2.54"/><path d="m31.25 15.58 3.59 2.07"/><path d="m34.84 18.59 4.39-2.55"/><path d="m39.23 16.04 3.23 1.84"/><path d="m44.82 17.87 3.21-1.87"/><path d="m39.23 16.04-.02-5.09"/><path d="m38.42 15.57-.02-4.15"/><path d="m39.21 10.95 3.2-1.87"/><path d="m44.78 9.06 3.23 1.84"/><path d="m39.21 10.95-4.42-2.51"/><path d="m34.79 8.44-4.38 2.58"/><path d="m34.8 9.38-3.57 2.1"/><path d="m30.44 16.05-.03-5.03"/><path d="m30.41 11.02-3.48-3.56"/><path d="m21.96 7.35 4.97.11"/><path d="m26.84 19.62-5.1-.06"/><path d="m18.26 16.01 3.48 3.55"/><path d="m3.93 8.97-3.23 1.83"/><g stroke="none"><path d="m5.12 7.54q-.27 0-.43.2-.16.2-.16.55 0 .35.16.55.16.2.43.2.27 0 .43-.2.16-.2.16-.55 0-.35-.16-.55-.16-.2-.43-.2zm0-.21q.39 0 .62.26.23.26.23.7 0 .44-.23.7-.23.26-.62.26-.39 0-.62-.26-.23-.26-.23-.7 0-.43.23-.7.23-.26.62-.26z"/><path d="m13.97 2.53q-.27 0-.43.2-.16.2-.16.55 0 .35.16.55.16.2.43.2.27 0 .43-.2.16-.2.16-.55 0-.35-.16-.55-.16-.2-.43-.2zm0-.2q.39 0 .62.26.23.26.23.7 0 .44-.23.7-.23.26-.62.26-.39 0-.62-.26-.23-.26-.23-.7 0-.43.23-.7.23-.26.62-.26z"/><path d="m26.23 11.51h.33l.82 1.54v-1.54h.24v1.85h-.34l-.82-1.54v1.54h-.24v-1.85z" fill="#3050f8"/><path d="m43.64 17.81q-.27 0-.43.2-.16.2-.16.55 0 .35.16.55.16.2.43.2.27 0 .43-.2.16-.2.16-.55 0-.35-.16-.55-.16-.2-.43-.2zm0-.21q.39 0 .62.26.23.26.23.7 0 .44-.23.7-.23.26-.62.26-.39 0-.62-.26-.23-.26-.23-.7 0-.43.23-.7.23-.26.62-.26z"/><path d="m43.6 7.63q-.27 0-.43.2-.16.2-.16.55 0 .35.16.55.16.2.43.2.27 0 .43-.2.16-.2.16-.55 0-.35-.16-.55-.16-.2-.43-.2zm0-.2q.39 0 .62.26.23.26.23.7 0 .44-.23.7-.23.26-.62.26-.39 0-.62-.26-.23-.26-.23-.7 0-.43.23-.7.23-.26.62-.26z"/></g></g></svg>