<svg height="36.86mm" viewBox="0 0 32.19 36.86" width="32.19mm" xmlns="http://www.w3.org/2000/svg"><g fill="#ff0d0d" stroke="#000" stroke-linecap="round" stroke-linejoin="round" stroke-width=".21"><path d="m0 0h33v37h-33z" fill="#fff" stroke="none"/><path d="m31.49 15.94-3.33-1.93"/><path d="m27.1 12.05v-3.77"/><path d="m27.1 8.28-4.4-2.54"/><path d="m22.7 5.74-4.4 2.54"/><path d="m18.3 8.28-4.4-2.54"/><path d="m17.48 8.75-3.58-2.07"/><path d="m13.9 5.74-4.4 2.54"/><path d="m9.5 8.28v5.11"/><path d="m10.31 8.75v4.17"/><path d="m9.5 13.39 4.4 2.51"/><path d="m13.9 15.9 4.4-2.51"/><path d="m13.9 14.96 3.58-2.04"/><path d="m18.3 8.28v5.11"/><path d="m18.3 13.39 4.4 2.51"/><path d="m26.04 14-3.34 1.9"/><path d="m22.7 15.9v5.11"/><path d="m22.7 21.01-4.4 2.54"/><path d="m18.3 23.55-4.4-2.54"/><path d="m17.48 24.02-3.58-2.07"/><path d="m13.9 15.9v5.11"/><path d="m13.9 21.01-4.4 2.54"/><path d="m9.5 23.55v5.04"/><path d="m10.31 24.02v4.1"/><path d="m9.5 28.59 4.4 2.57"/><path d="m13.9 31.16 4.4-2.57"/><path d="m13.9 30.22 3.58-2.1"/><path d="m18.3 23.55v5.04"/><path d="m9.5 28.59-3.22 1.85"/><path d="m5.09 32.49-.01 3.7"/><path d="m9.5 23.55-3.22-1.86"/><path d="m9.5 13.39-3.21 1.87"/><path d="m3.92 15.26-3.22-1.84"/><path d="m9.5 8.28-3.22-1.85"/><path d="m5.1 4.36v-3.7"/><g stroke="none"><path d="m26.4 12.47h.33l.82 1.54v-1.54h.24v1.85h-.34l-.82-1.54v1.54h-.24v-1.85z" fill="#3050f8"/><path d="m5.09 30.36q-.27 0-.43.2-.16.2-.16.55 0 .35.16.55.16.2.43.2.27 0 .43-.2.16-.2.16-.55 0-.35-.16-.55-.16-.2-.43-.2zm0-.2q.39 0 .62.26.23.26.23.7 0 .44-.23.7-.23.26-.62.26-.39 0-.62-.26-.23-.26-.23-.7 0-.43.23-.7.23-.26.62-.26z"/><path d="m5.1 20.25q-.27 0-.43.2-.16.2-.16.55 0 .35.16.55.16.2.43.2.27 0 .43-.2.16-.2.16-.55 0-.35-.16-.55-.16-.2-.43-.2zm0-.2q.39 0 .62.26.23.26.23.7 0 .44-.23.7-.23.26-.62.26-.39 0-.62-.26-.23-.26-.23-.7 0-.43.23-.7.23-.26.62-.26z"/><path d="m2.63 20.08h.25v.76h.91v-.76h.25v1.85h-.25v-.88h-.91v.88h-.25z"/><path d="m5.11 15.19q-.27 0-.43.2-.16.2-.16.55 0 .35.16.55.16.2.43.2.27 0 .43-.2.16-.2.16-.55 0-.35-.16-.55-.16-.2-.43-.2zm0-.2q.39 0 .62.26.23.26.23.7 0 .44-.23.7-.23.26-.62.26-.39 0-.62-.26-.23-.26-.23-.7 0-.43.23-.7.23-.26.62-.26z"/><path d="m5.1 4.99q-.27 0-.43.2-.16.2-.16.55 0 .35.16.55.16.2.43.2.27 0 .43-.2.16-.2.16-.55 0-.35-.16-.55-.16-.2-.43-.2zm0-.21q.39 0 .62.26.23.26.23.7 0 .44-.23.7-.23.26-.62.26-.39 0-.62-.26-.23-.26-.23-.7 0-.43.23-.7.23-.26.62-.26z"/></g></g></svg>