<svg xmlns="http://www.w3.org/2000/svg" xmlns:xlink="http://www.w3.org/1999/xlink" width="32.19mm" height="36.86mm" version="1.2" viewBox="0 0 32.19 36.86"><desc>Generated by the Chemistry Development Kit (http://github.com/cdk)</desc><g fill="#FF0D0D" stroke="#000" stroke-linecap="round" stroke-linejoin="round" stroke-width=".21"><rect width="33" height="37" x="0" y="0" fill="#FFF" stroke="none"/><g id="mol1" class="mol"><line id="mol1bnd1" x1="31.49" x2="28.16" y1="15.94" y2="14.01" class="bond"/><line id="mol1bnd2" x1="27.1" x2="27.1" y1="12.05" y2="8.28" class="bond"/><line id="mol1bnd3" x1="27.1" x2="22.7" y1="8.28" y2="5.74" class="bond"/><line id="mol1bnd4" x1="22.7" x2="18.3" y1="5.74" y2="8.28" class="bond"/><g id="mol1bnd5" class="bond"><line x1="18.3" x2="13.9" y1="8.28" y2="5.74"/><line x1="17.48" x2="13.9" y1="8.75" y2="6.68"/></g><line id="mol1bnd6" x1="13.9" x2="9.5" y1="5.74" y2="8.28" class="bond"/><g id="mol1bnd7" class="bond"><line x1="9.5" x2="9.5" y1="8.28" y2="13.39"/><line x1="10.31" x2="10.31" y1="8.75" y2="12.92"/></g><line id="mol1bnd8" x1="9.5" x2="13.9" y1="13.39" y2="15.9" class="bond"/><g id="mol1bnd9" class="bond"><line x1="13.9" x2="18.3" y1="15.9" y2="13.39"/><line x1="13.9" x2="17.48" y1="14.96" y2="12.92"/></g><line id="mol1bnd10" x1="18.3" x2="18.3" y1="8.28" y2="13.39" class="bond"/><line id="mol1bnd11" x1="18.3" x2="22.7" y1="13.39" y2="15.9" class="bond"/><line id="mol1bnd12" x1="26.04" x2="22.7" y1="14" y2="15.9" class="bond"/><line id="mol1bnd13" x1="22.7" x2="22.7" y1="15.9" y2="21.01" class="bond"/><line id="mol1bnd14" x1="22.7" x2="18.3" y1="21.01" y2="23.55" class="bond"/><g id="mol1bnd15" class="bond"><line x1="18.3" x2="13.9" y1="23.55" y2="21.01"/><line x1="17.48" x2="13.9" y1="24.02" y2="21.95"/></g><line id="mol1bnd16" x1="13.9" x2="13.9" y1="15.9" y2="21.01" class="bond"/><line id="mol1bnd17" x1="13.9" x2="9.5" y1="21.01" y2="23.55" class="bond"/><g id="mol1bnd18" class="bond"><line x1="9.5" x2="9.5" y1="23.55" y2="28.59"/><line x1="10.31" x2="10.31" y1="24.02" y2="28.12"/></g><line id="mol1bnd19" x1="9.5" x2="13.9" y1="28.59" y2="31.16" class="bond"/><g id="mol1bnd20" class="bond"><line x1="13.9" x2="18.3" y1="31.16" y2="28.59"/><line x1="13.9" x2="17.48" y1="30.22" y2="28.12"/></g><line id="mol1bnd21" x1="18.3" x2="18.3" y1="23.55" y2="28.59" class="bond"/><line id="mol1bnd22" x1="9.5" x2="6.28" y1="28.59" y2="30.44" class="bond"/><line id="mol1bnd23" x1="5.09" x2="5.08" y1="32.49" y2="36.19" class="bond"/><line id="mol1bnd24" x1="9.5" x2="6.28" y1="23.55" y2="21.69" class="bond"/><line id="mol1bnd25" x1="9.5" x2="6.29" y1="13.39" y2="15.26" class="bond"/><line id="mol1bnd26" x1="3.92" x2=".7" y1="15.26" y2="13.42" class="bond"/><line id="mol1bnd27" x1="9.5" x2="6.28" y1="8.28" y2="6.43" class="bond"/><line id="mol1bnd28" x1="5.1" x2="5.1" y1="4.36" y2=".66" class="bond"/><path id="mol1atm2" fill="#3050F8" stroke="none" d="M26.4 12.47h.33l.82 1.54v-1.54h.24v1.85h-.34l-.82 -1.54v1.54h-.24v-1.85z" class="atom"/><path id="mol1atm19" stroke="none" d="M5.09 30.36q-.27 .0 -.43 .2q-.16 .2 -.16 .55q.0 .35 .16 .55q.16 .2 .43 .2q.27 .0 .43 -.2q.16 -.2 .16 -.55q.0 -.35 -.16 -.55q-.16 -.2 -.43 -.2zM5.09 30.16q.39 .0 .62 .26q.23 .26 .23 .7q.0 .44 -.23 .7q-.23 .26 -.62 .26q-.39 .0 -.62 -.26q-.23 -.26 -.23 -.7q.0 -.43 .23 -.7q.23 -.26 .62 -.26z" class="atom"/><g id="mol1atm21" class="atom"><path stroke="none" d="M5.1 20.25q-.27 .0 -.43 .2q-.16 .2 -.16 .55q.0 .35 .16 .55q.16 .2 .43 .2q.27 .0 .43 -.2q.16 -.2 .16 -.55q.0 -.35 -.16 -.55q-.16 -.2 -.43 -.2zM5.1 20.05q.39 .0 .62 .26q.23 .26 .23 .7q.0 .44 -.23 .7q-.23 .26 -.62 .26q-.39 .0 -.62 -.26q-.23 -.26 -.23 -.7q.0 -.43 .23 -.7q.23 -.26 .62 -.26z"/><path stroke="none" d="M2.63 20.08h.25v.76h.91v-.76h.25v1.85h-.25v-.88h-.91v.88h-.25v-1.85z"/></g><path id="mol1atm22" stroke="none" d="M5.11 15.19q-.27 .0 -.43 .2q-.16 .2 -.16 .55q.0 .35 .16 .55q.16 .2 .43 .2q.27 .0 .43 -.2q.16 -.2 .16 -.55q.0 -.35 -.16 -.55q-.16 -.2 -.43 -.2zM5.11 14.99q.39 .0 .62 .26q.23 .26 .23 .7q.0 .44 -.23 .7q-.23 .26 -.62 .26q-.39 .0 -.62 -.26q-.23 -.26 -.23 -.7q.0 -.43 .23 -.7q.23 -.26 .62 -.26z" class="atom"/><path id="mol1atm24" stroke="none" d="M5.1 4.99q-.27 .0 -.43 .2q-.16 .2 -.16 .55q.0 .35 .16 .55q.16 .2 .43 .2q.27 .0 .43 -.2q.16 -.2 .16 -.55q.0 -.35 -.16 -.55q-.16 -.2 -.43 -.2zM5.1 4.78q.39 .0 .62 .26q.23 .26 .23 .7q.0 .44 -.23 .7q-.23 .26 -.62 .26q-.39 .0 -.62 -.26q-.23 -.26 -.23 -.7q.0 -.43 .23 -.7q.23 -.26 .62 -.26z" class="atom"/></g></g></svg>