<svg height="51.742" viewBox="0 0 48.78 13.69" width="48.78mm" xmlns="http://www.w3.org/2000/svg"><g fill="#ff0d0d" stroke="#000" stroke-linecap="round" stroke-linejoin="round" stroke-width=".21"><path d="m0 0h49v14h-49z" fill="#fff" stroke="none"/><path d="m33.67 5.57-5.58.18"/><path d="m26.95 7.13-.07 5.85"/><path d="m26.88 12.98-5.1-.06"/><path d="m21.78 12.92-3.48-3.56"/><path d="m13.89 11.88 4.41-2.52"/><path d="m13.89 10.94 3.6-2.05"/><path d="m13.89 11.88-4.39-2.57"/><path d="m9.54 4.22-.04 5.09"/><path d="m10.35 4.7-.03 4.14"/><path d="m9.54 4.22 4.42-2.5"/><path d="m18.34 4.31-4.38-2.59"/><path d="m17.52 4.77-3.56-2.11"/><path d="m18.3 9.36.04-5.05"/><path d="m18.34 4.31 3.66-3.6"/><path d="m25.98 4.77-3.98-4.06"/><path d="m22 .71 4.97.11"/><path d="m26.97.82 3.48 3.56"/><path d="m34.83 1.79-4.38 2.59"/><path d="m34.84 2.73-3.57 2.11"/><path d="m34.83 1.79 4.42 2.52"/><path d="m39.27 9.39-.02-5.08"/><path d="m38.46 8.93-.02-4.15"/><path d="m39.27 9.39-4.39 2.56"/><path d="m30.48 9.41 4.4 2.54"/><path d="m31.29 8.94 3.59 2.07"/><path d="m26.88 12.98 3.6-3.57"/><path d="m30.45 4.38.03 5.03"/><path d="m39.27 9.39 3.23 1.85"/><path d="m44.86 11.23 3.21-1.87"/><path d="m39.25 4.31 3.2-1.88"/><path d="m44.82 2.42 3.23 1.84"/><path d="m9.54 4.22-3.2-1.88"/><path d="m3.97 2.32-3.23 1.83"/><path d="m9.5 9.31-3.23 1.83"/><path d="m3.91 11.12-3.21-1.88"/><g stroke="none"><path d="m26.27 4.86h.33l.82 1.54v-1.54h.24v1.85h-.34l-.82-1.54v1.54h-.24v-1.85z" fill="#3050f8"/><path d="m43.68 11.16q-.27 0-.43.2-.16.2-.16.55 0 .35.16.55.16.2.43.2.27 0 .43-.2.16-.2.16-.55 0-.35-.16-.55-.16-.2-.43-.2zm0-.2q.39 0 .62.26.23.26.23.7 0 .44-.23.7-.23.26-.62.26-.39 0-.62-.26-.23-.26-.23-.7 0-.43.23-.7.23-.26.62-.26z"/><path d="m43.64.99q-.27 0-.43.2-.16.2-.16.55 0 .35.16.55.16.2.43.2.27 0 .43-.2.16-.2.16-.55 0-.35-.16-.55-.16-.2-.43-.2zm0-.21q.39 0 .62.26.23.26.23.7 0 .44-.23.7-.23.26-.62.26-.39 0-.62-.26-.23-.26-.23-.7 0-.43.23-.7.23-.26.62-.26z"/><path d="m5.16.89q-.27 0-.43.2-.16.2-.16.55 0 .35.16.55.16.2.43.2.27 0 .43-.2.16-.2.16-.55 0-.35-.16-.55-.16-.2-.43-.2zm0-.2q.39 0 .62.26.23.26.23.7 0 .44-.23.7-.23.26-.62.26-.39 0-.62-.26-.23-.26-.23-.7 0-.43.23-.7.23-.26.62-.26z"/><path d="m5.09 11.06q-.27 0-.43.2-.16.2-.16.55 0 .35.16.55.16.2.43.2.27 0 .43-.2.16-.2.16-.55 0-.35-.16-.55-.16-.2-.43-.2zm0-.2q.39 0 .62.26.23.26.23.7 0 .44-.23.7-.23.26-.62.26-.39 0-.62-.26-.23-.26-.23-.7 0-.43.23-.7.23-.26.62-.26z"/></g></g></svg>