<svg xmlns="http://www.w3.org/2000/svg" xmlns:xlink="http://www.w3.org/1999/xlink" width="48.78mm" height="51.742" version="1.2" viewBox="0 0 48.78 13.69"><desc>Generated by the Chemistry Development Kit (http://github.com/cdk)</desc><g fill="#FF0D0D" stroke="#000" stroke-linecap="round" stroke-linejoin="round" stroke-width=".21"><rect width="49" height="14" x="0" y="0" fill="#FFF" stroke="none"/><g id="mol1" class="mol"><line id="mol1bnd1" x1="33.67" x2="28.09" y1="5.57" y2="5.75" class="bond"/><line id="mol1bnd2" x1="26.95" x2="26.88" y1="7.13" y2="12.98" class="bond"/><line id="mol1bnd3" x1="26.88" x2="21.78" y1="12.98" y2="12.92" class="bond"/><line id="mol1bnd4" x1="21.78" x2="18.3" y1="12.92" y2="9.36" class="bond"/><g id="mol1bnd5" class="bond"><line x1="13.89" x2="18.3" y1="11.88" y2="9.36"/><line x1="13.89" x2="17.49" y1="10.94" y2="8.89"/></g><line id="mol1bnd6" x1="13.89" x2="9.5" y1="11.88" y2="9.31" class="bond"/><g id="mol1bnd7" class="bond"><line x1="9.54" x2="9.5" y1="4.22" y2="9.31"/><line x1="10.35" x2="10.32" y1="4.7" y2="8.84"/></g><line id="mol1bnd8" x1="9.54" x2="13.96" y1="4.22" y2="1.72" class="bond"/><g id="mol1bnd9" class="bond"><line x1="18.34" x2="13.96" y1="4.31" y2="1.72"/><line x1="17.52" x2="13.96" y1="4.77" y2="2.66"/></g><line id="mol1bnd10" x1="18.3" x2="18.34" y1="9.36" y2="4.31" class="bond"/><line id="mol1bnd11" x1="18.34" x2="22" y1="4.31" y2=".71" class="bond"/><line id="mol1bnd12" x1="25.98" x2="22" y1="4.77" y2=".71" class="bond"/><line id="mol1bnd13" x1="22" x2="26.97" y1=".71" y2=".82" class="bond"/><line id="mol1bnd14" x1="26.97" x2="30.45" y1=".82" y2="4.38" class="bond"/><g id="mol1bnd15" class="bond"><line x1="34.83" x2="30.45" y1="1.79" y2="4.38"/><line x1="34.84" x2="31.27" y1="2.73" y2="4.84"/></g><line id="mol1bnd16" x1="34.83" x2="39.25" y1="1.79" y2="4.31" class="bond"/><g id="mol1bnd17" class="bond"><line x1="39.27" x2="39.25" y1="9.39" y2="4.31"/><line x1="38.46" x2="38.44" y1="8.93" y2="4.78"/></g><line id="mol1bnd18" x1="39.27" x2="34.88" y1="9.39" y2="11.95" class="bond"/><g id="mol1bnd19" class="bond"><line x1="30.48" x2="34.88" y1="9.41" y2="11.95"/><line x1="31.29" x2="34.88" y1="8.94" y2="11.01"/></g><line id="mol1bnd20" x1="26.88" x2="30.48" y1="12.98" y2="9.41" class="bond"/><line id="mol1bnd21" x1="30.45" x2="30.48" y1="4.38" y2="9.41" class="bond"/><line id="mol1bnd22" x1="39.27" x2="42.5" y1="9.39" y2="11.24" class="bond"/><line id="mol1bnd23" x1="44.86" x2="48.07" y1="11.23" y2="9.36" class="bond"/><line id="mol1bnd24" x1="39.25" x2="42.45" y1="4.31" y2="2.43" class="bond"/><line id="mol1bnd25" x1="44.82" x2="48.05" y1="2.42" y2="4.26" class="bond"/><line id="mol1bnd26" x1="9.54" x2="6.34" y1="4.22" y2="2.34" class="bond"/><line id="mol1bnd27" x1="3.97" x2=".74" y1="2.32" y2="4.15" class="bond"/><line id="mol1bnd28" x1="9.5" x2="6.27" y1="9.31" y2="11.14" class="bond"/><line id="mol1bnd29" x1="3.91" x2=".7" y1="11.12" y2="9.24" class="bond"/><path id="mol1atm2" fill="#3050F8" stroke="none" d="M26.27 4.86h.33l.82 1.54v-1.54h.24v1.85h-.34l-.82 -1.54v1.54h-.24v-1.85z" class="atom"/><path id="mol1atm19" stroke="none" d="M43.68 11.16q-.27 .0 -.43 .2q-.16 .2 -.16 .55q.0 .35 .16 .55q.16 .2 .43 .2q.27 .0 .43 -.2q.16 -.2 .16 -.55q.0 -.35 -.16 -.55q-.16 -.2 -.43 -.2zM43.68 10.96q.39 .0 .62 .26q.23 .26 .23 .7q.0 .44 -.23 .7q-.23 .26 -.62 .26q-.39 .0 -.62 -.26q-.23 -.26 -.23 -.7q.0 -.43 .23 -.7q.23 -.26 .62 -.26z" class="atom"/><path id="mol1atm21" stroke="none" d="M43.64 .99q-.27 .0 -.43 .2q-.16 .2 -.16 .55q.0 .35 .16 .55q.16 .2 .43 .2q.27 .0 .43 -.2q.16 -.2 .16 -.55q.0 -.35 -.16 -.55q-.16 -.2 -.43 -.2zM43.64 .78q.39 .0 .62 .26q.23 .26 .23 .7q.0 .44 -.23 .7q-.23 .26 -.62 .26q-.39 .0 -.62 -.26q-.23 -.26 -.23 -.7q.0 -.43 .23 -.7q.23 -.26 .62 -.26z" class="atom"/><path id="mol1atm23" stroke="none" d="M5.16 .89q-.27 .0 -.43 .2q-.16 .2 -.16 .55q.0 .35 .16 .55q.16 .2 .43 .2q.27 .0 .43 -.2q.16 -.2 .16 -.55q.0 -.35 -.16 -.55q-.16 -.2 -.43 -.2zM5.16 .69q.39 .0 .62 .26q.23 .26 .23 .7q.0 .44 -.23 .7q-.23 .26 -.62 .26q-.39 .0 -.62 -.26q-.23 -.26 -.23 -.7q.0 -.43 .23 -.7q.23 -.26 .62 -.26z" class="atom"/><path id="mol1atm25" stroke="none" d="M5.09 11.06q-.27 .0 -.43 .2q-.16 .2 -.16 .55q.0 .35 .16 .55q.16 .2 .43 .2q.27 .0 .43 -.2q.16 -.2 .16 -.55q.0 -.35 -.16 -.55q-.16 -.2 -.43 -.2zM5.09 10.86q.39 .0 .62 .26q.23 .26 .23 .7q.0 .44 -.23 .7q-.23 .26 -.62 .26q-.39 .0 -.62 -.26q-.23 -.26 -.23 -.7q.0 -.43 .23 -.7q.23 -.26 .62 -.26z" class="atom"/></g></g></svg>