<svg height="27.62mm" viewBox="0 0 49.78 27.62" width="49.78mm" xmlns="http://www.w3.org/2000/svg"><g fill="#ff0d0d" stroke="#000" stroke-linecap="round" stroke-linejoin="round" stroke-width=".21"><path d="m0 0h50v28h-50z" fill="#fff" stroke="none"/><path d="m49.08 15.95-3.34 1.92"/><path d="m43.62 17.87-3.34-1.93"/><path d="m40.28 15.94-4.4 2.54"/><path d="m35.88 18.48-4.4-2.54"/><path d="m31.48 15.94v-5.08"/><path d="m30.67 15.47v-4.14"/><path d="m31.48 10.86-4.4-2.54"/><path d="m27.08 8.32-4.4 2.54"/><path d="m27.08 9.26-3.59 2.07"/><path d="m22.68 10.86v5.08"/><path d="m22.68 15.94 4.4 2.54"/><path d="m23.49 15.47 3.59 2.07"/><path d="m31.48 15.94-4.4 2.54"/><path d="m27.08 18.48v5.08"/><path d="m22.68 26.1 4.4-2.54"/><path d="m22.68 25.16 3.59-2.07"/><path d="m22.68 26.1-4.37-2.54"/><path d="m13.9 26.1 4.41-2.54"/><path d="m13.9 25.16 3.59-2.07"/><path d="m13.9 26.1-4.4-2.54"/><path d="m9.5 18.48v5.08"/><path d="m10.31 18.95v4.14"/><path d="m9.5 18.48 4.4-2.54"/><path d="m18.31 18.48-4.41-2.54"/><path d="m17.49 18.95-3.59-2.07"/><path d="m18.31 23.56v-5.08"/><path d="m22.68 15.94-4.37 2.54"/><path d="m9.5 18.48-3.21-1.85"/><path d="m3.92 16.63-3.22 1.85"/><path d="m9.5 23.56-3.21 1.86"/><path d="m3.92 25.42-3.22-1.86"/><path d="m22.68 10.86-3.22-1.85"/><path d="m18.28 6.94v-3.7"/><path d="m27.08 8.32v-3.7"/><path d="m28.26 2.56 3.22-1.86"/><g stroke="none"><path d="m43.98 17.56h.33l.82 1.54v-1.54h.24v1.85h-.34l-.82-1.54v1.54h-.24v-1.85z" fill="#3050f8"/><path d="m43.98 19.62h.25v.76h.91v-.76h.25v1.85h-.25v-.88h-.91v.88h-.25z" fill="#3050f8"/><path d="m5.1 15.19q-.27 0-.43.2-.16.2-.16.55 0 .35.16.55.16.2.43.2.27 0 .43-.2.16-.2.16-.55 0-.35-.16-.55-.16-.2-.43-.2zm0-.21q.39 0 .62.26.23.26.23.7 0 .44-.23.7-.23.26-.62.26-.39 0-.62-.26-.23-.26-.23-.7 0-.43.23-.7.23-.26.62-.26z"/><path d="m5.1 25.35q-.27 0-.43.2-.16.2-.16.55 0 .35.16.55.16.2.43.2.27 0 .43-.2.16-.2.16-.55 0-.35-.16-.55-.16-.2-.43-.2zm0-.2q.39 0 .62.26.23.26.23.7 0 .44-.23.7-.23.26-.62.26-.39 0-.62-.26-.23-.26-.23-.7 0-.43.23-.7.23-.26.62-.26z"/><path d="m18.28 7.57q-.27 0-.43.2-.16.2-.16.55 0 .35.16.55.16.2.43.2.27 0 .43-.2.16-.2.16-.55 0-.35-.16-.55-.16-.2-.43-.2zm0-.21q.39 0 .62.26.23.26.23.7 0 .44-.23.7-.23.26-.62.26-.39 0-.62-.26-.23-.26-.23-.7 0-.43.23-.7.23-.26.62-.26z"/><path d="m27.08 2.49q-.27 0-.43.2-.16.2-.16.55 0 .35.16.55.16.2.43.2.27 0 .43-.2.16-.2.16-.55 0-.35-.16-.55-.16-.2-.43-.2zm0-.2q.39 0 .62.26.23.26.23.7 0 .44-.23.7-.23.26-.62.26-.39 0-.62-.26-.23-.26-.23-.7 0-.43.23-.7.23-.26.62-.26z"/></g></g></svg>