<svg xmlns="http://www.w3.org/2000/svg" xmlns:xlink="http://www.w3.org/1999/xlink" width="49.78mm" height="27.62mm" version="1.2" viewBox="0 0 49.78 27.62"><desc>Generated by the Chemistry Development Kit (http://github.com/cdk)</desc><g fill="#FF0D0D" stroke="#000" stroke-linecap="round" stroke-linejoin="round" stroke-width=".21"><rect width="50" height="28" x="0" y="0" fill="#FFF" stroke="none"/><g id="mol1" class="mol"><line id="mol1bnd1" x1="49.08" x2="45.74" y1="15.95" y2="17.87" class="bond"/><line id="mol1bnd2" x1="43.62" x2="40.28" y1="17.87" y2="15.94" class="bond"/><line id="mol1bnd3" x1="40.28" x2="35.88" y1="15.94" y2="18.48" class="bond"/><line id="mol1bnd4" x1="35.88" x2="31.48" y1="18.48" y2="15.94" class="bond"/><g id="mol1bnd5" class="bond"><line x1="31.48" x2="31.48" y1="15.94" y2="10.86"/><line x1="30.67" x2="30.67" y1="15.47" y2="11.33"/></g><line id="mol1bnd6" x1="31.48" x2="27.08" y1="10.86" y2="8.32" class="bond"/><g id="mol1bnd7" class="bond"><line x1="27.08" x2="22.68" y1="8.32" y2="10.86"/><line x1="27.08" x2="23.49" y1="9.26" y2="11.33"/></g><line id="mol1bnd8" x1="22.68" x2="22.68" y1="10.86" y2="15.94" class="bond"/><g id="mol1bnd9" class="bond"><line x1="22.68" x2="27.08" y1="15.94" y2="18.48"/><line x1="23.49" x2="27.08" y1="15.47" y2="17.54"/></g><line id="mol1bnd10" x1="31.48" x2="27.08" y1="15.94" y2="18.48" class="bond"/><line id="mol1bnd11" x1="27.08" x2="27.08" y1="18.48" y2="23.56" class="bond"/><g id="mol1bnd12" class="bond"><line x1="22.68" x2="27.08" y1="26.1" y2="23.56"/><line x1="22.68" x2="26.27" y1="25.16" y2="23.09"/></g><line id="mol1bnd13" x1="22.68" x2="18.31" y1="26.1" y2="23.56" class="bond"/><g id="mol1bnd14" class="bond"><line x1="13.9" x2="18.31" y1="26.1" y2="23.56"/><line x1="13.9" x2="17.49" y1="25.16" y2="23.09"/></g><line id="mol1bnd15" x1="13.9" x2="9.5" y1="26.1" y2="23.56" class="bond"/><g id="mol1bnd16" class="bond"><line x1="9.5" x2="9.5" y1="18.48" y2="23.56"/><line x1="10.31" x2="10.31" y1="18.95" y2="23.09"/></g><line id="mol1bnd17" x1="9.5" x2="13.9" y1="18.48" y2="15.94" class="bond"/><g id="mol1bnd18" class="bond"><line x1="18.31" x2="13.9" y1="18.48" y2="15.94"/><line x1="17.49" x2="13.9" y1="18.95" y2="16.88"/></g><line id="mol1bnd19" x1="18.31" x2="18.31" y1="23.56" y2="18.48" class="bond"/><line id="mol1bnd20" x1="22.68" x2="18.31" y1="15.94" y2="18.48" class="bond"/><line id="mol1bnd21" x1="9.5" x2="6.29" y1="18.48" y2="16.63" class="bond"/><line id="mol1bnd22" x1="3.92" x2=".7" y1="16.63" y2="18.48" class="bond"/><line id="mol1bnd23" x1="9.5" x2="6.29" y1="23.56" y2="25.42" class="bond"/><line id="mol1bnd24" x1="3.92" x2=".7" y1="25.42" y2="23.56" class="bond"/><line id="mol1bnd25" x1="22.68" x2="19.46" y1="10.86" y2="9.01" class="bond"/><line id="mol1bnd26" x1="18.28" x2="18.28" y1="6.94" y2="3.24" class="bond"/><line id="mol1bnd27" x1="27.08" x2="27.08" y1="8.32" y2="4.62" class="bond"/><line id="mol1bnd28" x1="28.26" x2="31.48" y1="2.56" y2=".7" class="bond"/><g id="mol1atm2" class="atom"><path fill="#3050F8" stroke="none" d="M43.98 17.56h.33l.82 1.54v-1.54h.24v1.85h-.34l-.82 -1.54v1.54h-.24v-1.85z"/><path fill="#3050F8" stroke="none" d="M43.98 19.62h.25v.76h.91v-.76h.25v1.85h-.25v-.88h-.91v.88h-.25v-1.85z"/></g><path id="mol1atm19" stroke="none" d="M5.1 15.19q-.27 .0 -.43 .2q-.16 .2 -.16 .55q.0 .35 .16 .55q.16 .2 .43 .2q.27 .0 .43 -.2q.16 -.2 .16 -.55q.0 -.35 -.16 -.55q-.16 -.2 -.43 -.2zM5.1 14.98q.39 .0 .62 .26q.23 .26 .23 .7q.0 .44 -.23 .7q-.23 .26 -.62 .26q-.39 .0 -.62 -.26q-.23 -.26 -.23 -.7q.0 -.43 .23 -.7q.23 -.26 .62 -.26z" class="atom"/><path id="mol1atm21" stroke="none" d="M5.1 25.35q-.27 .0 -.43 .2q-.16 .2 -.16 .55q.0 .35 .16 .55q.16 .2 .43 .2q.27 .0 .43 -.2q.16 -.2 .16 -.55q.0 -.35 -.16 -.55q-.16 -.2 -.43 -.2zM5.1 25.15q.39 .0 .62 .26q.23 .26 .23 .7q.0 .44 -.23 .7q-.23 .26 -.62 .26q-.39 .0 -.62 -.26q-.23 -.26 -.23 -.7q.0 -.43 .23 -.7q.23 -.26 .62 -.26z" class="atom"/><path id="mol1atm23" stroke="none" d="M18.28 7.57q-.27 .0 -.43 .2q-.16 .2 -.16 .55q.0 .35 .16 .55q.16 .2 .43 .2q.27 .0 .43 -.2q.16 -.2 .16 -.55q.0 -.35 -.16 -.55q-.16 -.2 -.43 -.2zM18.28 7.36q.39 .0 .62 .26q.23 .26 .23 .7q.0 .44 -.23 .7q-.23 .26 -.62 .26q-.39 .0 -.62 -.26q-.23 -.26 -.23 -.7q.0 -.43 .23 -.7q.23 -.26 .62 -.26z" class="atom"/><path id="mol1atm25" stroke="none" d="M27.08 2.49q-.27 .0 -.43 .2q-.16 .2 -.16 .55q.0 .35 .16 .55q.16 .2 .43 .2q.27 .0 .43 -.2q.16 -.2 .16 -.55q.0 -.35 -.16 -.55q-.16 -.2 -.43 -.2zM27.08 2.29q.39 .0 .62 .26q.23 .26 .23 .7q.0 .44 -.23 .7q-.23 .26 -.62 .26q-.39 .0 -.62 -.26q-.23 -.26 -.23 -.7q.0 -.43 .23 -.7q.23 -.26 .62 -.26z" class="atom"/></g></g></svg>