<svg height="39.5mm" viewBox="0 0 32.21 39.5" width="32.21mm" xmlns="http://www.w3.org/2000/svg"><g fill="#ff0d0d" stroke="#000" stroke-linecap="round" stroke-linejoin="round" stroke-width=".21"><path d="m0 0h33v40h-33z" fill="#fff" stroke="none"/><path d="m31.5 15.95-3.33-1.93"/><path d="m27.11 12.06v-3.77"/><path d="m27.11 8.29-4.4-2.54"/><path d="m22.71 5.75-4.4 2.54"/><path d="m18.31 8.29-4.41-2.54"/><path d="m17.49 8.76-3.59-2.08"/><path d="m13.9 5.75-4.4 2.54"/><path d="m9.5 8.29v5.11"/><path d="m10.31 8.76v4.17"/><path d="m9.5 13.4 4.4 2.51"/><path d="m13.9 15.91 4.41-2.51"/><path d="m13.9 14.97 3.59-2.04"/><path d="m18.31 8.29v5.11"/><path d="m18.31 13.4 4.4 2.51"/><path d="m26.05 14-3.34 1.91"/><path d="m22.71 15.91v5.11"/><path d="m22.71 21.02-4.4 2.54"/><path d="m18.31 28.61v-5.05"/><path d="m17.49 28.14v-4.11"/><path d="m18.31 28.61-4.41 2.57"/><path d="m9.5 28.61 4.4 2.57"/><path d="m10.31 28.14 3.59 2.1"/><path d="m9.5 28.61v-5.05"/><path d="m13.9 21.02-4.4 2.54"/><path d="m13.9 21.96-3.59 2.07"/><path d="m18.31 23.56-4.41-2.54"/><path d="m13.9 15.91v5.11"/><path d="m9.5 28.61-3.22 1.84"/><path d="m5.09 32.51-.01 3.7"/><path d="m13.9 31.18v3.7"/><path d="m12.72 36.94-3.21 1.86"/><path d="m9.5 13.4-3.21 1.87"/><path d="m3.92 15.27-3.22-1.84"/><path d="m9.5 8.29-3.21-1.86"/><path d="m5.1 4.37v-3.71"/><g stroke="none"><path d="m26.41 12.48h.33l.82 1.54v-1.54h.24v1.85h-.34l-.82-1.54v1.54h-.24v-1.85z" fill="#3050f8"/><path d="m5.1 30.38q-.27 0-.43.2-.16.2-.16.55 0 .35.16.55.16.2.43.2.27 0 .43-.2.16-.2.16-.55 0-.35-.16-.55-.16-.2-.43-.2zm0-.2q.39 0 .62.26.23.26.23.7 0 .44-.23.7-.23.26-.62.26-.39 0-.62-.26-.23-.26-.23-.7 0-.43.23-.7.23-.26.62-.26z"/><path d="m13.91 35.51q-.27 0-.43.2-.16.2-.16.55 0 .35.16.55.16.2.43.2.27 0 .43-.2.16-.2.16-.55 0-.35-.16-.55-.16-.2-.43-.2zm0-.21q.39 0 .62.26.23.26.23.7 0 .44-.23.7-.23.26-.62.26-.39 0-.62-.26-.23-.26-.23-.7 0-.43.23-.7.23-.26.62-.26z"/><path d="m5.11 15.2q-.27 0-.43.2-.16.2-.16.55 0 .35.16.55.16.2.43.2.27 0 .43-.2.16-.2.16-.55 0-.35-.16-.55-.16-.2-.43-.2zm0-.21q.39 0 .62.26.23.26.23.7 0 .44-.23.7-.23.26-.62.26-.39 0-.62-.26-.23-.26-.23-.7 0-.43.23-.7.23-.26.62-.26z"/><path d="m5.1 4.99q-.27 0-.43.2-.16.2-.16.55 0 .35.16.55.16.2.43.2.27 0 .43-.2.16-.2.16-.55 0-.35-.16-.55-.16-.2-.43-.2zm0-.2q.39 0 .62.26.23.26.23.7 0 .44-.23.7-.23.26-.62.26-.39 0-.62-.26-.23-.26-.23-.7 0-.43.23-.7.23-.26.62-.26z"/></g></g></svg>