<svg xmlns="http://www.w3.org/2000/svg" xmlns:xlink="http://www.w3.org/1999/xlink" width="32.21mm" height="39.5mm" version="1.2" viewBox="0 0 32.21 39.5"><desc>Generated by the Chemistry Development Kit (http://github.com/cdk)</desc><g fill="#FF0D0D" stroke="#000" stroke-linecap="round" stroke-linejoin="round" stroke-width=".21"><rect width="33" height="40" x="0" y="0" fill="#FFF" stroke="none"/><g id="mol1" class="mol"><line id="mol1bnd1" x1="31.5" x2="28.17" y1="15.95" y2="14.02" class="bond"/><line id="mol1bnd2" x1="27.11" x2="27.11" y1="12.06" y2="8.29" class="bond"/><line id="mol1bnd3" x1="27.11" x2="22.71" y1="8.29" y2="5.75" class="bond"/><line id="mol1bnd4" x1="22.71" x2="18.31" y1="5.75" y2="8.29" class="bond"/><g id="mol1bnd5" class="bond"><line x1="18.31" x2="13.9" y1="8.29" y2="5.75"/><line x1="17.49" x2="13.9" y1="8.76" y2="6.68"/></g><line id="mol1bnd6" x1="13.9" x2="9.5" y1="5.75" y2="8.29" class="bond"/><g id="mol1bnd7" class="bond"><line x1="9.5" x2="9.5" y1="8.29" y2="13.4"/><line x1="10.31" x2="10.31" y1="8.76" y2="12.93"/></g><line id="mol1bnd8" x1="9.5" x2="13.9" y1="13.4" y2="15.91" class="bond"/><g id="mol1bnd9" class="bond"><line x1="13.9" x2="18.31" y1="15.91" y2="13.4"/><line x1="13.9" x2="17.49" y1="14.97" y2="12.93"/></g><line id="mol1bnd10" x1="18.31" x2="18.31" y1="8.29" y2="13.4" class="bond"/><line id="mol1bnd11" x1="18.31" x2="22.71" y1="13.4" y2="15.91" class="bond"/><line id="mol1bnd12" x1="26.05" x2="22.71" y1="14" y2="15.91" class="bond"/><line id="mol1bnd13" x1="22.71" x2="22.71" y1="15.91" y2="21.02" class="bond"/><line id="mol1bnd14" x1="22.71" x2="18.31" y1="21.02" y2="23.56" class="bond"/><g id="mol1bnd15" class="bond"><line x1="18.31" x2="18.31" y1="28.61" y2="23.56"/><line x1="17.49" x2="17.49" y1="28.14" y2="24.03"/></g><line id="mol1bnd16" x1="18.31" x2="13.9" y1="28.61" y2="31.18" class="bond"/><g id="mol1bnd17" class="bond"><line x1="9.5" x2="13.9" y1="28.61" y2="31.18"/><line x1="10.31" x2="13.9" y1="28.14" y2="30.24"/></g><line id="mol1bnd18" x1="9.5" x2="9.5" y1="28.61" y2="23.56" class="bond"/><g id="mol1bnd19" class="bond"><line x1="13.9" x2="9.5" y1="21.02" y2="23.56"/><line x1="13.9" x2="10.31" y1="21.96" y2="24.03"/></g><line id="mol1bnd20" x1="18.31" x2="13.9" y1="23.56" y2="21.02" class="bond"/><line id="mol1bnd21" x1="13.9" x2="13.9" y1="15.91" y2="21.02" class="bond"/><line id="mol1bnd22" x1="9.5" x2="6.28" y1="28.61" y2="30.45" class="bond"/><line id="mol1bnd23" x1="5.09" x2="5.08" y1="32.51" y2="36.21" class="bond"/><line id="mol1bnd24" x1="13.9" x2="13.9" y1="31.18" y2="34.88" class="bond"/><line id="mol1bnd25" x1="12.72" x2="9.51" y1="36.94" y2="38.8" class="bond"/><line id="mol1bnd26" x1="9.5" x2="6.29" y1="13.4" y2="15.27" class="bond"/><line id="mol1bnd27" x1="3.92" x2=".7" y1="15.27" y2="13.43" class="bond"/><line id="mol1bnd28" x1="9.5" x2="6.29" y1="8.29" y2="6.43" class="bond"/><line id="mol1bnd29" x1="5.1" x2="5.1" y1="4.37" y2=".66" class="bond"/><path id="mol1atm2" fill="#3050F8" stroke="none" d="M26.41 12.48h.33l.82 1.54v-1.54h.24v1.85h-.34l-.82 -1.54v1.54h-.24v-1.85z" class="atom"/><path id="mol1atm19" stroke="none" d="M5.1 30.38q-.27 .0 -.43 .2q-.16 .2 -.16 .55q.0 .35 .16 .55q.16 .2 .43 .2q.27 .0 .43 -.2q.16 -.2 .16 -.55q.0 -.35 -.16 -.55q-.16 -.2 -.43 -.2zM5.1 30.18q.39 .0 .62 .26q.23 .26 .23 .7q.0 .44 -.23 .7q-.23 .26 -.62 .26q-.39 .0 -.62 -.26q-.23 -.26 -.23 -.7q.0 -.43 .23 -.7q.23 -.26 .62 -.26z" class="atom"/><path id="mol1atm21" stroke="none" d="M13.91 35.51q-.27 .0 -.43 .2q-.16 .2 -.16 .55q.0 .35 .16 .55q.16 .2 .43 .2q.27 .0 .43 -.2q.16 -.2 .16 -.55q.0 -.35 -.16 -.55q-.16 -.2 -.43 -.2zM13.91 35.3q.39 .0 .62 .26q.23 .26 .23 .7q.0 .44 -.23 .7q-.23 .26 -.62 .26q-.39 .0 -.62 -.26q-.23 -.26 -.23 -.7q.0 -.43 .23 -.7q.23 -.26 .62 -.26z" class="atom"/><path id="mol1atm23" stroke="none" d="M5.11 15.2q-.27 .0 -.43 .2q-.16 .2 -.16 .55q.0 .35 .16 .55q.16 .2 .43 .2q.27 .0 .43 -.2q.16 -.2 .16 -.55q.0 -.35 -.16 -.55q-.16 -.2 -.43 -.2zM5.11 14.99q.39 .0 .62 .26q.23 .26 .23 .7q.0 .44 -.23 .7q-.23 .26 -.62 .26q-.39 .0 -.62 -.26q-.23 -.26 -.23 -.7q.0 -.43 .23 -.7q.23 -.26 .62 -.26z" class="atom"/><path id="mol1atm25" stroke="none" d="M5.1 4.99q-.27 .0 -.43 .2q-.16 .2 -.16 .55q.0 .35 .16 .55q.16 .2 .43 .2q.27 .0 .43 -.2q.16 -.2 .16 -.55q.0 -.35 -.16 -.55q-.16 -.2 -.43 -.2zM5.1 4.79q.39 .0 .62 .26q.23 .26 .23 .7q.0 .44 -.23 .7q-.23 .26 -.62 .26q-.39 .0 -.62 -.26q-.23 -.26 -.23 -.7q.0 -.43 .23 -.7q.23 -.26 .62 -.26z" class="atom"/></g></g></svg>