<svg height="45.36mm" viewBox="0 0 54.9 45.36" width="54.9mm" xmlns="http://www.w3.org/2000/svg"><g fill="#ff0d0d" stroke="#000" stroke-linecap="round" stroke-linejoin="round" stroke-width=".21"><path d="m0 0h55v46h-55z" fill="#fff" stroke="none"/><path d="m1.41.66v3.7"/><path d="m2.6 6.43 3.21 1.85"/><path d="m10.21 5.74-4.4 2.54"/><path d="m10.21 6.68-3.59 2.07"/><path d="m10.21 5.74 4.4 2.55"/><path d="m14.61 8.29 3.21-1.86"/><path d="m14.61 13.37v-5.08"/><path d="m13.79 12.9v-4.14"/><path d="m14.61 13.37 4.39 2.54"/><path d="m18.6 15.68 3.41-1.98"/><path d="m19 16.38 3.42-1.97"/><path d="m19 15.91v5.08"/><path d="m23.4 23.53-4.4-2.54"/><path d="m22.59 24-3.59-2.07"/><path d="m23.4 23.53 3.21-1.85"/><path d="m23.4 23.53v5.08"/><path d="m23.4 28.61 4.4 2.54"/><path d="m27.8 31.15v5.08"/><path d="m28.61 31.62v4.14"/><path d="m27.8 36.23-3.22 1.86"/><path d="m27.8 36.23 4.4 2.54"/><path d="m32.2 38.77 4.4-2.54"/><path d="m32.2 37.83 3.58-2.07"/><path d="m36.6 36.23 3.21 1.86"/><path d="m42.18 38.09 3.22-1.86"/><path d="m45.4 36.23 4.4 2.54"/><path d="m46.21 35.76 3.59 2.07"/><path d="m49.8 38.77v3.7"/><path d="m49.8 38.77 4.4-2.54"/><path d="m54.2 36.23v-5.08"/><path d="m53.39 35.76v-4.14"/><path d="m54.2 31.15-4.4-2.54"/><path d="m49.8 28.61v-3.7"/><path d="m49.8 28.61-4.4 2.54"/><path d="m49.8 29.55-3.59 2.07"/><path d="m45.4 36.23v-5.08"/><path d="m45.4 31.15-4.4-2.54"/><path d="m40.59 28.85v-3.94"/><path d="m41.4 28.85v-3.94"/><path d="m41 28.61-4.4 2.54"/><path d="m36.6 36.23v-5.08"/><path d="m36.6 31.15-4.4-2.54"/><path d="m35.78 31.62-3.58-2.07"/><path d="m27.8 31.15 4.4-2.54"/><path d="m32.2 28.61v-3.7"/><path d="m19 31.15 4.4-2.54"/><path d="m19 30.21 3.59-2.07"/><path d="m19 31.15-4.39-2.54"/><path d="m14.61 28.61-3.22 1.85"/><path d="m14.61 23.53v5.08"/><path d="m15.42 24v4.14"/><path d="m19 20.99-4.39 2.54"/><path d="m14.61 23.53-3.22-1.86"/><path d="m10.21 19.61v-3.71"/><path d="m14.61 13.37-4.4 2.53"/><path d="m5.81 13.36 4.4 2.54"/><path d="m6.62 12.89 3.59 2.08"/><path d="m5.81 8.28v5.08"/><g stroke="none"><path d="m1.41 4.99q-.27 0-.43.2-.16.2-.16.55 0 .35.16.55.16.2.43.2.27 0 .43-.2.16-.2.16-.55 0-.35-.16-.55-.16-.2-.43-.2zm0-.21q.39 0 .62.26.23.26.23.7 0 .44-.23.7-.23.26-.62.26-.39 0-.62-.26-.23-.26-.23-.7 0-.43.23-.7.23-.26.62-.26z"/><path d="m19 5q-.27 0-.43.2-.16.2-.16.55 0 .35.16.55.16.2.43.2.27 0 .43-.2.16-.2.16-.55 0-.35-.16-.55-.16-.2-.43-.2zm0-.21q.39 0 .62.26.23.26.23.7 0 .44-.23.7-.23.26-.62.26-.39 0-.62-.26-.23-.26-.23-.7 0-.43.23-.7.23-.26.62-.26z"/><path d="m20.07 4.83h.25v.76h.91v-.76h.25v1.85h-.25v-.88h-.91v.88h-.25z"/><path d="m23.4 12.62q-.27 0-.43.2-.16.2-.16.55 0 .35.16.55.16.2.43.2.27 0 .43-.2.16-.2.16-.55 0-.35-.16-.55-.16-.2-.43-.2zm0-.21q.39 0 .62.26.23.26.23.7 0 .44-.23.7-.23.26-.62.26-.39 0-.62-.26-.23-.26-.23-.7 0-.43.23-.7.23-.26.62-.26z"/><path d="m27.8 20.24q-.27 0-.43.2-.16.2-.16.55 0 .35.16.55.16.2.43.2.27 0 .43-.2.16-.2.16-.55 0-.35-.16-.55-.16-.2-.43-.2zm0-.2q.39 0 .62.26.23.26.23.7 0 .44-.23.7-.23.26-.62.26-.39 0-.62-.26-.23-.26-.23-.7 0-.43.23-.7.23-.26.62-.26z"/><path d="m28.86 20.07h.25v.76h.91v-.76h.25v1.85h-.25v-.88h-.91v.88h-.25z"/><path d="m23.4 38.01q-.27 0-.43.2-.16.2-.16.55 0 .35.16.55.16.2.43.2.27 0 .43-.2.16-.2.16-.55 0-.35-.16-.55-.16-.2-.43-.2zm0-.2q.39 0 .62.26.23.26.23.7 0 .44-.23.7-.23.26-.62.26-.39 0-.62-.26-.23-.26-.23-.7 0-.43.23-.7.23-.26.62-.26z"/><path d="m20.93 37.84h.25v.76h.91v-.76h.25v1.85h-.25v-.88h-.91v.88h-.25z"/><path d="m41 38.01q-.27 0-.43.2-.16.2-.16.55 0 .35.16.55.16.2.43.2.27 0 .43-.2.16-.2.16-.55 0-.35-.16-.55-.16-.2-.43-.2zm0-.2q.39 0 .62.26.23.26.23.7 0 .44-.23.7-.23.26-.62.26-.39 0-.62-.26-.23-.26-.23-.7 0-.43.23-.7.23-.26.62-.26z"/><path d="m49.8 43.09q-.27 0-.43.2-.16.2-.16.55 0 .35.16.55.16.2.43.2.27 0 .43-.2.16-.2.16-.55 0-.35-.16-.55-.16-.2-.43-.2zm0-.2q.39 0 .62.26.23.26.23.7 0 .44-.23.7-.23.26-.62.26-.39 0-.62-.26-.23-.26-.23-.7 0-.43.23-.7.23-.26.62-.26z"/><path d="m50.86 42.92h.25v.76h.91v-.76h.25v1.85h-.25v-.88h-.91v.88h-.25z"/><path d="m49.8 22.78q-.27 0-.43.2-.16.2-.16.55 0 .35.16.55.16.2.43.2.27 0 .43-.2.16-.2.16-.55 0-.35-.16-.55-.16-.2-.43-.2zm0-.2q.39 0 .62.26.23.26.23.7 0 .44-.23.7-.23.26-.62.26-.39 0-.62-.26-.23-.26-.23-.7 0-.43.23-.7.23-.26.62-.26z"/><path d="m50.86 22.61h.25v.76h.91v-.76h.25v1.85h-.25v-.88h-.91v.88h-.25z"/><path d="m41 22.78q-.27 0-.43.2-.16.2-.16.55 0 .35.16.55.16.2.43.2.27 0 .43-.2.16-.2.16-.55 0-.35-.16-.55-.16-.2-.43-.2zm0-.2q.39 0 .62.26.23.26.23.7 0 .44-.23.7-.23.26-.62.26-.39 0-.62-.26-.23-.26-.23-.7 0-.43.23-.7.23-.26.62-.26z"/><path d="m32.2 22.78q-.27 0-.43.2-.16.2-.16.55 0 .35.16.55.16.2.43.2.27 0 .43-.2.16-.2.16-.55 0-.35-.16-.55-.16-.2-.43-.2zm0-.2q.39 0 .62.26.23.26.23.7 0 .44-.23.7-.23.26-.62.26-.39 0-.62-.26-.23-.26-.23-.7 0-.43.23-.7.23-.26.62-.26z"/><path d="m33.26 22.61h.25v.76h.91v-.76h.25v1.85h-.25v-.88h-.91v.88h-.25z"/><path d="m10.21 30.39q-.27 0-.43.2-.16.2-.16.55 0 .35.16.55.16.2.43.2.27 0 .43-.2.16-.2.16-.55 0-.35-.16-.55-.16-.2-.43-.2zm0-.2q.39 0 .62.26.23.26.23.7 0 .44-.23.7-.23.26-.62.26-.39 0-.62-.26-.23-.26-.23-.7 0-.43.23-.7.23-.26.62-.26z"/><path d="m7.74 30.22h.25v.76h.91v-.76h.25v1.85h-.25v-.88h-.91v.88h-.25z"/><path d="m10.21 20.23q-.27 0-.43.2-.16.2-.16.55 0 .35.16.55.16.2.43.2.27 0 .43-.2.16-.2.16-.55 0-.35-.16-.55-.16-.2-.43-.2zm0-.2q.39 0 .62.26.23.26.23.7 0 .44-.23.7-.23.26-.62.26-.39 0-.62-.26-.23-.26-.23-.7 0-.43.23-.7.23-.26.62-.26z"/></g></g></svg>