<svg height="735.5208pt" viewBox="0 0 680.225 735.5208" width="680.225pt" xmlns="http://www.w3.org/2000/svg" xmlns:xlink="http://www.w3.org/1999/xlink"><clipPath id="a"><path d="m0 0h680.226562v735.519531h-680.226562zm0 0"/></clipPath><clipPath id="b"><path d="m14.703125 14.171875h458.101563v86.894531h-458.101563zm0 0"/></clipPath><clipPath id="c"><path d="m13.804688 92.96875h9v9h-9zm0 0"/></clipPath><clipPath id="d"><path d="m464.707031 13.273438h9v9h-9zm0 0"/></clipPath><clipPath id="e"><path d="m0 0h486v115h-486z"/></clipPath><clipPath id="f"><path d="m14.703125 13.777344h458.101563v91.273437h-458.101563zm0 0"/></clipPath><clipPath id="g"><path d="m13.804688 96.949219h9v9h-9zm0 0"/></clipPath><clipPath id="h"><path d="m464.707031 12.875h9v9h-9zm0 0"/></clipPath><clipPath id="i"><path d="m0 0h486v119h-486z"/></clipPath><clipPath id="j"><path d="m14.703125 14.410156h458.101563v203.371094h-458.101563zm0 0"/></clipPath><clipPath id="k"><path d="m13.804688 209.679688h9v9h-9zm0 0"/></clipPath><clipPath id="l"><path d="m464.707031 13.507812h9v9h-9zm0 0"/></clipPath><clipPath id="m"><path d="m0 0h486v232h-486z"/></clipPath><symbol id="n" overflow="visible"><path d="m-11.421875-1.25h11.421875v-1.515625h-5.234375v-5.25h-1.28125v5.25h-3.625v-5.984375h-1.28125zm0 0"/></symbol><symbol id="o" overflow="visible"><path d="m0-5.703125h-11.34375v1.046875c.429688.074219.78125.214844 1.0625.421875.273438.199219.492188.445313.65625.734375.15625.292969.265625.621094.328125.984375.054687.367187.078125.742187.078125 1.125h1.09375v-2.953125h8.125zm0 0"/></symbol><symbol id="p" overflow="visible"/><symbol id="q" overflow="visible"><path d="m-8.078125-7.859375v-1.4375c-.632813.023437-1.175781.140625-1.625.359375-.457031.21875-.832031.523438-1.125.90625-.300781.375-.519531.8125-.65625 1.3125-.144531.5-.21875 1.042969-.21875 1.625 0 .53125.070313 1.046875.203125 1.546875.136719.492187.339844.933594.609375 1.328125.273437.386719.621094.699219 1.046875.9375.417969.230469.914062.34375 1.484375.34375.53125 0 .96875-.101562 1.3125-.3125.34375-.207031.625-.484375.84375-.828125.21875-.351563.398437-.75.53125-1.1875.136719-.4375.257813-.878906.359375-1.328125.09375-.457031.195312-.90625.296875-1.34375.09375-.4375.21875-.828125.375-1.171875.148437-.34375.34375-.617187.59375-.828125.242187-.207031.558594-.3125.953125-.3125.417969 0 .761719.085938 1.03125.25.273438.167969.484375.390625.640625.671875.148437.28125.25.59375.3125.9375s.09375.6875.09375 1.03125c0 .429687-.050781.84375-.15625 1.25-.101563.40625-.265625.761719-.484375 1.0625-.226562.304687-.515625.546875-.859375.734375-.351563.1875-.769531.28125-1.25.28125v1.4375c.699219 0 1.304687-.125 1.8125-.375.5-.25.917969-.585938 1.25-1.015625.324219-.4375.5625-.941406.71875-1.515625.15625-.570312.234375-1.175781.234375-1.8125 0-.519531-.0625-1.046875-.1875-1.578125-.1132812-.53125-.304688-1.003906-.578125-1.421875-.269531-.425781-.617187-.773438-1.046875-1.046875-.4375-.28125-.960938-.421875-1.578125-.421875-.5625 0-1.03125.105469-1.40625.3125-.375.210938-.679687.492188-.921875.84375-.25.34375-.441406.734375-.578125 1.171875-.144531.4375-.269531.886719-.375 1.34375-.113281.449219-.210937.890625-.296875 1.328125-.09375.4375-.207031.828125-.34375 1.171875-.144531.34375-.328125.621094-.546875.828125-.21875.210938-.503906.3125-.859375.3125-.375 0-.6875-.066406-.9375-.203125-.25-.144531-.445312-.335937-.59375-.578125-.144531-.238281-.25-.515625-.3125-.828125-.070312-.3125-.109375-.628906-.109375-.953125 0-.78125.1875-1.425781.5625-1.9375.367187-.507812.960937-.804688 1.78125-.890625zm0 0"/></symbol><symbol id="r" overflow="visible"><path d="m-5.609375-6.640625v-1.40625c-.5.054687-.925781.183594-1.28125.390625-.351563.199219-.644531.453125-.875.765625-.238281.3125-.414063.679687-.53125 1.09375-.113281.40625-.171875.84375-.171875 1.3125 0 .65625.117188 1.230469.34375 1.71875.230469.492187.546875.898437.953125 1.21875.398437.324219.867187.570313 1.40625.734375.542969.15625 1.121094.234375 1.734375.234375.617188 0 1.183594-.082031 1.703125-.25.523437-.164063.96875-.410156 1.34375-.734375.367187-.320312.652344-.722656.859375-1.203125.1953125-.488281.296875-1.050781.296875-1.6875 0-1.050781-.273437-1.882813-.828125-2.5-.550781-.613281-1.34375-.992187-2.375-1.140625v1.390625c.648438.085937 1.148438.320313 1.5.703125.34375.375.515625.898438.515625 1.5625 0 .429688-.082031.796875-.25 1.109375-.164063.3125-.390625.570313-.671875.765625-.289062.1875-.613281.328125-.96875.421875-.363281.085937-.738281.125-1.125.125-.414062 0-.816406-.039063-1.203125-.125-.394531-.082031-.738281-.222656-1.03125-.421875-.300781-.195312-.539063-.460938-.71875-.796875-.1875-.332031-.28125-.742187-.28125-1.234375 0-.570312.148437-1.03125.4375-1.375.28125-.34375.6875-.566406 1.21875-.671875zm0 0"/></symbol><symbol id="s" overflow="visible"><path d="m-4.125-2.015625c-.5 0-.941406-.066406-1.328125-.203125-.394531-.132812-.722656-.316406-.984375-.546875-.269531-.238281-.472656-.515625-.609375-.828125-.144531-.3125-.21875-.644531-.21875-1 0-.351562.074219-.6875.21875-1 .136719-.3125.339844-.582031.609375-.8125.261719-.238281.589844-.425781.984375-.5625.386719-.132812.828125-.203125 1.328125-.203125s.949219.070313 1.34375.203125c.386719.136719.710938.324219.96875.5625.261719.230469.460938.5.59375.8125.136719.3125.203125.648438.203125 1 0 .355469-.066406.6875-.203125 1-.132812.3125-.332031.589844-.59375.828125-.257812.230469-.582031.414063-.96875.546875-.394531.136719-.84375.203125-1.34375.203125zm0 1.4375c.605469 0 1.171875-.082031 1.703125-.25.523437-.175781.976563-.429687 1.359375-.765625.386719-.34375.6875-.765625.90625-1.265625s.328125-1.078125.328125-1.734375-.109375-1.234375-.328125-1.734375-.519531-.914063-.90625-1.25c-.382812-.34375-.835938-.597656-1.359375-.765625-.53125-.175781-1.097656-.265625-1.703125-.265625-.613281 0-1.179688.089844-1.703125.265625-.53125.167969-.988281.421875-1.375.765625-.394531.335937-.703125.75-.921875 1.25-.226562.5-.34375 1.078125-.34375 1.734375s.117188 1.234375.34375 1.734375c.21875.5.527344.921875.921875 1.265625.386719.335938.84375.589844 1.375.765625.523437.167969 1.089844.25 1.703125.25zm0 0"/></symbol><symbol id="t" overflow="visible"><path d="m-8.265625-.96875h8.265625v-1.375h-3.6875c-.53125 0-1-.050781-1.40625-.15625-.414062-.101562-.765625-.269531-1.046875-.5-.289063-.238281-.507813-.550781-.65625-.9375-.15625-.382812-.234375-.847656-.234375-1.390625h-1.4375c-.019531.742187.132812 1.351563.453125 1.828125.324219.480469.820313.886719 1.484375 1.21875v.03125h-1.734375zm0 0"/></symbol><symbol id="u" overflow="visible"><path d="m-4.921875-6.765625v4.75c-.320313-.019531-.625-.085937-.90625-.203125-.28125-.125-.523437-.285156-.734375-.484375-.21875-.207031-.390625-.453125-.515625-.734375s-.1875-.597656-.1875-.953125c0-.332031.0625-.640625.1875-.921875.125-.289062.292969-.539062.5-.75.210937-.207031.460937-.367188.75-.484375.28125-.125.585937-.195313.90625-.21875zm2.296875-1.3125v1.34375c.542969.117187.949219.359375 1.21875.734375.261719.367188.390625.835938.390625 1.40625 0 .449219-.070313.839844-.21875 1.171875-.144531.335937-.34375.609375-.59375.828125-.25.210938-.535156.359375-.859375.453125-.332031.09375-.679688.136719-1.046875.125v-6.1875c-.5-.019531-1.023437.027344-1.578125.140625-.550781.105469-1.0625.304688-1.53125.59375-.46875.292969-.851562.683594-1.15625 1.171875-.3125.492187-.46875 1.101563-.46875 1.828125 0 .574219.109375 1.101562.328125 1.578125.210937.46875.507813.875.890625 1.21875.386719.34375.839844.617187 1.359375.8125.523437.1875 1.101563.28125 1.734375.28125.625-.019531 1.210938-.113281 1.75-.28125.53125-.164063.992188-.410156 1.375-.734375.375-.332031.671875-.738281.890625-1.21875.2070312-.488281.3125-1.066406.3125-1.734375 0-.9375-.234375-1.710937-.703125-2.328125-.46875-.625-1.164062-1.023438-2.09375-1.203125zm0 0"/></symbol><symbol id="v" overflow="visible"><path d="m-10.609375-4.140625h-1.09375v2.984375h14.859375v-2.984375h-1.09375v1.703125h-12.671875zm0 0"/></symbol><symbol id="w" overflow="visible"><path d="m-8.125-2.671875c-.25 0-.507812-.015625-.78125-.046875-.269531-.03125-.519531-.097656-.75-.203125-.226562-.101563-.421875-.242187-.578125-.421875-.15625-.175781-.234375-.414062-.234375-.71875 0-.3125.078125-.554688.234375-.734375.15625-.175781.351563-.3125.578125-.40625.230469-.09375.480469-.148437.75-.171875.273438-.03125.527344-.046875.765625-.046875.242187 0 .5.015625.78125.046875s.539063.101562.765625.203125c.230469.09375.417969.234375.5625.421875.148438.179688.21875.421875.21875.734375 0 .304687-.070312.542969-.21875.71875-.15625.167969-.347656.304687-.578125.40625-.226563.09375-.476563.15625-.75.1875-.28125.023437-.535156.03125-.765625.03125zm.03125 1.203125c.4375 0 .851562-.046875 1.234375-.140625.386719-.09375.726563-.238281 1.015625-.4375.28125-.207031.507812-.472656.671875-.796875.167969-.332031.25-.738281.25-1.21875 0-.46875-.085937-.863281-.265625-1.1875-.1875-.320312-.425781-.585938-.71875-.796875-.300781-.207031-.644531-.351563-1.03125-.4375-.382812-.09375-.785156-.140625-1.203125-.140625-.4375 0-.847656.042969-1.234375.125-.394531.074219-.734375.210938-1.015625.40625-.289063.199219-.519531.464844-.6875.796875-.175781.324219-.265625.734375-.265625 1.234375 0 .492188.089844.902344.265625 1.234375.179687.324219.417969.589844.71875.796875.292969.199219.636719.34375 1.03125.4375.386719.085938.796875.125 1.234375.125zm5.078125-9.109375c-.238281 0-.492187-.015625-.765625-.046875-.269531-.03125-.519531-.09375-.75-.1875-.226562-.101562-.421875-.242188-.578125-.421875-.15625-.1875-.234375-.429687-.234375-.734375 0-.3125.078125-.550781.234375-.71875.15625-.175781.351563-.3125.578125-.40625.230469-.101562.480469-.164062.75-.1875.273438-.03125.523438-.046875.75-.046875.25 0 .515625.015625.796875.046875.273437.03125.523437.101562.75.203125.230469.105469.421875.246094.578125.421875.148438.179688.21875.421875.21875.734375 0 .304687-.078125.542969-.234375.71875-.15625.179687-.347656.3125-.578125.40625-.226562.09375-.476562.15625-.75.1875-.269531.023437-.523438.03125-.765625.03125zm.046875 1.203125c.4375 0 .851562-.039062 1.234375-.125.375-.09375.710937-.238281 1-.4375.28125-.207031.507813-.476562.671875-.8125.15625-.332031.234375-.738281.234375-1.21875 0-.46875-.0898438-.859375-.265625-1.171875-.175781-.320313-.410156-.585937-.703125-.796875-.289063-.207031-.628906-.359375-1.015625-.453125-.394531-.09375-.800781-.140625-1.21875-.140625-.4375 0-.847656.042969-1.234375.125-.382813.085938-.722656.226562-1.015625.421875-.289062.1875-.519531.449219-.6875.78125-.164062.324219-.25.734375-.25 1.234375 0 .492188.089844.902344.265625 1.234375.167969.335937.402344.605469.703125.8125.304688.199219.652344.339844 1.046875.421875.386719.085938.796875.125 1.234375.125zm-8.578125-2.234375 11.890625 8.59375v-1.375l-11.890625-8.578125zm0 0"/></symbol><symbol id="x" overflow="visible"><path d="m2.0625 0h1.09375v-2.984375h-14.859375v2.984375h1.09375v-1.71875h12.671875zm0 0"/></symbol><symbol id="y" overflow="visible"><path d="m2.109375-5.578125c0-.28125 0-.585937 0-.921875.007813-.34375.035156-.679688.078125-1.015625.050781-.332031.125-.65625.21875-.96875.09375-.320313.226562-.601563.40625-.84375.175781-.25.394531-.445313.65625-.59375.269531-.144531.597656-.21875.984375-.21875.382813 0 .707031.074219.96875.21875.269531.148437.492187.34375.671875.59375.175781.242187.304688.523437.390625.84375.09375.3125.160156.636719.203125.96875.050781.335937.078125.671875.078125 1.015625.007813.335938.015625.640625.015625.921875 0 .429687-.015625.90625-.046875 1.4375-.023437.523437-.105469 1.015625-.25 1.484375-.148437.460938-.382813.851562-.703125 1.171875-.3125.3125-.757812.46875-1.328125.46875-.585937 0-1.039063-.15625-1.359375-.46875-.3125-.320313-.542969-.710937-.6875-1.171875-.148438-.46875-.234375-.960938-.265625-1.484375-.023437-.53125-.03125-1.007813-.03125-1.4375zm-1.4375.015625c0 .417969.007813.851562.03125 1.296875.019531.449219.070313.886719.15625 1.3125.082031.429687.203125.828125.359375 1.203125.164062.375.382812.710938.65625 1 .28125.292969.628906.523438 1.046875.6875.425781.15625.9375.234375 1.53125.234375s1.097656-.078125 1.515625-.234375c.414062-.164062.757812-.394531 1.03125-.6875.28125-.289062.5-.625.65625-1 .164062-.375.289062-.773438.375-1.203125.082031-.425781.132812-.863281.15625-1.3125.019531-.445313.03125-.878906.03125-1.296875 0-.414062-.011719-.847656-.03125-1.296875-.023438-.445313-.074219-.882813-.15625-1.3125-.085938-.425781-.210938-.832031-.375-1.21875-.15625-.382813-.375-.71875-.65625-1-.273438-.289063-.621094-.519531-1.046875-.6875-.417969-.175781-.917969-.265625-1.5-.265625-.59375 0-1.105469.089844-1.53125.265625-.417969.167969-.765625.398437-1.046875.6875-.273438.28125-.492188.617187-.65625 1-.15625.386719-.277344.792969-.359375 1.21875-.085937.429687-.136719.867187-.15625 1.3125-.023437.449219-.03125.882813-.03125 1.296875zm0 0"/></symbol><symbol id="z" overflow="visible"><path d="m.703125-7.328125h1.359375c-.011719-.34375.019531-.679687.09375-1.015625.082031-.332031.210938-.628906.390625-.890625.1875-.269531.421875-.488281.703125-.65625.289062-.164063.628906-.25 1.015625-.25.300781 0 .582031.046875.84375.140625.269531.09375.503906.234375.703125.421875.195312.179687.351562.390625.46875.640625.125.25.1875.53125.1875.84375 0 .398438-.0625.746094-.1875 1.046875-.125.292969-.308594.570313-.546875.828125-.242187.25-.542969.5-.90625.75-.367187.25-.789063.527344-1.265625.828125-.398438.242187-.777344.496094-1.140625.765625-.355469.261719-.679687.570312-.96875.921875-.28125.34375-.515625.757813-.703125 1.234375-.1875.46875-.308594 1.042969-.359375 1.71875h7.40625v-1.203125h-5.828125c.0625-.351563.195312-.664063.40625-.9375.207031-.269531.457031-.519531.75-.75.289062-.238281.613281-.460937.96875-.671875.351562-.207031.707031-.414062 1.0625-.625.351562-.226562.691406-.460938 1.015625-.703125.332031-.25.625-.523437.875-.828125.257813-.300781.46875-.644531.625-1.03125.15625-.382812.234375-.828125.234375-1.328125 0-.53125-.09375-1-.28125-1.40625s-.445312-.742187-.765625-1.015625c-.3125-.269531-.6875-.476562-1.125-.625-.429687-.144531-.886719-.21875-1.375-.21875-.605469 0-1.140625.105469-1.609375.3125-.46875.199219-.859375.480469-1.171875.84375-.3125.355469-.546875.777344-.703125 1.265625-.148438.492187-.203125 1.023437-.171875 1.59375zm0 0"/></symbol><symbol id="A" overflow="visible"><path d="m7.515625-9.953125v-1.203125h-5.59375l-1.0625 5.890625 1.171875.0625c.269531-.320313.578125-.578125.921875-.765625.34375-.195312.738281-.296875 1.1875-.296875.382813 0 .734375.0625 1.046875.1875s.582031.304687.8125.53125c.226562.230469.398438.507813.515625.828125.125.3125.1875.652344.1875 1.015625 0 .449219-.070313.84375-.203125 1.1875-.125.335937-.296875.617187-.515625.84375-.21875.21875-.476563.386719-.765625.5-.292969.105469-.601562.15625-.921875.15625-.335937 0-.648437-.046875-.9375-.140625-.28125-.101562-.527344-.25-.734375-.4375-.210938-.1875-.375-.40625-.5-.65625-.117188-.25-.183594-.519531-.203125-.8125h-1.359375c.007812.523438.109375.984375.296875 1.390625.195313.398437.457031.734375.78125 1.015625.332031.273438.710937.480469 1.140625.625.4375.132812.898438.203125 1.390625.203125.664063 0 1.242187-.1054688 1.734375-.3125.5-.207031.910156-.484375 1.234375-.828125.332031-.351562.582031-.753906.75-1.203125.164063-.457031.25-.925781.25-1.40625 0-.65625-.101563-1.222656-.296875-1.703125-.1875-.488281-.449219-.894531-.78125-1.21875-.324219-.320312-.710938-.5625-1.15625-.71875-.449219-.164062-.921875-.25-1.421875-.25-.386719 0-.777344.070312-1.171875.203125-.386719.125-.699219.328125-.9375.609375l-.03125-.03125.59375-3.265625zm0 0"/></symbol><symbol id="B" overflow="visible"><path d="m8.140625-9.984375v-1.171875h-7.34375v1.28125h5.953125c-.59375.636719-1.152344 1.328125-1.671875 2.078125-.523437.742187-.980469 1.53125-1.375 2.375-.386719.835937-.703125 1.710937-.953125 2.625-.25.90625-.414062 1.839844-.484375 2.796875h1.53125c.050781-.882812.195313-1.796875.4375-2.734375.25-.9375.566406-1.847656.953125-2.734375.394531-.882812.84375-1.71875 1.34375-2.5s1.035156-1.453125 1.609375-2.015625zm0 0"/></symbol><symbol id="C" overflow="visible"><path d="m5.703125 0v-11.34375h-1.046875c-.074219.429688-.214844.78125-.421875 1.0625-.199219.273438-.445313.492188-.734375.65625-.292969.15625-.621094.265625-.984375.328125-.367187.054687-.742187.078125-1.125.078125v1.09375h2.953125v8.125zm0 0"/></symbol><symbol id="D" overflow="visible"><path d="m1.375-14.28125v14.28125h3.140625v-14.28125zm0 0"/></symbol><symbol id="E" overflow="visible"><path d="m3.515625-4.734375h-3.03125c-.023437.875.132813 1.636719.46875 2.28125.332031.636719.78125 1.164063 1.34375 1.578125.570313.40625 1.226563.703125 1.96875.890625.738281.195313 1.503906.296875 2.296875.296875.96875 0 1.820312-.109375 2.5625-.328125.738281-.226563 1.359375-.546875 1.859375-.953125s.875-.890625 1.125-1.453125c.257813-.5625.390625-1.164063.390625-1.8125 0-.800781-.171875-1.457031-.515625-1.96875-.335937-.519531-.734375-.929687-1.203125-1.234375-.46875-.3125-.945312-.535156-1.421875-.671875-.46875-.132813-.835937-.234375-1.09375-.296875-.898437-.21875-1.621094-.398438-2.171875-.546875-.554688-.15625-.992188-.304687-1.3125-.453125-.3125-.144531-.523438-.300781-.625-.46875-.105469-.175781-.15625-.40625-.15625-.6875 0-.300781.066406-.550781.203125-.75.132813-.207031.300781-.375.5-.5.207031-.132812.4375-.226562.6875-.28125.257813-.0625.515625-.09375.765625-.09375.382812 0 .738281.039062 1.0625.109375.332031.0625.625.179687.875.34375.257812.15625.460938.375.609375.65625.15625.28125.25.636719.28125 1.0625h3.03125c0-.832031-.15625-1.535156-.46875-2.109375-.3125-.582031-.734375-1.0625-1.265625-1.4375s-1.140625-.644531-1.828125-.8125c-.6875-.164062-1.40625-.25-2.15625-.25-.636719 0-1.277344.089844-1.921875.265625-.636719.179687-1.210938.449219-1.71875.8125-.5.355469-.914062.804687-1.234375 1.34375-.3125.53125-.46875 1.167969-.46875 1.90625 0 .65625.125 1.214844.375 1.671875.25.460938.570313.84375.96875 1.15625.40625.304688.859375.554688 1.359375.75.507812.1875 1.03125.351562 1.5625.484375.519531.148437 1.03125.28125 1.53125.40625.507812.117187.960938.25 1.359375.40625.40625.15625.726563.359375.96875.609375.25.242188.375.554688.375.9375 0 .355469-.09375.652344-.28125.890625-.179687.230469-.40625.414063-.6875.546875-.28125.136719-.585937.230469-.90625.28125-.324219.042969-.621094.0625-.890625.0625-.417969 0-.820312-.050781-1.203125-.15625-.386719-.101562-.726563-.253906-1.015625-.453125-.28125-.207031-.511719-.476563-.6875-.8125-.179688-.332031-.265625-.738281-.265625-1.21875zm0 0"/></symbol><symbol id="F" overflow="visible"><path d="m4.515625-2.640625v-9h2.25c.769531 0 1.414063.109375 1.9375.328125.53125.21875.953125.539062 1.265625.953125.320312.417969.550781.917969.6875 1.5.144531.574219.21875 1.21875.21875 1.9375 0 .792969-.101562 1.464844-.296875 2.015625-.199219.542969-.464844.984375-.796875 1.328125-.335938.335937-.714844.574219-1.140625.71875-.429687.148437-.871094.21875-1.328125.21875zm-3.140625-11.640625v14.28125h6.171875c1.09375 0 2.039063-.179688 2.84375-.546875.800781-.363281 1.472656-.863281 2.015625-1.5.539062-.644531.941406-1.40625 1.203125-2.28125.269531-.882813.40625-1.847656.40625-2.890625 0-1.1875-.164063-2.21875-.484375-3.09375-.324219-.882812-.777344-1.617188-1.359375-2.203125-.585937-.59375-1.273437-1.035156-2.0625-1.328125-.792969-.289062-1.648437-.4375-2.5625-.4375zm0 0"/></symbol><symbol id="G" overflow="visible"><path d="m4.515625-8.5v-3.34375h2.9375c.28125 0 .550781.027344.8125.078125.257813.042969.488281.125.6875.25.207031.117187.367187.28125.484375.5.125.210937.1875.480469.1875.8125 0 .605469-.183594 1.042969-.546875 1.3125-.355469.261719-.8125.390625-1.375.390625zm-3.140625-5.78125v14.28125h6.921875c.644531 0 1.269531-.078125 1.875-.234375.601563-.164063 1.140625-.414063 1.609375-.75.476562-.332031.859375-.757813 1.140625-1.28125.28125-.53125.421875-1.15625.421875-1.875 0-.894531-.21875-1.65625-.65625-2.28125-.429688-.632813-1.085938-1.082031-1.96875-1.34375.644531-.300781 1.128906-.691406 1.453125-1.171875.320313-.476562.484375-1.078125.484375-1.796875 0-.664063-.109375-1.222656-.328125-1.671875-.21875-.457031-.53125-.820312-.9375-1.09375-.398437-.28125-.875-.476562-1.4375-.59375-.554687-.125-1.171875-.1875-1.859375-.1875zm3.140625 11.84375v-3.921875h3.421875c.675781 0 1.222656.15625 1.640625.46875.414063.3125.625.839844.625 1.578125 0 .367188-.070313.667969-.203125.90625-.125.242188-.292969.433594-.5.578125-.210938.136719-.453125.234375-.734375.296875s-.578125.09375-.890625.09375zm0 0"/></symbol><symbol id="H" overflow="visible"><path d="m1.0625-6.6875v2.453125h6.015625v-2.453125zm0 0"/></symbol><symbol id="I" overflow="visible"><path d="m1.375-14.28125v14.28125h2.9375v-9.5625h.046875l5.9375 9.5625h3.140625v-14.28125h-2.9375v9.578125h-.046875l-5.953125-9.578125zm0 0"/></symbol><symbol id="J" overflow="visible"><path d="m4.515625-7.5625v-4.28125h2.4375c.363281 0 .710937.027344 1.046875.078125.332031.054687.625.15625.875.3125.257812.15625.460938.375.609375.65625.15625.28125.234375.648437.234375 1.09375 0 .460937-.078125.828125-.234375 1.109375-.148437.273438-.351563.484375-.609375.640625-.25.15625-.542969.261719-.875.3125-.335938.054687-.683594.078125-1.046875.078125zm-3.140625-6.71875v14.28125h3.140625v-5.125h3.296875c.894531 0 1.65625-.128906 2.28125-.390625.632812-.257813 1.144531-.601563 1.53125-1.03125.394531-.425781.679688-.914063.859375-1.46875.1875-.550781.28125-1.113281.28125-1.6875 0-.582031-.09375-1.144531-.28125-1.6875-.179687-.550781-.464844-1.039063-.859375-1.46875-.386719-.425781-.898438-.769531-1.53125-1.03125-.625-.257813-1.386719-.390625-2.28125-.390625zm0 0"/></symbol><symbol id="K" overflow="visible"><path d="m4-11.9375v-2.34375h-2.84375v2.34375zm-2.84375 1.59375v10.34375h2.84375v-10.34375zm0 0"/></symbol><symbol id="L" overflow="visible"><path d="m1.078125-10.34375v10.34375h2.84375v-4.65625c0-.46875.046875-.898438.140625-1.296875.09375-.40625.25-.753906.46875-1.046875.21875-.300781.503906-.539062.859375-.71875.363281-.175781.804687-.265625 1.328125-.265625.175781 0 .359375.011719.546875.03125.1875.023437.34375.046875.46875.078125v-2.640625c-.21875-.070313-.421875-.109375-.609375-.109375-.367188 0-.714844.058594-1.046875.171875-.335937.105469-.648437.257813-.9375.453125-.292969.1875-.554687.417969-.78125.6875-.230469.273438-.414063.570312-.546875.890625h-.03125v-1.921875zm0 0"/></symbol><symbol id="M" overflow="visible"><path d="m10.78125 0v-10.34375h-2.84375v5.421875c0 1.054687-.171875 1.8125-.515625 2.28125-.34375.460937-.90625.6875-1.6875.6875-.679687 0-1.152344-.207031-1.421875-.625-.261719-.425781-.390625-1.066406-.390625-1.921875v-5.84375h-2.84375v6.359375c0 .648437.054687 1.234375.171875 1.765625.113281.523438.3125.964844.59375 1.328125.28125.367187.660156.652344 1.140625.859375.488281.195312 1.113281.296875 1.875.296875.601563 0 1.191406-.136719 1.765625-.40625.570312-.269531 1.035156-.703125 1.390625-1.296875h.0625v1.4375zm0 0"/></symbol><symbol id="N" overflow="visible"><path d="m3.28125-3.359375h-2.703125c.03125.699219.1875 1.277344.46875 1.734375.289063.460938.65625.828125 1.09375 1.109375.445313.28125.957031.4804688 1.53125.59375.582031.125 1.171875.1875 1.765625.1875.582031 0 1.15625-.058594 1.71875-.171875.570312-.1132812 1.078125-.3125 1.515625-.59375.445313-.28125.804687-.648438 1.078125-1.109375.269531-.457031.40625-1.023437.40625-1.703125 0-.488281-.09375-.894531-.28125-1.21875-.1875-.320312-.433594-.59375-.734375-.8125-.304687-.226562-.652344-.40625-1.046875-.53125-.398438-.132812-.804688-.25-1.21875-.34375-.398438-.09375-.789062-.175781-1.171875-.25-.386719-.082031-.730469-.175781-1.03125-.28125-.304687-.101562-.546875-.234375-.734375-.390625s-.28125-.363281-.28125-.625c0-.207031.050781-.375.15625-.5.113281-.125.242188-.21875.390625-.28125.15625-.070313.328125-.117187.515625-.140625.1875-.019531.359375-.03125.515625-.03125.507813 0 .953125.101562 1.328125.296875.375.1875.582031.558594.625 1.109375h2.6875c-.054688-.644531-.214844-1.175781-.484375-1.59375-.273437-.425781-.617187-.765625-1.03125-1.015625-.417969-.25-.890625-.425781-1.421875-.53125-.523438-.113281-1.0625-.171875-1.625-.171875-.554688 0-1.101562.054688-1.640625.15625-.53125.105469-1.011719.28125-1.4375.53125-.429687.242188-.773437.574219-1.03125 1-.261719.429688-.390625.976562-.390625 1.640625 0 .449219.09375.828125.28125 1.140625s.429688.574219.734375.78125c.3125.210938.664063.375 1.0625.5.394531.125.796875.234375 1.203125.328125 1.019531.21875 1.8125.4375 2.375.65625.5625.210937.84375.527344.84375.953125 0 .25-.0625.460938-.1875.625-.117188.167969-.261719.304688-.4375.40625-.179688.09375-.375.167969-.59375.21875-.21875.042969-.433594.0625-.640625.0625-.273437 0-.539063-.03125-.796875-.09375-.261719-.0625-.496094-.160156-.703125-.296875-.199219-.144531-.359375-.328125-.484375-.546875-.125-.226562-.1875-.492188-.1875-.796875zm0 0"/></symbol><symbol id="O" overflow="visible"><path d="m1.375-14.28125v14.28125h2.9375v-10.015625h.046875l3.5 10.015625h2.421875l3.5-10.125h.03125v10.125h2.953125v-14.28125h-4.421875l-3.15625 9.828125h-.046875l-3.34375-9.828125zm0 0"/></symbol><symbol id="P" overflow="visible"><path d="m1.375-14.28125v14.28125h3.140625v-5.90625h5.984375v-2.4375h-5.984375v-3.296875h6.90625v-2.640625zm0 0"/></symbol><symbol id="Q" overflow="visible"><path d="m1.078125-10.34375v10.34375h2.84375v-5.421875c0-1.050781.171875-1.804687.515625-2.265625.34375-.457031.90625-.6875 1.6875-.6875.675781 0 1.144531.210938 1.40625.625.269531.417969.40625 1.054688.40625 1.90625v5.84375h2.84375v-6.359375c0-.632813-.058594-1.21875-.171875-1.75-.117187-.53125-.3125-.976563-.59375-1.34375-.28125-.363281-.667969-.648437-1.15625-.859375-.480469-.207031-1.101563-.3125-1.859375-.3125-.605469 0-1.195312.140625-1.765625.421875-.574219.273437-1.039063.703125-1.390625 1.296875h-.0625v-1.4375zm0 0"/></symbol><symbol id="R" overflow="visible"><path d="m8.421875-5.203125c0 .429687-.042969.84375-.125 1.25-.074219.398437-.203125.75-.390625 1.0625s-.4375.5625-.75.75-.703125.28125-1.171875.28125c-.449219 0-.828125-.09375-1.140625-.28125-.3125-.195313-.574219-.453125-.78125-.765625-.199219-.3125-.34375-.664062-.4375-1.0625-.09375-.40625-.140625-.8125-.140625-1.21875 0-.414062.039063-.820312.125-1.21875.082031-.394531.21875-.742188.40625-1.046875.195313-.3125.457031-.5625.78125-.75.320313-.1875.71875-.28125 1.1875-.28125s.851563.09375 1.15625.28125c.300781.1875.550781.433594.75.734375.195313.304688.332031.652344.40625 1.046875.082031.386719.125.792969.125 1.21875zm.03125 3.890625v1.3125h2.703125v-14.28125h-2.84375v5.203125h-.03125c-.324219-.507813-.761719-.894531-1.3125-1.15625-.554688-.257813-1.136719-.390625-1.75-.390625-.761719 0-1.429688.152344-2 .453125-.574219.304687-1.054688.703125-1.4375 1.203125-.375.492188-.664062 1.058594-.859375 1.703125-.1875.648437-.28125 1.3125-.28125 2 0 .71875.09375 1.414063.28125 2.078125.195313.667969.484375 1.261719.859375 1.78125.382812.511719.867188.917969 1.453125 1.21875.59375.300781 1.273437.453125 2.046875.453125.675781 0 1.285156-.125 1.828125-.375.539063-.25.976563-.648437 1.3125-1.203125zm0 0"/></symbol><symbol id="S" overflow="visible"><path d="m8.046875-6.28125h-4.625c.007813-.195312.050781-.421875.125-.671875.070313-.257813.195313-.5.375-.71875.1875-.226563.425781-.421875.71875-.578125.300781-.15625.679687-.234375 1.140625-.234375.6875 0 1.203125.1875 1.546875.5625s.582031.921875.71875 1.640625zm-4.625 1.796875h7.453125c.050781-.800781-.015625-1.566406-.203125-2.296875-.179687-.726562-.480469-1.378906-.90625-1.953125-.417969-.570313-.953125-1.03125-1.609375-1.375-.648438-.34375-1.414062-.515625-2.296875-.515625-.78125 0-1.5.140625-2.15625.421875-.648437.28125-1.203125.667969-1.671875 1.15625-.460938.492187-.820312 1.070313-1.078125 1.734375-.25.667969-.375 1.386719-.375 2.15625 0 .804688.117187 1.539062.359375 2.203125.25.667969.601562 1.242187 1.0625 1.71875.457031.480469 1.007812.851563 1.65625 1.109375.65625.257812 1.390625.390625 2.203125.390625 1.175781 0 2.175781-.265625 3-.796875.820313-.539062 1.4375-1.429688 1.84375-2.671875h-2.5c-.09375.324219-.351563.632813-.765625.921875-.417969.28125-.914062.421875-1.484375.421875-.792969 0-1.402344-.203125-1.828125-.609375-.429688-.414062-.664062-1.085938-.703125-2.015625zm0 0"/></symbol><symbol id="T" overflow="visible"><path d="m15.46875-4.21875c0 1.28125-.4375 2.308594-1.3125 3.078125-.875.761719-2.105469 1.140625-3.6875 1.140625h-8.59375v-14.890625h7.1875c.9375 0 1.75.089844 2.4375.265625.6875.179688 1.238281.421875 1.65625.734375.425781.3125.742188.683594.953125 1.109375.207031.417969.3125.882812.3125 1.390625 0 .542969-.109375 1.042969-.328125 1.5-.210938.460937-.476562.839844-.796875 1.140625-.3125.304688-.632813.511719-.953125.625 1.019531.40625 1.796875.917969 2.328125 1.53125.53125.605469.796875 1.398438.796875 2.375zm-5.234375-6.390625c0-.707031-.242187-1.179687-.71875-1.421875-.46875-.238281-1.203125-.359375-2.203125-.359375h-.953125v3.578125h.96875c1.019531 0 1.757813-.117188 2.21875-.359375.457031-.238281.6875-.71875.6875-1.4375zm.71875 6.203125c0-1.269531-.921875-1.90625-2.765625-1.90625h-1.828125v3.8125h1.828125c1.84375 0 2.765625-.632812 2.765625-1.90625zm0 0"/></symbol><symbol id="U" overflow="visible"><path d="m12.453125-4.53125h-7.703125c.144531.667969.507812 1.214844 1.09375 1.640625.59375.417969 1.265625.625 2.015625.625 1.300781 0 2.738281-.363281 4.3125-1.09375v2.390625c-.5625.292969-1.25.558594-2.0625.796875-.804687.2382812-1.828125.359375-3.078125.359375-1.34375 0-2.492188-.25-3.4375-.75-.9375-.5-1.640625-1.175781-2.109375-2.03125-.46875-.863281-.703125-1.835938-.703125-2.921875 0-1.082031.234375-2.046875.703125-2.890625s1.171875-1.503906 2.109375-1.984375c.945312-.488281 2.09375-.734375 3.4375-.734375.894531 0 1.753906.195312 2.578125.578125.820313.375 1.5 1 2.03125 1.875.539063.867187.8125 1.984375.8125 3.359375zm-3.640625-1.921875c0-.695313-.171875-1.253906-.515625-1.671875-.34375-.414062-.84375-.625-1.5-.625-.648437 0-1.167969.214844-1.5625.640625-.398437.417969-.59375.96875-.59375 1.65625zm0 0"/></symbol><symbol id="V" overflow="visible"><path d="m8.5625-12.125c-.585938-.132812-1.058594-.203125-1.421875-.203125-.417969 0-.746094.140625-.984375.421875-.230469.273438-.34375.65625-.34375 1.15625v.390625h1.953125v2.609375h-1.953125v7.75h-3.875v-7.75h-1.78125v-2.609375h1.78125v-.203125c0-.757812.144531-1.484375.4375-2.171875.300781-.6875.796875-1.25 1.484375-1.6875.695313-.445313 1.617187-.671875 2.765625-.671875.632812 0 1.28125.070312 1.9375.203125zm0 0"/></symbol><symbol id="W" overflow="visible"><path d="m13.3125-5.484375c0 1.09375-.242188 2.070313-.71875 2.921875-.46875.84375-1.179688 1.515625-2.125 2.015625-.9375.4921875-2.085938.734375-3.4375.734375-1.355469 0-2.5-.2421875-3.4375-.734375-.9375-.5-1.640625-1.171875-2.109375-2.015625-.46875-.851562-.703125-1.828125-.703125-2.921875 0-.820313.128906-1.566406.390625-2.234375.257813-.675781.65625-1.273438 1.1875-1.796875.53125-.519531 1.1875-.914063 1.96875-1.1875.78125-.28125 1.679687-.421875 2.703125-.421875 1.03125 0 1.941406.140625 2.734375.421875.789063.28125 1.445313.679687 1.96875 1.1875.519531.511719.910156 1.105469 1.171875 1.78125.269531.679687.40625 1.429687.40625 2.25zm-4.078125 0c0-.863281-.1875-1.539063-.5625-2.03125-.375-.488281-.921875-.734375-1.640625-.734375-.710938 0-1.25.246094-1.625.734375-.375.492187-.5625 1.167969-.5625 2.03125 0 .867187.1875 1.546875.5625 2.046875.382812.5.925781.75 1.625.75.71875 0 1.265625-.242188 1.640625-.734375.375-.5.5625-1.1875.5625-2.0625zm0 0"/></symbol><symbol id="X" overflow="visible"><path d="m10.84375-10.34375-1.421875 3.875c-.585937-.5625-1.179687-.84375-1.78125-.84375-.542969 0-1.015625.1875-1.421875.5625-.398438.367188-.777344 1.046875-1.140625 2.046875v4.703125h-3.859375v-10.9375h3.859375v2.640625c.25-.644531.679687-1.273437 1.296875-1.890625.613281-.625 1.335938-.9375 2.171875-.9375.4375 0 .816406.0625 1.140625.1875.320312.125.707031.324219 1.15625.59375zm0 0"/></symbol><symbol id="Y" overflow="visible"><path d="m18.21875 0h-4.59375l-1.21875-3.015625h-6.46875l-1.234375 3.015625h-4.59375l6.578125-14.890625h4.96875zm-6.84375-5.609375-2.171875-5.4375-2.203125 5.4375zm0 0"/></symbol><symbol id="Z" overflow="visible"><path d="m9.859375-.640625c-.398437.199219-.949219.386719-1.65625.5625-.710937.1757812-1.386719.265625-2.03125.265625-2.78125 0-4.171875-1.359375-4.171875-4.078125v-4.359375h-1.75v-.671875l5.1875-5.296875h.4375v3.28125h3.703125v2.6875h-3.703125v3.5c0 .40625.023438.734375.078125.984375.050781.25.191406.464844.421875.640625.226562.167969.582031.25 1.0625.25.613281 0 1.421875-.257812 2.421875-.78125zm0 0"/></symbol><symbol id="aa" overflow="visible"><path d="m5.421875-2.109375c0 .636719-.226563 1.179687-.671875 1.625-.4375.4492188-.980469.671875-1.625.671875-.636719 0-1.183594-.2226562-1.640625-.671875-.460937-.445313-.6875-.988281-.6875-1.625 0-.644531.226563-1.191406.6875-1.640625.457031-.445312 1.003906-.671875 1.640625-.671875.40625 0 .785156.105469 1.140625.3125.363281.210937.644531.492187.84375.84375.207031.34375.3125.730469.3125 1.15625zm0 0"/></symbol><symbol id="ab" overflow="visible"/><symbol id="ac" overflow="visible"><path d="m.375-15.03125h12.53125v1.921875h-5.21875v13.109375h-2.171875v-13.109375h-5.140625zm0 0"/></symbol><symbol id="ad" overflow="visible"><path d="m1.671875-15h2.15625v15h-2.15625zm0 0"/></symbol><symbol id="ae" overflow="visible"><path d="m5.375-6.296875-1.640625-.984375c-1.023437-.625-1.75-1.238281-2.1875-1.84375-.429687-.601562-.640625-1.300781-.640625-2.09375 0-1.175781.40625-2.132812 1.21875-2.875.820312-.738281 1.890625-1.109375 3.203125-1.109375 1.25 0 2.398437.355469 3.453125 1.0625v2.4375c-1.085938-1.039063-2.25-1.5625-3.5-1.5625-.699219 0-1.277344.164063-1.734375.484375-.449219.324219-.671875.742188-.671875 1.25 0 .460938.164062.886719.5 1.28125.332031.386719.863281.792969 1.59375 1.21875l1.65625.96875c1.832031 1.09375 2.75 2.484375 2.75 4.171875 0 1.210937-.40625 2.1875-1.21875 2.9375-.804688.75-1.851562 1.125-3.140625 1.125-1.480469 0-2.828125-.453125-4.046875-1.359375v-2.734375c1.15625 1.46875 2.5 2.203125 4.03125 2.203125.664062 0 1.222656-.1875 1.671875-.5625.445313-.375.671875-.847656.671875-1.421875 0-.914063-.65625-1.78125-1.96875-2.59375zm0 0"/></symbol><symbol id="af" overflow="visible"><path d="m.84375-9.34375c.382812 0 .757812-.03125 1.125-.09375.363281-.0625.691406-.164062.984375-.3125.289063-.15625.539063-.347656.75-.578125.207031-.238281.34375-.53125.40625-.875h1.484375v11.203125h-2v-7.90625h-2.75zm0 0"/></symbol><symbol id="ag" overflow="visible"><path d="m1.109375-2.15625h2.21875v2.15625h-2.21875zm0 0"/></symbol><symbol id="ah" overflow="visible"><path d="m3.640625-6.5625c.300781.011719.597656-.007812.890625-.0625.300781-.050781.570312-.144531.8125-.28125.238281-.132812.425781-.316406.5625-.546875.144531-.238281.21875-.523437.21875-.859375 0-.488281-.164062-.875-.484375-1.15625-.324219-.289062-.742187-.4375-1.25-.4375-.324219 0-.605469.070312-.84375.203125-.230469.125-.421875.296875-.578125.515625s-.273438.464844-.34375.734375c-.074219.273437-.105469.554687-.09375.84375h-1.828125c.019531-.550781.117187-1.054687.296875-1.515625.1875-.46875.4375-.867188.75-1.203125.3125-.34375.691406-.609375 1.140625-.796875.445313-.195312.957031-.296875 1.53125-.296875.4375 0 .863281.0625 1.28125.1875.425781.125.804687.3125 1.140625.5625.332031.25.597656.5625.796875.9375.207031.375.3125.808594.3125 1.296875 0 .574219-.132813 1.074219-.390625 1.5-.25.417969-.648438.71875-1.1875.90625v.03125c.632812.125 1.128906.445312 1.484375.953125.363281.511719.546875 1.125.546875 1.84375 0 .53125-.109375 1.011719-.328125 1.4375-.210937.417969-.496094.777344-.859375 1.078125-.367188.292969-.789062.515625-1.265625.671875-.480469.15625-.984375.234375-1.515625.234375-.65625 0-1.230469-.09375-1.71875-.28125-.480469-.1875-.882812-.445312-1.203125-.78125-.324219-.34375-.574219-.753906-.75-1.234375-.167969-.476563-.257813-1.015625-.265625-1.609375h1.8125c-.023438.6875.144531 1.261719.5 1.71875.363281.449219.90625.671875 1.625.671875.601562 0 1.109375-.171875 1.515625-.515625.414063-.351562.625-.847656.625-1.484375 0-.4375-.089844-.78125-.265625-1.03125-.167969-.257813-.390625-.457031-.671875-.59375-.273437-.132813-.585937-.21875-.9375-.25-.34375-.03125-.699219-.039063-1.0625-.03125zm0 0"/></symbol><symbol id="ai" overflow="visible"><path d="m1.796875-4.09375h3.390625v-4.9375h-.03125zm6.5625 1.4375h-1.453125v2.65625h-1.71875v-2.65625h-4.796875v-1.8125l4.796875-6.734375h1.71875v7.109375h1.453125zm0 0"/></symbol><symbol id="aj" overflow="visible"><path d="m1.96875-11.203125h5.796875v1.640625h-4.4375l-.578125 2.84375.03125.03125c.25-.28125.5625-.488281.9375-.625.375-.144531.75-.21875 1.125-.21875.5625 0 1.054688.09375 1.484375.28125.4375.1875.804687.449219 1.109375.78125.300781.335938.53125.730469.6875 1.1875.15625.460938.234375.953125.234375 1.484375 0 .449219-.074219.914063-.21875 1.390625-.148437.46875-.382813.902344-.703125 1.296875-.3125.386719-.714844.703125-1.203125.953125-.492187.25-1.074219.375-1.75.375-.554687 0-1.0625-.074219-1.53125-.21875-.460937-.132812-.867187-.347656-1.21875-.640625-.34375-.289063-.621094-.644531-.828125-1.0625-.210938-.425781-.324219-.921875-.34375-1.484375h1.828125c.050781.617188.253906 1.085938.609375 1.40625.363281.324219.847656.484375 1.453125.484375.382813 0 .707031-.0625.96875-.1875.269531-.132813.484375-.3125.640625-.53125.164062-.226563.285156-.488281.359375-.78125.070313-.300781.109375-.625.109375-.96875 0-.300781-.046875-.59375-.140625-.875-.085937-.289063-.210937-.539063-.375-.75-.167969-.21875-.390625-.390625-.671875-.515625-.273438-.125-.585938-.1875-.9375-.1875-.386719 0-.75.074219-1.09375.21875-.335938.148438-.574219.414062-.71875.796875h-1.828125zm0 0"/></symbol><symbol id="ak" overflow="visible"><path d="m8.265625 0h-7.640625c.007812-.925781.234375-1.734375.671875-2.421875.4375-.695313 1.035156-1.300781 1.796875-1.8125.351562-.269531.726562-.53125 1.125-.78125.394531-.25.757812-.515625 1.09375-.796875.332031-.289062.601562-.601562.8125-.9375.21875-.34375.332031-.734375.34375-1.171875 0-.195313-.027344-.410156-.078125-.640625-.054687-.226562-.148437-.441406-.28125-.640625-.136719-.195313-.328125-.363281-.578125-.5-.242188-.132813-.558594-.203125-.953125-.203125-.367187 0-.667969.074219-.90625.21875-.242187.148438-.433594.34375-.578125.59375-.148438.25-.257812.546875-.328125.890625-.0625.335937-.101563.699219-.109375 1.09375h-1.828125c0-.613281.082031-1.179687.25-1.703125.164063-.53125.410156-.988281.734375-1.375.332031-.382812.738281-.6875 1.21875-.90625.476562-.21875 1.03125-.328125 1.65625-.328125.6875 0 1.257812.117187 1.71875.34375.457031.21875.828125.5 1.109375.84375.28125.335937.476563.703125.59375 1.109375.113281.398438.171875.777344.171875 1.140625 0 .449219-.070312.855469-.203125 1.21875-.136719.367187-.324219.699219-.5625 1-.230469.304687-.496094.585937-.796875.84375-.304688.25-.617188.492187-.9375.71875-.3125.21875-.632812.433594-.953125.640625-.3125.199219-.609375.402344-.890625.609375-.273438.199219-.511719.40625-.71875.625-.199219.21875-.335938.453125-.40625.703125h5.453125zm0 0"/></symbol><symbol id="al" overflow="visible"><path d="m4.453125-9.984375c-.492187 0-.90625.148437-1.25.4375-.34375.292969-.515625.71875-.515625 1.28125 0 .53125.164062.9375.5 1.21875.332031.28125.753906.421875 1.265625.421875.507813 0 .925781-.140625 1.25-.421875.332031-.28125.5-.6875.5-1.21875 0-.5625-.171875-.988281-.515625-1.28125-.335938-.289063-.746094-.4375-1.234375-.4375zm0 10.203125c-.574219 0-1.105469-.078125-1.59375-.234375-.480469-.15625-.898437-.382813-1.25-.6875-.34375-.3125-.617187-.6875-.8125-1.125-.199219-.4375-.296875-.925781-.296875-1.46875 0-.707031.179688-1.300781.546875-1.78125.363281-.476563.863281-.796875 1.5-.953125v-.03125c-.511719-.195312-.90625-.492188-1.1875-.890625-.273437-.394531-.40625-.867187-.40625-1.421875 0-.957031.300781-1.703125.90625-2.234375.601563-.539063 1.46875-.8125 2.59375-.8125 1.113281 0 1.972656.273437 2.578125.8125.601562.53125.90625 1.277344.90625 2.234375 0 .554688-.136719 1.027344-.40625 1.421875-.273438.398437-.664062.695313-1.171875.890625v.03125c.625.15625 1.117187.476562 1.484375.953125.375.480469.5625 1.074219.5625 1.78125 0 .542969-.101562 1.03125-.296875 1.46875-.199219.4375-.476563.8125-.828125 1.125-.355469.304687-.777344.53125-1.265625.6875-.480469.15625-1 .234375-1.5625.234375zm0-1.4375c.601563 0 1.109375-.175781 1.515625-.53125.40625-.363281.609375-.878906.609375-1.546875 0-.613281-.203125-1.09375-.609375-1.4375-.40625-.351563-.914062-.53125-1.515625-.53125-.617187 0-1.125.179687-1.53125.53125-.40625.34375-.609375.824219-.609375 1.4375 0 .667969.203125 1.183594.609375 1.546875.40625.355469.914063.53125 1.53125.53125zm0 0"/></symbol><symbol id="am" overflow="visible"><path d="m.5625-11.203125h7.65625v1.515625c-.585938.667969-1.117188 1.355469-1.59375 2.0625-.480469.710938-.902344 1.464844-1.265625 2.265625-.355469.792969-.648437 1.632813-.875 2.515625-.21875.886719-.367187 1.835938-.4375 2.84375h-2c.0625-.882812.210937-1.757812.453125-2.625.238281-.863281.546875-1.703125.921875-2.515625.382813-.8125.828125-1.585937 1.328125-2.328125.5-.75 1.039062-1.445312 1.625-2.09375h-5.8125zm0 0"/></symbol><symbol id="an" overflow="visible"><path d="m6.3125-8.375c-.042969-.457031-.203125-.828125-.484375-1.109375s-.664063-.421875-1.140625-.421875c-.335938 0-.621094.0625-.859375.1875-.242187.125-.445313.292969-.609375.5-.167969.199219-.304688.429688-.40625.6875-.09375.261719-.171875.539062-.234375.828125-.0625.28125-.109375.5625-.140625.84375-.023438.28125-.042969.546875-.0625.796875l.03125.03125c.238281-.445312.570312-.78125 1-1 .4375-.21875.90625-.328125 1.40625-.328125.550781 0 1.046875.101563 1.484375.296875.4375.1875.804687.449219 1.109375.78125.3125.335938.546875.730469.703125 1.1875.164063.460938.25.960938.25 1.5 0 .542969-.089844 1.046875-.265625 1.515625-.179688.460937-.433594.859375-.765625 1.203125-.335937.34375-.730469.617188-1.1875.8125-.460937.1875-.964844.28125-1.515625.28125-.824219 0-1.5-.1523438-2.03125-.453125-.523438-.300781-.9375-.710937-1.25-1.234375-.304688-.53125-.511719-1.148438-.625-1.859375-.117188-.71875-.171875-1.484375-.171875-2.296875 0-.675781.066406-1.351562.203125-2.03125.144531-.6875.382812-1.3125.71875-1.875.332031-.5625.765625-1.015625 1.296875-1.359375.539063-.351563 1.207031-.53125 2-.53125.445313 0 .867187.078125 1.265625.234375.394531.148438.742188.355469 1.046875.625.300781.261719.546875.578125.734375.953125.195312.367187.304688.777344.328125 1.234375zm-1.75 7.078125c.332031 0 .617188-.066406.859375-.203125.25-.132812.453125-.304688.609375-.515625.164062-.21875.289062-.46875.375-.75.082031-.28125.125-.566406.125-.859375 0-.300781-.042969-.585938-.125-.859375-.085938-.28125-.210938-.523437-.375-.734375-.15625-.207031-.359375-.375-.609375-.5-.242187-.132812-.527344-.203125-.859375-.203125-.335938 0-.625.0625-.875.1875s-.464844.292969-.640625.5c-.167969.210937-.292969.453125-.375.734375-.085937.273438-.125.5625-.125.875 0 .304688.039063.59375.125.875.082031.273438.207031.515625.375.734375.175781.21875.390625.398437.640625.53125.25.125.539062.1875.875.1875zm0 0"/></symbol><symbol id="ao" overflow="visible"><path d="m4.453125-11.421875c.789063 0 1.441406.1875 1.953125.5625.507812.367187.90625.835937 1.1875 1.40625.28125.5625.46875 1.1875.5625 1.875.101562.679687.15625 1.339844.15625 1.984375 0 .636719-.054688 1.296875-.15625 1.984375-.09375.679687-.28125 1.304687-.5625 1.875-.28125.574219-.679688 1.042969-1.1875 1.40625-.511719.3632812-1.164062.546875-1.953125.546875-.804687 0-1.460937-.1835938-1.96875-.546875-.5-.363281-.898437-.832031-1.1875-1.40625-.28125-.570313-.476563-1.195313-.578125-1.875-.09375-.6875-.140625-1.347656-.140625-1.984375 0-.644531.046875-1.304688.140625-1.984375.101562-.6875.296875-1.3125.578125-1.875.289063-.570313.6875-1.039063 1.1875-1.40625.507813-.375 1.164063-.5625 1.96875-.5625zm0 10.125c.394531 0 .722656-.113281.984375-.34375.269531-.226563.476562-.535156.625-.921875.15625-.394531.265625-.851562.328125-1.375.070313-.519531.109375-1.070312.109375-1.65625 0-.59375-.039062-1.144531-.109375-1.65625-.0625-.519531-.171875-.976562-.328125-1.375-.148438-.394531-.355469-.707031-.625-.9375-.261719-.226562-.589844-.34375-.984375-.34375-.40625 0-.742187.117188-1 .34375-.261719.230469-.46875.542969-.625.9375-.15625.398438-.265625.855469-.328125 1.375-.0625.511719-.09375 1.0625-.09375 1.65625 0 .585938.03125 1.136719.09375 1.65625.0625.523438.171875.980469.328125 1.375.15625.386719.363281.695312.625.921875.257813.230469.59375.34375 1 .34375zm0 0"/></symbol><symbol id="ap" overflow="visible"><path d="m2.578125-2.828125c.039063.460937.203125.828125.484375 1.109375s.660156.421875 1.140625.421875c.488281 0 .878906-.128906 1.171875-.390625.300781-.257812.53125-.582031.6875-.96875.15625-.394531.265625-.8125.328125-1.25.0625-.445312.109375-.859375.140625-1.234375l-.03125-.03125c-.25.4375-.589844.773437-1.015625 1-.429687.230469-.898437.34375-1.40625.34375-.53125 0-1.015625-.085937-1.453125-.265625-.429688-.1875-.796875-.441406-1.109375-.765625-.304687-.320313-.542969-.710937-.71875-1.171875-.167969-.46875-.25-.988281-.25-1.5625 0-.550781.082031-1.054688.25-1.515625.175781-.46875.425781-.875.75-1.21875.332031-.34375.738281-.609375 1.21875-.796875.476563-.195312 1.023437-.296875 1.640625-.296875.78125 0 1.425781.152344 1.9375.453125.519531.304688.925781.71875 1.21875 1.25.289062.53125.492188 1.15625.609375 1.875.125.710938.1875 1.46875.1875 2.28125 0 .667969-.074219 1.34375-.21875 2.03125-.148437.679688-.386719 1.296875-.71875 1.859375-.335937.5625-.773437 1.023437-1.3125 1.375-.53125.34375-1.195313.515625-1.984375.515625-.449219 0-.871094-.074219-1.265625-.21875-.398437-.144531-.746094-.351562-1.046875-.625-.304688-.269531-.554688-.585938-.75-.953125-.1875-.375-.292969-.789063-.3125-1.25zm1.734375-7.078125c-.324219 0-.609375.0625-.859375.1875-.242187.125-.445313.296875-.609375.515625-.15625.210937-.277344.453125-.359375.734375-.074219.273438-.109375.558594-.109375.859375 0 .304687.035156.601563.109375.890625.082031.28125.203125.53125.359375.75.164062.210938.367188.382812.609375.515625.25.125.535156.1875.859375.1875.34375 0 .640625-.0625.890625-.1875.257813-.125.472656-.296875.640625-.515625.164062-.21875.289062-.46875.375-.75.09375-.289062.140625-.585938.140625-.890625 0-.300781-.046875-.585937-.140625-.859375-.085938-.28125-.210938-.523438-.375-.734375-.167969-.207031-.382812-.375-.640625-.5-.25-.132813-.546875-.203125-.890625-.203125zm0 0"/></symbol><g clip-path="url(#a)"><path d="m0 0h680.225v735.5208h-680.225z" fill="#fff"/></g><use x="60.1111" xlink:href="#n" y="212.1436"/><use x="60.1111" xlink:href="#o" y="202.9596"/><use x="60.1111" xlink:href="#p" y="194.0636"/><use x="60.1111" xlink:href="#q" y="189.6156"/><use x="60.1111" xlink:href="#r" y="179.2476"/><use x="60.1111" xlink:href="#s" y="170.6556"/><use x="60.1111" xlink:href="#t" y="161.4716"/><use x="60.1111" xlink:href="#u" y="156.4316"/><use x="60.1111" xlink:href="#p" y="147.8396"/><use x="60.1111" xlink:href="#v" y="143.3916"/><use x="60.1111" xlink:href="#w" y="139.2476"/><use x="60.1111" xlink:href="#x" y="123.2476"/><use x="90.86" xlink:href="#y" y="316.611"/><use x="81.86" xlink:href="#z" y="243.611"/><use x="90.756" xlink:href="#A" y="243.611"/><use x="81.86" xlink:href="#A" y="170.611"/><use x="90.756" xlink:href="#y" y="170.611"/><use x="81.86" xlink:href="#B" y="97.611"/><use x="90.756" xlink:href="#A" y="97.611"/><use x="72.86" xlink:href="#C" y="24.611"/><use x="81.756" xlink:href="#y" y="24.611"/><use x="90.652" xlink:href="#y" y="24.611"/><g clip-path="url(#e)" transform="translate(96 175)"><g clip-path="url(#b)"><path d="m.0016875 79.69635 450.9023435-79.6953125" fill="none" stroke="#6e3b79" stroke-width="6" transform="translate(18.303 17.7724)"/></g><g clip-path="url(#c)"><path d="m10.859375 90.609375h14v14h-14zm0 0" fill="#fff"/></g><path d="m63.837687 265.85855h9v9h-9zm0 0" fill="none" stroke="#6e3b79" stroke-width="6" transform="translate(-50.033 -172.8898)"/><g clip-path="url(#d)"><path d="m461.859375 10.609375h14v14h-14zm0 0" fill="#fff"/></g><path d="m514.740031 186.163238h9v9h-9zm0 0" fill="none" stroke="#6e3b79" stroke-width="6" transform="translate(-50.033 -172.8898)"/></g><g clip-path="url(#i)" transform="translate(96 56)"><g clip-path="url(#f)"><path d="m.0016875 84.073219 450.9023435-84.074219" fill="none" stroke="#55a7a4" stroke-width="6" transform="translate(18.303 17.376)"/></g><g clip-path="url(#g)"><path d="m10.859375 94.609375h14v14h-14zm0 0" fill="#fff"/></g><path d="m63.837687 150.839019h9v9h-9zm0 0" fill="none" stroke="#55a7a4" stroke-width="6" transform="translate(-50.033 -53.8898)"/><g clip-path="url(#h)"><path d="m461.859375 10.609375h14v14h-14zm0 0" fill="#fff"/></g><path d="m514.740031 66.7648h9v9h-9zm0 0" fill="none" stroke="#55a7a4" stroke-width="6" transform="translate(-50.033 -53.8898)"/></g><g clip-path="url(#m)" transform="translate(96 65)"><g clip-path="url(#j)"><path d="m.0016875 196.170287 450.9023435-196.1718745" fill="none" stroke="#fdec59" stroke-width="6" transform="translate(18.303 18.0094)"/></g><g clip-path="url(#k)"><path d="m10.859375 207.609375h14v14h-14zm0 0" fill="#fff"/></g><path d="m63.837687 272.569488h9v9h-9zm0 0" fill="none" stroke="#fdec59" stroke-width="6" transform="translate(-50.033 -62.8898)"/><g clip-path="url(#l)"><path d="m461.859375 10.609375h14v14h-14zm0 0" fill="#fff"/></g><path d="m514.740031 76.397613h9v9h-9zm0 0" fill="none" stroke="#fdec59" stroke-width="6" transform="translate(-50.033 -62.8898)"/></g><use x="181.86" xlink:href="#D" y="726.611"/><use x="187.76" xlink:href="#E" y="726.611"/><use x="200.74" xlink:href="#F" y="726.611"/><use x="215.56" xlink:href="#G" y="726.611"/><use x="229.64" xlink:href="#H" y="726.611"/><use x="237.78" xlink:href="#F" y="726.611"/><use x="252.6" xlink:href="#I" y="726.611"/><use x="267.42" xlink:href="#J" y="726.611"/><use x="333.86" xlink:href="#E" y="726.611"/><use x="346.84" xlink:href="#K" y="726.611"/><use x="352" xlink:href="#L" y="726.611"/><use x="359.78" xlink:href="#K" y="726.611"/><use x="364.94" xlink:href="#M" y="726.611"/><use x="376.8" xlink:href="#N" y="726.611"/><path d="m147.109375 706.449219h24.449219v24.449219h-24.449219zm0 0" fill="#fdec59"/><path d="m299.109375 706.449219h24.449219v24.449219h-24.449219zm0 0" fill="#20908c"/><use x="441.86" xlink:href="#O" y="726.611"/><use x="460" xlink:href="#E" y="726.611"/><use x="472.98" xlink:href="#H" y="726.611"/><use x="481.12" xlink:href="#P" y="726.611"/><use x="492.98" xlink:href="#K" y="726.611"/><use x="498.14" xlink:href="#Q" y="726.611"/><use x="510" xlink:href="#R" y="726.611"/><use x="522.22" xlink:href="#S" y="726.611"/><use x="533.7" xlink:href="#L" y="726.611"/><path d="m407.109375 706.449219h24.449219v24.449219h-24.449219zm0 0" fill="#6e3b79"/><use x="87.86" xlink:href="#T" y="366.611"/><use x="104.338" xlink:href="#U" y="366.611"/><use x="117.4544" xlink:href="#V" y="366.611"/><use x="125.5746" xlink:href="#W" y="366.611"/><use x="139.6568" xlink:href="#X" y="366.611"/><use x="149.5612" xlink:href="#U" y="366.611"/><use x="162.67934" xlink:href="#ab" y="366.611"/><use x="166.04094" xlink:href="#ac" y="366.611"/><use x="179.32894" xlink:href="#ad" y="366.611"/><use x="184.82894" xlink:href="#ae" y="366.611"/><use x="477.86" xlink:href="#Y" y="366.611"/><use x="496.186" xlink:href="#V" y="366.611"/><use x="504.3062" xlink:href="#Z" y="366.611"/><use x="514.6286" xlink:href="#U" y="366.611"/><use x="527.745" xlink:href="#X" y="366.611"/><use x="538.59633" xlink:href="#ab" y="366.611"/><use x="541.95793" xlink:href="#ac" y="366.611"/><use x="555.24593" xlink:href="#ad" y="366.611"/><use x="560.74593" xlink:href="#ae" y="366.611"/><use x="570.82193" xlink:href="#ab" y="366.611"/><path d="m11.940781.000325h643.90625c3.425781 0 5.164063 0 7.007813.585937 2.023437.734375 3.613281 2.324219 4.347656 4.347657.585937 1.84375.585937 3.582031.585937 7.058593v308.117188c0 3.421875 0 5.160156-.585937 7.007812-.734375 2.019532-2.324219 3.609375-4.347656 4.347657-1.84375.582031-3.582032.582031-7.058594.582031h-643.855469c-3.421875 0-5.160156 0-7.007812-.582031-2.019532-.738282-3.613282-2.328125-4.347657-4.347657-.585937-1.847656-.585937-3.585937-.585937-7.0625v-308.113281c0-3.425781 0-5.164062.585937-7.007812.734375-2.023438 2.328125-3.613282 4.347657-4.347657 1.847656-.585937 3.585937-.585937 7.0625-.585937zm0 0" fill="none" stroke="#000" stroke-dasharray="1.1 1.1" stroke-width="1.1" transform="translate(5.86 3.7028)"/><path d="m11.940731.000325h643.71875c3.425781 0 5.164063 0 7.007813.585937 2.023437.734375 3.613281 2.324219 4.347656 4.347657.585937 1.84375.585937 3.582031.585937 7.058593v290.097657c0 3.425781 0 5.164062-.585937 7.007812-.734375 2.023438-2.324219 3.613281-4.347656 4.347656-1.84375.585938-3.582032.585938-7.058594.585938h-643.667969c-3.421875 0-5.160156 0-7.007812-.585938-2.019532-.734375-3.613282-2.324218-4.347657-4.347656-.585937-1.84375-.585937-3.582031-.585937-7.058594v-290.097656c0-3.425781 0-5.164062.585937-7.007812.734375-2.023438 2.328125-3.613282 4.347657-4.347657 1.847656-.585937 3.585937-.585937 7.0625-.585937zm0 0" fill="none" stroke="#000" stroke-dasharray="1.1 1.1" stroke-width="1.1" transform="translate(5.9538 382.7028)"/><use x="11.86" xlink:href="#Y" y="26.611"/><use x="30.186" xlink:href="#aa" y="26.611"/><use x="12.86" xlink:href="#T" y="405.611"/><use x="29.9518" xlink:href="#aa" y="405.611"/><use x="122.86" xlink:href="#af" y="298.611"/><use x="131.756" xlink:href="#af" y="298.611"/><use x="140.652" xlink:href="#ag" y="298.611"/><use x="145.1" xlink:href="#af" y="298.611"/><use x="106.86" xlink:href="#af" y="257.611"/><use x="115.756" xlink:href="#ah" y="257.611"/><use x="124.652" xlink:href="#ag" y="257.611"/><use x="129.1" xlink:href="#ai" y="257.611"/><use x="105.86" xlink:href="#aj" y="141.611"/><use x="114.756" xlink:href="#ak" y="141.611"/><use x="123.652" xlink:href="#ag" y="141.611"/><use x="128.1" xlink:href="#al" y="141.611"/><use x="552.86" xlink:href="#am" y="106.611"/><use x="561.756" xlink:href="#al" y="106.611"/><use x="570.652" xlink:href="#ag" y="106.611"/><use x="575.1" xlink:href="#ah" y="106.611"/><use x="550.86" xlink:href="#al" y="60.611"/><use x="559.756" xlink:href="#af" y="60.611"/><use x="568.652" xlink:href="#ag" y="60.611"/><use x="573.1" xlink:href="#an" y="60.611"/><use x="552.86" xlink:href="#ai" y="175.611"/><use x="561.756" xlink:href="#ao" y="175.611"/><use x="570.652" xlink:href="#ag" y="175.611"/><use x="575.1" xlink:href="#am" y="175.611"/><g fill-opacity=".8"><path d="m169.316406 668.855469 3.839844-.203125 3.828125-.324219 3.816406-.453125 3.800781-.574219 3.78125-.695312 3.753907-.816407 3.730469-.9375 3.699218-1.058593 3.664063-1.175781 3.625-1.296876 3.585937-1.414062 3.53125-1.53125 3.488282-1.636719 3.433593-1.757812 3.382813-1.863281 3.320312-1.976563 3.253906-2.078125 3.191407-2.183594 3.121093-2.28125 3.046876-2.386718 2.972656-2.484376 2.894531-2.578124 2.816406-2.675782 2.726563-2.761718 2.640625-2.84375 2.554687-2.9375 2.460938-3.011719 2.371094-3.09375 2.269531-3.167969 2.167969-3.242188 2.074218-3.308593 1.960938-3.378907 1.867187-3.433593 1.746094-3.496094.058594-.128906-.890625-.082031-1.582032-.203126-1.570312-.257812-1.558594-.316406-1.550781-.363282-1.539063-.421874-1.523437-.476563-1.511719-.527344-1.496094-.578125-1.476562-.636718-1.453125-.683594-1.4375-.734375-1.414063-.785157-1.390624-.832031-1.367188-.886719-1.335938-.925781-1.308593-.980469-1.28125-1.019531-1.25-1.066406-1.21875-1.109375-1.1875-1.152344-1.152344-1.195312-1.117187-1.234375-1.082032-1.273438-1.042968-1.308593-1-1.347657-.96875-1.378906-.921876-1.421875-.886718-1.441406-.839844-1.480469-.796875-1.507813-.753906-1.535156-.710938-1.558594-.667969-1.585937-.621093-1.609375-.566407-1.628906-.527343-1.652344-.476563-1.667969-.425781-1.683593-.382813-1.703126-.332031-1.707031-.28125-1.726562-.234375-1.734375-.183594-1.742188-.132812-1.75-.082031-1.75-.035157-1.753906.019532-1.761719.066406-1.753906.117188-1.75.167968-1.746094.21875-1.746093.269532-1.738282.316406-1.722656.367187-1.714844.300781-1.253906-.40625-.058594-2.003906-.324218-1.992187-.367188-1.976563-.429688-1.96875-.476562-1.945312-.519531-1.929688-.574219-1.90625-.621094-1.886718-.664062-1.859376-.71875-1.832031-.757813-1.804687-.804687-1.773438-.851563-1.742187-.898437-1.710938-.9375-1.671875-.980469-1.640625-1.019531-1.59375-1.058594-1.558593-1.101562-1.515626-1.136719-1.472656-1.175781-1.421875-1.210938-1.386719-1.238281-1.332031-1.28125-1.285156-1.300781-1.234375-1.34375-1.179688-1.367188-1.132812-1.398438-1.074219-1.417968-1.019531-1.445313-.96875-1.472656-.910156-1.488281-.84375-1.519532-.792969-1.527343-.738281-1.554688-.671875-1.5625-.605469-1.574219-.550781-1.59375-.492188-1.605468-.421875-1.613282-.367187-1.625-.300781-1.625-.230469-1.632812-.175781-1.636719-.109376-1.636719-.046874-1.640624.023437-1.632813.082031-1.632813.148438-1.628906.210937-1.613281.277344-1.617187.335937-1.597657.398438-1.59375.464844-1.582031.527344-1.558594.589843-1.550781.648438-1.53125.707031-1.503906.769531-1.496094.828125-1.464844.886719-1.441406.945313-1.417969.996093-1.398437 1.054688-1.359375 1.109375-1.339844 1.164062-1.300781 1.210938-1.277344 1.269531-1.238281 1.308594-1.203125 1.367187-1.164063 1.40625-1.136718 1.457032-1.09375 1.5-1.054688 1.539062-1.019531 1.582031-.972657 1.621094-.933593 1.664063-.886719 1.691406-.851562 1.730468-.796876 1.761719-.753906 1.792969-.710937 1.820312-.660157 1.855469-.617187.605469-.183594-3.441406-1.519531-3.578125-1.433594-3.625-1.328125-3.660157-1.210937-3.703124-1.089844-3.730469-.964844-3.753907-.847656-3.78125-.726562-3.800781-.605469-3.816406-.480469-3.828125-.359375-3.839844-.230469-3.839844-.109375-3.847656.015625-3.839844.140625-3.832031.265625-3.824219.386719-3.8125.511719-3.785156.632812-3.773437.757813-3.738281.878906-3.71875.996094-3.679688 1.117187-3.648438 1.242188-3.601562 1.355468-3.558594 1.464844-3.515625 1.585938-3.464843 1.699218-3.402344 1.8125-3.347656 1.914063-3.292969 2.027344-3.21875 2.132812-3.15625 2.234375-3.089844 2.335938-3.011719 2.4375-2.929687 2.53125-2.855469 2.625-2.773438 2.714844-2.6875 2.808593-2.59375 2.890625-2.511718 2.972656-2.414063 3.058594-2.316406 3.128906-2.222656 3.207032-2.121094 3.273437-2.015625 3.339844-1.917969 3.40625-1.804687 3.472656-1.699219 3.519531-1.59375 3.578126-1.476563 3.632812-1.367187 3.671875-1.25 3.71875-1.136719 3.753906-1.023437 3.792969-.898438 3.824219-.789062 3.851562-.664063 3.875-.542968 3.898438-.425782 3.910156-.304687 3.921875-.179688 3.929688-.066406 3.941406.058594 3.929687.1875 3.933594.300781 3.929687.421875 3.914063.542969 3.898437.660156 3.878907.785156 3.859375.902344 3.828125 1.011719 3.800781 1.136719 3.769531 1.25 3.722657 1.367187 3.683593 1.476563 3.644531 1.589843 3.589844 1.695313 3.539063 1.808594 3.484375 1.910156 3.421875 2.015625 3.359375 2.121093 3.289062 2.21875 3.226563 2.316407 3.152343 2.414062 3.070313 2.503907 2.992187 2.597656 2.914063 2.683594 2.828125 2.773437 2.738281 2.851563 2.652344 2.9375 2.554687 3.003906 2.460938 3.085937 2.359375 3.152344 2.261719 3.226563 2.15625 3.285156 2.054687 3.347656 1.949219 3.40625 1.835938 3.460938 1.726562 3.511718 1.613281 3.5625 1.496094 3.601563 1.382813 3.644531 1.269531 3.683594 1.144531 3.710937 1.03125 3.742188.910156 3.769531.789063 3.789062.664062 3.8125.539063 3.820313.425781 3.835937.289063 3.839844.171874 3.847656.046876zm0 0" fill="#21908c"/><path d="m279.25 599.847656 1.59375-.074218 1.585938-.128907 1.582031-.183593 1.582031-.238282 1.570312-.296875 1.5625-.347656 1.550782-.40625 1.546875-.449219 1.523437-.511718 1.519532-.5625 1.492187-.617188 1.484375-.667969 1.457031-.710937 1.445313-.769532 1.410156-.816406 1.398438-.871094 1.371093-.910156 1.34375-.960937 1.316407-1.007813 1.285156-1.046875 1.257812-1.09375 1.222656-1.144531 1.191407-1.179688 1.160156-1.214843 1.121094-1.265625 1.089843-1.296875 1.054688-1.332031 1.007812-1.371094.972657-1.402344.9375-1.4375.886719-1.464844.851562-1.5.8125-1.523437.757812-1.550781.71875-1.578126.675782-1.601562.625-1.625.582031-1.644531.539063-1.660157.484374-1.679687.433594-1.691406.394532-1.710938.34375-1.71875.289062-1.730469.242188-1.738281.191406-1.75.144531-1.75.09375-1.753906.039063-1.753906-.003907-1.757813-.058593-1.753906-.109376-1.75-.15625-1.75-.210937-1.734375-.253906-1.726563-.308594-1.722656-.355469-1.703125-.40625-1.695312-.453125-1.675781-.496093-1.660157-.550782-1.640625-.597656-1.613281-.644531-1.601563-.683594-1.574218-.734375-1.546875-.777344-1.523438-.820312-1.492187-.859375-1.460938-.90625-1.429687-.945313-1.402344-.984375-1.363281-1.027343-1.332032-1.058594-1.289062-1.101563-1.253906-1.132812-1.214844-1.171875-1.171875-1.199219-1.132813-1.234375-1.089843-1.265625-1.042969-1.296875-1-1.324219-.953125-1.355469-.90625-1.371093-.859375-1.402344-.808594-.660156-.347656-.097657.304688-.554687 1.558593-.621094 1.535157-.679687 1.523437-.738282 1.5-.792968 1.476563-.859375 1.453124-.914063 1.433594-.972656 1.40625-1.027344 1.378906-1.082031 1.347657-1.136719 1.320312-1.1875 1.292969-1.238281 1.25-1.292969 1.222656-1.335937 1.1875-1.390625 1.152344-1.429688 1.113281-.308594.226563.324219 1.5.726563 3.867187.601562 3.894531.484375 3.910157.359375 3.917969.246094 3.929687.121094 3.9375v3.933594l-.121094 3.9375-.246094 3.925781-.363281 3.917969-.488281 3.902343-.605469 3.886719-.726563 3.863281-.839843 3.839844-.960938 3.804688-1.082031 3.777344-1.195312 3.738281-1.308594 3.695312-1.425782 3.652344-1.53125 3.605469-1.589843 3.421875.691406.070312 1.585937.089844 1.59375.035156zm0 0" fill="#440154"/><path d="m301.472656 492.859375.429688-1.585937.371094-1.597657.308593-1.605469.242188-1.617187.179687-1.625.117188-1.628906.050781-1.632813-.011719-1.640625-.074218-1.632812-.140626-1.636719-.207031-1.636719-.265625-1.632812-.332031-1.621094-.394531-1.621094-.457032-1.605469-.519531-1.597656-.582031-1.585937-.640625-1.578125-.707031-1.558594-.757813-1.539062-.824219-1.515626-.878906-1.507812-.941406-1.484375-.988281-1.453125-1.050781-1.433594-1.105469-1.410156-1.152344-1.382812-1.210937-1.355469-1.253907-1.320313-1.3125-1.292968-1.359375-1.261719-1.402344-1.222657-1.449218-1.191406-1.492188-1.160156-1.542968-1.117188-1.574219-1.078124-1.617188-1.042969-1.65625-1-1.691406-.957031-1.722656-.914063-1.761719-.875-1.789062-.828125-1.820313-.78125-1.847656-.742188-1.871094-.691406-1.894531-.640625-1.917969-.597656-1.9375-.550781-1.960937-.496094-1.96875-.453125-1.984376-.398437-2-.347657-2.007812-.300781-2.023438-.25-2.019531-.191406-2.027343-.152344-2.027344-.089844-2.035156-.042968-2.027344.011718-2.019532.058594-2.023437.117188-2.007813.160156-2 .222656-1.984374.265625-1.976563.316406-1.957031.367188-1.941406.421875-1.921876.46875-1.902343.515625-1.261719.382812.097656.039063 3.488282 1.675781 3.429687 1.777344 3.382813 1.894531 3.3125 1.996094 3.253906 2.109375 3.191406 2.207031 3.125 2.3125 3.042969 2.414062 2.972656 2.507813 2.890625 2.601563 2.816406 2.691406 2.726563 2.789062 2.640625 2.867188 2.550781 2.953125 2.460937 3.035156 2.363282 3.117187 2.269531 3.183594 2.171875 3.253906 2.066406 3.332032 1.964844 3.386718 1.859375 3.453126 1.460937 2.929687.527344-.066406 1.585938-.15625 1.585937-.105469 1.59375-.046875 1.59375.011719 1.585938.0625 1.585937.121094 1.578125.175781 1.574219.230469 1.570312.289062 1.550782.335938 1.546875.394531 1.535156.453125 1.515625.496094 1.503906.558593 1.488282.605469 1.464843.660156 1.445313.707032.765625.414062zm0 0" fill="#fde725"/><path d="m275.382812 596.246094 1.53125-3.605469 1.425782-3.652344 1.308594-3.695312 1.195312-3.738281 1.082031-3.777344.960938-3.804688.839843-3.839844.726563-3.863281.605469-3.886719.488281-3.902343.363281-3.917969.246094-3.925781.121094-3.9375v-3.933594l-.121094-3.9375-.246094-3.929687-.359375-3.917969-.484375-3.910157-.601562-3.894531-.726563-3.867187-.324219-1.5-1.167968.851562-1.519532 1.035156-1.5625.996094-1.597656.949219-1.648437.917969-1.671875.867187-1.714844.824219-1.75.773438-1.777344.738281-1.808594.683593-1.835937.636719-1.859375.589844-1.886719.542969-1.910156.492187-1.929687.449219-1.953126.390625-1.960937.34375-1.984375.289063-1.996094.242187-2.003906.191406-2.015625.140625-2.023437.085938-2.019532.035156-2.035156-.019531-2.027344-.0625-2.027344-.121094-2.027343-.167969-2.019531-.226562-1.609376-.214844-.300781 1.253906-.367187 1.714844-.316406 1.722656-.269532 1.738282-.21875 1.746093-.167968 1.746094-.117188 1.75-.066406 1.753906-.019532 1.761719.035157 1.753906.082031 1.75.132812 1.75.183594 1.742188.234375 1.734375.28125 1.726562.332031 1.707031.382813 1.703126.425781 1.683593.476563 1.667969.527343 1.652344.566407 1.628906.621093 1.609375.667969 1.585937.710938 1.558594.753906 1.535156.796875 1.507813.839844 1.480469.886718 1.441406.921876 1.421875.96875 1.378906 1 1.347657 1.042968 1.308593 1.082032 1.273438 1.117187 1.234375 1.152344 1.195312 1.1875 1.152344 1.21875 1.109375 1.25 1.066406 1.28125 1.019531 1.308593.980469 1.335938.925781 1.367188.886719 1.390624.832031 1.414063.785157 1.4375.734375 1.453125.683594 1.476562.636718 1.496094.578125 1.511719.527344 1.523437.476563 1.539063.421874 1.550781.363282 1.558594.316406 1.570312.257812 1.582032.203126.890625.082031zm0 0" fill="#475070"/><path d="m230.179688 529.613281.464843-1.6875.507813-1.667969.5625-1.65625.601562-1.632812.648438-1.609375.703125-1.589844.738281-1.566406.785156-1.535156.828125-1.511719.867188-1.484375.914062-1.453125.957031-1.417969.988282-1.386719 1.03125-1.355468 1.074218-1.3125 1.105469-1.28125 1.140625-1.238282 1.175782-1.199218 1.210937-1.160156 1.238281-1.117188 1.269532-1.070312 1.304687-1.03125 1.332031-.984376 1.355469-.941406 1.382813-.882812 1.402343-.847656 1.429688-.789063 1.453125-.746094 1.464844-.6875 1.488281-.644531 1.507812-.585938 1.523438-.539062 1.535156-.480469 1.546875-.425781 1.558594-.378906 1.570312-.324219 1.574219-.265625 1.054687-.140625-1.460937-2.929687-1.859375-3.453126-1.964844-3.386718-2.066406-3.332032-2.171875-3.253906-2.269531-3.183594-2.363282-3.117187-2.460937-3.035156-2.550781-2.953125-2.640625-2.867188-2.726563-2.789062-2.816406-2.691406-2.890625-2.601563-2.972656-2.507813-3.042969-2.414062-3.125-2.3125-3.191406-2.207031-3.253906-2.109375-3.3125-1.996094-3.382813-1.894531-3.429687-1.777344-3.488282-1.675781-.097656-.039063-.605469.183594-1.855469.617187-1.820312.660157-1.792969.710937-1.761719.753906-1.730468.796876-1.691406.851562-1.664063.886719-1.621094.933593-1.582031.972657-1.539062 1.019531-1.5 1.054688-1.457032 1.09375-1.40625 1.136718-1.367187 1.164063-1.308594 1.203125-1.269531 1.238281-1.210938 1.277344-1.164062 1.300781-1.109375 1.339844-1.054688 1.359375-.996093 1.398437-.945313 1.417969-.886719 1.441406-.828125 1.464844-.769531 1.496094-.707031 1.503906-.648438 1.53125-.589843 1.550781-.527344 1.558594-.464844 1.582031-.398438 1.59375-.335937 1.597657-.277344 1.617187-.210937 1.613281-.148438 1.628906-.082031 1.632813-.023437 1.632813.046874 1.640624.109376 1.636719.175781 1.636719.230469 1.632812.300781 1.625.367187 1.625.421875 1.613282.492188 1.605468.550781 1.59375.605469 1.574219.671875 1.5625.738281 1.554688.792969 1.527343.84375 1.519532.910156 1.488281.96875 1.472656 1.019531 1.445313 1.074219 1.417968 1.132812 1.398438 1.179688 1.367188 1.234375 1.34375 1.285156 1.300781 1.332031 1.28125 1.386719 1.238281 1.421875 1.210938 1.472656 1.175781 1.515626 1.136719 1.558593 1.101562 1.59375 1.058594 1.640625 1.019531 1.671875.980469 1.710938.9375 1.742187.898437 1.773438.851563 1.804687.804687 1.832031.757813 1.859376.71875 1.886718.664062 1.90625.621094 1.929688.574219 1.945312.519531 1.96875.476562 1.976563.429688 1.992187.367188 2.003906.324218.40625.058594zm0 0" fill="#a5bb68"/><path d="m283.722656 517.582031 1.429688-1.113281 1.390625-1.152344 1.335937-1.1875 1.292969-1.222656 1.238281-1.25 1.1875-1.292969 1.136719-1.320312 1.082031-1.347657 1.027344-1.378906.972656-1.40625.914063-1.433594.859375-1.453124.792968-1.476563.738282-1.5.679687-1.523437.621094-1.535157.554687-1.558593.097657-.304688-.765625-.414062-1.445313-.707032-1.464843-.660156-1.488282-.605469-1.503906-.558593-1.515625-.496094-1.535156-.453125-1.546875-.394531-1.550782-.335938-1.570312-.289062-1.574219-.230469-1.578125-.175781-1.585937-.121094-1.585938-.0625-1.59375-.011719-1.59375.046875-1.585937.105469-1.585938.15625-.527344.066406.289063.582031 1.644531 3.566406 1.535156 3.613282 1.417969 3.667968 1.308594 3.707032 1.195313 3.746094 1.070312 3.785156.960938 3.816406.515624 2.339844zm0 0" fill="#a47451"/><path d="m243.835938 530.839844 2.023437-.085938 2.015625-.140625 2.003906-.191406 1.996094-.242187 1.984375-.289063 1.960937-.34375 1.953126-.390625 1.929687-.449219 1.910156-.492187 1.886719-.542969 1.859375-.589844 1.835937-.636719 1.808594-.683593 1.777344-.738281 1.75-.773438 1.714844-.824219 1.671875-.867187 1.648437-.917969 1.597656-.949219 1.5625-.996094 1.519532-1.035156 1.167968-.851562-.515624-2.339844-.960938-3.816406-1.070312-3.785156-1.195313-3.746094-1.308594-3.707032-1.417969-3.667968-1.535156-3.613282-1.644531-3.566406-.289063-.582031-1.054687.140625-1.574219.265625-1.570312.324219-1.558594.378906-1.546875.425781-1.535156.480469-1.523438.539062-1.507812.585938-1.488281.644531-1.464844.6875-1.453125.746094-1.429688.789063-1.402343.847656-1.382813.882812-1.355469.941406-1.332031.984376-1.304687 1.03125-1.269532 1.070312-1.238281 1.117188-1.210937 1.160156-1.175782 1.199218-1.140625 1.238282-1.105469 1.28125-1.074218 1.3125-1.03125 1.355468-.988282 1.386719-.957031 1.417969-.914062 1.453125-.867188 1.484375-.828125 1.511719-.785156 1.535156-.738281 1.566406-.703125 1.589844-.648438 1.609375-.601562 1.632812-.5625 1.65625-.507813 1.667969-.464843 1.6875-.109376.449219 1.609376.214844 2.019531.226562 2.027343.167969 2.027344.121094 2.027344.0625 2.035156.019531zm0 0" fill="#897e65"/></g><use x="124.86" xlink:href="#am" y="574.611"/><use x="133.756" xlink:href="#aj" y="574.611"/><use x="142.652" xlink:href="#ai" y="574.611"/><use x="204.86" xlink:href="#af" y="473.611"/><use x="213.756" xlink:href="#ak" y="473.611"/><use x="222.652" xlink:href="#ah" y="473.611"/><use x="266.86" xlink:href="#aj" y="466.611"/><use x="275.756" xlink:href="#ah" y="466.611"/><use x="295.86" xlink:href="#am" y="545.611"/><use x="304.756" xlink:href="#ah" y="545.611"/><use x="254.86" xlink:href="#an" y="558.611"/><use x="263.756" xlink:href="#ap" y="558.611"/><use x="249.86" xlink:href="#ak" y="518.611"/><use x="258.756" xlink:href="#ap" y="518.611"/><use x="281.86" xlink:href="#ap" y="504.611"/><g fill-opacity=".8"><path d="m499.007812 663.464844 3.777344-.179688 3.765625-.292968 3.746094-.425782 3.738281-.542968 3.714844-.660157 3.691406-.785156 3.667969-.898437 3.628906-1.023438 3.597657-1.136719 3.558593-1.253906 3.519531-1.371094 3.46875-1.484375 3.425782-1.597656 3.371094-1.703125 3.3125-1.816406 3.257812-1.917969 3.195312-2.03125 3.125-2.128906 3.0625-2.230469 2.988282-2.332031 2.914062-2.425782 2.835938-2.523437 2.753906-2.609375 2.671875-2.699219.628906-.675781-2.5 1.460938-3.4375 1.875-3.492187 1.761718-3.546875 1.65625-3.597657 1.542969-3.648437 1.433594-3.683594 1.320312-3.726562 1.207031-3.765625 1.085938-3.800782.972656-3.820312.855469-3.851562.738281-3.871094.621094-3.886719.5-3.902344.375-3.910156.257812-3.914063.132813-3.917968.015625-3.917969-.105469-3.910156-.230469-3.894531-.34375-3.886719-.472656-3.867188-.585937-3.84375-.710938-3.816406-.828125-3.792969-.945312-3.753906-1.058594-3.71875-1.179688-3.675781-1.292968-3.636719-1.402344-3.589844-1.519531-3.535156-1.632813-3.480469-1.734375-3.417969-1.84375-3.363281-1.949219-3.289062-2.054687-3.226563-2.152344-3.152344-2.253906-3.082031-2.351563-3-2.449218-2.917969-2.535156-2.835937-2.628907-2.75-2.714843-2.65625-2.796876-2.566406-2.882812-2.476563-2.957031-2.375-3.035157-2.277344-3.105468-2.171874-3.175782-2.070313-3.246093-1.964844-3.304688-1.855469-3.363281-1.746093-3.425781-1.640625-3.472657-1.519532-3.527343-1.40625-3.574219-1.292968-3.613281-1.175782-3.652344-1.050781-3.6875-.933593-3.722656-.816407-3.746094-.695312-3.773437-.570313-3.792969-.445312-3.808594-.332032-3.824219-.199218-3.832031-.082032-3.832031.046876-3.835938.167968-3.839844.296875-3.828124.414063-3.820313.535156-3.804687.660156-3.789063.785156-3.769531.898438-3.738282 1.027344-3.714843 1.140625-3.675781 1.257812-3.648438 1.375-3.601562 1.488281-3.558594 1.605469-3.515625 1.714844-3.460938 1.828125-3.410156 1.9375-3.347656 2.042969-3.292969 2.140625-3.226562 2.25-3.15625 2.347656-3.089844 2.445312-3.015625 2.546876-2.9375 2.628906-2.863281 2.726562-2.773438 2.101563-2.015625-1.164063.714844-3.160156 2.078125-3.09375 2.179687-3.019531 2.285157-2.957031 2.375-2.875 2.476562-2.792969 2.566406-2.71875 2.652344-2.628907 2.746094-2.539062 2.832031-2.457031 2.910156-2.359375 2.992188-2.265625 3.066406-2.171875 3.136719-2.070313 3.214844-1.96875 3.269531-1.871093 3.34375-1.761719 3.398437-1.660157 3.460938-1.546874 3.507812-1.441407 3.558594-1.328125 3.605469-1.210937 3.648437-1.105469 3.6875-.988281 3.726563-.867188 3.753906-.753906 3.78125-.640625 3.8125-.519531 3.828125-.402344 3.84375-.285156 3.851562-.164063 3.867188-.042968 3.871094.078124 3.875.195313 3.871094.3125 3.859374.433594 3.855469.546875 3.835938.671875 3.824219.78125 3.792968.902343 3.777344 1.019532 3.742188 1.132812 3.707031 1.242188 3.671875 1.359375 3.632812 1.46875 3.589844 1.578125 3.542969 1.683594 3.484375 1.789062 3.4375 1.898438 3.378906 1.996093 3.3125 2.097657 3.25 2.195312 3.183594 2.292969 3.109375 2.382812 3.039062 2.476563 2.953125 2.570312 2.882813 2.652344 2.796875 2.734375 2.707031 2.816406 2.621094 2.898438 2.53125 2.96875 2.433593 3.042969 2.339844 3.113281 2.246094 3.175781 2.136719 3.242188 2.035156 3.300781 1.9375 3.359375 1.824219 3.410156 1.714844 3.460938 1.605468 3.503906 1.496094 3.554687 1.382812 3.585938 1.261719 3.625 1.152344 3.65625 1.03125 3.6875.917969 3.710937.792968 3.726563.675782 3.75.554687 3.765625.433594 3.769531.3125 3.777344.1875 3.78125.070313zm0 0" fill="#21908c"/><path d="m605.914062 607.308594 2.070313-.859375 2.039063-.929688 2.007812-.996093 1.980469-1.058594 1.941406-1.117188 1.902344-1.183594 1.867187-1.242187 1.832032-1.296875 1.785156-1.359375 1.738281-1.410156 1.695313-1.46875 1.652343-1.523438 1.597657-1.574219 1.550781-1.621093 1.5-1.671875 1.441406-1.71875 1.394531-1.769532 1.332032-1.804687 1.277343-1.851563 1.21875-1.886718 1.152344-1.929688 1.097656-1.964844 1.035157-1.996093.972656-2.03125.90625-2.058594.839844-2.085937.769531-2.117188.710937-2.136719.640625-2.160156.574219-2.175781.503906-2.199219.429688-2.210937.371094-2.226563.289062-2.230469.230469-2.246094.152343-2.246093.082032-2.257813.011718-2.253906-.054687-2.261719-.128906-2.246093-.203125-2.25-.269532-2.238282-.339843-2.234375-.410157-2.21875-.480468-2.207031-.546875-2.191406-.617188-2.171875-.679687-2.148438-.757813-2.128906-.816406-2.105469-.878906-2.074218-.949219-2.050782-1.011719-2.019531-1.074219-1.980469-1.136718-1.953125-1.191406-1.910156-.058594-.085937.398437 2.390624.507813 3.804688.394531 3.8125.261719 3.828125.140625 3.832031.015625 3.839844-.105469 3.835938-.230469 3.835937-.359375 3.824219-.472656 3.8125-.601563 3.796875-.71875 3.777343-.839843 3.753907-.960938 3.726562-1.085937 3.699219-1.199219 3.664062-1.320313 3.621094-1.433593 3.585938-1.546875 3.535156-1.65625 3.484375-1.773438 3.4375-1.882812 3.382813-1.988282 3.320312-2.09375 3.261719-2.199218 3.1875-2.300782 3.128906-2.394531 3.046875-2.496093 2.976562-2.589844 2.90625-2.679688 2.8125-.839844.835938zm0 0" fill="#440154"/><path d="m638.667969 500.566406-.753907-3.757812-.875-3.730469-.996093-3.710937-1.113281-3.671876-1.234376-3.628906-1.347656-3.597656-1.46875-3.546875-1.574218-3.503906-1.691407-3.445313-1.800781-3.398437-1.910156-3.332031-2.019532-3.28125-2.121093-3.210938-2.226563-3.136719-2.324218-3.074219-2.425782-2.996093-2.523437-2.921875-2.613281-2.835938-2.699219-2.757812-2.796875-2.671875-2.878906-2.582031-2.957032-2.492188-3.039062-2.398438-3.121094-2.304687-3.191406-2.207031-3.253906-2.101563-3.332032-2.003906-3.390625-1.894531-3.449219-1.792969-3.507812-1.683594-3.558594-1.570312-3.617187-1.460938-3.652344-1.347656-3.699219-1.238281-3.742187-1.117188-3.769531-1.007812-3.804688-.886719-3.832031-.765625-3.855469-.648438-3.878906-.53125-3.886719-.410156-3.90625-.285156-3.917969-.167969-3.914062-.042969-3.917969.074219-3.910156.195313-3.90625.316406-3.894531.4375-3.882813.558594-3.859375.679687-3.839844.792969-3.808594.917969-3.78125 1.027343-3.746093 1.148438-3.707031 1.265625-3.671876 1.375-3.617187 1.488281-3.578125 1.601563-3.519531 1.710937-3.460938 1.820313-3.402343 1.917969-3.347657 2.03125-3.273437 2.125-3.203125 2.234374-3.132813 2.320313-3.0625 2.421875-2.976562 2.511719-2.898438 2.609375-.710937.675781 2.066406-1.257813 3.285156-1.871093 3.34375-1.761719 3.398438-1.648438 3.445312-1.539062 3.496094-1.425781 3.535156-1.316407 3.582031-1.199218 3.613282-1.078125 3.65625-.960938 3.675781-.839843 3.703125-.726563 3.726562-.601563 3.742188-.480468 3.757812-.363282 3.773438-.234374 3.777344-.117188 3.773437.003906 3.785157.128906 3.773437.253907 3.765625.367187 3.757812.492188 3.742188.617187 3.71875.738281 3.699219.855469 3.671875.972657 3.640625 1.089843 3.609375 1.210938 3.570312 1.320312 3.523438 1.4375 3.484375 1.550781 3.4375 1.660157 3.382812 1.773437 3.332031 1.878906 3.273438 1.988282 3.210938 2.085937 3.144531 2.195313 3.074219 2.285156 3.011718 2.390625 2.933594 2.484375 2.855469 2.574219 2.777343 2.667969 2.691407 2.753906 2.613281 2.835937 2.523438 2.921875 2.425781 2.992188 2.339843 3.078125 1.8125 2.535156.789063.125 2.203125.433594 2.1875.496093 2.171875.566407 2.15625.636719 2.128906.707031 2.117188.769531 2.082031.835938 2.058594.90625 2.03125.96875 1.996094 1.035156 1.964843 1.089844 1.929688 1.15625 1.890625 1.222656 1.851562 1.273437 1.8125 1.335938 1.769532 1.390625 1.726562 1.449218 1.679688 1.5 1.632812 1.554688 1.585938 1.605469 1.527343 1.648437 1.480469 1.703125 1.425781 1.746094 1.371094 1.792969 1.308594 1.832031 1.203125 1.789063zm-57.371094 125.636719 3.308594-2.074219 3.242187-2.175781 3.167969-2.285156 3.09375-2.371094 3.023437-2.46875 2.9375-2.554687 2.851563-2.652344 1.929687-1.902344-1.027343.390625-2.121094.726563-2.136719.667968-2.160156.589844-2.183594.527344-2.191406.460937-.179688.027344-1.03125 1.542969-2.214843 3.101562-2.316407 3.03125-2.40625 2.949219-2.5 2.867187-1.957031 2.117188zm0 0" fill="#fde725"/><path d="m518.070312 644.515625 3.914063-.132813 3.910156-.257812 3.902344-.375 3.886719-.5 3.871094-.621094 3.851562-.738281 3.820312-.855469 3.800782-.972656 3.765625-1.085938 3.726562-1.207031 3.683594-1.320312 3.648437-1.433594 3.597657-1.542969 3.546875-1.65625 3.492187-1.761718 3.4375-1.875 2.5-1.460938 1.957031-2.117188 2.5-2.867187 2.40625-2.949219 2.316407-3.03125 2.214843-3.101562 1.03125-1.542969-2.023437.355469-2.222656.316406-2.226563.246094-2.234375.171875-2.242187.101562-2.238282.03125-2.242187-.039062-2.238281-.109375-2.238282-.179688-2.226562-.253906-2.222656-.324219-2.210938-.394531-2.191406-.460938-2.183594-.535156-2.164062-.601562-2.144532-.667969-2.117187-.742187-2.101563-.804688-2.070312-.867188-2.046875-.9375-2.007813-1.003906-1.984374-1.0625-1.949219-1.125-1.90625-1.183594-1.875-1.25-1.835938-1.308593-1.789062-1.359375-1.746094-1.421875-1.707031-1.476563-1.65625-1.523437-1.605469-1.582031-1.554687-1.628907-1.503907-1.675781-1.457031-1.726562-1.398438-1.765626-1.34375-1.8125-1.28125-1.859374-1.222656-1.890626-1.171875-1.929687-1.101562-1.96875-1.046875-2.003906-.976563-2.03125-.914062-2.0625-.851563-2.089844-.789062-2.121094-.714844-2.136719-.648438-2.164062-.582031-2.175781-.515625-2.199219-.445312-2.214844-.375-2.226562-.304688-2.234375-.234375-2.242188-.160156-2.253906-.097656-2.257813-.019531-2.253906.042968-2.253906.125-2.25.183594-2.25.261719-2.238281.332031-2.230469.394531-2.222656.472657-2.199219.535156-2.191406.609375-2.164063.671875-2.148437.746094-2.128907.804687-2.101562.871094-2.078125.941406-2.039063 1-2.015624 1.070313-1.980469 1.125-1.949219 1.183593-1.90625 1.25-1.867188 1.304688-1.832031 1.363281-1.789062 1.414062-1.742188 1.472657-1.695312 1.527343-1.648438 1.574219-1.59375 1.625-1.550781 1.675781-1.492188 1.714844-1.445312 1.765625-1.386719 1.804688-1.328125 1.847656-1.269531 1.890625-1.214844 1.917969-1.144531 1.964843-1.09375 1.992188-1.023438 2.023438-.960937 2.054687-.894531 2.082031-.835938 2.101563-.757812 2.132812-.699219 2.148438-.628906 2.171875-.558594 2.1875-.492187 2.199218-.421876 2.214844-.351562 2.222656-.277344 2.230469-.214844 2.238281-.132812 2.238282-.066406h2.242187l2.246094.078125 2.238281.144531 2.230469.21875 2.222656.285156 1.425781.230469-1.8125-2.535156-2.339843-3.078125-2.425781-2.992188-2.523438-2.921875-2.613281-2.835937-2.691407-2.753906-2.777343-2.667969-2.855469-2.574219-2.933594-2.484375-3.011718-2.390625-3.074219-2.285156-3.144531-2.195313-3.210938-2.085937-3.273438-1.988282-3.332031-1.878906-3.382812-1.773437-3.4375-1.660157-3.484375-1.550781-3.523438-1.4375-3.570312-1.320312-3.609375-1.210938-3.640625-1.089843-3.671875-.972657-3.699219-.855469-3.71875-.738281-3.742188-.617187-3.757812-.492188-3.765625-.367187-3.773437-.253907-3.785157-.128906-3.773437-.003906-3.777344.117188-3.773438.234374-3.757812.363282-3.742188.480468-3.726562.601563-3.703125.726563-3.675781.839843-3.65625.960938-3.613282 1.078125-3.582031 1.199218-3.535156 1.316407-3.496094 1.425781-3.445312 1.539062-3.398438 1.648438-3.34375 1.761719-3.285156 1.871093-2.066406 1.257813-2.101563 2.015625-2.726562 2.773438-2.628906 2.863281-2.546876 2.9375-2.445312 3.015625-2.347656 3.089844-2.25 3.15625-2.140625 3.226562-2.042969 3.292969-1.9375 3.347656-1.828125 3.410156-1.714844 3.460938-1.605469 3.515625-1.488281 3.558594-1.375 3.601562-1.257812 3.648438-1.140625 3.675781-1.027344 3.714843-.898438 3.738282-.785156 3.769531-.660156 3.789063-.535156 3.804687-.414063 3.820313-.296875 3.828124-.167968 3.839844-.046876 3.835938.082032 3.832031.199218 3.832031.332032 3.824219.445312 3.808594.570313 3.792969.695312 3.773437.816407 3.746094.933593 3.722656 1.050781 3.6875 1.175782 3.652344 1.292968 3.613281 1.40625 3.574219 1.519532 3.527343 1.640625 3.472657 1.746093 3.425781 1.855469 3.363281 1.964844 3.304688 2.070313 3.246093 2.171874 3.175782 2.277344 3.105468 2.375 3.035157 2.476563 2.957031 2.566406 2.882812 2.65625 2.796876 2.75 2.714843 2.835937 2.628907 2.917969 2.535156 3 2.449218 3.082031 2.351563 3.152344 2.253906 3.226563 2.152344 3.289062 2.054687 3.363281 1.949219 3.417969 1.84375 3.480469 1.734375 3.535156 1.632813 3.589844 1.519531 3.636719 1.402344 3.675781 1.292968 3.71875 1.179688 3.753906 1.058594 3.792969.945312 3.816406.828125 3.84375.710938 3.867188.585937 3.886719.472656 3.894531.34375 3.910156.230469 3.917969.105469zm0 0" fill="#a5bb68"/><path d="m593.03125 611.082031 2.191406-.460937 2.183594-.527344 2.160156-.589844 2.136719-.667968 2.121094-.726563 1.027343-.390625.839844-.835938 2.679688-2.8125 2.589844-2.90625 2.496093-2.976562 2.394531-3.046875 2.300782-3.128906 2.199218-3.1875 2.09375-3.261719 1.988282-3.320312 1.882812-3.382813 1.773438-3.4375 1.65625-3.484375 1.546875-3.535156 1.433593-3.585938 1.320313-3.621094 1.199219-3.664062 1.085937-3.699219.960938-3.726562.839843-3.753907.71875-3.777343.601563-3.796875.472656-3.8125.359375-3.824219.230469-3.835937.105469-3.835938-.015625-3.839844-.140625-3.832031-.261719-3.828125-.394531-3.8125-.507813-3.804688-.398437-2.390624-1.203125-1.789063-1.308594-1.832031-1.371094-1.792969-1.425781-1.746094-1.480469-1.703125-1.527343-1.648437-1.585938-1.605469-1.632812-1.554688-1.679688-1.5-1.726562-1.449218-1.769532-1.390625-1.8125-1.335938-1.851562-1.273437-1.890625-1.222656-1.929688-1.15625-1.964843-1.089844-1.996094-1.035156-2.03125-.96875-2.058594-.90625-2.082031-.835938-2.117188-.769531-2.128906-.707031-2.15625-.636719-2.171875-.566407-2.1875-.496093-2.203125-.433594-.789063-.125.429688.609375 2.148438 3.214844 2.050781 3.285156 1.945312 3.347656 1.847657 3.40625 1.734374 3.460938 1.632813 3.515625 1.523437 3.5625 1.40625 3.617187 1.304688 3.644532 1.1875 3.695312 1.078125 3.726562.957031 3.757813.847656 3.789063.726563 3.808593.609375 3.828125.492188 3.847656.367187 3.855469.257813 3.867188.136718 3.871093.015625 3.871094-.105469 3.871094-.226562 3.863281-.339844 3.847657-.457031 3.839843-.582031 3.816407-.695313 3.796874-.8125 3.765626-.933593 3.742187-1.039063 3.707031-1.160156 3.667969-1.273438 3.632813-1.382812 3.578124-1.492188 3.539063-1.609375 3.484375-1.703125 3.429688-1.820312 3.367187-1.917969 3.308594-2.019531 3.242187-1.097657 1.636719zm0 0" fill="#a47451"/><path d="m581.902344 612.300781 2.242187-.101562 2.234375-.171875 2.226563-.246094 2.222656-.316406 2.023437-.355469 1.097657-1.636719 2.019531-3.242187 1.917969-3.308594 1.820312-3.367187 1.703125-3.429688 1.609375-3.484375 1.492188-3.539063 1.382812-3.578124 1.273438-3.632813 1.160156-3.667969 1.039063-3.707031.933593-3.742187.8125-3.765626.695313-3.796874.582031-3.816407.457031-3.839843.339844-3.847657.226562-3.863281.105469-3.871094-.015625-3.871094-.136718-3.871093-.257813-3.867188-.367187-3.855469-.492188-3.847656-.609375-3.828125-.726563-3.808593-.847656-3.789063-.957031-3.757813-1.078125-3.726562-1.1875-3.695312-1.304688-3.644532-1.40625-3.617187-1.523437-3.5625-1.632813-3.515625-1.734374-3.460938-1.847657-3.40625-1.945312-3.347656-2.050781-3.285156-2.148438-3.214844-.429688-.609375-1.425781-.230469-2.222656-.285156-2.230469-.21875-2.238281-.144531-2.246094-.078125h-2.242187l-2.238282.066406-2.238281.132812-2.230469.214844-2.222656.277344-2.214844.351562-2.199218.421876-2.1875.492187-2.171875.558594-2.148438.628906-2.132812.699219-2.101563.757812-2.082031.835938-2.054687.894531-2.023438.960937-1.992188 1.023438-1.964843 1.09375-1.917969 1.144531-1.890625 1.214844-1.847656 1.269531-1.804688 1.328125-1.765625 1.386719-1.714844 1.445312-1.675781 1.492188-1.625 1.550781-1.574219 1.59375-1.527343 1.648438-1.472657 1.695312-1.414062 1.742188-1.363281 1.789062-1.304688 1.832031-1.25 1.867188-1.183593 1.90625-1.125 1.949219-1.070313 1.980469-1 2.015624-.941406 2.039063-.871094 2.078125-.804687 2.101562-.746094 2.128907-.671875 2.148437-.609375 2.164063-.535156 2.191406-.472657 2.199219-.394531 2.222656-.332031 2.230469-.261719 2.238281-.183594 2.25-.125 2.25-.042968 2.253906.019531 2.253906.097656 2.257813.160156 2.253906.234375 2.242188.304688 2.234375.375 2.226562.445312 2.214844.515625 2.199219.582031 2.175781.648438 2.164062.714844 2.136719.789062 2.121094.851563 2.089844.914062 2.0625.976563 2.03125 1.046875 2.003906 1.101562 1.96875 1.171875 1.929687 1.222656 1.890626 1.28125 1.859374 1.34375 1.8125 1.398438 1.765626 1.457031 1.726562 1.503907 1.675781 1.554687 1.628907 1.605469 1.582031 1.65625 1.523437 1.707031 1.476563 1.746094 1.421875 1.789062 1.359375 1.835938 1.308593 1.875 1.25 1.90625 1.183594 1.949219 1.125 1.984374 1.0625 2.007813 1.003906 2.046875.9375 2.070312.867188 2.101563.804688 2.117187.742187 2.144532.667969 2.164062.601562 2.183594.535156 2.191406.460938 2.210938.394531 2.222656.324219 2.226562.253906 2.238282.179688 2.238281.109375 2.242187.039062zm0 0" fill="#897e65"/></g><use x="417.86" xlink:href="#ak" y="632.611"/><use x="426.756" xlink:href="#ao" y="632.611"/><use x="435.652" xlink:href="#aj" y="632.611"/><use x="443.86" xlink:href="#al" y="517.611"/><use x="452.756" xlink:href="#al" y="517.611"/><use x="461.652" xlink:href="#ap" y="517.611"/><use x="551.86" xlink:href="#ah" y="549.611"/><use x="560.756" xlink:href="#am" y="549.611"/><use x="569.652" xlink:href="#an" y="549.611"/><use x="583.86" xlink:href="#af" y="457.611"/><use x="592.756" xlink:href="#ai" y="457.611"/><use x="601.652" xlink:href="#an" y="457.611"/><use x="614.86" xlink:href="#ap" y="514.611"/><use x="623.756" xlink:href="#ap" y="514.611"/><use x="647.86" xlink:href="#ah" y="595.611"/><use x="656.756" xlink:href="#ah" y="595.611"/><path d="m-.00066875-.001625h6.82031275v22.742188" fill="none" stroke="#000" transform="translate(647.5827 557.4235)"/></svg>