<svg xmlns="http://www.w3.org/2000/svg" xmlns:xlink="http://www.w3.org/1999/xlink" viewBox="0 0 680.225 735.521">
  <defs>
    <path id="reuse-0" fill="#fff" d="M461.86 10.61h14v14h-14zm0 0"/>
  </defs>
  <clipPath id="a">
    <path d="M0 0h680.227v735.52H0zm0 0"/>
  </clipPath>
  <clipPath id="s">
    <path d="M14.703 14.172h458.102v86.894H14.703zm0 0"/>
  </clipPath>
  <clipPath id="t">
    <path d="M13.805 92.969h9v9h-9zm0 0"/>
  </clipPath>
  <clipPath id="u">
    <path d="M464.707 13.273h9v9h-9zm0 0"/>
  </clipPath>
  <clipPath id="r">
    <path d="M0 0h486v115H0z"/>
  </clipPath>
  <clipPath id="w">
    <path d="M14.703 13.777h458.102v91.274H14.703zm0 0"/>
  </clipPath>
  <clipPath id="x">
    <path d="M13.805 96.95h9v9h-9zm0 0"/>
  </clipPath>
  <clipPath id="y">
    <path d="M464.707 12.875h9v9h-9zm0 0"/>
  </clipPath>
  <clipPath id="v">
    <path d="M0 0h486v119H0z"/>
  </clipPath>
  <clipPath id="A">
    <path d="M14.703 14.41h458.102v203.371H14.703zm0 0"/>
  </clipPath>
  <clipPath id="B">
    <path d="M13.805 209.68h9v9h-9zm0 0"/>
  </clipPath>
  <clipPath id="C">
    <path d="M464.707 13.508h9v9h-9zm0 0"/>
  </clipPath>
  <clipPath id="z">
    <path d="M0 0h486v232H0z"/>
  </clipPath>
  <symbol id="b" overflow="visible">
    <path d="M-11.422-1.25H0v-1.516h-5.234v-5.25h-1.282v5.25h-3.625V-8.75h-1.28zm0 0"/>
  </symbol>
  <symbol id="c" overflow="visible">
    <path d="M0-5.703h-11.344v1.047c.43.074.781.215 1.063.422.273.199.492.445.656.734.156.293.266.621.328.984.055.368.078.743.078 1.125h1.094v-2.953H0zm0 0"/>
  </symbol>
  <symbol id="e" overflow="visible">
    <path d="M-8.078-7.86v-1.437c-.633.024-1.176.14-1.625.36a3.058 3.058 0 00-1.125.906c-.3.375-.52.812-.656 1.312a5.837 5.837 0 00-.22 1.625c0 .532.071 1.047.204 1.547.137.492.34.934.61 1.328.273.387.62.7 1.046.938.418.23.914.343 1.485.343.53 0 .968-.101 1.312-.312.344-.207.625-.484.844-.828.219-.352.398-.75.531-1.188.137-.437.258-.879.36-1.328.093-.457.195-.906.296-1.343.094-.438.22-.829.375-1.172.149-.344.344-.618.594-.829.242-.207.559-.312.953-.312.418 0 .762.086 1.031.25.274.168.485.39.641.672.149.281.25.594.313.937s.093.688.093 1.032c0 .43-.05.843-.156 1.25a3.048 3.048 0 01-.484 1.062 2.609 2.609 0 01-.86.735c-.351.187-.77.28-1.25.28v1.438c.7 0 1.305-.125 1.813-.375.5-.25.918-.586 1.25-1.015.324-.438.562-.942.719-1.516.156-.57.234-1.176.234-1.813A6.88 6.88 0 00.062-6.89a4.145 4.145 0 00-.578-1.421A3.348 3.348 0 00-1.562-9.36c-.438-.282-.961-.422-1.579-.422-.562 0-1.03.105-1.406.312-.375.211-.68.492-.922.844-.25.344-.441.734-.578 1.172-.144.437-.27.887-.375 1.344-.113.449-.21.89-.297 1.328a7.348 7.348 0 01-.343 1.172 2.41 2.41 0 01-.547.828c-.22.21-.504.312-.86.312-.375 0-.687-.066-.937-.203A1.652 1.652 0 01-10-3.25a2.553 2.553 0 01-.313-.828 4.323 4.323 0 01-.109-.953c0-.782.188-1.426.563-1.938.367-.508.96-.804 1.78-.89zm0 0"/>
  </symbol>
  <symbol id="f" overflow="visible">
    <path d="M-5.61-6.64v-1.407c-.5.055-.925.184-1.28.39-.352.2-.645.454-.876.766-.238.313-.414.68-.53 1.094a4.869 4.869 0 00-.173 1.313c0 .656.117 1.23.344 1.718.23.493.547.899.953 1.22.399.323.867.57 1.406.734a6.244 6.244 0 001.735.234c.617 0 1.183-.082 1.703-.25a3.73 3.73 0 001.344-.735c.367-.32.652-.722.859-1.203.195-.488.297-1.05.297-1.687 0-1.05-.274-1.883-.828-2.5-.551-.613-1.344-.992-2.375-1.14v1.39c.648.086 1.148.32 1.5.703.343.375.515.898.515 1.563 0 .43-.082.796-.25 1.109-.164.312-.39.57-.671.765a3.33 3.33 0 01-.97.422 4.87 4.87 0 01-1.124.125c-.414 0-.817-.039-1.203-.125a2.841 2.841 0 01-1.032-.421c-.3-.196-.539-.461-.718-.797-.188-.332-.282-.743-.282-1.235 0-.57.149-1.031.438-1.375.281-.343.687-.566 1.219-.672zm0 0"/>
  </symbol>
  <symbol id="g" overflow="visible">
    <path d="M-4.125-2.016c-.5 0-.941-.066-1.328-.203a2.843 2.843 0 01-.984-.547 2.362 2.362 0 01-.61-.828 2.35 2.35 0 01-.219-1c0-.351.075-.687.22-1a2.24 2.24 0 01.609-.812c.261-.239.59-.426.984-.563.387-.133.828-.203 1.328-.203s.95.07 1.344.203c.386.137.71.324.969.563.261.23.46.5.593.812.137.313.203.649.203 1 0 .356-.066.688-.203 1-.133.313-.332.59-.593.828-.258.23-.583.414-.97.547a4.098 4.098 0 01-1.343.203zm0 1.438c.605 0 1.172-.082 1.703-.25.524-.176.977-.43 1.36-.766.386-.343.687-.765.906-1.265s.328-1.079.328-1.735-.11-1.234-.328-1.734-.52-.914-.906-1.25a3.693 3.693 0 00-1.36-.766 5.383 5.383 0 00-1.703-.265c-.613 0-1.18.09-1.703.265a3.728 3.728 0 00-1.375.766 3.41 3.41 0 00-.922 1.25c-.227.5-.344 1.078-.344 1.734s.117 1.235.344 1.735c.219.5.527.921.922 1.265.387.336.844.59 1.375.766a5.54 5.54 0 001.703.25zm0 0"/>
  </symbol>
  <symbol id="h" overflow="visible">
    <path d="M-8.266-.969H0v-1.375h-3.688c-.53 0-1-.05-1.406-.156A2.613 2.613 0 01-6.14-3a2.215 2.215 0 01-.656-.938c-.156-.382-.234-.847-.234-1.39H-8.47c-.02.742.133 1.351.453 1.828.325.48.82.887 1.485 1.219v.031h-1.735zm0 0"/>
  </symbol>
  <symbol id="i" overflow="visible">
    <path d="M-4.922-6.766v4.75a2.788 2.788 0 01-.906-.203 2.58 2.58 0 01-.734-.484c-.22-.207-.391-.453-.516-.735s-.188-.597-.188-.953c0-.332.063-.64.188-.921.125-.29.293-.54.5-.75.21-.208.46-.368.75-.485.281-.125.586-.195.906-.219zm2.297-1.312v1.344c.543.117.95.359 1.219.734.261.367.39.836.39 1.406 0 .45-.07.84-.218 1.172-.145.336-.344.61-.594.828-.25.211-.535.36-.86.453-.332.094-.68.137-1.046.125v-6.187c-.5-.02-1.024.027-1.579.14a4.514 4.514 0 00-1.53.594A3.604 3.604 0 00-8-6.297c-.313.492-.469 1.102-.469 1.828 0 .574.11 1.102.328 1.578.211.47.508.875.891 1.22.387.343.84.616 1.36.812a5.112 5.112 0 001.734.28 6.563 6.563 0 001.75-.28c.531-.164.992-.41 1.375-.735.375-.332.672-.738.89-1.218.207-.489.313-1.067.313-1.735 0-.937-.234-1.71-.703-2.328C-1-7.5-1.695-7.898-2.625-8.078zm0 0"/>
  </symbol>
  <symbol id="j" overflow="visible">
    <path d="M-10.61-4.14h-1.093v2.984h14.86v-2.985H2.061v1.704h-12.671zm0 0"/>
  </symbol>
  <symbol id="k" overflow="visible">
    <path d="M-8.125-2.672c-.25 0-.508-.015-.781-.047a2.473 2.473 0 01-.75-.203 1.652 1.652 0 01-.578-.422c-.157-.176-.235-.414-.235-.719 0-.312.078-.554.235-.734.156-.176.351-.312.578-.406.23-.094.48-.149.75-.172a6.75 6.75 0 01.765-.047c.243 0 .5.016.782.047s.539.102.765.203c.23.094.418.234.563.422.148.18.218.422.218.734 0 .305-.07.543-.218.72a1.733 1.733 0 01-.578.405 2.778 2.778 0 01-.75.188 9.15 9.15 0 01-.766.031zm.031 1.203c.438 0 .852-.047 1.235-.14a3.03 3.03 0 001.015-.438c.282-.207.508-.473.672-.797.168-.332.25-.738.25-1.219 0-.468-.086-.863-.266-1.187a2.56 2.56 0 00-.718-.797 2.91 2.91 0 00-1.032-.437 5.05 5.05 0 00-1.203-.141c-.437 0-.847.043-1.234.125-.395.074-.734.21-1.016.406-.289.2-.52.465-.687.797-.176.324-.266.734-.266 1.234 0 .493.09.903.266 1.235.18.324.418.59.719.797.293.199.636.344 1.03.437.388.086.798.125 1.235.125zm5.078-9.11a6.75 6.75 0 01-.765-.046 2.853 2.853 0 01-.75-.188 1.652 1.652 0 01-.578-.421c-.157-.188-.235-.43-.235-.735 0-.312.078-.55.235-.719.156-.175.351-.312.578-.406.23-.101.48-.164.75-.187a6.65 6.65 0 01.75-.047c.25 0 .515.015.797.047.273.031.523.101.75.203.23.105.421.246.578.422.148.18.219.422.219.734 0 .305-.079.543-.235.719-.156.18-.348.312-.578.406a2.778 2.778 0 01-.75.188c-.27.023-.523.03-.766.03zm.047 1.204c.438 0 .852-.04 1.235-.125.375-.094.71-.238 1-.438a2.18 2.18 0 00.671-.812c.157-.332.235-.738.235-1.219 0-.469-.09-.86-.266-1.172a2.38 2.38 0 00-.703-.796 2.903 2.903 0 00-1.015-.454c-.395-.093-.801-.14-1.22-.14-.437 0-.847.043-1.234.125a3 3 0 00-1.015.422c-.29.187-.52.449-.688.78-.164.325-.25.735-.25 1.235 0 .492.09.903.266 1.235.168.336.402.605.703.812.305.2.652.34 1.047.422.387.086.797.125 1.234.125zm-8.578-2.234L.343-3.016V-4.39l-11.89-8.578zm0 0"/>
  </symbol>
  <symbol id="l" overflow="visible">
    <path d="M2.063 0h1.093v-2.984h-14.86V0h1.095v-1.719H2.062zm0 0"/>
  </symbol>
  <symbol id="m" overflow="visible">
    <path d="M2.11-5.578V-6.5c.007-.344.035-.68.078-1.016.05-.332.124-.656.218-.968.094-.32.227-.602.406-.844.176-.25.395-.445.657-.594.27-.144.597-.219.984-.219.383 0 .707.075.969.22.27.148.492.343.672.593.176.242.304.523.39.844.094.312.16.636.204.968.05.336.078.672.078 1.016.007.336.015.64.015.922 0 .43-.015.906-.047 1.437a5.9 5.9 0 01-.25 1.485c-.148.46-.382.851-.703 1.172-.312.312-.758.468-1.328.468-.586 0-1.039-.156-1.36-.468a2.888 2.888 0 01-.687-1.172 6.086 6.086 0 01-.265-1.485 32.381 32.381 0 01-.032-1.437zm-1.438.016c0 .417.008.851.031 1.296.02.45.07.887.156 1.313.082.43.204.828.36 1.203.164.375.383.71.656 1 .281.293.629.523 1.047.688.426.156.937.234 1.531.234S5.551.094 5.97-.062A2.797 2.797 0 007-.75c.281-.29.5-.625.656-1 .164-.375.29-.773.375-1.203.082-.426.133-.863.156-1.313.02-.445.032-.879.032-1.296 0-.415-.012-.848-.031-1.297a9.712 9.712 0 00-.157-1.313 6.306 6.306 0 00-.375-1.219 3.006 3.006 0 00-.656-1 2.86 2.86 0 00-1.047-.687c-.418-.176-.918-.266-1.5-.266-.594 0-1.105.09-1.531.266a2.997 2.997 0 00-1.047.687 3.267 3.267 0 00-.656 1 6.559 6.559 0 00-.36 1.22c-.086.429-.136.866-.156 1.312-.023.449-.031.882-.031 1.296zm0 0"/>
  </symbol>
  <symbol id="n" overflow="visible">
    <path d="M.703-7.328h1.36c-.012-.344.019-.68.093-1.016a2.7 2.7 0 01.39-.89c.188-.27.423-.489.704-.657.29-.164.629-.25 1.016-.25.3 0 .582.047.843.141a2.028 2.028 0 011.172 1.063c.125.25.188.53.188.843 0 .399-.063.746-.188 1.047-.125.293-.308.57-.547.828-.242.25-.543.5-.906.75-.367.25-.789.528-1.266.828a14.88 14.88 0 00-1.14.766c-.356.262-.68.57-.969.922A4.592 4.592 0 00.75-1.72C.562-1.25.441-.676.39 0h7.407v-1.203H1.969c.062-.352.195-.664.406-.938.207-.27.457-.52.75-.75.29-.238.613-.46.969-.671.351-.208.707-.415 1.062-.626.352-.226.692-.46 1.016-.703.332-.25.625-.523.875-.828.258-.3.469-.644.625-1.031.156-.383.234-.828.234-1.328 0-.531-.093-1-.281-1.406s-.445-.743-.766-1.016a3.343 3.343 0 00-1.125-.625 4.28 4.28 0 00-1.375-.219c-.605 0-1.14.106-1.609.313-.469.199-.86.48-1.172.844a3.511 3.511 0 00-.703 1.265 4.611 4.611 0 00-.172 1.594zm0 0"/>
  </symbol>
  <symbol id="o" overflow="visible">
    <path d="M7.516-9.953v-1.203H1.922L.859-5.266l1.172.063c.27-.32.578-.578.922-.766a2.36 2.36 0 011.188-.297c.382 0 .734.063 1.046.188s.583.305.813.531c.227.23.398.508.516.828.125.313.187.653.187 1.016 0 .45-.07.844-.203 1.187a2.402 2.402 0 01-.516.844 2.223 2.223 0 01-.765.5 2.705 2.705 0 01-.922.156c-.336 0-.649-.046-.938-.14A2.199 2.199 0 012.125-2.25a2.242 2.242 0 01-.203-.813H.562c.008.524.11.985.297 1.391.196.399.457.734.782 1.016.332.273.71.48 1.14.625a4.75 4.75 0 001.39.203c.665 0 1.243-.106 1.735-.313.5-.207.91-.484 1.235-.828.332-.351.582-.754.75-1.203.164-.457.25-.926.25-1.406 0-.656-.102-1.223-.297-1.703A3.36 3.36 0 007.062-6.5a3.077 3.077 0 00-1.156-.719 4.11 4.11 0 00-1.422-.25c-.386 0-.777.07-1.171.203-.387.125-.7.329-.938.61l-.031-.032.594-3.265zm0 0"/>
  </symbol>
  <symbol id="p" overflow="visible">
    <path d="M8.14-9.984v-1.172H.798v1.281H6.75a18.427 18.427 0 00-1.672 2.078c-.523.742-.98 1.531-1.375 2.375C3.316-4.586 3-3.71 2.75-2.797 2.5-1.89 2.336-.957 2.266 0h1.53c.052-.883.196-1.797.438-2.734.25-.938.567-1.848.954-2.735.394-.883.843-1.718 1.343-2.5s1.035-1.453 1.61-2.015zm0 0"/>
  </symbol>
  <symbol id="q" overflow="visible">
    <path d="M5.703 0v-11.344H4.656c-.074.43-.215.781-.422 1.063-.199.273-.445.492-.734.656a3.247 3.247 0 01-.984.328 7.629 7.629 0 01-1.125.078v1.094h2.953V0zm0 0"/>
  </symbol>
  <symbol id="D" overflow="visible">
    <path d="M1.375-14.281V0h3.14v-14.281zm0 0"/>
  </symbol>
  <symbol id="E" overflow="visible">
    <path d="M3.516-4.734H.484c-.023.875.133 1.636.47 2.28A4.537 4.537 0 002.296-.874c.57.406 1.226.703 1.969.89a8.945 8.945 0 002.296.297c.97 0 1.82-.109 2.563-.328.738-.226 1.36-.546 1.86-.953s.874-.89 1.124-1.453c.258-.562.391-1.164.391-1.812 0-.801-.172-1.457-.516-1.97a4.084 4.084 0 00-1.203-1.234 5.105 5.105 0 00-1.422-.671 33.242 33.242 0 00-1.093-.297 98.687 98.687 0 01-2.172-.547c-.555-.156-.992-.305-1.313-.453-.312-.145-.523-.301-.625-.469-.105-.176-.156-.406-.156-.688 0-.3.066-.55.203-.75.133-.207.3-.374.5-.5.207-.132.438-.226.688-.28.257-.063.515-.095.765-.095.383 0 .739.04 1.063.11.332.062.625.18.875.344.258.156.46.375.61.656.155.281.25.637.28 1.062h3.032c0-.832-.157-1.535-.47-2.109-.312-.582-.733-1.063-1.265-1.438s-1.14-.644-1.828-.812a9.26 9.26 0 00-2.156-.25c-.637 0-1.277.09-1.922.266a5.49 5.49 0 00-1.719.812c-.5.356-.914.805-1.234 1.344-.313.531-.469 1.168-.469 1.906 0 .656.125 1.215.375 1.672.25.46.57.844.969 1.156.406.305.86.555 1.36.75.507.188 1.03.352 1.562.485.52.148 1.031.28 1.531.406.508.117.96.25 1.36.406.406.156.726.36.968.61.25.242.375.554.375.937 0 .355-.094.652-.281.89-.18.231-.406.415-.688.547-.28.137-.586.231-.906.282a6.798 6.798 0 01-.89.062c-.418 0-.82-.05-1.204-.156a3.217 3.217 0 01-1.015-.453 2.335 2.335 0 01-.688-.813c-.18-.332-.265-.738-.265-1.218zm0 0"/>
  </symbol>
  <symbol id="F" overflow="visible">
    <path d="M4.516-2.64v-9h2.25c.77 0 1.414.109 1.937.328.531.218.953.539 1.266.953.32.418.55.918.687 1.5a7.94 7.94 0 01.219 1.937c0 .793-.102 1.465-.297 2.016-.2.543-.465.984-.797 1.328a2.926 2.926 0 01-1.14.719 4.03 4.03 0 01-1.329.218zM1.375-14.282V0h6.172C8.64 0 9.586-.18 10.39-.547a5.706 5.706 0 002.015-1.5 6.347 6.347 0 001.203-2.281c.27-.883.407-1.848.407-2.89 0-1.188-.164-2.22-.485-3.095-.324-.882-.777-1.617-1.36-2.203a5.596 5.596 0 00-2.062-1.328 7.432 7.432 0 00-2.562-.437zm0 0"/>
  </symbol>
  <symbol id="G" overflow="visible">
    <path d="M4.516-8.5v-3.344h2.937c.281 0 .55.028.813.078.257.043.488.125.687.25.207.118.367.282.485.5.124.211.187.48.187.813 0 .605-.184 1.043-.547 1.312-.355.262-.812.391-1.375.391zm-3.141-5.781V0h6.922c.644 0 1.27-.078 1.875-.234a4.997 4.997 0 001.61-.75c.476-.332.859-.758 1.14-1.282.281-.53.422-1.156.422-1.875 0-.894-.219-1.656-.656-2.28-.43-.634-1.086-1.083-1.97-1.345.645-.3 1.13-.691 1.454-1.171.32-.477.484-1.079.484-1.797 0-.664-.11-1.223-.328-1.672a2.69 2.69 0 00-.937-1.094c-.399-.281-.875-.477-1.438-.594a8.461 8.461 0 00-1.86-.187zm3.14 11.844V-6.36h3.423c.675 0 1.222.156 1.64.468.414.313.625.84.625 1.579 0 .367-.07.667-.203.906a1.57 1.57 0 01-.5.578c-.21.137-.453.234-.734.297s-.579.094-.891.094zm0 0"/>
  </symbol>
  <symbol id="H" overflow="visible">
    <path d="M1.063-6.688v2.454h6.015v-2.454zm0 0"/>
  </symbol>
  <symbol id="I" overflow="visible">
    <path d="M1.375-14.281V0h2.938v-9.563h.046L10.297 0h3.14v-14.281H10.5v9.578h-.047L4.5-14.281zm0 0"/>
  </symbol>
  <symbol id="J" overflow="visible">
    <path d="M4.516-7.563v-4.28h2.437c.363 0 .711.027 1.047.077.332.055.625.157.875.313.258.156.46.375.61.656.156.281.234.649.234 1.094 0 .46-.078.828-.235 1.11a1.658 1.658 0 01-.609.64c-.25.156-.543.262-.875.312a6.503 6.503 0 01-1.047.079zM1.375-14.28V0h3.14v-5.125h3.298c.894 0 1.656-.129 2.28-.39.634-.258 1.145-.602 1.532-1.032a3.9 3.9 0 00.86-1.469 5.203 5.203 0 000-3.375 3.96 3.96 0 00-.86-1.468c-.387-.426-.898-.77-1.531-1.032-.625-.257-1.387-.39-2.281-.39zm0 0"/>
  </symbol>
  <symbol id="K" overflow="visible">
    <path d="M4-11.938v-2.343H1.156v2.344zm-2.844 1.594V0H4v-10.344zm0 0"/>
  </symbol>
  <symbol id="L" overflow="visible">
    <path d="M1.078-10.344V0h2.844v-4.656c0-.469.047-.899.14-1.297.094-.406.25-.754.47-1.047.218-.3.503-.54.859-.719.363-.176.804-.265 1.328-.265.176 0 .36.011.547.03.187.024.343.048.468.079v-2.64a2.013 2.013 0 00-.609-.11c-.367 0-.715.059-1.047.172a3.587 3.587 0 00-.937.453 3.443 3.443 0 00-.782.688 3.4 3.4 0 00-.546.89H3.78v-1.922zm0 0"/>
  </symbol>
  <symbol id="M" overflow="visible">
    <path d="M10.781 0v-10.344H7.937v5.422c0 1.055-.171 1.813-.515 2.281-.344.461-.906.688-1.688.688-.68 0-1.152-.207-1.421-.625-.262-.426-.391-1.067-.391-1.922v-5.844H1.078v6.36c0 .648.055 1.234.172 1.765.113.524.313.965.594 1.328.281.368.66.653 1.14.86.489.195 1.114.297 1.875.297a4.12 4.12 0 001.766-.407c.57-.27 1.035-.703 1.39-1.296h.063V0zm0 0"/>
  </symbol>
  <symbol id="N" overflow="visible">
    <path d="M3.281-3.36H.578c.031.7.188 1.278.469 1.735.289.46.656.828 1.094 1.11.445.28.957.48 1.53.593a8.394 8.394 0 001.767.188c.582 0 1.156-.059 1.718-.172A4.347 4.347 0 008.672-.5 3.257 3.257 0 009.75-1.61c.27-.456.406-1.023.406-1.702 0-.489-.094-.895-.281-1.22a2.656 2.656 0 00-.734-.812 3.524 3.524 0 00-1.047-.531c-.399-.133-.805-.25-1.219-.344a30.21 30.21 0 00-1.172-.25 8.406 8.406 0 01-1.031-.281c-.305-.102-.547-.234-.734-.39s-.282-.364-.282-.626c0-.207.051-.375.156-.5.114-.125.243-.218.391-.28a1.79 1.79 0 01.516-.142c.187-.019.36-.03.515-.03.508 0 .954.1 1.329.296.375.188.582.559.625 1.11h2.687c-.055-.645-.215-1.176-.484-1.594a3.16 3.16 0 00-1.032-1.016 4.417 4.417 0 00-1.421-.531 7.644 7.644 0 00-1.625-.172c-.555 0-1.102.055-1.641.156a4.578 4.578 0 00-1.438.531c-.43.243-.773.575-1.03 1-.263.43-.391.977-.391 1.641 0 .45.093.828.28 1.14s.43.575.735.782c.313.21.664.375 1.063.5.394.125.796.234 1.203.328 1.02.219 1.812.438 2.375.656.562.211.843.528.843.954 0 .25-.062.46-.187.624a1.359 1.359 0 01-.438.407c-.18.093-.375.168-.593.218a3.37 3.37 0 01-1.438-.031 2.182 2.182 0 01-.703-.297c-.2-.144-.36-.328-.484-.546a1.624 1.624 0 01-.188-.797zm0 0"/>
  </symbol>
  <symbol id="O" overflow="visible">
    <path d="M1.375-14.281V0h2.938v-10.016h.046L7.86 0h2.422l3.5-10.125h.031V0h2.954v-14.281h-4.422L9.188-4.453H9.14l-3.344-9.828zm0 0"/>
  </symbol>
  <symbol id="P" overflow="visible">
    <path d="M1.375-14.281V0h3.14v-5.906H10.5v-2.438H4.516v-3.297h6.906v-2.64zm0 0"/>
  </symbol>
  <symbol id="Q" overflow="visible">
    <path d="M1.078-10.344V0h2.844v-5.422c0-1.05.172-1.805.515-2.266.344-.457.907-.687 1.688-.687.676 0 1.145.21 1.406.625.27.418.407 1.055.407 1.906V0h2.843v-6.36c0-.632-.058-1.218-.172-1.75-.117-.53-.312-.976-.593-1.343-.282-.363-.668-.649-1.157-.86-.48-.207-1.101-.312-1.859-.312-.605 0-1.195.14-1.766.422-.574.273-1.039.703-1.39 1.297H3.78v-1.438zm0 0"/>
  </symbol>
  <symbol id="R" overflow="visible">
    <path d="M8.422-5.203c0 .43-.043.844-.125 1.25-.074.398-.203.75-.39 1.062s-.438.563-.75.75-.704.282-1.173.282c-.449 0-.828-.094-1.14-.282a2.562 2.562 0 01-.782-.765 3.401 3.401 0 01-.437-1.063 5.404 5.404 0 01-.14-1.219c0-.414.038-.82.124-1.218.082-.395.22-.742.407-1.047.195-.313.457-.563.78-.75.321-.188.72-.281 1.188-.281s.852.093 1.157.28c.3.188.55.434.75.735.195.305.332.653.406 1.047.082.387.125.793.125 1.219zm.031 3.89V0h2.703v-14.281H8.312v5.203h-.03a3.112 3.112 0 00-1.313-1.156 4.103 4.103 0 00-1.75-.391c-.762 0-1.43.152-2 .453A4.347 4.347 0 001.78-8.969a5.337 5.337 0 00-.86 1.703 7.15 7.15 0 00-.28 2c0 .72.093 1.414.28 2.079a5.8 5.8 0 00.86 1.78c.383.512.867.919 1.453 1.22.594.3 1.274.453 2.047.453.676 0 1.285-.125 1.828-.375.54-.25.977-.649 1.313-1.204zm0 0"/>
  </symbol>
  <symbol id="S" overflow="visible">
    <path d="M8.047-6.281H3.422c.008-.196.05-.422.125-.672.07-.258.195-.5.375-.719.187-.226.426-.422.719-.578.3-.156.68-.234 1.14-.234.688 0 1.203.187 1.547.562s.582.922.719 1.64zM3.422-4.484h7.453a7.32 7.32 0 00-.203-2.297 5.43 5.43 0 00-.906-1.953 4.628 4.628 0 00-1.61-1.375c-.648-.344-1.414-.516-2.297-.516-.78 0-1.5.14-2.156.422a5.105 5.105 0 00-1.672 1.156c-.46.492-.82 1.07-1.078 1.735a6.102 6.102 0 00-.375 2.156c0 .804.117 1.539.36 2.203A4.91 4.91 0 002-1.234c.457.48 1.008.851 1.656 1.109.656.258 1.39.39 2.203.39 1.176 0 2.176-.265 3-.796.82-.54 1.438-1.43 1.844-2.672h-2.5c-.094.324-.351.633-.765.922-.418.281-.915.422-1.485.422-.793 0-1.402-.204-1.828-.61-.43-.414-.664-1.086-.703-2.015zm0 0"/>
  </symbol>
  <symbol id="T" overflow="visible">
    <path d="M15.469-4.219c0 1.282-.438 2.309-1.313 3.078C13.281-.379 12.051 0 10.47 0H1.875v-14.89h7.188c.937 0 1.75.09 2.437.265.688.18 1.238.422 1.656.734.426.313.742.684.953 1.11.207.418.313.883.313 1.39 0 .543-.11 1.043-.328 1.5-.211.461-.477.84-.797 1.141-.313.305-.633.512-.953.625 1.02.406 1.797.918 2.328 1.531.531.606.797 1.399.797 2.375zm-5.235-6.39c0-.707-.242-1.18-.718-1.422-.47-.239-1.204-.36-2.204-.36H6.36v3.579h.97c1.019 0 1.757-.118 2.218-.36.457-.238.687-.719.687-1.437zm.72 6.203c0-1.27-.923-1.907-2.767-1.907H6.36V-2.5h1.829c1.843 0 2.765-.633 2.765-1.906zm0 0"/>
  </symbol>
  <symbol id="U" overflow="visible">
    <path d="M12.453-4.531H4.75c.145.668.508 1.215 1.094 1.64a3.415 3.415 0 002.015.625c1.301 0 2.739-.363 4.313-1.093v2.39c-.563.293-1.25.559-2.063.797-.804.238-1.828.36-3.078.36-1.343 0-2.492-.25-3.437-.75-.938-.5-1.64-1.176-2.11-2.032C1.016-3.457.781-4.43.781-5.516c0-1.082.235-2.046.703-2.89s1.172-1.504 2.11-1.985c.945-.488 2.094-.734 3.437-.734.895 0 1.754.195 2.578.578.82.375 1.5 1 2.032 1.875.539.867.812 1.985.812 3.36zm-3.64-1.922c0-.695-.172-1.254-.516-1.672-.344-.414-.844-.625-1.5-.625-.649 0-1.168.215-1.563.64-.398.419-.593.97-.593 1.657zm0 0"/>
  </symbol>
  <symbol id="V" overflow="visible">
    <path d="M8.563-12.125c-.586-.133-1.06-.203-1.422-.203-.418 0-.746.14-.985.422-.23.273-.343.656-.343 1.156v.39h1.953v2.61H5.812V0H1.938v-7.75H.157v-2.61h1.78v-.203c0-.757.145-1.484.438-2.171.3-.688.797-1.25 1.484-1.688.696-.445 1.618-.672 2.766-.672.633 0 1.281.07 1.938.203zm0 0"/>
  </symbol>
  <symbol id="W" overflow="visible">
    <path d="M13.313-5.484c0 1.093-.243 2.07-.72 2.921-.468.844-1.179 1.516-2.124 2.016-.938.492-2.086.735-3.438.735-1.355 0-2.5-.243-3.437-.735-.938-.5-1.64-1.172-2.11-2.015-.468-.852-.703-1.829-.703-2.922 0-.82.13-1.567.39-2.235A5.012 5.012 0 012.36-9.516c.532-.52 1.188-.914 1.97-1.187.78-.281 1.679-.422 2.702-.422 1.032 0 1.942.14 2.735.422.789.281 1.445.68 1.968 1.187.52.512.91 1.106 1.172 1.782.27.68.406 1.43.406 2.25zm-4.079 0c0-.864-.187-1.54-.562-2.032-.375-.488-.922-.734-1.64-.734-.712 0-1.25.246-1.626.734-.375.493-.562 1.168-.562 2.032 0 .867.187 1.546.562 2.046.383.5.926.75 1.625.75.719 0 1.266-.242 1.64-.734.376-.5.563-1.187.563-2.062zm0 0"/>
  </symbol>
  <symbol id="X" overflow="visible">
    <path d="M10.844-10.344L9.422-6.469c-.586-.562-1.18-.843-1.781-.843-.543 0-1.016.187-1.422.562-.399.367-.778 1.047-1.14 2.047V0h-3.86v-10.938h3.86v2.641c.25-.644.679-1.273 1.296-1.89.613-.626 1.336-.938 2.172-.938.437 0 .816.063 1.14.188.32.124.708.324 1.157.593zm0 0"/>
  </symbol>
  <symbol id="ac" overflow="visible">
    <path d="M18.219 0h-4.594l-1.219-3.016H5.937L4.704 0H.11l6.579-14.89h4.968zm-6.844-5.61l-2.172-5.437L7-5.609zm0 0"/>
  </symbol>
  <symbol id="ad" overflow="visible">
    <path d="M9.86-.64c-.4.199-.95.386-1.657.562a8.465 8.465 0 01-2.031.266C3.39.188 2-1.173 2-3.891V-8.25H.25v-.672l5.188-5.297h.437v3.281h3.703v2.688H5.875v3.5c0 .406.023.734.078.984.05.25.192.465.422.641.227.168.582.25 1.063.25.613 0 1.421-.258 2.421-.781zm0 0"/>
  </symbol>
  <symbol id="ae" overflow="visible">
    <path d="M5.422-2.11c0 .637-.227 1.18-.672 1.626-.438.449-.98.671-1.625.671a2.256 2.256 0 01-1.64-.671A2.173 2.173 0 01.796-2.11a2.2 2.2 0 01.687-1.641 2.272 2.272 0 011.641-.672c.406 0 .785.106 1.14.313.364.21.645.492.844.843.207.344.313.73.313 1.157zm0 0"/>
  </symbol>
  <symbol id="Z" overflow="visible">
    <path d="M.375-15.031h12.531v1.922H7.687V0H5.517v-13.11H.375zm0 0"/>
  </symbol>
  <symbol id="aa" overflow="visible">
    <path d="M1.672-15h2.156V0H1.672zm0 0"/>
  </symbol>
  <symbol id="ab" overflow="visible">
    <path d="M5.375-6.297l-1.64-.984C2.71-7.906 1.984-8.52 1.546-9.125c-.43-.602-.64-1.3-.64-2.094 0-1.176.405-2.133 1.218-2.875.82-.738 1.89-1.11 3.203-1.11 1.25 0 2.399.356 3.453 1.063v2.438c-1.086-1.04-2.25-1.563-3.5-1.563-.699 0-1.277.164-1.734.485-.45.324-.672.742-.672 1.25 0 .46.164.886.5 1.281.332.387.863.793 1.594 1.219l1.656.969c1.832 1.093 2.75 2.484 2.75 4.171 0 1.211-.406 2.188-1.219 2.938-.804.75-1.851 1.125-3.14 1.125-1.48 0-2.829-.453-4.047-1.36v-2.734C2.125-2.453 3.469-1.719 5-1.719c.664 0 1.223-.187 1.672-.562.445-.375.672-.848.672-1.422 0-.914-.657-1.781-1.969-2.594zm0 0"/>
  </symbol>
  <symbol id="af" overflow="visible">
    <path d="M.844-9.344c.383 0 .758-.031 1.125-.094.363-.062.691-.164.984-.312.29-.156.54-.348.75-.578a1.8 1.8 0 00.406-.875h1.485V0h-2v-7.906H.844zm0 0"/>
  </symbol>
  <symbol id="ag" overflow="visible">
    <path d="M1.11-2.156h2.218V0H1.11zm0 0"/>
  </symbol>
  <symbol id="ah" overflow="visible">
    <path d="M3.64-6.563c.301.012.598-.007.891-.062.301-.05.57-.145.813-.281.238-.133.426-.317.562-.547.145-.238.219-.524.219-.86 0-.488-.164-.874-.484-1.156-.325-.289-.743-.437-1.25-.437-.325 0-.606.07-.844.203-.23.125-.422.297-.578.515s-.274.465-.344.735a2.773 2.773 0 00-.094.844H.703C.723-8.16.82-8.664 1-9.125a3.83 3.83 0 01.75-1.203c.313-.344.691-.61 1.14-.797a3.783 3.783 0 011.532-.297c.437 0 .863.063 1.281.188.426.125.805.312 1.14.562.333.25.598.563.798.938.207.375.312.808.312 1.296 0 .575-.133 1.075-.39 1.5-.25.418-.649.72-1.188.907V-6a2.286 2.286 0 011.484.953c.364.512.547 1.125.547 1.844 0 .531-.11 1.012-.328 1.437-.21.418-.496.778-.86 1.079a4.01 4.01 0 01-1.265.671C5.473.141 4.97.22 4.437.22c-.656 0-1.23-.094-1.718-.281a3.277 3.277 0 01-1.203-.782 3.55 3.55 0 01-.75-1.234A5.033 5.033 0 01.5-3.688h1.813c-.024.688.144 1.262.5 1.72.363.448.906.671 1.624.671.602 0 1.11-.172 1.516-.516.414-.351.625-.847.625-1.484 0-.437-.09-.781-.266-1.031a1.648 1.648 0 00-.671-.594 2.672 2.672 0 00-.938-.25c-.344-.031-.7-.039-1.062-.031zm0 0"/>
  </symbol>
  <symbol id="ai" overflow="visible">
    <path d="M1.797-4.094h3.39V-9.03h-.03zm6.562 1.438H6.906V0H5.188v-2.656H.39V-4.47l4.796-6.734h1.72v7.11h1.452zm0 0"/>
  </symbol>
  <symbol id="aj" overflow="visible">
    <path d="M1.969-11.203h5.797v1.64H3.328L2.75-6.719l.031.032c.25-.282.563-.489.938-.625.375-.145.75-.22 1.125-.22.562 0 1.054.095 1.484.282.438.188.805.45 1.11.781.3.336.53.73.687 1.188.156.46.234.953.234 1.484 0 .45-.074.914-.218 1.39a3.925 3.925 0 01-.704 1.298 3.669 3.669 0 01-1.203.953c-.492.25-1.074.375-1.75.375A5.162 5.162 0 012.954 0a3.316 3.316 0 01-1.22-.64 3.268 3.268 0 01-.828-1.063C.696-2.13.582-2.625.562-3.187h1.829c.05.617.254 1.085.609 1.406.363.324.848.484 1.453.484.383 0 .707-.062.969-.187.27-.133.484-.313.64-.532.165-.226.286-.488.36-.78.07-.302.11-.626.11-.97 0-.3-.048-.593-.141-.875-.086-.289-.211-.539-.375-.75a1.694 1.694 0 00-.672-.515 2.232 2.232 0 00-.938-.188c-.386 0-.75.074-1.093.219-.336.148-.575.414-.72.797H.767zm0 0"/>
  </symbol>
  <symbol id="ak" overflow="visible">
    <path d="M8.266 0H.625c.008-.926.234-1.734.672-2.422.437-.695 1.035-1.3 1.797-1.812.351-.27.726-.532 1.125-.782.394-.25.758-.515 1.093-.796.333-.29.602-.602.813-.938a2.25 2.25 0 00.344-1.172c0-.195-.028-.41-.078-.64a1.993 1.993 0 00-.282-.641 1.663 1.663 0 00-.578-.5c-.242-.133-.558-.203-.953-.203-.367 0-.668.074-.906.219a1.652 1.652 0 00-.578.593c-.149.25-.258.547-.328.89-.063.337-.102.7-.11 1.095H.828c0-.614.082-1.18.25-1.704.164-.53.41-.988.734-1.374a3.532 3.532 0 011.22-.907c.476-.219 1.03-.328 1.655-.328.688 0 1.258.117 1.72.344.456.219.827.5 1.109.844a3 3 0 01.593 1.109c.114.398.172.777.172 1.14 0 .45-.07.856-.203 1.22-.137.367-.324.699-.562 1-.23.304-.496.585-.797.843-.305.25-.617.492-.938.719-.312.219-.633.433-.953.64-.312.2-.61.403-.89.61-.274.2-.512.406-.72.625a1.75 1.75 0 00-.405.703h5.453zm0 0"/>
  </symbol>
  <symbol id="al" overflow="visible">
    <path d="M4.453-9.984c-.492 0-.906.148-1.25.437-.344.293-.515.719-.515 1.281 0 .532.164.938.5 1.22.332.28.753.421 1.265.421.508 0 .926-.14 1.25-.422.332-.281.5-.687.5-1.219 0-.562-.172-.988-.516-1.28-.335-.29-.746-.438-1.234-.438zm0 10.203A5.204 5.204 0 012.86-.016a3.564 3.564 0 01-1.25-.687 3.353 3.353 0 01-.812-1.125A3.5 3.5 0 01.5-3.297c0-.707.18-1.3.547-1.781.363-.477.863-.797 1.5-.953v-.032c-.512-.195-.906-.492-1.188-.89-.273-.395-.406-.867-.406-1.422 0-.957.3-1.703.906-2.234.602-.54 1.47-.813 2.594-.813 1.113 0 1.973.274 2.578.813.602.53.907 1.277.907 2.234 0 .555-.137 1.027-.407 1.422-.273.398-.664.695-1.172.89v.032a2.613 2.613 0 011.485.953c.375.48.562 1.074.562 1.781 0 .543-.101 1.031-.297 1.469-.199.437-.476.812-.828 1.125a3.602 3.602 0 01-1.265.687c-.48.157-1 .235-1.563.235zm0-1.438c.602 0 1.11-.176 1.516-.531.406-.363.61-.879.61-1.547 0-.613-.204-1.094-.61-1.437-.407-.352-.914-.532-1.516-.532-.617 0-1.125.18-1.531.532-.406.343-.61.824-.61 1.437 0 .668.204 1.184.61 1.547.406.355.914.531 1.531.531zm0 0"/>
  </symbol>
  <symbol id="am" overflow="visible">
    <path d="M.563-11.203h7.656v1.515a20.526 20.526 0 00-1.594 2.063 15.39 15.39 0 00-1.266 2.266 15.659 15.659 0 00-.875 2.515A16.732 16.732 0 004.047 0h-2c.062-.883.21-1.758.453-2.625.238-.863.547-1.703.922-2.516.383-.812.828-1.586 1.328-2.328.5-.75 1.04-1.445 1.625-2.093H.562zm0 0"/>
  </symbol>
  <symbol id="an" overflow="visible">
    <path d="M6.313-8.375c-.043-.457-.204-.828-.485-1.11s-.664-.421-1.14-.421c-.336 0-.622.062-.86.187a1.854 1.854 0 00-.61.5c-.167.2-.304.43-.405.688-.094.261-.172.539-.235.828-.062.281-.11.562-.14.844-.024.28-.043.546-.063.796l.031.032a2.31 2.31 0 011-1 3.101 3.101 0 011.406-.328c.551 0 1.047.101 1.485.296A3.273 3.273 0 018.11-5.093c.163.461.25.961.25 1.5 0 .543-.09 1.047-.266 1.516A3.577 3.577 0 016.14-.063 3.98 3.98 0 014.625.22c-.824 0-1.5-.153-2.031-.453-.524-.301-.938-.711-1.25-1.235C1.039-2 .832-2.617.719-3.329a14.29 14.29 0 01-.172-2.296c0-.676.066-1.352.203-2.031a6.055 6.055 0 01.719-1.875 4.042 4.042 0 011.297-1.36c.539-.351 1.207-.53 2-.53.445 0 .867.077 1.265.233a3.33 3.33 0 011.047.626c.3.261.547.578.734.953.196.367.305.777.329 1.234zm-1.75 7.078c.332 0 .617-.066.859-.203.25-.133.453-.305.61-.516.163-.218.288-.468.374-.75a3.05 3.05 0 00.125-.859c0-.3-.043-.586-.125-.86a2.25 2.25 0 00-.375-.734 1.708 1.708 0 00-.61-.5 1.758 1.758 0 00-.859-.203c-.335 0-.625.063-.875.188s-.464.293-.64.5c-.168.21-.293.453-.375.734a2.89 2.89 0 00-.125.875c0 .305.039.594.125.875.082.273.207.516.375.734.176.22.39.399.64.532.25.125.54.187.876.187zm0 0"/>
  </symbol>
  <symbol id="ao" overflow="visible">
    <path d="M4.453-11.422c.79 0 1.442.188 1.953.563a3.77 3.77 0 011.188 1.406c.281.562.468 1.187.562 1.875.102.68.156 1.34.156 1.984 0 .637-.054 1.297-.156 1.985a6.09 6.09 0 01-.562 1.875A3.71 3.71 0 016.406-.328c-.511.363-1.164.547-1.953.547-.805 0-1.46-.184-1.969-.547a3.854 3.854 0 01-1.187-1.406A6.328 6.328 0 01.719-3.61a14.68 14.68 0 01-.14-1.985c0-.644.046-1.304.14-1.984a6.189 6.189 0 01.578-1.875c.289-.57.687-1.04 1.187-1.406.508-.375 1.164-.563 1.97-.563zm0 10.125c.395 0 .723-.113.984-.344.27-.226.477-.535.625-.921.157-.395.266-.852.329-1.376.07-.519.109-1.07.109-1.656 0-.593-.04-1.144-.11-1.656a5.591 5.591 0 00-.327-1.375c-.149-.395-.356-.707-.625-.938-.262-.226-.59-.343-.985-.343-.406 0-.742.117-1 .344-.262.23-.469.542-.625.937A5.591 5.591 0 002.5-7.25a13.68 13.68 0 00-.094 1.656c0 .586.031 1.137.094 1.657.063.523.172.98.328 1.374.156.387.363.696.625.922.258.23.594.344 1 .344zm0 0"/>
  </symbol>
  <symbol id="ap" overflow="visible">
    <path d="M2.578-2.828c.04.46.203.828.485 1.11s.66.421 1.14.421c.488 0 .879-.129 1.172-.39.3-.258.531-.583.688-.97.156-.394.265-.812.328-1.25.062-.445.109-.859.14-1.234L6.5-5.17c-.25.437-.59.773-1.016 1-.43.23-.898.343-1.406.343a3.79 3.79 0 01-1.453-.266 3.415 3.415 0 01-1.11-.765 3.466 3.466 0 01-.718-1.172 4.6 4.6 0 01-.25-1.563c0-.55.082-1.054.25-1.515.176-.47.426-.875.75-1.22.332-.343.738-.608 1.219-.796.476-.195 1.023-.297 1.64-.297.782 0 1.426.152 1.938.453.52.305.926.719 1.218 1.25.29.531.493 1.156.61 1.875.125.711.187 1.469.187 2.282a9.85 9.85 0 01-.218 2.03 6.243 6.243 0 01-.72 1.86A4.171 4.171 0 016.11-.297C5.58.047 4.914.22 4.125.22c-.45 0-.871-.074-1.266-.219a3.113 3.113 0 01-1.046-.625 3.378 3.378 0 01-.75-.953 3.044 3.044 0 01-.313-1.25zm1.735-7.078c-.325 0-.61.062-.86.187a1.763 1.763 0 00-.61.516 2.3 2.3 0 00-.359.734 3.566 3.566 0 000 1.75c.082.282.204.532.36.75.164.211.367.383.61.516.25.125.534.187.858.187.344 0 .641-.062.891-.187.258-.125.473-.297.64-.516.165-.218.29-.468.376-.75.093-.289.14-.586.14-.89 0-.301-.046-.586-.14-.86a2.25 2.25 0 00-.375-.734 1.857 1.857 0 00-.64-.5 1.874 1.874 0 00-.891-.203zm0 0"/>
  </symbol>
  <g clip-path="url(#a)">
    <path fill="#fff" d="M0 0h680.225v735.52H0z"/>
  </g>
  <use x="60.111" y="212.144" xlink:href="#b"/>
  <use x="60.111" y="202.96" xlink:href="#c"/>
  <use x="60.111" y="194.064" xlink:href="#d"/>
  <use x="60.111" y="189.616" xlink:href="#e"/>
  <use x="60.111" y="179.248" xlink:href="#f"/>
  <use x="60.111" y="170.656" xlink:href="#g"/>
  <use x="60.111" y="161.472" xlink:href="#h"/>
  <use x="60.111" y="156.432" xlink:href="#i"/>
  <use x="60.111" y="147.84" xlink:href="#d"/>
  <use x="60.111" y="143.392" xlink:href="#j"/>
  <use x="60.111" y="139.248" xlink:href="#k"/>
  <use x="60.111" y="123.248" xlink:href="#l"/>
  <use x="90.86" y="316.611" xlink:href="#m"/>
  <use x="81.86" y="243.611" xlink:href="#n"/>
  <use x="90.756" y="243.611" xlink:href="#o"/>
  <use x="81.86" y="170.611" xlink:href="#o"/>
  <use x="90.756" y="170.611" xlink:href="#m"/>
  <use x="81.86" y="97.611" xlink:href="#p"/>
  <use x="90.756" y="97.611" xlink:href="#o"/>
  <use x="72.86" y="24.611" xlink:href="#q"/>
  <use x="81.756" y="24.611" xlink:href="#m"/>
  <use x="90.652" y="24.611" xlink:href="#m"/>
  <g clip-path="url(#r)" transform="translate(96 175)">
    <g clip-path="url(#s)">
      <path fill="none" stroke="#6e3b79" stroke-width="6" d="M18.305 97.469l450.902-79.696"/>
    </g>
    <g clip-path="url(#t)">
      <path fill="#fff" d="M10.86 90.61h14v14h-14zm0 0"/>
    </g>
    <path fill="none" stroke="#6e3b79" stroke-width="6" d="M13.805 92.969h9v9h-9zm0 0"/>
    <g clip-path="url(#u)">
      <use xlink:href="#reuse-0"/>
    </g>
    <path fill="none" stroke="#6e3b79" stroke-width="6" d="M464.707 13.273h9v9h-9zm0 0"/>
  </g>
  <g clip-path="url(#v)" transform="translate(96 56)">
    <g clip-path="url(#w)">
      <path fill="none" stroke="#55a7a4" stroke-width="6" d="M18.305 101.45l450.902-84.075"/>
    </g>
    <g clip-path="url(#x)">
      <path fill="#fff" d="M10.86 94.61h14v14h-14zm0 0"/>
    </g>
    <path fill="none" stroke="#55a7a4" stroke-width="6" d="M13.805 96.95h9v9h-9zm0 0"/>
    <g clip-path="url(#y)">
      <use xlink:href="#reuse-0"/>
    </g>
    <path fill="none" stroke="#55a7a4" stroke-width="6" d="M464.707 12.875h9v9h-9zm0 0"/>
  </g>
  <g clip-path="url(#z)" transform="translate(96 65)">
    <g clip-path="url(#A)">
      <path fill="none" stroke="#fdec59" stroke-width="6" d="M18.305 214.18L469.207 18.008"/>
    </g>
    <g clip-path="url(#B)">
      <path fill="#fff" d="M10.86 207.61h14v14h-14zm0 0"/>
    </g>
    <path fill="none" stroke="#fdec59" stroke-width="6" d="M13.805 209.68h9v9h-9zm0 0"/>
    <g clip-path="url(#C)">
      <use xlink:href="#reuse-0"/>
    </g>
    <path fill="none" stroke="#fdec59" stroke-width="6" d="M464.707 13.508h9v9h-9zm0 0"/>
  </g>
  <use x="181.86" y="726.611" xlink:href="#D"/>
  <use x="187.76" y="726.611" xlink:href="#E"/>
  <use x="200.74" y="726.611" xlink:href="#F"/>
  <use x="215.56" y="726.611" xlink:href="#G"/>
  <use x="229.64" y="726.611" xlink:href="#H"/>
  <use x="237.78" y="726.611" xlink:href="#F"/>
  <use x="252.6" y="726.611" xlink:href="#I"/>
  <use x="267.42" y="726.611" xlink:href="#J"/>
  <use x="333.86" y="726.611" xlink:href="#E"/>
  <use x="346.84" y="726.611" xlink:href="#K"/>
  <use x="352" y="726.611" xlink:href="#L"/>
  <use x="359.78" y="726.611" xlink:href="#K"/>
  <use x="364.94" y="726.611" xlink:href="#M"/>
  <use x="376.8" y="726.611" xlink:href="#N"/>
  <path fill="#fdec59" d="M147.11 706.45h24.449v24.448h-24.45zm0 0"/>
  <path fill="#20908c" d="M299.11 706.45h24.449v24.448h-24.45zm0 0"/>
  <use x="441.86" y="726.611" xlink:href="#O"/>
  <use x="460" y="726.611" xlink:href="#E"/>
  <use x="472.98" y="726.611" xlink:href="#H"/>
  <use x="481.12" y="726.611" xlink:href="#P"/>
  <use x="492.98" y="726.611" xlink:href="#K"/>
  <use x="498.14" y="726.611" xlink:href="#Q"/>
  <use x="510" y="726.611" xlink:href="#R"/>
  <use x="522.22" y="726.611" xlink:href="#S"/>
  <use x="533.7" y="726.611" xlink:href="#L"/>
  <path fill="#6e3b79" d="M407.11 706.45h24.449v24.448h-24.45zm0 0"/>
  <use x="87.86" y="366.611" xlink:href="#T"/>
  <use x="104.338" y="366.611" xlink:href="#U"/>
  <use x="117.454" y="366.611" xlink:href="#V"/>
  <use x="125.575" y="366.611" xlink:href="#W"/>
  <use x="139.657" y="366.611" xlink:href="#X"/>
  <use x="149.561" y="366.611" xlink:href="#U"/>
  <use x="162.679" y="366.611" xlink:href="#Y"/>
  <use x="166.041" y="366.611" xlink:href="#Z"/>
  <use x="179.329" y="366.611" xlink:href="#aa"/>
  <use x="184.829" y="366.611" xlink:href="#ab"/>
  <use x="477.86" y="366.611" xlink:href="#ac"/>
  <use x="496.186" y="366.611" xlink:href="#V"/>
  <use x="504.306" y="366.611" xlink:href="#ad"/>
  <use x="514.629" y="366.611" xlink:href="#U"/>
  <use x="527.745" y="366.611" xlink:href="#X"/>
  <use x="538.596" y="366.611" xlink:href="#Y"/>
  <use x="541.958" y="366.611" xlink:href="#Z"/>
  <use x="555.246" y="366.611" xlink:href="#aa"/>
  <use x="560.746" y="366.611" xlink:href="#ab"/>
  <use x="570.822" y="366.611" xlink:href="#Y"/>
  <path fill="none" stroke="#000" stroke-dasharray="1.1 1.1" stroke-width="1.1" d="M17.8 3.703h643.907c3.426 0 5.164 0 7.008.586a7.254 7.254 0 014.348 4.348c.585 1.843.585 3.582.585 7.058v308.118c0 3.421 0 5.16-.585 7.007a7.274 7.274 0 01-4.348 4.348c-1.844.582-3.582.582-7.059.582H17.801c-3.422 0-5.16 0-7.008-.582a7.284 7.284 0 01-4.348-4.348c-.586-1.847-.586-3.586-.586-7.062V15.645c0-3.426 0-5.165.586-7.008a7.264 7.264 0 014.348-4.348c1.848-.586 3.586-.586 7.062-.586zm0 0M17.895 382.703h643.718c3.426 0 5.164 0 7.008.586a7.254 7.254 0 014.348 4.348c.586 1.843.586 3.582.586 7.058v290.098c0 3.426 0 5.164-.586 7.008a7.254 7.254 0 01-4.348 4.347c-1.844.586-3.582.586-7.058.586H17.895c-3.422 0-5.16 0-7.008-.586a7.264 7.264 0 01-4.348-4.347c-.586-1.844-.586-3.582-.586-7.059V394.645c0-3.426 0-5.165.586-7.008a7.264 7.264 0 014.348-4.348c1.847-.586 3.586-.586 7.062-.586zm0 0"/>
  <use x="11.86" y="26.611" xlink:href="#ac"/>
  <use x="30.186" y="26.611" xlink:href="#ae"/>
  <use x="12.86" y="405.611" xlink:href="#T"/>
  <use x="29.952" y="405.611" xlink:href="#ae"/>
  <use x="122.86" y="298.611" xlink:href="#af"/>
  <use x="131.756" y="298.611" xlink:href="#af"/>
  <use x="140.652" y="298.611" xlink:href="#ag"/>
  <use x="145.1" y="298.611" xlink:href="#af"/>
  <use x="106.86" y="257.611" xlink:href="#af"/>
  <use x="115.756" y="257.611" xlink:href="#ah"/>
  <use x="124.652" y="257.611" xlink:href="#ag"/>
  <use x="129.1" y="257.611" xlink:href="#ai"/>
  <use x="105.86" y="141.611" xlink:href="#aj"/>
  <use x="114.756" y="141.611" xlink:href="#ak"/>
  <use x="123.652" y="141.611" xlink:href="#ag"/>
  <use x="128.1" y="141.611" xlink:href="#al"/>
  <use x="552.86" y="106.611" xlink:href="#am"/>
  <use x="561.756" y="106.611" xlink:href="#al"/>
  <use x="570.652" y="106.611" xlink:href="#ag"/>
  <use x="575.1" y="106.611" xlink:href="#ah"/>
  <use x="550.86" y="60.611" xlink:href="#al"/>
  <use x="559.756" y="60.611" xlink:href="#af"/>
  <use x="568.652" y="60.611" xlink:href="#ag"/>
  <use x="573.1" y="60.611" xlink:href="#an"/>
  <use x="552.86" y="175.611" xlink:href="#ai"/>
  <use x="561.756" y="175.611" xlink:href="#ao"/>
  <use x="570.652" y="175.611" xlink:href="#ag"/>
  <use x="575.1" y="175.611" xlink:href="#am"/>
  <g fill-opacity=".8">
    <path fill="#21908c" d="M169.316 668.855l3.84-.203 3.828-.324 3.817-.453 3.8-.574 3.782-.696 3.754-.816 3.73-.937 3.7-1.059 3.663-1.176 3.625-1.297 3.586-1.414 3.532-1.531 3.488-1.637 3.434-1.758 3.382-1.863 3.32-1.976 3.255-2.078 3.191-2.184 3.121-2.281 3.047-2.387 2.973-2.484 2.894-2.579 2.817-2.675 2.726-2.762 2.64-2.844 2.555-2.937 2.461-3.012 2.371-3.094 2.27-3.168 2.168-3.242 2.074-3.309 1.961-3.378 1.867-3.434 1.746-3.496.059-.129-.89-.082-1.583-.203-1.57-.258-1.559-.316-1.55-.364-1.54-.422-1.523-.476-1.512-.527-1.496-.579-1.476-.636-1.453-.684-1.438-.734-1.414-.785-1.39-.832-1.368-.887-1.336-.926-1.308-.98-1.282-1.02-1.25-1.066-1.218-1.11-1.188-1.152-1.152-1.195-1.117-1.235-1.082-1.273-1.043-1.309-1-1.347-.97-1.38-.92-1.421-.888-1.442-.84-1.48-.796-1.508-.754-1.535-.711-1.559-.668-1.586-.621-1.609-.567-1.629-.527-1.652-.477-1.668-.425-1.684-.383-1.703-.332-1.707-.281-1.727-.235-1.734-.183-1.742-.133-1.75-.082-1.75-.035-1.754.02-1.762.065-1.754.118-1.75.168-1.746.218-1.746.27-1.738.316-1.723.368-1.715.3-1.253-.406-.06-2.004-.323-1.992-.367-1.977-.43-1.968-.477-1.946-.52-1.93-.573-1.906-.622-1.886-.664-1.86-.718-1.832-.758-1.804-.805-1.774-.851-1.742-.899-1.711-.937-1.672-.98-1.64-1.02-1.594-1.059-1.559-1.102-1.515-1.136-1.473-1.176-1.422-1.211-1.387-1.238-1.332-1.282-1.285-1.3-1.234-1.344-1.18-1.367-1.133-1.399-1.074-1.418-1.02-1.445-.968-1.473-.91-1.488-.844-1.52-.793-1.527-.738-1.554-.672-1.563-.606-1.574-.55-1.594-.493-1.605-.422-1.614-.367-1.625-.3-1.625-.231-1.632-.176-1.637-.11-1.637-.046-1.64.023-1.633.082-1.633.149-1.63.21-1.612.278-1.618.336-1.597.398-1.594.465-1.582.528-1.559.59-1.55.648-1.532.707-1.504.77-1.496.828-1.464.886-1.442.946-1.418.996-1.398 1.054-1.36 1.11-1.34 1.164-1.3 1.21-1.278 1.27-1.238 1.309-1.203 1.367-1.164 1.406-1.137 1.457-1.094 1.5-1.054 1.54-1.02 1.582-.972 1.62-.934 1.665-.887 1.691-.851 1.73-.797 1.762-.754 1.793-.711 1.82-.66 1.856-.617.605-.184-3.44-1.52-3.579-1.433-3.625-1.328-3.66-1.211-3.703-1.09-3.73-.965-3.755-.847-3.78-.727-3.802-.606-3.816-.48-3.828-.36-3.84-.23-3.84-.11-3.848.016-3.84.141-3.831.266-3.825.386-3.812.512-3.785.633-3.774.758-3.738.879-3.719.996-3.68 1.117-3.648 1.242-3.602 1.356-3.558 1.464-3.516 1.586-3.465 1.7-3.402 1.812-3.348 1.914-3.293 2.027-3.218 2.133-3.157 2.235-3.09 2.336-3.011 2.437-2.93 2.531-2.855 2.625-2.774 2.715-2.687 2.809-2.594 2.89-2.512 2.973-2.414 3.059-2.316 3.129-2.223 3.207-2.12 3.273-2.017 3.34-1.917 3.406-1.805 3.473-1.7 3.52-1.593 3.577-1.477 3.633-1.367 3.672-1.25 3.719-1.137 3.754-1.023 3.793-.898 3.824-.79 3.852-.664 3.875-.543 3.898-.425 3.91-.305 3.922-.18 3.93-.066 3.941.058 3.93.188 3.933.3 3.93.423 3.914.543 3.899.66 3.878.785 3.86.902 3.828 1.012 3.8 1.137 3.77 1.25 3.723 1.367 3.684 1.476 3.644 1.59 3.59 1.696 3.539 1.808 3.484 1.91 3.422 2.016 3.36 2.121 3.289 2.219 3.226 2.316 3.153 2.414 3.07 2.504 2.992 2.598 2.914 2.683 2.828 2.774 2.739 2.851 2.652 2.938 2.555 3.004 2.46 3.086 2.36 3.152 2.262 3.227 2.156 3.285 2.055 3.347 1.949 3.407 1.836 3.46 1.726 3.512 1.614 3.563 1.496 3.601 1.382 3.645 1.27 3.684 1.145 3.71 1.03 3.743.91 3.77.79 3.788.664 3.813.54 3.82.425 3.836.289 3.84.172 3.848.047zm0 0"/>
    <path fill="#440154" d="M279.25 599.848l1.594-.075 1.586-.128 1.582-.184 1.582-.238 1.57-.297 1.563-.348 1.55-.406 1.547-.45 1.524-.511 1.52-.563 1.491-.617 1.485-.668 1.457-.71 1.445-.77 1.41-.817 1.399-.87 1.37-.91 1.345-.962 1.316-1.008 1.285-1.046 1.258-1.094 1.223-1.145 1.191-1.18 1.16-1.214 1.121-1.266 1.09-1.297 1.055-1.332 1.008-1.37.972-1.403.938-1.438.886-1.465.852-1.5.812-1.523.758-1.55.72-1.579.675-1.601.625-1.625.582-1.645.539-1.66.484-1.68.434-1.691.394-1.711.344-1.719.29-1.73.241-1.739.192-1.75.144-1.75.094-1.754.04-1.754-.005-1.757-.058-1.754-.11-1.75-.156-1.75-.21-1.735-.255-1.726-.308-1.723-.356-1.703-.406-1.695-.453-1.676-.496-1.66-.551-1.64-.598-1.614-.644-1.602-.684-1.574-.734-1.547-.778-1.523-.82-1.492-.86-1.461-.906-1.43-.945-1.402-.984-1.364-1.028-1.332-1.058-1.289-1.102-1.254-1.133-1.215-1.171-1.171-1.2-1.133-1.234-1.09-1.266-1.043-1.297-1-1.324-.953-1.355-.906-1.371-.86-1.403-.808-.66-.348-.097.305-.555 1.558-.621 1.535-.68 1.524-.738 1.5-.793 1.476-.86 1.454-.914 1.433-.972 1.406-1.028 1.38-1.082 1.347-1.136 1.32-1.188 1.293-1.238 1.25-1.293 1.223-1.336 1.187-1.39 1.153-1.43 1.113-.309.227.324 1.5.727 3.867.601 3.894.485 3.91.36 3.918.245 3.93.121 3.938v3.933l-.12 3.938-.247 3.925-.363 3.918-.488 3.903-.606 3.887-.726 3.863-.84 3.84-.961 3.804-1.082 3.778-1.196 3.738-1.308 3.695-1.426 3.653-1.531 3.605-1.59 3.422.691.07 1.586.09 1.594.035zm0 0"/>
    <path fill="#fde725" d="M301.473 492.86l.43-1.587.37-1.597.309-1.606.242-1.617.18-1.625.117-1.629.05-1.633-.01-1.64-.075-1.633-.14-1.637-.208-1.636-.265-1.633-.332-1.621-.395-1.621-.457-1.606-.52-1.598-.581-1.586-.641-1.578-.707-1.558-.758-1.54-.824-1.515-.88-1.508-.94-1.484-.989-1.453-1.05-1.434-1.106-1.41-1.152-1.383-1.211-1.355-1.254-1.32-1.313-1.294-1.36-1.261-1.401-1.223-1.45-1.191-1.492-1.16-1.543-1.118-1.574-1.078-1.617-1.043-1.656-1-1.692-.957-1.723-.914-1.761-.875-1.79-.828-1.82-.781-1.847-.742-1.871-.692-1.895-.64-1.918-.598-1.937-.55-1.961-.497-1.97-.453-1.983-.399-2-.347-2.008-.301-2.024-.25-2.02-.191-2.027-.153-2.027-.09-2.035-.043-2.027.012-2.02.059-2.023.117-2.008.16-2 .223-1.985.265-1.976.317-1.957.367-1.942.422-1.921.469-1.903.515-1.261.383.097.04 3.488 1.675 3.43 1.777 3.383 1.895 3.312 1.996 3.254 2.11 3.192 2.206 3.125 2.313 3.043 2.414 2.972 2.508 2.891 2.601 2.816 2.692 2.727 2.789 2.64 2.867 2.551 2.953 2.461 3.035 2.364 3.117 2.27 3.184 2.171 3.254 2.066 3.332 1.965 3.387 1.86 3.453 1.46 2.93.528-.067 1.586-.156 1.586-.106 1.594-.047 1.593.012 1.586.063 1.586.12 1.578.176 1.575.23 1.57.29 1.55.336 1.547.394 1.536.454 1.515.496 1.504.558 1.488.606 1.465.66 1.446.707.765.414zm0 0"/>
    <path fill="#475070" d="M275.383 596.246l1.531-3.605 1.426-3.653 1.308-3.695 1.196-3.738 1.082-3.778.96-3.804.84-3.84.727-3.863.606-3.887.488-3.903.363-3.917.246-3.926.121-3.938v-3.933l-.12-3.938-.247-3.93-.36-3.918-.484-3.91-.601-3.894-.727-3.867-.324-1.5-1.168.851-1.52 1.035-1.562.996-1.598.95-1.648.918-1.672.867-1.715.824-1.75.773-1.777.739-1.809.683-1.836.637-1.859.59-1.887.543-1.91.492-1.93.45-1.953.39-1.96.344-1.985.289-1.996.242-2.004.191-2.016.14-2.023.087-2.02.035-2.035-.02-2.027-.062-2.027-.121-2.028-.168-2.02-.227-1.609-.214-.3 1.253-.368 1.715-.316 1.723-.27 1.738-.218 1.746-.168 1.746-.118 1.75-.066 1.754-.02 1.762.036 1.754.082 1.75.133 1.75.183 1.742.235 1.734.28 1.727.333 1.707.383 1.703.425 1.684.477 1.668.527 1.652.567 1.629.62 1.61.669 1.585.71 1.559.755 1.535.796 1.508.84 1.48.887 1.442.922 1.422.969 1.379 1 1.347 1.043 1.309 1.082 1.273 1.117 1.235 1.152 1.195 1.188 1.152 1.218 1.11 1.25 1.066 1.282 1.02 1.308.98 1.336.926 1.367.887 1.391.832 1.414.785 1.438.734 1.453.684 1.476.636 1.496.579 1.512.527 1.524.476 1.539.422 1.55.364 1.559.316 1.57.258 1.582.203.891.082zm0 0"/>
    <path fill="#a5bb68" d="M230.18 529.613l.465-1.687.507-1.668.563-1.656.601-1.633.649-1.61.703-1.59.738-1.566.785-1.535.829-1.512.867-1.484.914-1.453.957-1.418.988-1.387 1.031-1.355 1.075-1.313 1.105-1.281 1.14-1.238 1.176-1.2 1.211-1.16 1.239-1.117 1.27-1.07 1.304-1.032 1.332-.984 1.355-.941 1.383-.883 1.403-.848 1.43-.789 1.452-.746 1.465-.687 1.488-.645 1.508-.586 1.524-.539 1.535-.48 1.547-.426 1.558-.38 1.57-.323 1.575-.266 1.055-.14-1.461-2.93-1.86-3.453-1.965-3.387-2.066-3.332-2.172-3.254-2.27-3.184-2.363-3.117-2.46-3.035-2.551-2.953-2.641-2.867-2.727-2.79-2.816-2.69-2.89-2.602-2.973-2.508-3.043-2.414-3.125-2.313-3.192-2.207-3.254-2.11-3.312-1.995-3.383-1.895-3.43-1.777-3.488-1.676-.097-.039-.606.184-1.855.617-1.82.66-1.794.71-1.761.755-1.73.797-1.692.851-1.664.887-1.621.934-1.582.972-1.54 1.02-1.5 1.054-1.457 1.094-1.406 1.137-1.367 1.164-1.309 1.203-1.27 1.238-1.21 1.278-1.164 1.3-1.11 1.34-1.054 1.36-.996 1.398-.946 1.418-.886 1.442-.828 1.464-.77 1.496-.707 1.504-.648 1.532-.59 1.55-.528 1.559-.464 1.582-.399 1.594-.336 1.597-.277 1.618-.211 1.613-.149 1.629-.082 1.633-.023 1.632.047 1.641.11 1.637.175 1.637.23 1.632.301 1.625.367 1.625.422 1.614.492 1.605.551 1.594.606 1.574.672 1.563.738 1.554.793 1.528.844 1.52.91 1.487.969 1.473 1.019 1.445 1.074 1.418 1.133 1.399 1.18 1.367 1.234 1.344 1.285 1.3 1.332 1.282 1.387 1.238 1.422 1.21 1.473 1.177 1.515 1.136 1.559 1.102 1.594 1.059 1.64 1.02 1.672.98 1.711.937 1.742.899 1.774.851 1.804.805 1.832.758 1.86.718 1.886.664 1.907.622 1.93.574 1.945.52 1.968.476 1.977.43 1.992.367 2.004.324.406.059zm0 0"/>
    <path fill="#a47451" d="M283.723 517.582l1.43-1.113 1.39-1.153 1.336-1.187 1.293-1.223 1.238-1.25 1.188-1.293 1.136-1.32 1.082-1.348 1.028-1.379.972-1.406.914-1.433.86-1.454.793-1.476.738-1.5.68-1.524.62-1.535.556-1.558.097-.305-.765-.414-1.446-.707-1.465-.66-1.488-.606-1.504-.558-1.515-.496-1.536-.454-1.546-.394-1.551-.336-1.57-.29-1.575-.23-1.578-.175-1.586-.121-1.586-.063-1.593-.012-1.594.047-1.586.106-1.586.156-.527.066.289.582 1.644 3.567 1.535 3.613 1.418 3.668 1.309 3.707 1.195 3.746 1.07 3.785.961 3.817.516 2.34zm0 0"/>
    <path fill="#897e65" d="M243.836 530.84l2.023-.086 2.016-.14 2.004-.192 1.996-.242 1.984-.29 1.961-.343 1.953-.39 1.93-.45 1.91-.492 1.887-.543 1.86-.59 1.835-.637 1.809-.683 1.777-.739 1.75-.773 1.715-.824 1.672-.867 1.648-.918 1.598-.95 1.563-.996 1.52-1.035 1.167-.851-.516-2.34-.96-3.817-1.07-3.785-1.196-3.746-1.309-3.707-1.418-3.668-1.535-3.613-1.644-3.567-.29-.582-1.054.141-1.574.266-1.57.324-1.56.379-1.546.426-1.535.48-1.524.54-1.508.585-1.488.645-1.465.687-1.453.746-1.43.79-1.402.847-1.383.883-1.355.941-1.332.984-1.305 1.032-1.27 1.07-1.238 1.117-1.21 1.16-1.176 1.2-1.141 1.238-1.105 1.281-1.075 1.313-1.03 1.355-.99 1.387-.956 1.418-.914 1.453-.867 1.484-.829 1.512-.785 1.535-.738 1.567-.703 1.59-.649 1.609-.601 1.633-.563 1.656-.507 1.668-.465 1.687-.11.45 1.61.214 2.02.227 2.027.168 2.027.121 2.027.062 2.035.02zm0 0"/>
  </g>
  <use x="124.86" y="574.611" xlink:href="#am"/>
  <use x="133.756" y="574.611" xlink:href="#aj"/>
  <use x="142.652" y="574.611" xlink:href="#ai"/>
  <use x="204.86" y="473.611" xlink:href="#af"/>
  <use x="213.756" y="473.611" xlink:href="#ak"/>
  <use x="222.652" y="473.611" xlink:href="#ah"/>
  <use x="266.86" y="466.611" xlink:href="#aj"/>
  <use x="275.756" y="466.611" xlink:href="#ah"/>
  <use x="295.86" y="545.611" xlink:href="#am"/>
  <use x="304.756" y="545.611" xlink:href="#ah"/>
  <use x="254.86" y="558.611" xlink:href="#an"/>
  <use x="263.756" y="558.611" xlink:href="#ap"/>
  <use x="249.86" y="518.611" xlink:href="#ak"/>
  <use x="258.756" y="518.611" xlink:href="#ap"/>
  <use x="281.86" y="504.611" xlink:href="#ap"/>
  <g fill-opacity=".8">
    <path fill="#21908c" d="M499.008 663.465l3.777-.18 3.766-.293 3.746-.426 3.738-.543 3.715-.66 3.691-.785 3.668-.898 3.63-1.024 3.597-1.136 3.559-1.254 3.52-1.371 3.468-1.485 3.426-1.598 3.37-1.703 3.313-1.816 3.258-1.918 3.195-2.031 3.125-2.13 3.063-2.23 2.988-2.332 2.914-2.425 2.836-2.524 2.754-2.61 2.672-2.698.629-.676-2.5 1.46-3.438 1.876-3.492 1.761-3.547 1.657-3.597 1.543-3.649 1.433-3.683 1.32-3.727 1.208-3.766 1.085-3.8.973-3.82.856-3.852.738-3.871.621-3.887.5-3.902.375-3.91.258-3.915.133-3.918.015-3.918-.105-3.91-.23-3.894-.344-3.887-.473-3.867-.586-3.844-.711-3.816-.828-3.793-.945-3.754-1.059-3.719-1.18-3.676-1.293-3.636-1.402-3.59-1.52-3.535-1.632-3.481-1.735-3.418-1.843-3.363-1.95-3.29-2.054-3.226-2.153-3.152-2.254-3.082-2.351-3-2.45-2.918-2.535-2.836-2.628-2.75-2.715-2.656-2.797-2.567-2.883-2.476-2.957-2.375-3.035-2.278-3.106-2.172-3.175-2.07-3.247-1.965-3.304-1.855-3.364-1.746-3.425-1.64-3.473-1.52-3.527-1.407-3.575-1.293-3.613-1.175-3.652-1.051-3.688-.934-3.722-.816-3.746-.696-3.774-.57-3.793-.445-3.808-.332-3.825-.2-3.832-.081-3.832.046-3.836.168-3.84.297-3.828.414-3.82.536-3.805.66-3.789.785-3.77.898-3.737 1.028-3.715 1.14-3.676 1.258-3.649 1.375-3.601 1.488-3.559 1.606-3.515 1.715-3.461 1.828-3.41 1.937-3.348 2.043-3.293 2.14-3.227 2.25-3.156 2.349-3.09 2.445-3.015 2.547-2.938 2.629-2.863 2.726-2.774 2.102-2.015-1.164.715-3.16 2.078-3.094 2.18-3.02 2.285-2.957 2.375-2.875 2.476-2.793 2.567-2.719 2.652-2.628 2.746-2.54 2.832-2.457 2.91-2.359 2.992-2.266 3.067-2.171 3.137-2.07 3.214-1.97 3.27-1.87 3.344-1.762 3.398-1.66 3.461-1.547 3.508-1.442 3.559-1.328 3.605-1.21 3.648-1.106 3.688-.989 3.726-.867 3.754-.754 3.782-.64 3.812-.52 3.828-.402 3.844-.285 3.852-.164 3.867-.043 3.87.078 3.876.195 3.87.313 3.86.433 3.856.547 3.836.672 3.824.781 3.793.903 3.777 1.02 3.742 1.132 3.707 1.242 3.672 1.36 3.633 1.468 3.59 1.578 3.543 1.684 3.484 1.789 3.438 1.898 3.379 1.997 3.312 2.097 3.25 2.196 3.184 2.292 3.11 2.383 3.038 2.477 2.953 2.57 2.883 2.653 2.797 2.734 2.707 2.816 2.621 2.899 2.531 2.968 2.434 3.043 2.34 3.114 2.246 3.176 2.137 3.242 2.035 3.3 1.937 3.36 1.825 3.41 1.714 3.46 1.606 3.505 1.496 3.555 1.383 3.585 1.262 3.625 1.152 3.657 1.031 3.687.918 3.711.793 3.727.676 3.75.555 3.765.433 3.77.313 3.777.187 3.781.07zm0 0"/>
    <path fill="#440154" d="M605.914 607.309l2.07-.86 2.04-.93 2.007-.996 1.98-1.058 1.942-1.117 1.902-1.184 1.868-1.242 1.832-1.297 1.785-1.36 1.738-1.41 1.695-1.468 1.653-1.524 1.597-1.574 1.551-1.621 1.5-1.672 1.442-1.719 1.394-1.77 1.332-1.804 1.278-1.851 1.218-1.887 1.153-1.93 1.097-1.965 1.035-1.996.973-2.031.906-2.059.84-2.086.77-2.117.71-2.136.641-2.16.575-2.176.503-2.2.43-2.21.371-2.227.29-2.23.23-2.247.152-2.246.082-2.258.012-2.254-.055-2.261-.129-2.246-.203-2.25-.27-2.239-.34-2.234-.41-2.219-.48-2.207-.547-2.191-.617-2.172-.68-2.148-.757-2.13-.817-2.105-.879-2.074-.949-2.05-1.012-2.02-1.074-1.98-1.137-1.954-1.191-1.91-.059-.086.399 2.39.508 3.805.394 3.813.262 3.828.14 3.832.016 3.84-.105 3.836-.23 3.836-.36 3.824-.473 3.812-.601 3.797-.72 3.778-.839 3.753-.961 3.727-1.086 3.7-1.2 3.663-1.32 3.621-1.433 3.586-1.547 3.535-1.656 3.485-1.774 3.437-1.882 3.383-1.989 3.32-2.093 3.262-2.2 3.188-2.3 3.129-2.395 3.046-2.496 2.977-2.59 2.906-2.68 2.813-.84.836zm0 0"/>
    <path fill="#fde725" d="M638.668 500.566l-.754-3.757-.875-3.73-.996-3.712-1.113-3.672-1.235-3.629-1.347-3.597-1.47-3.547-1.573-3.504-1.692-3.445-1.8-3.399-1.91-3.332-2.02-3.281-2.121-3.211-2.227-3.137-2.324-3.074-2.426-2.996-2.523-2.922-2.614-2.836-2.699-2.758-2.797-2.672-2.879-2.582-2.957-2.492-3.039-2.398-3.12-2.305-3.192-2.207-3.254-2.101-3.332-2.004-3.39-1.895-3.45-1.793-3.508-1.683-3.558-1.57-3.618-1.462-3.652-1.347-3.7-1.239-3.741-1.117-3.77-1.008-3.804-.886-3.833-.766-3.855-.648-3.879-.532-3.887-.41-3.906-.285-3.918-.168-3.914-.043-3.918.074-3.91.196-3.906.316-3.895.438-3.883.558-3.859.68-3.84.793-3.808.918-3.782 1.027-3.746 1.149-3.707 1.265-3.672 1.375-3.617 1.488-3.578 1.602-3.52 1.71-3.46 1.821-3.403 1.918-3.347 2.031-3.274 2.125-3.203 2.235-3.133 2.32-3.062 2.422-2.977 2.512-2.898 2.61-.711.675 2.066-1.258 3.285-1.871 3.344-1.762 3.398-1.648 3.446-1.54 3.496-1.425 3.535-1.316 3.582-1.2 3.613-1.078 3.657-.96 3.675-.84 3.704-.727 3.726-.602 3.742-.48 3.758-.363 3.774-.235 3.777-.117 3.773.004 3.785.129 3.774.254 3.766.367 3.757.492 3.743.617 3.718.739 3.7.855 3.671.973 3.641 1.09 3.61 1.21 3.57 1.32 3.523 1.438 3.484 1.551 3.438 1.66 3.383 1.774 3.332 1.879 3.273 1.988 3.211 2.086 3.145 2.195 3.074 2.285 3.012 2.39 2.933 2.485 2.856 2.574 2.777 2.668 2.691 2.754 2.614 2.836 2.523 2.922 2.426 2.992 2.34 3.078 1.812 2.536.79.125 2.203.433 2.187.496 2.172.567 2.156.636 2.129.707 2.117.77 2.082.836 2.059.906 2.031.969 1.996 1.035 1.965 1.09 1.93 1.156 1.89 1.223 1.852 1.273 1.812 1.336 1.77 1.39 1.727 1.45 1.68 1.5 1.632 1.555 1.586 1.605 1.527 1.649 1.48 1.703 1.427 1.746 1.37 1.793 1.31 1.832 1.202 1.789zm-57.371 125.637l3.308-2.074 3.243-2.176 3.168-2.285 3.093-2.371 3.024-2.469 2.937-2.555 2.852-2.652 1.93-1.902-1.028.39-2.12.727-2.138.668-2.16.59-2.183.527-2.192.461-.18.027-1.03 1.543-2.216 3.102-2.316 3.031-2.406 2.95-2.5 2.867-1.957 2.117zm0 0"/>
    <path fill="#a5bb68" d="M518.07 644.516l3.914-.133 3.91-.258 3.903-.375 3.887-.5 3.87-.621 3.852-.738 3.82-.856 3.801-.972 3.766-1.086 3.727-1.207 3.683-1.32 3.649-1.434 3.597-1.543 3.547-1.657 3.492-1.761 3.438-1.875 2.5-1.461 1.957-2.117 2.5-2.868 2.406-2.949 2.316-3.031 2.215-3.102 1.032-1.543-2.024.356-2.223.316-2.226.246-2.234.172-2.243.102-2.238.031-2.242-.039-2.238-.11-2.239-.18-2.226-.253-2.223-.324-2.21-.395-2.192-.46-2.184-.536-2.164-.601-2.144-.668-2.118-.743-2.101-.804-2.07-.867-2.047-.938-2.008-1.004-1.985-1.062-1.949-1.125-1.906-1.184-1.875-1.25-1.836-1.309-1.789-1.359-1.746-1.422-1.707-1.476-1.656-1.524-1.606-1.582-1.555-1.629-1.503-1.676-1.458-1.726-1.398-1.766-1.344-1.812-1.28-1.86-1.224-1.89-1.171-1.93-1.102-1.969-1.047-2.004-.976-2.03-.915-2.063-.851-2.09-.79-2.121-.714-2.137-.648-2.164-.582-2.176-.516-2.199-.445-2.215-.375-2.226-.305-2.235-.234-2.242-.16-2.254-.098-2.258-.02-2.254.043-2.254.125-2.25.184-2.25.261-2.238.332-2.23.395-2.223.473-2.2.535-2.19.61-2.165.671-2.148.746-2.129.805-2.102.871-2.078.941-2.039 1-2.015 1.07-1.98 1.126-1.95 1.183-1.906 1.25-1.867 1.305-1.832 1.363-1.79 1.414-1.742 1.473-1.695 1.527-1.648 1.575-1.594 1.625-1.551 1.675-1.492 1.715-1.445 1.766-1.387 1.804-1.328 1.848-1.27 1.89-1.215 1.919-1.144 1.965-1.094 1.992-1.023 2.023-.961 2.055-.895 2.082-.836 2.101-.758 2.133-.699 2.149-.629 2.172-.558 2.187-.493 2.2-.421 2.214-.352 2.223-.277 2.23-.215 2.239-.133 2.238-.066h2.242l2.246.078 2.238.144 2.23.219 2.224.285 1.425.23-1.812-2.535-2.34-3.078-2.426-2.992-2.523-2.922-2.614-2.836-2.69-2.754-2.778-2.668-2.856-2.574-2.933-2.484-3.012-2.39-3.074-2.286-3.145-2.195-3.21-2.086-3.274-1.988-3.332-1.88-3.383-1.773-3.438-1.66-3.484-1.55-3.523-1.438-3.57-1.32-3.61-1.211-3.64-1.09-3.673-.973-3.699-.855-3.719-.739-3.742-.617-3.758-.492-3.765-.367-3.774-.254-3.785-.13-3.773-.003-3.778.117-3.773.235-3.758.363-3.742.48-3.727.602-3.703.726-3.675.84-3.657.961-3.613 1.078-3.582 1.2-3.535 1.316-3.496 1.426-3.446 1.539-3.398 1.648-3.344 1.762-3.285 1.871-2.066 1.258-2.102 2.015-2.726 2.774-2.63 2.863-2.546 2.938-2.446 3.015-2.347 3.09-2.25 3.156-2.14 3.227-2.044 3.293-1.937 3.348-1.828 3.41-1.715 3.46-1.606 3.516-1.488 3.559-1.375 3.601-1.258 3.649-1.14 3.676-1.028 3.715-.898 3.738-.785 3.77-.66 3.788-.536 3.805-.414 3.82-.297 3.829-.168 3.84-.046 3.835.082 3.832.199 3.832.332 3.825.445 3.808.57 3.793.696 3.774.816 3.746.934 3.722 1.05 3.688 1.176 3.652 1.293 3.613 1.407 3.575 1.52 3.527 1.64 3.473 1.746 3.425 1.855 3.364 1.965 3.304 2.07 3.247 2.172 3.175 2.278 3.106 2.375 3.035 2.476 2.957 2.567 2.883 2.656 2.797 2.75 2.715 2.836 2.628 2.918 2.536 3 2.449 3.082 2.351 3.152 2.254 3.227 2.153 3.289 2.054 3.363 1.95 3.418 1.843 3.48 1.735 3.536 1.632 3.59 1.52 3.636 1.402 3.676 1.293 3.719 1.18 3.754 1.059 3.793.945 3.816.828 3.844.711 3.867.586 3.887.473 3.894.343 3.91.23 3.918.106zm0 0"/>
    <path fill="#a47451" d="M593.031 611.082l2.192-.46 2.183-.528 2.16-.59 2.137-.668 2.121-.727 1.028-.39.84-.836 2.68-2.813 2.589-2.906 2.496-2.976 2.395-3.047 2.3-3.13 2.2-3.187 2.093-3.261 1.989-3.32 1.882-3.384 1.774-3.437 1.656-3.484 1.547-3.536 1.434-3.586 1.32-3.62 1.2-3.665 1.085-3.699.961-3.727.84-3.753.719-3.778.601-3.797.473-3.812.36-3.824.23-3.836.105-3.836-.016-3.84-.14-3.832-.262-3.828-.394-3.813-.508-3.804-.399-2.391-1.203-1.79-1.308-1.831-1.371-1.793-1.426-1.746-1.48-1.703-1.528-1.649-1.586-1.605-1.633-1.555-1.68-1.5-1.726-1.45-1.77-1.39-1.812-1.336-1.852-1.273-1.89-1.223-1.93-1.156-1.965-1.09-1.996-1.035-2.031-.969-2.059-.906-2.082-.836-2.117-.77-2.129-.707-2.156-.636-2.172-.567-2.188-.496-2.203-.433-.789-.125.43.609 2.148 3.215 2.051 3.285 1.946 3.348 1.847 3.406 1.735 3.46 1.632 3.516 1.524 3.563 1.406 3.617 1.305 3.645 1.187 3.695 1.078 3.727.957 3.757.848 3.79.727 3.808.609 3.828.492 3.848.367 3.855.258 3.867.137 3.872.016 3.87-.106 3.872-.226 3.863-.34 3.848-.457 3.84-.582 3.816-.696 3.797-.812 3.765-.934 3.743-1.039 3.707-1.16 3.668-1.273 3.632-1.383 3.579-1.492 3.539-1.61 3.484-1.703 3.43-1.82 3.367-1.918 3.308-2.02 3.243-1.097 1.636zm0 0"/>
    <path fill="#897e65" d="M581.902 612.3l2.243-.1 2.234-.173 2.226-.246 2.223-.316 2.024-.356 1.097-1.636 2.02-3.243 1.918-3.308 1.82-3.367 1.703-3.43 1.61-3.484 1.492-3.54 1.383-3.578 1.273-3.632 1.16-3.668 1.04-3.707.933-3.743.812-3.765.696-3.797.582-3.816.457-3.84.34-3.848.226-3.863.106-3.871-.016-3.871-.137-3.872-.258-3.867-.367-3.855-.492-3.848-.61-3.828-.726-3.809-.848-3.789-.957-3.757-1.078-3.727-1.187-3.695-1.305-3.645-1.406-3.617-1.524-3.563-1.632-3.515-1.735-3.461-1.847-3.406-1.946-3.348-2.05-3.285L591.25 471l-.43-.61-1.425-.23-2.223-.285-2.23-.219-2.239-.144-2.246-.078h-2.242l-2.238.066-2.239.133-2.23.215-2.223.277-2.215.352-2.199.421-2.187.493-2.172.558-2.149.63-2.133.698-2.101.758-2.082.836-2.055.895-2.023.96-1.992 1.024-1.965 1.094-1.918 1.144-1.89 1.215-1.849 1.27-1.804 1.328-1.766 1.387-1.715 1.445-1.675 1.492-1.625 1.55-1.575 1.595-1.527 1.648-1.473 1.695-1.414 1.742-1.363 1.79-1.305 1.832-1.25 1.867-1.183 1.906-1.125 1.95-1.07 1.98-1 2.015-.942 2.04-.871 2.078-.805 2.101-.746 2.129-.672 2.148-.61 2.164-.534 2.192-.473 2.2-.395 2.222-.332 2.23-.261 2.239-.184 2.25-.125 2.25-.043 2.253.02 2.254.097 2.258.16 2.254.235 2.242.305 2.235.375 2.226.445 2.215.516 2.2.582 2.175.648 2.164.715 2.137.789 2.12.851 2.09.915 2.063.976 2.031 1.047 2.004 1.102 1.97 1.171 1.929 1.223 1.89 1.281 1.86 1.344 1.812 1.398 1.766 1.458 1.727 1.503 1.675 1.555 1.63 1.606 1.581 1.656 1.524 1.707 1.476 1.746 1.422 1.789 1.36 1.836 1.308 1.875 1.25 1.906 1.184 1.95 1.125 1.984 1.062 2.008 1.004 2.046.938 2.07.867 2.102.804 2.118.743 2.144.668 2.164.601 2.184.535 2.191.461 2.211.395 2.223.324 2.226.254 2.239.18 2.238.109 2.242.039zm0 0"/>
  </g>
  <use x="417.86" y="632.611" xlink:href="#ak"/>
  <use x="426.756" y="632.611" xlink:href="#ao"/>
  <use x="435.652" y="632.611" xlink:href="#aj"/>
  <use x="443.86" y="517.611" xlink:href="#al"/>
  <use x="452.756" y="517.611" xlink:href="#al"/>
  <use x="461.652" y="517.611" xlink:href="#ap"/>
  <use x="551.86" y="549.611" xlink:href="#ah"/>
  <use x="560.756" y="549.611" xlink:href="#am"/>
  <use x="569.652" y="549.611" xlink:href="#an"/>
  <use x="583.86" y="457.611" xlink:href="#af"/>
  <use x="592.756" y="457.611" xlink:href="#ai"/>
  <use x="601.652" y="457.611" xlink:href="#an"/>
  <use x="614.86" y="514.611" xlink:href="#ap"/>
  <use x="623.756" y="514.611" xlink:href="#ap"/>
  <use x="647.86" y="595.611" xlink:href="#ah"/>
  <use x="656.756" y="595.611" xlink:href="#ah"/>
  <path fill="none" stroke="#000" d="M647.582 557.422h6.82v22.742"/>
</svg>
