<svg xmlns="http://www.w3.org/2000/svg" xmlns:xlink="http://www.w3.org/1999/xlink" width="32.2mm" height="9.84mm" version="1.2" viewBox="0 0 32.2 9.84"><desc>Generated by the Chemistry Development Kit (http://github.com/cdk)</desc><g fill="#FF0D0D" stroke="#000" stroke-linecap="round" stroke-linejoin="round" stroke-width=".21"><rect width="33" height="10" x="0" y="0" fill="#FFF" stroke="none"/><g id="mol1" class="mol"><g id="mol1bnd1" class="bond"><line x1="5.1" x2=".7" y1="9.14" y2="6.6"/><line x1="5.1" x2="1.11" y1="8.2" y2="5.89"/></g><line id="mol1bnd2" x1="5.1" x2="9.5" y1="9.14" y2="6.6" class="bond"/><line id="mol1bnd3" x1="9.5" x2="9.5" y1="6.6" y2="2.9" class="bond"/><line id="mol1bnd4" x1="9.5" x2="13.9" y1="6.6" y2="9.14" class="bond"/><line id="mol1bnd5" x1="13.9" x2="18.3" y1="9.14" y2="6.6" class="bond"/><line id="mol1bnd6" x1="18.3" x2="22.7" y1="6.6" y2="9.14" class="bond"/><line id="mol1bnd7" x1="22.7" x2="27.1" y1="9.14" y2="6.6" class="bond"/><line id="mol1bnd8" x1="27.1" x2="31.5" y1="6.6" y2="9.14" class="bond"/><g id="mol1atm4" class="atom"><path stroke="none" d="M9.5 .76q-.27 .0 -.43 .2q-.16 .2 -.16 .55q.0 .35 .16 .55q.16 .2 .43 .2q.27 .0 .43 -.2q.16 -.2 .16 -.55q.0 -.35 -.16 -.55q-.16 -.2 -.43 -.2zM9.5 .56q.39 .0 .62 .26q.23 .26 .23 .7q.0 .44 -.23 .7q-.23 .26 -.62 .26q-.39 .0 -.62 -.26q-.23 -.26 -.23 -.7q.0 -.43 .23 -.7q.23 -.26 .62 -.26z"/><path stroke="none" d="M10.57 .59h.25v.76h.91v-.76h.25v1.85h-.25v-.88h-.91v.88h-.25v-1.85z"/></g></g></g></svg>