<svg height="9.84mm" viewBox="0 0 32.2 9.84" width="32.2mm" xmlns="http://www.w3.org/2000/svg"><g fill="#ff0d0d" stroke="#000" stroke-linecap="round" stroke-linejoin="round" stroke-width=".21"><path d="m0 0h33v10h-33z" fill="#fff" stroke="none"/><path d="m5.1 9.14-4.4-2.54"/><path d="m5.1 8.2-3.99-2.31"/><path d="m5.1 9.14 4.4-2.54"/><path d="m9.5 6.6v-3.7"/><path d="m9.5 6.6 4.4 2.54"/><path d="m13.9 9.14 4.4-2.54"/><path d="m18.3 6.6 4.4 2.54"/><path d="m22.7 9.14 4.4-2.54"/><path d="m27.1 6.6 4.4 2.54"/><g stroke="none"><path d="m9.5.76q-.27 0-.43.2-.16.2-.16.55 0 .35.16.55.16.2.43.2.27 0 .43-.2.16-.2.16-.55 0-.35-.16-.55-.16-.2-.43-.2zm0-.2q.39 0 .62.26.23.26.23.7 0 .44-.23.7-.23.26-.62.26-.39 0-.62-.26-.23-.26-.23-.7 0-.43.23-.7.23-.26.62-.26z"/><path d="m10.57.59h.25v.76h.91v-.76h.25v1.85h-.25v-.88h-.91v.88h-.25z"/></g></g></svg>