<svg height="75.553" viewBox="0 0 45.4 19.99" width="45.4mm" xmlns="http://www.w3.org/2000/svg"><g fill="#ff0d0d" stroke="#000" stroke-linecap="round" stroke-linejoin="round" stroke-width=".21"><path d="m0 0h46v20h-46z" fill="#fff" stroke="none"/><path d="m.7 15.94 3.22 1.85"/><path d="m6.28 17.79 3.22-1.86"/><path d="m9.5 10.86v5.07"/><path d="m10.31 11.33v4.14"/><path d="m9.5 10.86 4.4-2.54"/><path d="m13.9 8.32v-3.7"/><path d="m18.3 10.86-4.4-2.54"/><path d="m17.48 11.33-3.58-2.07"/><path d="m18.3 10.86 4.4-2.54"/><path d="m22.29 8.55v-3.93"/><path d="m23.1 8.55v-3.93"/><path d="m22.7 8.32 4.4 2.54"/><path d="m31.5 8.32-4.4 2.54"/><path d="m31.5 9.26-3.59 2.07"/><path d="m31.5 8.32v-3.7"/><path d="m32.68 2.56 3.22-1.86"/><path d="m31.5 8.32 4.4 2.54"/><path d="m35.9 10.86 3.21-1.86"/><path d="m41.48 9 3.21 1.86"/><path d="m35.9 15.93v-5.07"/><path d="m35.09 15.47v-4.14"/><path d="m35.9 15.93-4.4 2.54"/><path d="m27.1 15.93 4.4 2.54"/><path d="m27.91 15.47 3.59 2.07"/><path d="m27.1 10.86v5.07"/><path d="m27.1 15.93-3.22 1.86"/><path d="m21.51 17.79-3.21-1.86"/><path d="m18.3 10.86v5.07"/><path d="m13.9 18.47 4.4-2.54"/><path d="m13.9 17.54 3.58-2.07"/><path d="m9.5 15.93 4.4 2.54"/><g stroke="none"><path d="m5.1 17.72q-.27 0-.43.2-.16.2-.16.55 0 .35.16.55.16.2.43.2.27 0 .43-.2.16-.2.16-.55 0-.35-.16-.55-.16-.2-.43-.2zm0-.2q.39 0 .62.26.23.26.23.7 0 .44-.23.7-.23.26-.62.26-.39 0-.62-.26-.23-.26-.23-.7 0-.43.23-.7.23-.26.62-.26z"/><path d="m13.9 2.49q-.27 0-.43.2-.16.2-.16.55 0 .35.16.55.16.2.43.2.27 0 .43-.2.16-.2.16-.55 0-.35-.16-.55-.16-.2-.43-.2zm0-.21q.39 0 .62.26.23.26.23.7 0 .44-.23.7-.23.26-.62.26-.39 0-.62-.26-.23-.26-.23-.7 0-.43.23-.7.23-.26.62-.26z"/><path d="m14.96 2.32h.25v.76h.91v-.76h.25v1.85h-.25v-.88h-.91v.88h-.25z"/><path d="m22.7 2.49q-.27 0-.43.2-.16.2-.16.55 0 .35.16.55.16.2.43.2.27 0 .43-.2.16-.2.16-.55 0-.35-.16-.55-.16-.2-.43-.2zm0-.21q.39 0 .62.26.23.26.23.7 0 .44-.23.7-.23.26-.62.26-.39 0-.62-.26-.23-.26-.23-.7 0-.43.23-.7.23-.26.62-.26z"/><path d="m31.5 2.49q-.27 0-.43.2-.16.2-.16.55 0 .35.16.55.16.2.43.2.27 0 .43-.2.16-.2.16-.55 0-.35-.16-.55-.16-.2-.43-.2zm0-.21q.39 0 .62.26.23.26.23.7 0 .44-.23.7-.23.26-.62.26-.39 0-.62-.26-.23-.26-.23-.7 0-.43.23-.7.23-.26.62-.26z"/><path d="m40.3 7.56q-.27 0-.43.2-.16.2-.16.55 0 .35.16.55.16.2.43.2.27 0 .43-.2.16-.2.16-.55 0-.35-.16-.55-.16-.2-.43-.2zm0-.2q.39 0 .62.26.23.26.23.7 0 .44-.23.7-.23.26-.62.26-.39 0-.62-.26-.23-.26-.23-.7 0-.43.23-.7.23-.26.62-.26z"/><path d="m22.7 17.72q-.27 0-.43.2-.16.2-.16.55 0 .35.16.55.16.2.43.2.27 0 .43-.2.16-.2.16-.55 0-.35-.16-.55-.16-.2-.43-.2zm0-.2q.39 0 .62.26.23.26.23.7 0 .44-.23.7-.23.26-.62.26-.39 0-.62-.26-.23-.26-.23-.7 0-.43.23-.7.23-.26.62-.26z"/></g></g></svg>