<svg xmlns="http://www.w3.org/2000/svg" xmlns:xlink="http://www.w3.org/1999/xlink" width="50.07mm" height="135.08" version="1.2" viewBox="0 0 50.07 35.74"><desc>Generated by the Chemistry Development Kit (http://github.com/cdk)</desc><g fill="#FF0D0D" stroke="#000" stroke-linecap="round" stroke-linejoin="round" stroke-width=".21"><rect width="51" height="36" x="0" y="0" fill="#FFF" stroke="none"/><g id="mol1" class="mol"><line id="mol1bnd1" x1="38.25" x2="38.25" y1=".66" y2="5.74" class="bond"/><line id="mol1bnd2" x1="38.25" x2="42.65" y1="5.74" y2="8.28" class="bond"/><line id="mol1bnd3" x1="42.65" x2="42.65" y1="8.28" y2="13.36" class="bond"/><line id="mol1bnd4" x1="42.65" x2="38.25" y1="13.36" y2="15.9" class="bond"/><line id="mol1bnd5" x1="38.25" x2="42.65" y1="15.9" y2="18.45" class="bond"/><g id="mol1bnd6" class="bond"><line x1="43.05" x2="43.05" y1="18.21" y2="22.15"/><line x1="42.24" x2="42.24" y1="18.21" y2="22.15"/></g><line id="mol1bnd7" x1="42.65" x2="45.86" y1="18.45" y2="16.59" class="bond"/><line id="mol1bnd8" x1="38.25" x2="38.25" y1="15.9" y2="20.98" class="bond"/><line id="mol1bnd9" x1="38.25" x2="33.84" y1="20.98" y2="23.52" class="bond"/><line id="mol1bnd10" x1="33.84" x2="29.44" y1="23.52" y2="20.98" class="bond"/><line id="mol1bnd11" x1="29.44" x2="29.44" y1="20.98" y2="26.06" class="bond"/><line id="mol1bnd12" x1="29.44" x2="29.44" y1="20.98" y2="15.9" class="bond"/><g id="mol1bnd13" class="bond"><line x1="29.44" x2="25.04" y1="15.9" y2="13.36"/><line x1="28.63" x2="25.04" y1="16.37" y2="14.3"/></g><line id="mol1bnd14" x1="25.04" x2="20.64" y1="13.36" y2="15.9" class="bond"/><line id="mol1bnd15" x1="20.64" x2="20.64" y1="15.9" y2="20.98" class="bond"/><line id="mol1bnd16" x1="20.64" x2="16.23" y1="20.98" y2="23.52" class="bond"/><line id="mol1bnd17" x1="16.23" x2="16.23" y1="23.52" y2="18.44" class="bond"/><line id="mol1bnd18" x1="16.23" x2="11.83" y1="23.52" y2="20.98" class="bond"/><line id="mol1bnd19" x1="11.83" x2="7.43" y1="20.98" y2="23.52" class="bond"/><line id="mol1bnd20" x1="7.43" x2="7.43" y1="23.52" y2="28.6" class="bond"/><line id="mol1bnd21" x1="7.43" x2="4.21" y1="28.6" y2="30.46" class="bond"/><line id="mol1bnd22" x1="7.43" x2="11.83" y1="28.6" y2="31.14" class="bond"/><line id="mol1bnd23" x1="11.83" x2="8.57" y1="31.14" y2="35.04" class="bond"/><line id="mol1bnd24" x1="11.83" x2="15.1" y1="31.14" y2="35.04" class="bond"/><line id="mol1bnd25" x1="11.83" x2="16.23" y1="31.14" y2="28.6" class="bond"/><line id="mol1bnd26" x1="16.23" x2="16.23" y1="23.52" y2="28.6" class="bond"/><line id="mol1bnd27" x1="16.23" x2="20.64" y1="28.6" y2="31.14" class="bond"/><line id="mol1bnd28" x1="20.64" x2="25.04" y1="31.14" y2="28.6" class="bond"/><line id="mol1bnd29" x1="25.04" x2="25.04" y1="28.6" y2="23.52" class="bond"/><line id="mol1bnd30" x1="20.64" x2="25.04" y1="20.98" y2="23.52" class="bond"/><line id="mol1bnd31" x1="29.44" x2="25.04" y1="20.98" y2="23.52" class="bond"/><line id="mol1bnd32" x1="25.04" x2="25.04" y1="23.52" y2="18.44" class="bond"/><line id="mol1bnd33" x1="29.44" x2="33.84" y1="15.9" y2="13.36" class="bond"/><line id="mol1bnd34" x1="38.25" x2="33.84" y1="15.9" y2="13.36" class="bond"/><line id="mol1bnd35" x1="33.84" x2="33.84" y1="13.36" y2="8.28" class="bond"/><line id="mol1bnd36" x1="38.25" x2="33.84" y1="5.74" y2="8.28" class="bond"/><line id="mol1bnd37" x1="33.84" x2="29.44" y1="8.28" y2="5.74" class="bond"/><path id="mol1atm7" stroke="none" d="M42.65 22.77q-.27 .0 -.43 .2q-.16 .2 -.16 .55q.0 .35 .16 .55q.16 .2 .43 .2q.27 .0 .43 -.2q.16 -.2 .16 -.55q.0 -.35 -.16 -.55q-.16 -.2 -.43 -.2zM42.65 22.57q.39 .0 .62 .26q.23 .26 .23 .7q.0 .44 -.23 .7q-.23 .26 -.62 .26q-.39 .0 -.62 -.26q-.23 -.26 -.23 -.7q.0 -.43 .23 -.7q.23 -.26 .62 -.26z" class="atom"/><g id="mol1atm8" class="atom"><path stroke="none" d="M47.05 15.15q-.27 .0 -.43 .2q-.16 .2 -.16 .55q.0 .35 .16 .55q.16 .2 .43 .2q.27 .0 .43 -.2q.16 -.2 .16 -.55q.0 -.35 -.16 -.55q-.16 -.2 -.43 -.2zM47.05 14.95q.39 .0 .62 .26q.23 .26 .23 .7q.0 .44 -.23 .7q-.23 .26 -.62 .26q-.39 .0 -.62 -.26q-.23 -.26 -.23 -.7q.0 -.43 .23 -.7q.23 -.26 .62 -.26z"/><path stroke="none" d="M48.11 14.98h.25v.76h.91v-.76h.25v1.85h-.25v-.88h-.91v.88h-.25v-1.85z"/></g><g id="mol1atm22" class="atom"><path stroke="none" d="M3.03 30.39q-.27 .0 -.43 .2q-.16 .2 -.16 .55q.0 .35 .16 .55q.16 .2 .43 .2q.27 .0 .43 -.2q.16 -.2 .16 -.55q.0 -.35 -.16 -.55q-.16 -.2 -.43 -.2zM3.03 30.19q.39 .0 .62 .26q.23 .26 .23 .7q.0 .44 -.23 .7q-.23 .26 -.62 .26q-.39 .0 -.62 -.26q-.23 -.26 -.23 -.7q.0 -.43 .23 -.7q.23 -.26 .62 -.26z"/><path stroke="none" d="M.56 30.22h.25v.76h.91v-.76h.25v1.85h-.25v-.88h-.91v.88h-.25v-1.85z"/></g></g></g></svg>