<svg height="135.08" viewBox="0 0 50.07 35.74" width="50.07mm" xmlns="http://www.w3.org/2000/svg"><g fill="#ff0d0d" stroke="#000" stroke-linecap="round" stroke-linejoin="round" stroke-width=".21"><path d="m0 0h51v36h-51z" fill="#fff" stroke="none"/><path d="m38.25.66v5.08"/><path d="m38.25 5.74 4.4 2.54"/><path d="m42.65 8.28v5.08"/><path d="m42.65 13.36-4.4 2.54"/><path d="m38.25 15.9 4.4 2.55"/><path d="m43.05 18.21v3.94"/><path d="m42.24 18.21v3.94"/><path d="m42.65 18.45 3.21-1.86"/><path d="m38.25 15.9v5.08"/><path d="m38.25 20.98-4.41 2.54"/><path d="m33.84 23.52-4.4-2.54"/><path d="m29.44 20.98v5.08"/><path d="m29.44 20.98v-5.08"/><path d="m29.44 15.9-4.4-2.54"/><path d="m28.63 16.37-3.59-2.07"/><path d="m25.04 13.36-4.4 2.54"/><path d="m20.64 15.9v5.08"/><path d="m20.64 20.98-4.41 2.54"/><path d="m16.23 23.52v-5.08"/><path d="m16.23 23.52-4.4-2.54"/><path d="m11.83 20.98-4.4 2.54"/><path d="m7.43 23.52v5.08"/><path d="m7.43 28.6-3.22 1.86"/><path d="m7.43 28.6 4.4 2.54"/><path d="m11.83 31.14-3.26 3.9"/><path d="m11.83 31.14 3.27 3.9"/><path d="m11.83 31.14 4.4-2.54"/><path d="m16.23 23.52v5.08"/><path d="m16.23 28.6 4.41 2.54"/><path d="m20.64 31.14 4.4-2.54"/><path d="m25.04 28.6v-5.08"/><path d="m20.64 20.98 4.4 2.54"/><path d="m29.44 20.98-4.4 2.54"/><path d="m25.04 23.52v-5.08"/><path d="m29.44 15.9 4.4-2.54"/><path d="m38.25 15.9-4.41-2.54"/><path d="m33.84 13.36v-5.08"/><path d="m38.25 5.74-4.41 2.54"/><path d="m33.84 8.28-4.4-2.54"/><g stroke="none"><path d="m42.65 22.77q-.27 0-.43.2-.16.2-.16.55 0 .35.16.55.16.2.43.2.27 0 .43-.2.16-.2.16-.55 0-.35-.16-.55-.16-.2-.43-.2zm0-.2q.39 0 .62.26.23.26.23.7 0 .44-.23.7-.23.26-.62.26-.39 0-.62-.26-.23-.26-.23-.7 0-.43.23-.7.23-.26.62-.26z"/><path d="m47.05 15.15q-.27 0-.43.2-.16.2-.16.55 0 .35.16.55.16.2.43.2.27 0 .43-.2.16-.2.16-.55 0-.35-.16-.55-.16-.2-.43-.2zm0-.2q.39 0 .62.26.23.26.23.7 0 .44-.23.7-.23.26-.62.26-.39 0-.62-.26-.23-.26-.23-.7 0-.43.23-.7.23-.26.62-.26z"/><path d="m48.11 14.98h.25v.76h.91v-.76h.25v1.85h-.25v-.88h-.91v.88h-.25z"/><path d="m3.03 30.39q-.27 0-.43.2-.16.2-.16.55 0 .35.16.55.16.2.43.2.27 0 .43-.2.16-.2.16-.55 0-.35-.16-.55-.16-.2-.43-.2zm0-.2q.39 0 .62.26.23.26.23.7 0 .44-.23.7-.23.26-.62.26-.39 0-.62-.26-.23-.26-.23-.7 0-.43.23-.7.23-.26.62-.26z"/><path d="m.56 30.22h.25v.76h.91v-.76h.25v1.85h-.25v-.88h-.91v.88h-.25z"/></g></g></svg>