<svg xmlns="http://www.w3.org/2000/svg" xmlns:xlink="http://www.w3.org/1999/xlink" width="30.84mm" height="61.455" version="1.2" viewBox="0 0 30.84 16.26"><desc>Generated by the Chemistry Development Kit (http://github.com/cdk)</desc><g fill="#FF0D0D" stroke="#000" stroke-linecap="round" stroke-linejoin="round" stroke-width=".21"><rect width="31" height="17" x="0" y="0" fill="#FFF" stroke="none"/><g id="mol1" class="mol"><line id="mol1bnd1" x1="11.83" x2="11.83" y1="12.88" y2="9.14" class="bond"/><line id="mol1bnd2" x1="11.83" x2="16.23" y1="9.14" y2="6.6" class="bond"/><line id="mol1bnd3" x1="16.23" x2="20.63" y1="6.6" y2="9.14" class="bond"/><line id="mol1bnd4" x1="20.63" x2="25.03" y1="9.14" y2="6.6" class="bond"/><g id="mol1bnd5" class="bond"><line x1="25.03" x2="28.45" y1="6.13" y2="8.1"/><line x1="24.62" x2="28.04" y1="6.83" y2="8.81"/></g><line id="mol1bnd6" x1="25.03" x2="25.03" y1="6.6" y2="2.9" class="bond"/><line id="mol1bnd7" x1="11.83" x2="7.43" y1="9.14" y2="6.6" class="bond"/><g id="mol1bnd8" class="bond"><line x1="7.02" x2="7.02" y1="6.83" y2="2.9"/><line x1="7.83" x2="7.83" y1="6.83" y2="2.9"/></g><line id="mol1bnd9" x1="7.43" x2="4.21" y1="6.6" y2="8.46" class="bond"/><g id="mol1atm1" class="atom"><path fill="#3050F8" stroke="none" d="M11.13 13.29h.33l.82 1.54v-1.54h.24v1.85h-.34l-.82 -1.54v1.54h-.24v-1.85z"/><path fill="#3050F8" stroke="none" d="M12.74 13.29h.25v.76h.91v-.76h.25v1.85h-.25v-.88h-.91v.88h-.25v-1.85z"/><path fill="#3050F8" stroke="none" d="M14.53 15.58h.52v.13h-.7v-.13q.09 -.09 .23 -.24q.15 -.15 .19 -.19q.07 -.08 .1 -.14q.03 -.06 .03 -.11q.0 -.09 -.06 -.14q-.06 -.05 -.16 -.05q-.07 .0 -.15 .02q-.08 .02 -.17 .07v-.15q.09 -.04 .17 -.05q.08 -.02 .14 -.02q.17 .0 .28 .09q.1 .09 .1 .23q.0 .07 -.03 .13q-.03 .06 -.09 .14q-.02 .02 -.12 .13q-.1 .1 -.28 .29z"/></g><path id="mol1atm6" stroke="none" d="M29.43 8.38q-.27 .0 -.43 .2q-.16 .2 -.16 .55q.0 .35 .16 .55q.16 .2 .43 .2q.27 .0 .43 -.2q.16 -.2 .16 -.55q.0 -.35 -.16 -.55q-.16 -.2 -.43 -.2zM29.43 8.18q.39 .0 .62 .26q.23 .26 .23 .7q.0 .44 -.23 .7q-.23 .26 -.62 .26q-.39 .0 -.62 -.26q-.23 -.26 -.23 -.7q.0 -.43 .23 -.7q.23 -.26 .62 -.26z" class="atom"/><g id="mol1atm7" class="atom"><path stroke="none" d="M25.03 .76q-.27 .0 -.43 .2q-.16 .2 -.16 .55q.0 .35 .16 .55q.16 .2 .43 .2q.27 .0 .43 -.2q.16 -.2 .16 -.55q.0 -.35 -.16 -.55q-.16 -.2 -.43 -.2zM25.03 .56q.39 .0 .62 .26q.23 .26 .23 .7q.0 .44 -.23 .7q-.23 .26 -.62 .26q-.39 .0 -.62 -.26q-.23 -.26 -.23 -.7q.0 -.43 .23 -.7q.23 -.26 .62 -.26z"/><path stroke="none" d="M26.09 .59h.25v.76h.91v-.76h.25v1.85h-.25v-.88h-.91v.88h-.25v-1.85z"/></g><path id="mol1atm9" stroke="none" d="M7.43 .76q-.27 .0 -.43 .2q-.16 .2 -.16 .55q.0 .35 .16 .55q.16 .2 .43 .2q.27 .0 .43 -.2q.16 -.2 .16 -.55q.0 -.35 -.16 -.55q-.16 -.2 -.43 -.2zM7.43 .56q.39 .0 .62 .26q.23 .26 .23 .7q.0 .44 -.23 .7q-.23 .26 -.62 .26q-.39 .0 -.62 -.26q-.23 -.26 -.23 -.7q.0 -.43 .23 -.7q.23 -.26 .62 -.26z" class="atom"/><g id="mol1atm10" class="atom"><path stroke="none" d="M3.03 8.38q-.27 .0 -.43 .2q-.16 .2 -.16 .55q.0 .35 .16 .55q.16 .2 .43 .2q.27 .0 .43 -.2q.16 -.2 .16 -.55q.0 -.35 -.16 -.55q-.16 -.2 -.43 -.2zM3.03 8.18q.39 .0 .62 .26q.23 .26 .23 .7q.0 .44 -.23 .7q-.23 .26 -.62 .26q-.39 .0 -.62 -.26q-.23 -.26 -.23 -.7q.0 -.43 .23 -.7q.23 -.26 .62 -.26z"/><path stroke="none" d="M.56 8.21h.25v.76h.91v-.76h.25v1.85h-.25v-.88h-.91v.88h-.25v-1.85z"/></g></g></g></svg>