<svg height="61.455" viewBox="0 0 30.84 16.26" width="30.84mm" xmlns="http://www.w3.org/2000/svg"><g fill="#ff0d0d" stroke="#000" stroke-linecap="round" stroke-linejoin="round" stroke-width=".21"><path d="m0 0h31v17h-31z" fill="#fff" stroke="none"/><path d="m11.83 12.88v-3.74"/><path d="m11.83 9.14 4.4-2.54"/><path d="m16.23 6.6 4.4 2.54"/><path d="m20.63 9.14 4.4-2.54"/><path d="m25.03 6.13 3.42 1.97"/><path d="m24.62 6.83 3.42 1.98"/><path d="m25.03 6.6v-3.7"/><path d="m11.83 9.14-4.4-2.54"/><path d="m7.02 6.83v-3.93"/><path d="m7.83 6.83v-3.93"/><path d="m7.43 6.6-3.22 1.86"/><g stroke="none"><g fill="#3050f8"><path d="m11.13 13.29h.33l.82 1.54v-1.54h.24v1.85h-.34l-.82-1.54v1.54h-.24v-1.85z"/><path d="m12.74 13.29h.25v.76h.91v-.76h.25v1.85h-.25v-.88h-.91v.88h-.25z"/><path d="m14.53 15.58h.52v.13h-.7v-.13q.09-.09.23-.24.15-.15.19-.19.07-.08.1-.14.03-.06.03-.11 0-.09-.06-.14-.06-.05-.16-.05-.07 0-.15.02-.08.02-.17.07v-.15q.09-.04.17-.05.08-.02.14-.02.17 0 .28.09.1.09.1.23 0 .07-.03.13-.03.06-.09.14-.02.02-.12.13-.1.1-.28.29z"/></g><path d="m29.43 8.38q-.27 0-.43.2-.16.2-.16.55 0 .35.16.55.16.2.43.2.27 0 .43-.2.16-.2.16-.55 0-.35-.16-.55-.16-.2-.43-.2zm0-.2q.39 0 .62.26.23.26.23.7 0 .44-.23.7-.23.26-.62.26-.39 0-.62-.26-.23-.26-.23-.7 0-.43.23-.7.23-.26.62-.26z"/><path d="m25.03.76q-.27 0-.43.2-.16.2-.16.55 0 .35.16.55.16.2.43.2.27 0 .43-.2.16-.2.16-.55 0-.35-.16-.55-.16-.2-.43-.2zm0-.2q.39 0 .62.26.23.26.23.7 0 .44-.23.7-.23.26-.62.26-.39 0-.62-.26-.23-.26-.23-.7 0-.43.23-.7.23-.26.62-.26z"/><path d="m26.09.59h.25v.76h.91v-.76h.25v1.85h-.25v-.88h-.91v.88h-.25z"/><path d="m7.43.76q-.27 0-.43.2-.16.2-.16.55 0 .35.16.55.16.2.43.2.27 0 .43-.2.16-.2.16-.55 0-.35-.16-.55-.16-.2-.43-.2zm0-.2q.39 0 .62.26.23.26.23.7 0 .44-.23.7-.23.26-.62.26-.39 0-.62-.26-.23-.26-.23-.7 0-.43.23-.7.23-.26.62-.26z"/><path d="m3.03 8.38q-.27 0-.43.2-.16.2-.16.55 0 .35.16.55.16.2.43.2.27 0 .43-.2.16-.2.16-.55 0-.35-.16-.55-.16-.2-.43-.2zm0-.2q.39 0 .62.26.23.26.23.7 0 .44-.23.7-.23.26-.62.26-.39 0-.62-.26-.23-.26-.23-.7 0-.43.23-.7.23-.26.62-.26z"/><path d="m.56 8.21h.25v.76h.91v-.76h.25v1.85h-.25v-.88h-.91v.88h-.25z"/></g></g></svg>