<svg xmlns="http://www.w3.org/2000/svg" xmlns:xlink="http://www.w3.org/1999/xlink" width="46.8mm" height="32.59mm" version="1.2" viewBox="0 0 46.8 32.59"><desc>Generated by the Chemistry Development Kit (http://github.com/cdk)</desc><g fill="#FF0D0D" stroke="#000" stroke-linecap="round" stroke-linejoin="round" stroke-width=".21"><rect width="47" height="33" x="0" y="0" fill="#FFF" stroke="none"/><g id="mol1" class="mol"><line id="mol1bnd1" x1="34.46" x2="31.73" y1=".71" y2="3.25" class="bond"/><line id="mol1bnd2" x1="31.05" x2="31.87" y1="5.53" y2="9.12" class="bond"/><g id="mol1bnd3" class="bond"><line x1="36.71" x2="31.87" y1="10.61" y2="9.12"/><line x1="36.03" x2="32.08" y1="11.25" y2="10.03"/></g><line id="mol1bnd4" x1="36.71" x2="37.87" y1="10.61" y2="15.55" class="bond"/><g id="mol1bnd5" class="bond"><line x1="34.14" x2="37.87" y1="19.01" y2="15.55"/><line x1="33.93" x2="36.97" y1="18.09" y2="15.28"/></g><line id="mol1bnd6" x1="34.14" x2="35.27" y1="19.01" y2="23.96" class="bond"/><line id="mol1bnd7" x1="35.27" x2="40.13" y1="23.96" y2="25.45" class="bond"/><line id="mol1bnd8" x1="40.13" x2="40.95" y1="25.45" y2="29.07" class="bond"/><line id="mol1bnd9" x1="42.36" x2="46.11" y1="30.75" y2="31.9" class="bond"/><line id="mol1bnd10" x1="34.14" x2="29.3" y1="19.01" y2="17.52" class="bond"/><g id="mol1bnd11" class="bond"><line x1="28.15" x2="29.3" y1="12.57" y2="17.52"/><line x1="29.04" x2="29.98" y1="12.85" y2="16.88"/></g><line id="mol1bnd12" x1="31.87" x2="28.15" y1="9.12" y2="12.57" class="bond"/><line id="mol1bnd13" x1="28.15" x2="24.81" y1="12.57" y2="10.96" class="bond"/><line id="mol1bnd14" x1="22.34" x2="19" y1="10.96" y2="12.57" class="bond"/><g id="mol1bnd15" class="bond"><line x1="17.85" x2="19" y1="17.52" y2="12.57"/><line x1="17.17" x2="18.1" y1="16.88" y2="12.85"/></g><line id="mol1bnd16" x1="17.85" x2="13.01" y1="17.52" y2="19.01" class="bond"/><g id="mol1bnd17" class="bond"><line x1="9.28" x2="13.01" y1="15.55" y2="19.01"/><line x1="10.18" x2="13.22" y1="15.28" y2="18.09"/></g><line id="mol1bnd18" x1="9.28" x2="5.68" y1="15.55" y2="16.65" class="bond"/><line id="mol1bnd19" x1="3.44" x2=".71" y1="16.12" y2="13.58" class="bond"/><line id="mol1bnd20" x1="9.28" x2="10.43" y1="15.55" y2="10.61" class="bond"/><line id="mol1bnd21" x1="10.43" x2="7.7" y1="10.61" y2="8.06" class="bond"/><line id="mol1bnd22" x1="5.46" x2="1.86" y1="7.53" y2="8.63" class="bond"/><g id="mol1bnd23" class="bond"><line x1="15.28" x2="10.43" y1="9.12" y2="10.61"/><line x1="15.07" x2="11.12" y1="10.03" y2="11.25"/></g><line id="mol1bnd24" x1="19" x2="15.28" y1="12.57" y2="9.12" class="bond"/><line id="mol1bnd25" x1="17.85" x2="21.03" y1="17.52" y2="21.48" class="bond"/><g id="mol1bnd26" class="bond"><line x1="21.03" x2="26.11" y1="21.48" y2="21.48"/><line x1="21.42" x2="25.72" y1="20.67" y2="20.67"/></g><line id="mol1bnd27" x1="29.3" x2="26.11" y1="17.52" y2="21.48" class="bond"/><path id="mol1atm2" stroke="none" d="M30.74 3.41q-.27 .0 -.43 .2q-.16 .2 -.16 .55q.0 .35 .16 .55q.16 .2 .43 .2q.27 .0 .43 -.2q.16 -.2 .16 -.55q.0 -.35 -.16 -.55q-.16 -.2 -.43 -.2zM30.74 3.21q.39 .0 .62 .26q.23 .26 .23 .7q.0 .44 -.23 .7q-.23 .26 -.62 .26q-.39 .0 -.62 -.26q-.23 -.26 -.23 -.7q.0 -.43 .23 -.7q.23 -.26 .62 -.26z" class="atom"/><g id="mol1atm9" class="atom"><path fill="#3050F8" stroke="none" d="M40.56 29.48h.33l.82 1.54v-1.54h.24v1.85h-.34l-.82 -1.54v1.54h-.24v-1.85z"/><path fill="#3050F8" stroke="none" d="M38.94 29.48h.25v.76h.91v-.76h.25v1.85h-.25v-.88h-.91v.88h-.25v-1.85z"/></g><path id="mol1atm13" stroke="none" d="M23.58 9.62q-.27 .0 -.43 .2q-.16 .2 -.16 .55q.0 .35 .16 .55q.16 .2 .43 .2q.27 .0 .43 -.2q.16 -.2 .16 -.55q.0 -.35 -.16 -.55q-.16 -.2 -.43 -.2zM23.58 9.41q.39 .0 .62 .26q.23 .26 .23 .7q.0 .44 -.23 .7q-.23 .26 -.62 .26q-.39 .0 -.62 -.26q-.23 -.26 -.23 -.7q.0 -.43 .23 -.7q.23 -.26 .62 -.26z" class="atom"/><path id="mol1atm18" stroke="none" d="M4.43 16.28q-.27 .0 -.43 .2q-.16 .2 -.16 .55q.0 .35 .16 .55q.16 .2 .43 .2q.27 .0 .43 -.2q.16 -.2 .16 -.55q.0 -.35 -.16 -.55q-.16 -.2 -.43 -.2zM4.43 16.08q.39 .0 .62 .26q.23 .26 .23 .7q.0 .44 -.23 .7q-.23 .26 -.62 .26q-.39 .0 -.62 -.26q-.23 -.26 -.23 -.7q.0 -.43 .23 -.7q.23 -.26 .62 -.26z" class="atom"/><path id="mol1atm21" stroke="none" d="M6.72 6.39q-.27 .0 -.43 .2q-.16 .2 -.16 .55q.0 .35 .16 .55q.16 .2 .43 .2q.27 .0 .43 -.2q.16 -.2 .16 -.55q.0 -.35 -.16 -.55q-.16 -.2 -.43 -.2zM6.72 6.18q.39 .0 .62 .26q.23 .26 .23 .7q.0 .44 -.23 .7q-.23 .26 -.62 .26q-.39 .0 -.62 -.26q-.23 -.26 -.23 -.7q.0 -.43 .23 -.7q.23 -.26 .62 -.26z" class="atom"/></g></g></svg>