<svg height="32.59mm" viewBox="0 0 46.8 32.59" width="46.8mm" xmlns="http://www.w3.org/2000/svg"><g fill="#ff0d0d" stroke="#000" stroke-linecap="round" stroke-linejoin="round" stroke-width=".21"><path d="m0 0h47v33h-47z" fill="#fff" stroke="none"/><path d="m34.46.71-2.73 2.54"/><path d="m31.05 5.53.82 3.59"/><path d="m36.71 10.61-4.84-1.49"/><path d="m36.03 11.25-3.95-1.22"/><path d="m36.71 10.61 1.16 4.94"/><path d="m34.14 19.01 3.73-3.46"/><path d="m33.93 18.09 3.04-2.81"/><path d="m34.14 19.01 1.13 4.95"/><path d="m35.27 23.96 4.86 1.49"/><path d="m40.13 25.45.82 3.62"/><path d="m42.36 30.75 3.75 1.15"/><path d="m34.14 19.01-4.84-1.49"/><path d="m28.15 12.57 1.15 4.95"/><path d="m29.04 12.85.94 4.03"/><path d="m31.87 9.12-3.72 3.45"/><path d="m28.15 12.57-3.34-1.61"/><path d="m22.34 10.96-3.34 1.61"/><path d="m17.85 17.52 1.15-4.95"/><path d="m17.17 16.88.93-4.03"/><path d="m17.85 17.52-4.84 1.49"/><path d="m9.28 15.55 3.73 3.46"/><path d="m10.18 15.28 3.04 2.81"/><path d="m9.28 15.55-3.6 1.1"/><path d="m3.44 16.12-2.73-2.54"/><path d="m9.28 15.55 1.15-4.94"/><path d="m10.43 10.61-2.73-2.55"/><path d="m5.46 7.53-3.6 1.1"/><path d="m15.28 9.12-4.85 1.49"/><path d="m15.07 10.03-3.95 1.22"/><path d="m19 12.57-3.72-3.45"/><path d="m17.85 17.52 3.18 3.96"/><path d="m21.03 21.48h5.08"/><path d="m21.42 20.67h4.3"/><path d="m29.3 17.52-3.19 3.96"/><g stroke="none"><path d="m30.74 3.41q-.27 0-.43.2-.16.2-.16.55 0 .35.16.55.16.2.43.2.27 0 .43-.2.16-.2.16-.55 0-.35-.16-.55-.16-.2-.43-.2zm0-.2q.39 0 .62.26.23.26.23.7 0 .44-.23.7-.23.26-.62.26-.39 0-.62-.26-.23-.26-.23-.7 0-.43.23-.7.23-.26.62-.26z"/><path d="m40.56 29.48h.33l.82 1.54v-1.54h.24v1.85h-.34l-.82-1.54v1.54h-.24v-1.85z" fill="#3050f8"/><path d="m38.94 29.48h.25v.76h.91v-.76h.25v1.85h-.25v-.88h-.91v.88h-.25z" fill="#3050f8"/><path d="m23.58 9.62q-.27 0-.43.2-.16.2-.16.55 0 .35.16.55.16.2.43.2.27 0 .43-.2.16-.2.16-.55 0-.35-.16-.55-.16-.2-.43-.2zm0-.21q.39 0 .62.26.23.26.23.7 0 .44-.23.7-.23.26-.62.26-.39 0-.62-.26-.23-.26-.23-.7 0-.43.23-.7.23-.26.62-.26z"/><path d="m4.43 16.28q-.27 0-.43.2-.16.2-.16.55 0 .35.16.55.16.2.43.2.27 0 .43-.2.16-.2.16-.55 0-.35-.16-.55-.16-.2-.43-.2zm0-.2q.39 0 .62.26.23.26.23.7 0 .44-.23.7-.23.26-.62.26-.39 0-.62-.26-.23-.26-.23-.7 0-.43.23-.7.23-.26.62-.26z"/><path d="m6.72 6.39q-.27 0-.43.2-.16.2-.16.55 0 .35.16.55.16.2.43.2.27 0 .43-.2.16-.2.16-.55 0-.35-.16-.55-.16-.2-.43-.2zm0-.21q.39 0 .62.26.23.26.23.7 0 .44-.23.7-.23.26-.62.26-.39 0-.62-.26-.23-.26-.23-.7 0-.43.23-.7.23-.26.62-.26z"/></g></g></svg>